  0
SECTION
  2
HEADER
  9
$ACADVER
  1
AC1015
  9
$ACADMAINTVER
 70
     6
  9
$DWGCODEPAGE
  3
ANSI_1252
  9
$INSBASE
 10
0.0
 20
0.0
 30
0.0
  9
$EXTMIN
 10
-25.5
 20
-4.15
 30
0.0
  9
$EXTMAX
 10
20.5
 20
10.0
 30
0.0
  9
$LIMMIN
 10
0.0
 20
0.0
  9
$LIMMAX
 10
420.0
 20
297.0
  9
$ORTHOMODE
 70
     0
  9
$REGENMODE
 70
     1
  9
$FILLMODE
 70
     1
  9
$QTEXTMODE
 70
     0
  9
$MIRRTEXT
 70
     1
  9
$LTSCALE
 40
1.0
  9
$ATTMODE
 70
     1
  9
$TEXTSIZE
 40
3.5
  9
$TRACEWID
 40
1.0
  9
$TEXTSTYLE
  7
Standard
  9
$CLAYER
  8
0
  9
$CELTYPE
  6
ByLayer
  9
$CECOLOR
 62
   256
  9
$CELTSCALE
 40
1.0
  9
$DISPSILH
 70
     0
  9
$DIMSCALE
 40
1.0
  9
$DIMASZ
 40
3.302
  9
$DIMEXO
 40
0.0
  9
$DIMDLI
 40
3.75
  9
$DIMRND
 40
0.0
  9
$DIMDLE
 40
0.0
  9
$DIMEXE
 40
1.0
  9
$DIMTP
 40
0.0
  9
$DIMTM
 40
0.0
  9
$DIMTXT
 40
3.5
  9
$DIMCEN
 40
2.5
  9
$DIMTSZ
 40
0.0
  9
$DIMTOL
 70
     0
  9
$DIMLIM
 70
     0
  9
$DIMTIH
 70
     1
  9
$DIMTOH
 70
     1
  9
$DIMSE1
 70
     0
  9
$DIMSE2
 70
     0
  9
$DIMTAD
 70
     1
  9
$DIMZIN
 70
     1
  9
$DIMBLK
  1

  9
$DIMASO
 70
     1
  9
$DIMSHO
 70
     1
  9
$DIMPOST
  1

  9
$DIMAPOST
  1

  9
$DIMALT
 70
     0
  9
$DIMALTD
 70
     3
  9
$DIMALTF
 40
0.0393700787
  9
$DIMLFAC
 40
1.0
  9
$DIMTOFL
 70
     1
  9
$DIMTVP
 40
0.0
  9
$DIMTIX
 70
     0
  9
$DIMSOXD
 70
     0
  9
$DIMSAH
 70
     0
  9
$DIMBLK1
  1

  9
$DIMBLK2
  1

  9
$DIMSTYLE
  2
ISO-25
  9
$DIMCLRD
 70
     0
  9
$DIMCLRE
 70
     0
  9
$DIMCLRT
 70
     0
  9
$DIMTFAC
 40
1.0
  9
$DIMGAP
 40
1.524
  9
$DIMJUST
 70
     0
  9
$DIMSD1
 70
     0
  9
$DIMSD2
 70
     0
  9
$DIMTOLJ
 70
     0
  9
$DIMTZIN
 70
     1
  9
$DIMALTZ
 70
     0
  9
$DIMALTTZ
 70
     0
  9
$DIMUPT
 70
     0
  9
$DIMDEC
 70
     2
  9
$DIMTDEC
 70
     2
  9
$DIMALTU
 70
     2
  9
$DIMALTTD
 70
     3
  9
$DIMTXSTY
  7
Standard
  9
$DIMAUNIT
 70
     0
  9
$DIMADEC
 70
     2
  9
$DIMALTRND
 40
0.0
  9
$DIMAZIN
 70
     0
  9
$DIMDSEP
 70
    44
  9
$DIMATFIT
 70
     3
  9
$DIMFRAC
 70
     0
  9
$DIMLDRBLK
  1

  9
$DIMLUNIT
 70
     2
  9
$DIMLWD
 70
    -2
  9
$DIMLWE
 70
    -2
  9
$DIMTMOVE
 70
     0
  9
$LUNITS
 70
     2
  9
$LUPREC
 70
     2
  9
$SKETCHINC
 40
1.0
  9
$FILLETRAD
 40
0.0
  9
$AUNITS
 70
     0
  9
$AUPREC
 70
     2
  9
$MENU
  1
.
  9
$ELEVATION
 40
0.0
  9
$PELEVATION
 40
0.0
  9
$THICKNESS
 40
0.0
  9
$LIMCHECK
 70
     0
  9
$CHAMFERA
 40
0.0
  9
$CHAMFERB
 40
0.0
  9
$CHAMFERC
 40
0.0
  9
$CHAMFERD
 40
0.0
  9
$SKPOLY
 70
     0
  9
$TDCREATE
 40
2460584.970193843
  9
$TDUCREATE
 40
2460584.678527176
  9
$TDUPDATE
 40
2460584.970283843
  9
$TDUUPDATE
 40
2460584.678617176
  9
$TDINDWG
 40
0.0000000116
  9
$TDUSRTIMER
 40
0.0000000116
  9
$USRTIMER
 70
     1
  9
$ANGBASE
 50
0.0
  9
$ANGDIR
 70
     0
  9
$PDMODE
 70
     0
  9
$PDSIZE
 40
-1.0
  9
$PLINEWID
 40
0.0
  9
$SPLFRAME
 70
     0
  9
$SPLINETYPE
 70
     6
  9
$SPLINESEGS
 70
     8
  9
$HANDSEED
  5
18C
  9
$SURFTAB1
 70
     6
  9
$SURFTAB2
 70
     6
  9
$SURFTYPE
 70
     6
  9
$SURFU
 70
     6
  9
$SURFV
 70
     6
  9
$UCSBASE
  2

  9
$UCSNAME
  2

  9
$UCSORG
 10
0.0
 20
0.0
 30
0.0
  9
$UCSXDIR
 10
1.0
 20
0.0
 30
0.0
  9
$UCSYDIR
 10
0.0
 20
1.0
 30
0.0
  9
$UCSORTHOREF
  2

  9
$UCSORTHOVIEW
 70
     0
  9
$UCSORGTOP
 10
0.0
 20
0.0
 30
0.0
  9
$UCSORGBOTTOM
 10
0.0
 20
0.0
 30
0.0
  9
$UCSORGLEFT
 10
0.0
 20
0.0
 30
0.0
  9
$UCSORGRIGHT
 10
0.0
 20
0.0
 30
0.0
  9
$UCSORGFRONT
 10
0.0
 20
0.0
 30
0.0
  9
$UCSORGBACK
 10
0.0
 20
0.0
 30
0.0
  9
$PUCSBASE
  2

  9
$PUCSNAME
  2

  9
$PUCSORG
 10
0.0
 20
0.0
 30
0.0
  9
$PUCSXDIR
 10
1.0
 20
0.0
 30
0.0
  9
$PUCSYDIR
 10
0.0
 20
1.0
 30
0.0
  9
$PUCSORTHOREF
  2

  9
$PUCSORTHOVIEW
 70
     0
  9
$PUCSORGTOP
 10
0.0
 20
0.0
 30
0.0
  9
$PUCSORGBOTTOM
 10
0.0
 20
0.0
 30
0.0
  9
$PUCSORGLEFT
 10
0.0
 20
0.0
 30
0.0
  9
$PUCSORGRIGHT
 10
0.0
 20
0.0
 30
0.0
  9
$PUCSORGFRONT
 10
0.0
 20
0.0
 30
0.0
  9
$PUCSORGBACK
 10
0.0
 20
0.0
 30
0.0
  9
$USERI1
 70
     0
  9
$USERI2
 70
     0
  9
$USERI3
 70
     0
  9
$USERI4
 70
     0
  9
$USERI5
 70
     0
  9
$USERR1
 40
0.0
  9
$USERR2
 40
0.0
  9
$USERR3
 40
0.0
  9
$USERR4
 40
0.0
  9
$USERR5
 40
0.0
  9
$WORLDVIEW
 70
     1
  9
$SHADEDGE
 70
     3
  9
$SHADEDIF
 70
    70
  9
$TILEMODE
 70
     1
  9
$MAXACTVP
 70
    64
  9
$PINSBASE
 10
0.0
 20
0.0
 30
0.0
  9
$PLIMCHECK
 70
     0
  9
$PEXTMIN
 10
15.0
 20
-4.15
 30
0.0
  9
$PEXTMAX
 10
25.0
 20
10.0
 30
0.0
  9
$PLIMMIN
 10
13.5487179487
 20
-4.6942307692
  9
$PLIMMAX
 10
35.1002564103
 20
10.5442307692
  9
$UNITMODE
 70
     0
  9
$VISRETAIN
 70
     1
  9
$PLINEGEN
 70
     0
  9
$PSLTSCALE
 70
     1
  9
$TREEDEPTH
 70
  3020
  9
$CMLSTYLE
  2
Standard
  9
$CMLJUST
 70
     0
  9
$CMLSCALE
 40
20.0
  9
$PROXYGRAPHICS
 70
     1
  9
$MEASUREMENT
 70
     1
  9
$CELWEIGHT
370
    -1
  9
$ENDCAPS
280
     0
  9
$JOINSTYLE
280
     0
  9
$LWDISPLAY
290
     1
  9
$INSUNITS
 70
     4
  9
$HYPERLINKBASE
  1

  9
$STYLESHEET
  1

  9
$XEDIT
290
     1
  9
$CEPSNTYPE
380
     0
  9
$PSTYLEMODE
290
     1
  9
$FINGERPRINTGUID
  2
{210fc461-1626-47e7-bbea-16abaf0e1a23}
  9
$VERSIONGUID
  2
{FAEB1C32-E019-11D5-929B-00C0DF256EC4}
  9
$EXTNAMES
290
     1
  9
$PSVPSCALE
 40
0.0
  9
$OLESTARTUP
290
     0
  0
ENDSEC
  0
SECTION
  2
CLASSES
  0
CLASS
  1
ACDBDICTIONARYWDFLT
  2
AcDbDictionaryWithDefault
  3
ObjectDBX Classes
 90
        0
280
     0
281
     0
  0
CLASS
  1
VISUALSTYLE
  2
AcDbVisualStyle
  3
ObjectDBX Classes
 90
     4095
280
     0
281
     0
  0
CLASS
  1
MATERIAL
  2
AcDbMaterial
  3
ObjectDBX Classes
 90
     1153
280
     0
281
     0
  0
CLASS
  1
SCALE
  2
AcDbScale
  3
ObjectDBX Classes
 90
     1153
280
     0
281
     0
  0
CLASS
  1
TABLESTYLE
  2
AcDbTableStyle
  3
ObjectDBX Classes
 90
     4095
280
     0
281
     0
  0
CLASS
  1
MLEADERSTYLE
  2
AcDbMLeaderStyle
  3
ACDB_MLEADERSTYLE_CLASS
 90
     4095
280
     0
281
     0
  0
CLASS
  1
SUN
  2
AcDbSun
  3
SCENEOE
 90
     1153
280
     0
281
     0
  0
CLASS
  1
ACDBPLACEHOLDER
  2
AcDbPlaceHolder
  3
ObjectDBX Classes
 90
        0
280
     0
281
     0
  0
CLASS
  1
LAYOUT
  2
AcDbLayout
  3
ObjectDBX Classes
 90
        0
280
     0
281
     0
  0
ENDSEC
  0
SECTION
  2
TABLES
  0
TABLE
  2
VPORT
  5
8
330
0
100
AcDbSymbolTable
 70
     1
  0
VPORT
  5
29
330
8
100
AcDbSymbolTableRecord
100
AcDbViewportTableRecord
  2
*Active
 70
     0
 10
0.0
 20
0.0
 11
1.0
 21
1.0
 12
-2.5
 22
2.925
 13
0.0
 23
0.0
 14
10.0
 24
10.0
 15
10.0
 25
10.0
 16
0.0
 26
0.0
 36
1.0
 17
0.0
 27
0.0
 37
0.0
 40
14.433
 41
3.2508833922
 42
50.0
 43
0.0
 44
0.0
 50
0.0
 51
0.0
 71
     0
 72
   100
 73
     1
 74
     3
 75
     0
 76
     0
 77
     0
 78
     0
281
     0
 65
     1
110
0.0
120
0.0
130
0.0
111
1.0
121
0.0
131
0.0
112
0.0
122
1.0
132
0.0
 79
     0
146
0.0
  0
ENDTAB
  0
TABLE
  2
LTYPE
  5
5
330
0
100
AcDbSymbolTable
 70
     6
  0
LTYPE
  5
14
330
5
100
AcDbSymbolTableRecord
100
AcDbLinetypeTableRecord
  2
ByBlock
 70
     0
  3

 72
    65
 73
     0
 40
0.0
  0
LTYPE
  5
15
330
5
100
AcDbSymbolTableRecord
100
AcDbLinetypeTableRecord
  2
ByLayer
 70
     0
  3

 72
    65
 73
     0
 40
0.0
  0
LTYPE
  5
16
330
5
100
AcDbSymbolTableRecord
100
AcDbLinetypeTableRecord
  2
Continuous
 70
     0
  3
Solid line
 72
    65
 73
     0
 40
0.0
  0
LTYPE
  5
5E
330
5
100
AcDbSymbolTableRecord
100
AcDbLinetypeTableRecord
  2
HIDDEN
 70
     0
  3
Hidden __ __ __ __ __ __ __ __ __ __ __ __ __ __
 72
    65
 73
     2
 40
1.905
 49
1.27
 74
     0
 49
-0.635
 74
     0
  0
LTYPE
  5
5F
330
5
100
AcDbSymbolTableRecord
100
AcDbLinetypeTableRecord
  2
PHANTOM
 70
     0
  3
Phantom ______  __  __  ______  __  __  ______
 72
    65
 73
     6
 40
12.7
 49
6.35
 74
     0
 49
-1.27
 74
     0
 49
1.27
 74
     0
 49
-1.27
 74
     0
 49
1.27
 74
     0
 49
-1.27
 74
     0
  0
LTYPE
  5
60
330
5
100
AcDbSymbolTableRecord
100
AcDbLinetypeTableRecord
  2
CENTER
 70
     0
  3
Center ____ _ ____ _ ____ _ ____ _ ____ _ ____
 72
    65
 73
     4
 40
10.16
 49
6.35
 74
     0
 49
-1.27
 74
     0
 49
1.27
 74
     0
 49
-1.27
 74
     0
  0
LTYPE
  5
61
330
5
100
AcDbSymbolTableRecord
100
AcDbLinetypeTableRecord
  2
CENTERX2
 70
     0
  3
Center (2x) ________  __  ________  __  _____
 72
    65
 73
     4
 40
20.32
 49
12.7
 74
     0
 49
-2.54
 74
     0
 49
2.54
 74
     0
 49
-2.54
 74
     0
  0
LTYPE
  5
62
330
5
100
AcDbSymbolTableRecord
100
AcDbLinetypeTableRecord
  2
DOT2
 70
     0
  3
Dot (.5x) ........................................
 72
    65
 73
     2
 40
0.635
 49
0.0
 74
     0
 49
-0.635
 74
     0
  0
ENDTAB
  0
TABLE
  2
LAYER
  5
2
330
0
100
AcDbSymbolTable
 70
     1
  0
LAYER
  5
10
330
2
100
AcDbSymbolTableRecord
100
AcDbLayerTableRecord
  2
0
 70
     0
 62
     7
  6
Continuous
370
    -3
390
F
  0
ENDTAB
  0
TABLE
  2
STYLE
  5
3
330
0
100
AcDbSymbolTable
 70
     1
  0
STYLE
  5
11
330
3
100
AcDbSymbolTableRecord
100
AcDbTextStyleTableRecord
  2
Standard
 70
     0
 40
0.0
 41
1.0
 50
0.0
 71
     0
 42
3.5
  3
txt
  4

  0
ENDTAB
  0
TABLE
  2
VIEW
  5
6
330
0
100
AcDbSymbolTable
 70
     0
  0
ENDTAB
  0
TABLE
  2
UCS
  5
7
330
0
100
AcDbSymbolTable
 70
     0
  0
ENDTAB
  0
TABLE
  2
APPID
  5
9
330
0
100
AcDbSymbolTable
 70
     1
  0
APPID
  5
12
330
9
100
AcDbSymbolTableRecord
100
AcDbRegAppTableRecord
  2
ACAD
 70
     0
  0
ENDTAB
  0
TABLE
  2
DIMSTYLE
  5
A
330
0
100
AcDbSymbolTable
 70
     1
100
AcDbDimStyleTable
  0
DIMSTYLE
105
27
330
A
100
AcDbSymbolTableRecord
100
AcDbDimStyleTableRecord
  2
ISO-25
 70
     0
 41
2.5
 42
0.625
 43
3.75
 44
1.25
 73
     0
 74
     0
 77
     1
 78
     8
140
2.5
141
2.5
143
0.0393700787
147
0.625
171
     3
172
     1
178
     0
271
     2
272
     2
274
     3
278
    44
283
     0
284
     8
340
11
  0
ENDTAB
  0
TABLE
  2
BLOCK_RECORD
  5
1
330
0
100
AcDbSymbolTable
 70
     2
  0
BLOCK_RECORD
  5
1F
330
1
100
AcDbSymbolTableRecord
100
AcDbBlockTableRecord
  2
*Model_Space
340
22
  0
BLOCK_RECORD
  5
1B
330
1
100
AcDbSymbolTableRecord
100
AcDbBlockTableRecord
  2
*Paper_Space
340
1E
  0
BLOCK_RECORD
  5
23
330
1
100
AcDbSymbolTableRecord
100
AcDbBlockTableRecord
  2
*Paper_Space0
340
26
  0
BLOCK_RECORD
  5
F1
330
1
100
AcDbSymbolTableRecord
100
AcDbBlockTableRecord
  2
*Paper_Space1
340
F2
  0
ENDTAB
  0
ENDSEC
  0
SECTION
  2
BLOCKS
  0
BLOCK
  5
20
330
1F
100
AcDbEntity
  8
0
100
AcDbBlockBegin
  2
*Model_Space
 70
     0
 10
0.0
 20
0.0
 30
0.0
  3
*Model_Space
  1

  0
ENDBLK
  5
21
330
1F
100
AcDbEntity
  8
0
100
AcDbBlockEnd
  0
BLOCK
  5
1C
330
1B
100
AcDbEntity
 67
     1
  8
0
100
AcDbBlockBegin
  2
*Paper_Space
 70
     0
 10
0.0
 20
0.0
 30
0.0
  3
*Paper_Space
  1

  0
ENDBLK
  5
1D
330
1B
100
AcDbEntity
 67
     1
  8
0
100
AcDbBlockEnd
  0
BLOCK
  5
24
330
23
100
AcDbEntity
  8
0
100
AcDbBlockBegin
  2
*Paper_Space0
 70
     0
 10
0.0
 20
0.0
 30
0.0
  3
*Paper_Space0
  1

  0
CIRCLE
  5
D4
330
23
100
AcDbEntity
  8
0
  6
Continuous
 62
     7
370
    25
100
AcDbCircle
 10
12.0
 20
20.0
 30
0.0
 40
1.550000000000008
  0
CIRCLE
  5
D5
330
23
100
AcDbEntity
  8
0
  6
Continuous
 62
     7
370
    25
100
AcDbCircle
 10
-12.0
 20
20.0
 30
0.0
 40
1.550000000000001
  0
SPLINE
  5
D8
330
23
100
AcDbEntity
  8
0
  6
Continuous
 62
     7
370
    25
100
AcDbSpline
210
0.0
220
0.0
230
1.0
 70
     8
 71
     3
 72
    10
 73
     6
 74
     0
 42
0.00000001
 43
0.00000001
 40
0.0
 40
0.0
 40
0.0
 40
0.0
 40
0.5
 40
0.5
 40
1.0
 40
1.0
 40
1.0
 40
1.0
 10
-22.10000000000001
 20
22.0
 30
0.0
 10
-22.20391150741992
 20
22.0
 30
0.0
 10
-22.30759988229863
 20
21.95756437765246
 30
0.0
 10
-22.45610313433196
 20
21.81009653261146
 30
0.0
 10
-22.50000000000002
 20
21.70607374065315
 30
0.0
 10
-22.50000000000001
 20
21.6
 30
0.0
  0
SPLINE
  5
DA
330
23
100
AcDbEntity
  8
0
  6
Continuous
 62
     7
370
    25
100
AcDbSpline
210
0.0
220
0.0
230
1.0
 70
     8
 71
     3
 72
    12
 73
     8
 74
     0
 42
0.00000001
 43
0.00000001
 40
0.0
 40
0.0
 40
0.0
 40
0.0
 40
0.2499999999999988
 40
0.2499999999999988
 40
0.4999999999999977
 40
0.4999999999999977
 40
1.0
 40
1.0
 40
1.0
 40
1.0
 10
-20.90000000000002
 20
22.0
 30
0.0
 10
-20.83136681106033
 20
22.00000000000001
 30
0.0
 10
-20.77238322273633
 20
21.98330312122006
 30
0.0
 10
-20.67099351354366
 20
21.93281128847609
 30
0.0
 10
-20.62977168767296
 20
21.89910497832651
 30
0.0
 10
-20.53201770936321
 20
21.7858428076333
 30
0.0
 10
-20.50000000000001
 20
21.69215004040015
 30
0.0
 10
-20.50000000000001
 20
21.6
 30
0.0
  0
SPLINE
  5
DD
330
23
100
AcDbEntity
  8
0
  6
Continuous
 62
     7
370
    25
100
AcDbSpline
210
0.0
220
0.0
230
1.0
 70
     8
 71
     3
 72
    10
 73
     6
 74
     0
 42
0.00000001
 43
0.00000001
 40
0.0
 40
0.0
 40
0.0
 40
0.0
 40
0.5
 40
0.5
 40
1.0
 40
1.0
 40
1.0
 40
1.0
 10
-22.5
 20
18.4
 30
0.0
 10
-22.49999999999999
 20
18.29392310101248
 30
0.0
 10
-22.45625132900451
 20
18.19016259348812
 30
0.0
 10
-22.30788195058269
 20
18.04260408338785
 30
0.0
 10
-22.203926650398
 20
18.0
 30
0.0
 10
-22.10000000000001
 20
18.0
 30
0.0
  0
SPLINE
  5
DF
330
23
100
AcDbEntity
  8
0
  6
Continuous
 62
     7
370
    25
100
AcDbSpline
210
0.0
220
0.0
230
1.0
 70
     8
 71
     3
 72
    12
 73
     8
 74
     0
 42
0.00000001
 43
0.00000001
 40
0.0
 40
0.0
 40
0.0
 40
0.0
 40
0.2499999999999988
 40
0.2499999999999988
 40
0.4999999999999976
 40
0.4999999999999976
 40
1.0
 40
1.0
 40
1.0
 40
1.0
 10
-20.90000000000002
 20
18.0
 30
0.0
 10
-20.83136681106033
 20
18.00000000000001
 30
0.0
 10
-20.77238322273633
 20
18.01669687877994
 30
0.0
 10
-20.67099351354366
 20
18.06718871152392
 30
0.0
 10
-20.62977168767295
 20
18.1008950216735
 30
0.0
 10
-20.53201770936321
 20
18.21415719236671
 30
0.0
 10
-20.50000000000001
 20
18.30784995959993
 30
0.0
 10
-20.50000000000001
 20
18.4
 30
0.0
  0
LINE
  5
E7
330
23
100
AcDbEntity
  8
0
  6
Continuous
 62
     7
370
    25
100
AcDbLine
 10
20.5
 20
15.0
 30
0.0
 11
-23.9
 21
15.0
 31
0.0
  0
LINE
  5
E8
330
23
100
AcDbEntity
  8
0
  6
Continuous
 62
     7
370
    25
100
AcDbLine
 10
-20.5
 20
15.0
 30
0.0
 11
-20.5
 21
25.0
 31
0.0
  0
LINE
  5
E9
330
23
100
AcDbEntity
  8
0
  6
Continuous
 62
     7
370
    25
100
AcDbLine
 10
20.5
 20
25.0
 30
0.0
 11
-23.9
 21
25.0
 31
0.0
  0
LINE
  5
EA
330
23
100
AcDbEntity
  8
0
  6
Continuous
 62
     7
370
    25
100
AcDbLine
 10
20.5
 20
15.0
 30
0.0
 11
20.5
 21
25.0
 31
0.0
  0
LINE
  5
EB
330
23
100
AcDbEntity
  8
0
  6
Continuous
 62
     7
370
    25
100
AcDbLine
 10
-20.9
 20
22.0
 30
0.0
 11
-22.1
 21
22.0
 31
0.0
  0
LINE
  5
EC
330
23
100
AcDbEntity
  8
0
  6
Continuous
 62
     7
370
    25
100
AcDbLine
 10
-22.5
 20
15.0
 30
0.0
 11
-22.5
 21
25.0
 31
0.0
  0
LINE
  5
ED
330
23
100
AcDbEntity
  8
0
  6
Continuous
 62
     7
370
    25
100
AcDbLine
 10
-22.1
 20
18.0
 30
0.0
 11
-20.9
 21
18.0
 31
0.0
  0
LINE
  5
EE
330
23
100
AcDbEntity
  8
0
  6
Continuous
 62
     7
370
    25
100
AcDbLine
 10
-23.9
 20
15.0
 30
0.0
 11
-25.5
 21
16.6
 31
0.0
  0
LINE
  5
EF
330
23
100
AcDbEntity
  8
0
  6
Continuous
 62
     7
370
    25
100
AcDbLine
 10
-25.5
 20
16.6
 30
0.0
 11
-25.5
 21
23.4
 31
0.0
  0
LINE
  5
F0
330
23
100
AcDbEntity
  8
0
  6
Continuous
 62
     7
370
    25
100
AcDbLine
 10
-25.5
 20
23.4
 30
0.0
 11
-23.9
 21
25.0
 31
0.0
  0
VIEWPORT
  5
187
330
23
100
AcDbEntity
  8
0
100
AcDbViewport
 10
0.0
 20
0.0
 30
0.0
 40
205.6
 41
156.0
 68
     1
 69
     1
 12
-2.5
 22
2.925
 13
0.0
 23
0.0
 14
10.0
 24
10.0
 15
10.0
 25
10.0
 16
0.0
 26
0.0
 36
1.0
 17
0.0
 27
0.0
 37
0.0
 42
50.0
 43
0.0
 44
0.0
 45
35.6007782101
 50
0.0
 51
0.0
 72
   100
 90
   557152
  1

281
     0
 71
     1
 74
     0
110
0.0
120
0.0
130
0.0
111
1.0
121
0.0
131
0.0
112
0.0
122
1.0
132
0.0
 79
     0
146
0.0
  0
ENDBLK
  5
25
330
23
100
AcDbEntity
  8
0
100
AcDbBlockEnd
  0
BLOCK
  5
F3
330
F1
100
AcDbEntity
  8
0
100
AcDbBlockBegin
  2
*Paper_Space1
 70
     0
 10
0.0
 20
0.0
 30
0.0
  3
*Paper_Space1
  1

  0
LWPOLYLINE
  5
101
330
F1
100
AcDbEntity
  8
0
  6
Continuous
 62
     7
370
    25
100
AcDbPolyline
 90
        9
 70
   128
 43
0.0
 10
21.7528616336
 20
-1.6181350685
 10
21.7135553706
 20
-1.6160097253
 10
21.6774158048
 20
-1.6223779166
 10
21.6452841562
 20
-1.6370914101
 10
21.6179083525
 20
-1.6598077202
 10
21.5959256197
 20
-1.6899980798
 10
21.5798476494
 20
-1.7269597485
 10
21.5700486881
 20
-1.7698323704
 10
21.5667568262
 20
-1.8176180002
  0
LWPOLYLINE
  5
120
330
F1
100
AcDbEntity
  8
0
  6
Continuous
 62
     7
370
    25
100
AcDbPolyline
 90
       11
 70
   128
 43
0.0
 10
13.9123259198
 20
5.8477885011
 10
14.0782497264
 20
5.7670821849
 10
14.2400879382
 20
5.7185220433
 10
14.3938555613
 20
5.7033037879
 10
14.5357663265
 20
5.7218021428
 10
14.6623259198
 20
5.773561617
 10
14.7704180241
 20
5.8573077206
 10
14.8573810528
 20
5.9709783465
 10
14.9210736878
 20
6.1117745466
 10
14.9599276048
 20
6.2762294513
 10
14.9729860916
 20
6.460293635
  0
LWPOLYLINE
  5
124
330
F1
100
AcDbEntity
  8
0
  6
Continuous
 62
     7
370
    25
100
AcDbPolyline
 90
       11
 70
   128
 43
0.0
 10
7.3008775158
 20
14.5637412951
 10
7.1349537092
 20
14.6444476113
 10
6.9731154974
 20
14.6930077529
 10
6.8193478743
 20
14.7082260083
 10
6.6774371091
 20
14.6897276534
 10
6.5508775158
 20
14.6379681792
 10
6.4427854115
 20
14.5542220756
 10
6.3558223827
 20
14.4405514497
 10
6.2921297478
 20
14.2997552496
 10
6.2532758308
 20
14.1353003449
 10
6.240217344
 20
13.9512361612
  0
LWPOLYLINE
  5
129
330
F1
100
AcDbEntity
  8
0
  6
Continuous
 62
     7
370
    25
100
AcDbPolyline
 90
       43
 70
   128
 43
0.0
 10
21.5314014871
 20
10.7983242795
 10
21.7069957103
 20
10.7110897284
 10
21.9031506241
 20
10.6399376894
 10
22.1154844519
 20
10.5864575814
 10
22.3392540069
 20
10.5518440616
 10
22.5694606468
 20
10.5368703389
 10
22.8009619359
 20
10.5418709016
 10
23.0285865179
 20
10.5667340452
 10
23.2472496357
 20
10.6109043683
 10
23.4520667166
 20
10.6733951788
 10
23.6384624855
 20
10.7528105352
 10
23.8022731688
 20
10.8473764299
 10
23.9398395068
 20
10.9549804168
 10
24.0480884946
 20
11.0732188009
 10
24.1246020287
 20
11.1994503318
 10
24.1676709233
 20
11.330855206
 10
24.1763330904
 20
11.4644980555
 10
24.1503950315
 20
11.59739352
 10
24.0904361599
 20
11.7265729344
 10
23.9977958579
 20
11.849150644
 10
23.8745435566
 20
11.9623884654
 10
23.7234325088
 20
12.0637568528
 10
23.5478382856
 20
12.1509914039
 10
23.3516833718
 20
12.2221434429
 10
23.139349544
 20
12.2756235509
 10
22.9155799891
 20
12.3102370707
 10
22.6853733491
 20
12.3252107934
 10
22.45387206
 20
12.3202102307
 10
22.2262474781
 20
12.2953470871
 10
22.0075843603
 20
12.251176764
 10
21.8027672794
 20
12.1886859535
 10
21.6163715105
 20
12.1092705971
 10
21.4525608271
 20
12.0147047024
 10
21.3149944892
 20
11.9071007155
 10
21.2067455014
 20
11.7888623314
 10
21.1302319672
 20
11.6626308005
 10
21.0871630726
 20
11.5312259263
 10
21.0785009055
 20
11.3975830768
 10
21.1044389645
 20
11.2646876123
 10
21.164397836
 20
11.1355081979
 10
21.257038138
 20
11.0129304883
 10
21.3802904393
 20
10.8996926669
 10
21.5314014871
 20
10.7983242795
  0
LWPOLYLINE
  5
12A
330
F1
100
AcDbEntity
  8
0
  6
Continuous
 62
     7
370
    25
100
AcDbPolyline
 90
       43
 70
   128
 43
0.0
 10
4.5608387387
 20
20.5952216214
 10
4.7364329619
 20
20.5079870703
 10
4.9325878757
 20
20.4368350313
 10
5.1449217035
 20
20.3833549233
 10
5.3686912584
 20
20.3487414035
 10
5.5988978984
 20
20.3337676808
 10
5.8303991875
 20
20.3387682434
 10
6.0580237694
 20
20.3636313871
 10
6.2766868872
 20
20.4078017101
 10
6.4815039681
 20
20.4702925206
 10
6.667899737
 20
20.5497078771
 10
6.8317104204
 20
20.6442737717
 10
6.9692767583
 20
20.7518777587
 10
7.0775257461
 20
20.8701161427
 10
7.1540392802
 20
20.9963476737
 10
7.1971081748
 20
21.1277525478
 10
7.2057703419
 20
21.2613953974
 10
7.179832283
 20
21.3942908619
 10
7.1198734115
 20
21.5234702763
 10
7.0272331094
 20
21.6460479859
 10
6.9039808081
 20
21.7592858073
 10
6.7528697603
 20
21.8606541947
 10
6.5772755371
 20
21.9478887457
 10
6.3811206233
 20
22.0190407848
 10
6.1687867955
 20
22.0725208928
 10
5.9450172406
 20
22.1071344125
 10
5.7148106006
 20
22.1221081352
 10
5.4833093115
 20
22.1171075726
 10
5.2556847296
 20
22.092244429
 10
5.0370216118
 20
22.0480741059
 10
4.8322045309
 20
21.9855832954
 10
4.645808762
 20
21.9061679389
 10
4.4819980786
 20
21.8116020443
 10
4.3444317407
 20
21.7039980573
 10
4.2361827529
 20
21.5857596733
 10
4.1596692187
 20
21.4595281423
 10
4.1166003242
 20
21.3281232682
 10
4.1079381571
 20
21.1944804187
 10
4.133876216
 20
21.0615849542
 10
4.1938350875
 20
20.9324055398
 10
4.2864753896
 20
20.8098278301
 10
4.4097276909
 20
20.6965900087
 10
4.5608387387
 20
20.5952216214
  0
LINE
  5
140
330
F1
100
AcDbEntity
  8
0
  6
Continuous
 62
     7
370
    25
100
AcDbLine
 10
24.8951433173
 20
-4.4585298595
 30
0.0
 11
31.9662111291
 21
-0.3764893004
 31
0.0
  0
LINE
  5
141
330
F1
100
AcDbEntity
  8
0
  6
Continuous
 62
     7
370
    25
100
AcDbLine
 10
22.8470642722
 20
-0.9432077842
 30
0.0
 11
21.6496157921
 21
-1.6344800776
 31
0.0
  0
LINE
  5
142
330
F1
100
AcDbEntity
  8
0
  6
Continuous
 62
     7
370
    25
100
AcDbLine
 10
25.1022907321
 20
5.9202858113
 30
0.0
 11
32.173358544
 21
10.0023263705
 31
0.0
  0
LINE
  5
143
330
F1
100
AcDbEntity
  8
0
  6
Continuous
 62
     7
370
    25
100
AcDbLine
 10
32.173358544
 20
0.081355506
 30
0.0
 11
32.173358544
 21
10.0023263705
 31
0.0
  0
LINE
  5
144
330
F1
100
AcDbEntity
  8
0
  6
Continuous
 62
     7
370
    25
100
AcDbLine
 10
25.1022907321
 20
-4.0006850531
 30
0.0
 11
32.173358544
 21
0.081355506
 31
0.0
  0
LINE
  5
145
330
F1
100
AcDbEntity
  8
0
  6
Continuous
 62
     7
370
    25
100
AcDbLine
 10
25.1022907321
 20
-4.0006850531
 30
0.0
 11
25.1022907321
 21
5.9202858113
 31
0.0
  0
LINE
  5
146
330
F1
100
AcDbEntity
  8
0
  6
Continuous
 62
     7
370
    25
100
AcDbLine
 10
17.0943064352
 20
8.0935743089
 30
0.0
 11
21.0894597489
 21
5.787221393
 31
0.0
  0
LINE
  5
147
330
F1
100
AcDbEntity
  8
0
  6
Continuous
 62
     7
370
    25
100
AcDbLine
 10
17.0943064352
 20
5.970568198
 30
0.0
 11
17.0943064352
 21
8.0935743089
 31
0.0
  0
LINE
  5
148
330
F1
100
AcDbEntity
  8
0
  6
Continuous
 62
     7
370
    25
100
AcDbLine
 10
17.0943064352
 20
5.970568198
 30
0.0
 11
21.0894597489
 21
3.6642152821
 31
0.0
  0
LINE
  5
149
330
F1
100
AcDbEntity
  8
0
  6
Continuous
 62
     7
370
    25
100
AcDbLine
 10
21.0894597489
 20
3.6642152821
 30
0.0
 11
21.0894597489
 21
5.787221393
 31
0.0
  0
LINE
  5
14A
330
F1
100
AcDbEntity
  8
0
  6
Continuous
 62
     7
370
    25
100
AcDbLine
 10
21.5667568262
 20
-1.8176180002
 30
0.0
 11
21.5667568262
 21
-2.4495892606
 31
0.0
  0
LINE
  5
14B
330
F1
100
AcDbEntity
  8
0
  6
Continuous
 62
     7
370
    25
100
AcDbLine
 10
22.627416998
 20
-1.7554300455
 30
0.0
 11
21.7528616336
 21
-1.6181350685
 31
0.0
  0
LINE
  5
14C
330
F1
100
AcDbEntity
  8
0
  6
Continuous
 62
     7
370
    25
100
AcDbLine
 10
22.9809703886
 20
-1.9595320734
 30
0.0
 11
22.627416998
 21
-1.7554300455
 31
0.0
  0
LINE
  5
14D
330
F1
100
AcDbEntity
  8
0
  6
Continuous
 62
     7
370
    25
100
AcDbLine
 10
22.9809703886
 20
-1.0205101398
 30
0.0
 11
22.9809703886
 21
-1.9595320734
 31
0.0
  0
LINE
  5
14E
330
F1
100
AcDbEntity
  8
0
  6
Continuous
 62
     7
370
    25
100
AcDbLine
 10
-1.4849242405
 20
13.1033501948
 30
0.0
 11
22.9809703886
 21
-1.0205101398
 31
0.0
  0
LINE
  5
14F
330
F1
100
AcDbEntity
  8
0
  6
Continuous
 62
     7
370
    25
100
AcDbLine
 10
-1.767766953
 20
18.6558011756
 30
0.0
 11
-1.767766953
 21
13.5932481419
 31
0.0
  0
LINE
  5
150
330
F1
100
AcDbEntity
  8
0
  6
Continuous
 62
     7
370
    25
100
AcDbLine
 10
-2.1920310217
 20
19.2273399339
 30
0.0
 11
-2.0506096654
 21
19.1456991227
 31
0.0
  0
LINE
  5
151
330
F1
100
AcDbEntity
  8
0
  6
Continuous
 62
     7
370
    25
100
AcDbLine
 10
-2.4748737342
 20
16.1244583087
 30
0.0
 11
-2.4748737342
 21
19.0640052315
 31
0.0
  0
LINE
  5
152
330
F1
100
AcDbEntity
  8
0
  6
Continuous
 62
     7
370
    25
100
AcDbLine
 10
-1.9798989873
 20
12.776687425
 30
0.0
 11
-1.9798989873
 21
13.3890930339
 31
0.0
  0
LINE
  5
153
330
F1
100
AcDbEntity
  8
0
  6
Continuous
 62
     7
370
    25
100
AcDbLine
 10
-0.7071067812
 20
11.7153037996
 30
0.0
 11
-1.6970562748
 21
12.2867894779
 31
0.0
  0
LINE
  5
154
330
F1
100
AcDbEntity
  8
0
  6
Continuous
 62
     7
370
    25
100
AcDbLine
 10
-0.7071067812
 20
10.8987629877
 30
0.0
 11
-0.7071067812
 21
11.7153037996
 31
0.0
  0
LINE
  5
155
330
F1
100
AcDbEntity
  8
0
  6
Continuous
 62
     7
370
    25
100
AcDbLine
 10
-2.1213203436
 20
10.0820894757
 30
0.0
 11
-0.7071067812
 21
10.8987629877
 31
0.0
  0
LINE
  5
156
330
F1
100
AcDbEntity
  8
0
  6
Continuous
 62
     7
370
    25
100
AcDbLine
 10
-6.2932503526
 20
12.4904934056
 30
0.0
 11
-2.1213203436
 21
10.0820894757
 31
0.0
  0
LINE
  5
157
330
F1
100
AcDbEntity
  8
0
  6
Continuous
 62
     7
370
    25
100
AcDbLine
 10
-6.2932503526
 20
16.2463688202
 30
0.0
 11
-6.2932503526
 21
12.4904934056
 31
0.0
  0
LINE
  5
158
330
F1
100
AcDbEntity
  8
0
  6
Continuous
 62
     7
370
    25
100
AcDbLine
 10
-5.3033008589
 20
14.368630163
 30
0.0
 11
-6.2932503526
 21
14.9401158413
 31
0.0
  0
LINE
  5
159
330
F1
100
AcDbEntity
  8
0
  6
Continuous
 62
     7
370
    25
100
AcDbLine
 10
-3.8890872965
 20
22.6566521037
 30
0.0
 11
-3.8890872965
 21
15.185303675
 31
0.0
  0
LINE
  5
15A
330
F1
100
AcDbEntity
  8
0
  6
Continuous
 62
     7
370
    25
100
AcDbLine
 10
25.1022907321
 20
5.9202858113
 30
0.0
 11
-3.8890872965
 21
22.6566521037
 31
0.0
  0
LINE
  5
15B
330
F1
100
AcDbEntity
  8
0
  6
Continuous
 62
     7
370
    25
100
AcDbLine
 10
21.8495995387
 20
-2.9394872078
 30
0.0
 11
24.3951839509
 21
-4.409021809
 31
0.0
  0
LINE
  5
15C
330
F1
100
AcDbEntity
  8
0
  6
Continuous
 62
     7
370
    25
100
AcDbLine
 10
4.1188970004
 20
13.461112624
 30
0.0
 11
4.1188970004
 21
15.5841187349
 31
0.0
  0
LINE
  5
15D
330
F1
100
AcDbEntity
  8
0
  6
Continuous
 62
     7
370
    25
100
AcDbLine
 10
0.1237436867
 20
17.8904716508
 30
0.0
 11
4.1188970004
 21
15.5841187349
 31
0.0
  0
LINE
  5
15E
330
F1
100
AcDbEntity
  8
0
  6
Continuous
 62
     7
370
    25
100
AcDbLine
 10
0.1237436867
 20
15.7674655399
 30
0.0
 11
0.1237436867
 21
17.8904716508
 31
0.0
  0
LINE
  5
15F
330
F1
100
AcDbEntity
  8
0
  6
Continuous
 62
     7
370
    25
100
AcDbLine
 10
0.1237436867
 20
15.7674655399
 30
0.0
 11
4.1188970004
 21
13.461112624
 31
0.0
  0
LINE
  5
160
330
F1
100
AcDbEntity
  8
0
  6
Continuous
 62
     7
370
    25
100
AcDbLine
 10
7.3008775158
 20
9.6644964238
 30
0.0
 11
13.9123259198
 21
5.8477885011
 31
0.0
  0
LINE
  5
161
330
F1
100
AcDbEntity
  8
0
  6
Continuous
 62
     7
370
    25
100
AcDbLine
 10
14.9729860916
 20
6.460293635
 30
0.0
 11
14.9729860916
 21
8.9099160707
 31
0.0
  0
LINE
  5
162
330
F1
100
AcDbEntity
  8
0
  6
Continuous
 62
     7
370
    25
100
AcDbLine
 10
13.9123259198
 20
10.7470333724
 30
0.0
 11
7.3008775158
 21
14.5637412951
 31
0.0
  0
LINE
  5
163
330
F1
100
AcDbEntity
  8
0
  6
Continuous
 62
     7
370
    25
100
AcDbLine
 10
6.240217344
 20
13.9512361612
 30
0.0
 11
6.240217344
 21
11.5016137255
 31
0.0
  0
LINE
  5
164
330
F1
100
AcDbEntity
  8
0
  6
Continuous
 62
     7
370
    25
100
AcDbLine
 10
-3.8890872965
 20
22.6566521037
 30
0.0
 11
3.1819805153
 21
26.7386926628
 31
0.0
  0
LINE
  5
165
330
F1
100
AcDbEntity
  8
0
  6
Continuous
 62
     7
370
    25
100
AcDbLine
 10
32.173358544
 20
10.0023263705
 30
0.0
 11
3.1819805153
 21
26.7386926628
 31
0.0
  0
LINE
  5
166
330
F1
100
AcDbEntity
  8
0
  6
Continuous
 62
     7
370
    25
100
AcDbLine
 10
18.9330828949
 20
7.0320712534
 30
0.0
 11
17.0943064352
 21
5.970568198
 31
0.0
  0
LINE
  5
167
330
F1
100
AcDbEntity
  8
0
  6
Continuous
 62
     7
370
    25
100
AcDbLine
 10
22.627416998
 20
-1.7554300455
 30
0.0
 11
22.9809703886
 21
-1.5513280175
 31
0.0
  0
LINE
  5
168
330
F1
100
AcDbEntity
  8
0
  6
Continuous
 62
     7
370
    25
100
AcDbLine
 10
1.9625201464
 20
16.8289685953
 30
0.0
 11
0.1237436867
 21
15.7674655399
 31
0.0
  0
LINE
  5
169
330
F1
100
AcDbEntity
  8
0
  6
Continuous
 62
     7
370
    25
100
AcDbLine
 10
-0.7071067812
 20
11.7153037996
 30
0.0
 11
0.1061981914
 21
12.1848147664
 31
0.0
  0
LINE
  5
16A
330
F1
100
AcDbEntity
  8
0
  6
Continuous
 62
     7
370
    25
100
AcDbLine
 10
-0.7071067812
 20
10.8987629877
 30
0.0
 11
0.8134199066
 21
11.7765443605
 31
0.0
  0
LINE
  5
16B
330
F1
100
AcDbEntity
  8
0
  6
Continuous
 62
     7
370
    25
100
AcDbLine
 10
-2.1213203436
 20
10.0820894757
 30
0.0
 11
0.8136497748
 21
11.7764116604
 31
0.0
  0
LINE
  5
16C
330
F1
100
AcDbEntity
  8
0
  6
Continuous
 62
     7
370
    25
100
AcDbLine
 10
-6.2932503526
 20
16.2463688202
 30
0.0
 11
-3.8890872965
 21
17.6342626103
 31
0.0
  0
LINE
  5
16D
330
F1
100
AcDbEntity
  8
0
  6
Continuous
 62
     7
370
    25
100
AcDbLine
 10
21.7528616336
 20
-1.6181350685
 30
0.0
 11
22.8845304659
 21
-0.9648365575
 31
0.0
  0
LINE
  5
16E
330
F1
100
AcDbEntity
  8
0
  6
Continuous
 62
     7
370
    25
100
AcDbLine
 10
14.9729860776
 20
6.4600945768
 30
0.0
 11
13.9123259198
 21
5.8477885011
 31
0.0
  0
LINE
  5
16F
330
F1
100
AcDbEntity
  8
0
  6
Continuous
 62
     7
370
    25
100
AcDbLine
 10
11.5442078073
 20
12.1141188595
 30
0.0
 11
7.3008775158
 21
9.6644964238
 31
0.0
  0
LINE
  5
170
330
F1
100
AcDbEntity
  8
0
  6
Continuous
 62
     7
370
    25
100
AcDbLine
 10
7.3010499169
 20
14.5636417701
 30
0.0
 11
6.240217344
 21
13.9512361612
 31
0.0
  0
LINE
  5
171
330
F1
100
AcDbEntity
  8
0
  6
Continuous
 62
     7
370
    25
100
AcDbLine
 10
9.4227150627
 20
13.3388305523
 30
0.0
 11
6.240217344
 21
11.5016137255
 31
0.0
  0
LINE
  5
172
330
F1
100
AcDbEntity
  8
0
  6
Continuous
 62
     7
370
    25
100
AcDbLine
 10
-2.4748737342
 20
19.0640052315
 30
0.0
 11
-2.191985048
 21
19.2273133939
 31
0.0
  0
LINE
  5
173
330
F1
100
AcDbEntity
  8
0
  6
Continuous
 62
     7
370
    25
100
AcDbLine
 10
-2.4748737342
 20
16.1244583087
 30
0.0
 11
-1.767766953
 21
16.5326623646
 31
0.0
  0
LINE
  5
174
330
F1
100
AcDbEntity
  8
0
  6
Continuous
 62
     7
370
    25
100
AcDbLine
 10
-2.2273863607
 20
14.7567756713
 30
0.0
 11
-1.767766953
 21
15.0221083076
 31
0.0
  0
LINE
  5
175
330
F1
100
AcDbEntity
  8
0
  6
Continuous
 62
     7
370
    25
100
AcDbLine
 10
-1.9798989873
 20
13.3890930339
 30
0.0
 11
-1.7605418315
 21
13.5157252245
 31
0.0
  0
LINE
  5
176
330
F1
100
AcDbEntity
  8
0
  6
Continuous
 62
     7
370
    25
100
AcDbLine
 10
-1.6970562748
 20
12.2867894779
 30
0.0
 11
-0.8837513023
 21
12.7563004447
 31
0.0
  0
LINE
  5
177
330
F1
100
AcDbEntity
  8
0
  6
Continuous
 62
     7
370
    25
100
AcDbLine
 10
-1.9798989873
 20
12.776687425
 30
0.0
 11
-1.4494827009
 21
13.0828902294
 31
0.0
  0
LINE
  5
178
330
F1
100
AcDbEntity
  8
0
  6
Continuous
 62
     7
370
    25
100
AcDbLine
 10
-5.3033008589
 20
14.368630163
 30
0.0
 11
-3.8890873152
 21
15.185038264
 31
0.0
  0
ARC
  5
179
330
F1
100
AcDbEntity
  8
0
  6
Continuous
 62
     7
370
    25
100
AcDbCircle
 10
22.1808432667
 20
-2.4216449197
 30
0.0
 40
0.6147219230288375
100
AcDbArc
 50
182.6054784857
 51
237.39452166
  0
ARC
  5
17A
330
F1
100
AcDbEntity
  8
0
  6
Continuous
 62
     7
370
    25
100
AcDbCircle
 10
-1.1536805124
 20
13.6211924828
 30
0.0
 40
0.6147219230288197
100
AcDbArc
 50
182.6054784857
 51
237.39452166
  0
ARC
  5
17B
330
F1
100
AcDbEntity
  8
0
  6
Continuous
 62
     7
370
    25
100
AcDbCircle
 10
-2.3818533935
 20
18.6278568347
 30
0.0
 40
0.6147219230288257
100
AcDbArc
 50
2.6054784857
 51
57.39452166
  0
ARC
  5
17C
330
F1
100
AcDbEntity
  8
0
  6
Continuous
 62
     7
370
    25
100
AcDbCircle
 10
-2.3024439872
 20
19.0919761102
 30
0.0
 40
0.1746836789713937
100
AcDbArc
 50
50.7967147643
 51
189.2140369905
  0
ARC
  5
17D
330
F1
100
AcDbEntity
  8
0
  6
Continuous
 62
     7
370
    25
100
AcDbCircle
 10
1.7986968289
 20
16.1915439417
 30
0.0
 40
4.274097078814354
100
AcDbArc
 50
180.8993435116
 51
199.6144538691
  0
ARC
  5
17E
330
F1
100
AcDbEntity
  8
0
  6
Continuous
 62
     7
370
    25
100
AcDbCircle
 10
-6.2534695503
 20
13.3220074009
 30
0.0
 40
4.274097078815109
100
AcDbArc
 50
0.8993435116
 51
19.6144538691
  0
ARC
  5
17F
330
F1
100
AcDbEntity
  8
0
  6
Continuous
 62
     7
370
    25
100
AcDbCircle
 10
-1.3658125468
 20
12.8046317659
 30
0.0
 40
0.6147219230288371
100
AcDbArc
 50
182.6054784857
 51
237.39452166
  0
ARC
  5
180
330
F1
100
AcDbEntity
  8
0
  6
Continuous
 62
     7
370
    25
100
AcDbCircle
 10
-4.7512360314
 20
15.0454492812
 30
0.0
 40
0.8734183948569535
100
AcDbArc
 50
230.7967147643
 51
9.2140369905
  0
ARC
  5
181
330
F1
100
AcDbEntity
  8
0
  6
Continuous
 62
     7
370
    25
100
AcDbCircle
 10
24.6712163647
 20
-4.07061225
 30
0.0
 40
0.4367091974284762
100
AcDbArc
 50
230.7967147643
 51
9.2140369905
  0
ARC
  5
182
330
F1
100
AcDbEntity
  8
0
  6
Continuous
 62
     7
370
    25
100
AcDbCircle
 10
12.6865966628
 20
8.8146133842
 30
0.0
 40
2.288374799392095
100
AcDbArc
 50
2.3868561234
 51
57.6131440222
  0
ARC
  5
183
330
F1
100
AcDbEntity
  8
0
  6
Continuous
 62
     7
370
    25
100
AcDbCircle
 10
8.5266067728
 20
11.596916412
 30
0.0
 40
2.288374799392084
100
AcDbArc
 50
182.3868561234
 51
237.6131440222
  0
ARC
  5
184
330
F1
100
AcDbEntity
  8
0
  6
Continuous
 62
     7
370
    25
100
AcDbCircle
 10
31.697672988
 20
0.0207914775
 30
0.0
 40
0.4795255464433056
100
AcDbArc
 50
304.0563508336
 51
7.2558295597
  0
VIEWPORT
  5
189
330
F1
100
AcDbEntity
  8
0
100
AcDbViewport
 10
0.0
 20
0.0
 30
0.0
 40
205.6
 41
156.0
 68
     1
 69
     1
 12
-2.5
 22
2.925
 13
0.0
 23
0.0
 14
10.0
 24
10.0
 15
10.0
 25
10.0
 16
0.0
 26
0.0
 36
1.0
 17
0.0
 27
0.0
 37
0.0
 42
50.0
 43
0.0
 44
0.0
 45
35.6007782101
 50
0.0
 51
0.0
 72
   100
 90
   557152
  1

281
     0
 71
     1
 74
     0
110
0.0
120
0.0
130
0.0
111
1.0
121
0.0
131
0.0
112
0.0
122
1.0
132
0.0
 79
     0
146
0.0
  0
ENDBLK
  5
F4
330
F1
100
AcDbEntity
  8
0
100
AcDbBlockEnd
  0
ENDSEC
  0
SECTION
  2
ENTITIES
  0
LINE
  5
93
330
1F
100
AcDbEntity
  8
0
  6
Continuous
 62
     7
370
    25
100
AcDbLine
 10
9.175
 20
7.0
 30
0.0
 11
14.825
 21
7.0
 31
0.0
  0
LINE
  5
94
330
1F
100
AcDbEntity
  8
0
  6
Continuous
 62
     7
370
    25
100
AcDbLine
 10
9.175
 20
4.4
 30
0.0
 11
9.175
 21
7.0
 31
0.0
  0
LINE
  5
95
330
1F
100
AcDbEntity
  8
0
  6
Continuous
 62
     7
370
    25
100
AcDbLine
 10
9.175
 20
4.4
 30
0.0
 11
14.825
 21
4.4
 31
0.0
  0
LINE
  5
96
330
1F
100
AcDbEntity
  8
0
  6
Continuous
 62
     7
370
    25
100
AcDbLine
 10
14.825
 20
4.4
 30
0.0
 11
14.825
 21
7.0
 31
0.0
  0
LINE
  5
97
330
1F
100
AcDbEntity
  8
0
  6
Continuous
 62
     7
370
    25
100
AcDbLine
 10
15.5
 20
-1.9760383667
 30
0.0
 11
15.5
 21
-2.75
 31
0.0
  0
LINE
  5
98
330
1F
100
AcDbEntity
  8
0
  6
Continuous
 62
     7
370
    25
100
AcDbLine
 10
17.0
 20
-1.15
 30
0.0
 11
15.7631919427
 21
-1.6001613184
 31
0.0
  0
LINE
  5
99
330
1F
100
AcDbEntity
  8
0
  6
Continuous
 62
     7
370
    25
100
AcDbLine
 10
17.5
 20
-1.15
 30
0.0
 11
17.0
 21
-1.15
 31
0.0
  0
LINE
  5
9A
330
1F
100
AcDbEntity
  8
0
  6
Continuous
 62
     7
370
    25
100
AcDbLine
 10
17.5
 20
0.0
 30
0.0
 11
17.5
 21
-1.15
 31
0.0
  0
LINE
  5
9B
330
1F
100
AcDbEntity
  8
0
  6
Continuous
 62
     7
370
    25
100
AcDbLine
 10
-17.1
 20
0.0
 30
0.0
 11
17.5
 21
0.0
 31
0.0
  0
LINE
  5
9C
330
1F
100
AcDbEntity
  8
0
  6
Continuous
 62
     7
370
    25
100
AcDbLine
 10
-17.5
 20
6.6
 30
0.0
 11
-17.5
 21
0.4
 31
0.0
  0
LINE
  5
9D
330
1F
100
AcDbEntity
  8
0
  6
Continuous
 62
     7
370
    25
100
AcDbLine
 10
-18.1
 20
7.0
 30
0.0
 11
-17.9
 21
7.0
 31
0.0
  0
LINE
  5
9E
330
1F
100
AcDbEntity
  8
0
  6
Continuous
 62
     7
370
    25
100
AcDbLine
 10
-18.5
 20
3.0
 30
0.0
 11
-18.5
 21
6.6
 31
0.0
  0
LINE
  5
9F
330
1F
100
AcDbEntity
  8
0
  6
Continuous
 62
     7
370
    25
100
AcDbLine
 10
-17.8
 20
-0.75
 30
0.0
 11
-17.8
 21
0.0
 31
0.0
  0
LINE
  5
A0
330
1F
100
AcDbEntity
  8
0
  6
Continuous
 62
     7
370
    25
100
AcDbLine
 10
-16.0
 20
-1.15
 30
0.0
 11
-17.4
 21
-1.15
 31
0.0
  0
LINE
  5
A1
330
1F
100
AcDbEntity
  8
0
  6
Continuous
 62
     7
370
    25
100
AcDbLine
 10
-16.0
 20
-2.15
 30
0.0
 11
-16.0
 21
-1.15
 31
0.0
  0
LINE
  5
A2
330
1F
100
AcDbEntity
  8
0
  6
Continuous
 62
     7
370
    25
100
AcDbLine
 10
-18.0
 20
-4.15
 30
0.0
 11
-16.0
 21
-2.15
 31
0.0
  0
LINE
  5
A3
330
1F
100
AcDbEntity
  8
0
  6
Continuous
 62
     7
370
    25
100
AcDbLine
 10
-25.5
 20
-4.15
 30
0.0
 11
-18.0
 21
-4.15
 31
0.0
  0
LINE
  5
A4
330
1F
100
AcDbEntity
  8
0
  6
Continuous
 62
     7
370
    25
100
AcDbLine
 10
-23.9
 20
-1.15
 30
0.0
 11
-23.9
 21
-4.15
 31
0.0
  0
LINE
  5
A5
330
1F
100
AcDbEntity
  8
0
  6
Continuous
 62
     7
370
    25
100
AcDbLine
 10
-22.5
 20
-1.15
 30
0.0
 11
-25.5
 21
-1.15
 31
0.0
  0
LINE
  5
A6
330
1F
100
AcDbEntity
  8
0
  6
Continuous
 62
     7
370
    25
100
AcDbLine
 10
-20.5
 20
10.0
 30
0.0
 11
-20.5
 21
0.85
 31
0.0
  0
LINE
  5
A7
330
1F
100
AcDbEntity
  8
0
  6
Continuous
 62
     7
370
    25
100
AcDbLine
 10
20.5
 20
10.0
 30
0.0
 11
-20.5
 21
10.0
 31
0.0
  0
LINE
  5
A8
330
1F
100
AcDbEntity
  8
0
  6
Continuous
 62
     7
370
    25
100
AcDbLine
 10
20.5
 20
-2.15
 30
0.0
 11
20.5
 21
10.0
 31
0.0
  0
LINE
  5
A9
330
1F
100
AcDbEntity
  8
0
  6
Continuous
 62
     7
370
    25
100
AcDbLine
 10
15.9
 20
-3.15
 30
0.0
 11
19.5
 21
-3.15
 31
0.0
  0
LINE
  5
AA
330
1F
100
AcDbEntity
  8
0
  6
Continuous
 62
     7
370
    25
100
AcDbLine
 10
-9.175
 20
4.4
 30
0.0
 11
-9.175
 21
7.0
 31
0.0
  0
LINE
  5
AB
330
1F
100
AcDbEntity
  8
0
  6
Continuous
 62
     7
370
    25
100
AcDbLine
 10
-14.825
 20
7.0
 30
0.0
 11
-9.175
 21
7.0
 31
0.0
  0
LINE
  5
AC
330
1F
100
AcDbEntity
  8
0
  6
Continuous
 62
     7
370
    25
100
AcDbLine
 10
-14.825
 20
4.4
 30
0.0
 11
-14.825
 21
7.0
 31
0.0
  0
LINE
  5
AD
330
1F
100
AcDbEntity
  8
0
  6
Continuous
 62
     7
370
    25
100
AcDbLine
 10
-14.825
 20
4.4
 30
0.0
 11
-9.175
 21
4.4
 31
0.0
  0
LINE
  5
AE
330
1F
100
AcDbEntity
  8
0
  6
Continuous
 62
     7
370
    25
100
AcDbLine
 10
-4.675
 20
2.0
 30
0.0
 11
4.675
 21
2.0
 31
0.0
  0
LINE
  5
AF
330
1F
100
AcDbEntity
  8
0
  6
Continuous
 62
     7
370
    25
100
AcDbLine
 10
6.175
 20
3.5
 30
0.0
 11
6.175
 21
6.5
 31
0.0
  0
LINE
  5
B0
330
1F
100
AcDbEntity
  8
0
  6
Continuous
 62
     7
370
    25
100
AcDbLine
 10
4.675
 20
8.0
 30
0.0
 11
-4.675
 21
8.0
 31
0.0
  0
LINE
  5
B1
330
1F
100
AcDbEntity
  8
0
  6
Continuous
 62
     7
370
    25
100
AcDbLine
 10
-6.175
 20
6.5
 30
0.0
 11
-6.175
 21
3.5
 31
0.0
  0
LINE
  5
B2
330
1F
100
AcDbEntity
  8
0
  6
Continuous
 62
     7
370
    25
100
AcDbLine
 10
-25.5
 20
-1.15
 30
0.0
 11
-25.5
 21
-4.15
 31
0.0
  0
ARC
  5
B3
330
1F
100
AcDbEntity
  8
0
  6
Continuous
 62
     7
370
    25
100
AcDbCircle
 10
15.9
 20
-2.75
 30
0.0
 40
0.4000000000000004
100
AcDbArc
 50
180.0
 51
270.0
  0
ARC
  5
B4
330
1F
100
AcDbEntity
  8
0
  6
Continuous
 62
     7
370
    25
100
AcDbCircle
 10
15.9
 20
-1.9760383667
 30
0.0
 40
0.39999999999999
100
AcDbArc
 50
110.0
 51
180.0
  0
ARC
  5
B5
330
1F
100
AcDbEntity
  8
0
  6
Continuous
 62
     7
370
    25
100
AcDbCircle
 10
-17.1
 20
0.4
 30
0.0
 40
0.3999999999999951
100
AcDbArc
 50
180.0
 51
270.0
  0
ARC
  5
B6
330
1F
100
AcDbEntity
  8
0
  6
Continuous
 62
     7
370
    25
100
AcDbCircle
 10
-17.9
 20
6.6
 30
0.0
 40
0.4000000000000021
100
AcDbArc
 50
0.0
 51
90.0
  0
ARC
  5
B7
330
1F
100
AcDbEntity
  8
0
  6
Continuous
 62
     7
370
    25
100
AcDbCircle
 10
-18.1
 20
6.6
 30
0.0
 40
0.4000000000000057
100
AcDbArc
 50
90.0
 51
180.0
  0
ARC
  5
B8
330
1F
100
AcDbEntity
  8
0
  6
Continuous
 62
     7
370
    25
100
AcDbCircle
 10
-15.1107142857
 20
3.0
 30
0.0
 40
3.389285714285348
100
AcDbArc
 50
180.0
 51
206.2680446128
  0
ARC
  5
B9
330
1F
100
AcDbEntity
  8
0
  6
Continuous
 62
     7
370
    25
100
AcDbCircle
 10
-21.1892857143
 20
0.0
 30
0.0
 40
3.389285714285979
100
AcDbArc
 50
0.0
 51
26.2680446128
  0
ARC
  5
BA
330
1F
100
AcDbEntity
  8
0
  6
Continuous
 62
     7
370
    25
100
AcDbCircle
 10
-17.4
 20
-0.75
 30
0.0
 40
0.4000000000000095
100
AcDbArc
 50
180.0
 51
270.0
  0
ARC
  5
BB
330
1F
100
AcDbEntity
  8
0
  6
Continuous
 62
     7
370
    25
100
AcDbCircle
 10
-22.5
 20
0.85
 30
0.0
 40
2.000000000000001
100
AcDbArc
 50
270.0
 51
0.0
  0
ARC
  5
BC
330
1F
100
AcDbEntity
  8
0
  6
Continuous
 62
     7
370
    25
100
AcDbCircle
 10
4.675
 20
3.5
 30
0.0
 40
1.499999999999995
100
AcDbArc
 50
270.0
 51
0.0
  0
ARC
  5
BD
330
1F
100
AcDbEntity
  8
0
  6
Continuous
 62
     7
370
    25
100
AcDbCircle
 10
4.675
 20
6.5
 30
0.0
 40
1.499999999999996
100
AcDbArc
 50
0.0
 51
90.0
  0
ARC
  5
BE
330
1F
100
AcDbEntity
  8
0
  6
Continuous
 62
     7
370
    25
100
AcDbCircle
 10
-4.675
 20
6.5
 30
0.0
 40
1.499999999999998
100
AcDbArc
 50
90.0
 51
180.0
  0
ARC
  5
BF
330
1F
100
AcDbEntity
  8
0
  6
Continuous
 62
     7
370
    25
100
AcDbCircle
 10
-4.675
 20
3.5
 30
0.0
 40
1.500000000000001
100
AcDbArc
 50
180.0
 51
270.0
  0
ARC
  5
C0
330
1F
100
AcDbEntity
  8
0
  6
Continuous
 62
     7
370
    25
100
AcDbCircle
 10
19.5
 20
-2.15
 30
0.0
 40
1.0
100
AcDbArc
 50
270.0
 51
0.0
  0
LINE
  5
CB
330
1B
100
AcDbEntity
 67
     1
  8
0
  6
Continuous
 62
     7
370
    25
100
AcDbLine
 10
25.0
 20
-4.15
 30
0.0
 11
25.0
 21
10.0
 31
0.0
  0
LINE
  5
CC
330
1B
100
AcDbEntity
 67
     1
  8
0
  6
Continuous
 62
     7
370
    25
100
AcDbLine
 10
25.0
 20
-3.15
 30
0.0
 11
15.0
 21
-3.15
 31
0.0
  0
LINE
  5
CD
330
1B
100
AcDbEntity
 67
     1
  8
0
  6
Continuous
 62
     7
370
    25
100
AcDbLine
 10
15.0
 20
-4.15
 30
0.0
 11
15.0
 21
10.0
 31
0.0
  0
LINE
  5
CE
330
1B
100
AcDbEntity
 67
     1
  8
0
  6
Continuous
 62
     7
370
    25
100
AcDbLine
 10
15.0
 20
-2.15
 30
0.0
 11
25.0
 21
-2.15
 31
0.0
  0
LINE
  5
CF
330
1B
100
AcDbEntity
 67
     1
  8
0
  6
Continuous
 62
     7
370
    25
100
AcDbLine
 10
15.0
 20
10.0
 30
0.0
 11
25.0
 21
10.0
 31
0.0
  0
LINE
  5
D0
330
1B
100
AcDbEntity
 67
     1
  8
0
  6
Continuous
 62
     7
370
    25
100
AcDbLine
 10
15.0
 20
-4.15
 30
0.0
 11
25.0
 21
-4.15
 31
0.0
  0
VIEWPORT
  5
185
330
1B
100
AcDbEntity
 67
     1
  8
0
100
AcDbViewport
 10
0.0
 20
0.0
 30
0.0
 40
205.6
 41
156.0
 68
     1
 69
     1
 12
-2.5
 22
2.925
 13
0.0
 23
0.0
 14
10.0
 24
10.0
 15
10.0
 25
10.0
 16
0.0
 26
0.0
 36
1.0
 17
0.0
 27
0.0
 37
0.0
 42
50.0
 43
0.0
 44
0.0
 45
35.6007782101
 50
0.0
 51
0.0
 72
   100
 90
   557152
  1

281
     0
 71
     1
 74
     0
110
0.0
120
0.0
130
0.0
111
1.0
121
0.0
131
0.0
112
0.0
122
1.0
132
0.0
 79
     0
146
0.0
  0
ENDSEC
  0
SECTION
  2
OBJECTS
  0
DICTIONARY
  5
C
330
0
100
AcDbDictionary
281
     1
  3
ACAD_GROUP
350
D
  3
ACAD_LAYOUT
350
1A
  3
ACAD_MLINESTYLE
350
17
  3
ACAD_PLOTSETTINGS
350
19
  3
ACAD_PLOTSTYLENAME
350
E
  3
ACAD_SCALELIST
350
47
  3
DWGPROPS
350
18B
  0
DICTIONARY
  5
D
102
{ACAD_REACTORS
330
C
102
}
330
C
100
AcDbDictionary
281
     1
  0
DICTIONARY
  5
1A
102
{ACAD_REACTORS
330
C
102
}
330
C
100
AcDbDictionary
281
     1
  3
_Isometric
350
F2
  3
_Right
350
1E
  3
_Top
350
26
  3
Model
350
22
  0
DICTIONARY
  5
17
102
{ACAD_REACTORS
330
C
102
}
330
C
100
AcDbDictionary
281
     1
  3
Standard
350
18
  0
DICTIONARY
  5
19
102
{ACAD_REACTORS
330
C
102
}
330
C
100
AcDbDictionary
281
     1
  0
ACDBDICTIONARYWDFLT
  5
E
102
{ACAD_REACTORS
330
C
102
}
330
C
100
AcDbDictionary
281
     1
  3
Normal
350
F
100
AcDbDictionaryWithDefault
340
F
  0
DICTIONARY
  5
47
102
{ACAD_REACTORS
330
C
102
}
330
C
100
AcDbDictionary
281
     1
  3
A0
350
48
  3
A1
350
49
  3
A2
350
4A
  3
A3
350
4B
  3
A4
350
4C
  3
A5
350
4D
  3
A6
350
4E
  3
A7
350
4F
  3
A8
350
50
  3
A9
350
51
  3
B0
350
52
  3
B1
350
53
  3
B2
350
54
  3
B3
350
55
  3
B4
350
56
  3
B5
350
57
  3
B6
350
58
  0
XRECORD
  5
18B
102
{ACAD_REACTORS
330
C
102
}
330
C
100
AcDbXrecord
280
     1
  1
DWGPROPS COOKIE
  2

  3

  4

  6

  7

  8
lenovo
  9

300
=
301
=
302
=
303
=
304
=
305
=
306
=
307
=
308
=
309
=
 40
0.0
 41
2460584.678527176
 42
2460584.678617176
  1

 90
        0
  0
LAYOUT
  5
F2
102
{ACAD_REACTORS
330
1A
102
}
330
1A
100
AcDbPlotSettings
  1

  2
none_device
  4
ISO_A4_(210.00_x_297.00_MM)
  6

 40
7.5
 41
20.0
 42
7.5
 43
20.0
 44
210.0
 45
297.0
 46
0.0
 47
0.0
 48
0.0
 49
0.0
140
0.0
141
0.0
142
1.0
143
0.0725641026
 70
   688
 72
     1
 73
     1
 74
     1
  7

 75
     0
147
13.7809187279
148
-15.0
149
4.15
100
AcDbLayout
  1
_Isometric
 70
     1
 71
     3
 10
0.0
 20
0.0
 11
0.0
 21
0.0
 12
0.0
 22
0.0
 32
0.0
 14
0.0
 24
0.0
 34
0.0
 15
0.0
 25
0.0
 35
0.0
146
0.0
 13
0.0
 23
0.0
 33
0.0
 16
1.0
 26
0.0
 36
0.0
 17
0.0
 27
1.0
 37
0.0
 76
     0
330
F1
331
189
  0
LAYOUT
  5
1E
102
{ACAD_REACTORS
330
1A
102
}
330
1A
100
AcDbPlotSettings
  1

  2
none_device
  4
ISO_A4_(210.00_x_297.00_MM)
  6

 40
7.5
 41
20.0
 42
7.5
 43
20.0
 44
210.0
 45
297.0
 46
0.0
 47
0.0
 48
0.0
 49
0.0
140
0.0
141
0.0
142
1.0
143
0.0725641026
 70
   688
 72
     1
 73
     1
 74
     1
  7

 75
     0
147
13.7809187279
148
-15.0
149
4.15
100
AcDbLayout
  1
_Right
 70
     1
 71
     1
 10
13.5487179487
 20
-4.6942307692
 11
35.1002564103
 21
10.5442307692
 12
0.0
 22
0.0
 32
0.0
 14
15.0
 24
-4.15
 34
0.0
 15
25.0
 25
10.0
 35
0.0
146
0.0
 13
0.0
 23
0.0
 33
0.0
 16
1.0
 26
0.0
 36
0.0
 17
0.0
 27
1.0
 37
0.0
 76
     0
330
1B
331
185
  0
LAYOUT
  5
26
102
{ACAD_REACTORS
330
1A
102
}
330
1A
100
AcDbPlotSettings
  1

  2
none_device
  4
ISO_A4_(210.00_x_297.00_MM)
  6

 40
7.5
 41
20.0
 42
7.5
 43
20.0
 44
210.0
 45
297.0
 46
0.0
 47
0.0
 48
0.0
 49
0.0
140
0.0
141
0.0
142
1.0
143
0.0725641026
 70
   688
 72
     1
 73
     1
 74
     1
  7

 75
     0
147
13.7809187279
148
-15.0
149
4.15
100
AcDbLayout
  1
_Top
 70
     1
 71
     2
 10
0.0
 20
0.0
 11
0.0
 21
0.0
 12
0.0
 22
0.0
 32
0.0
 14
0.0
 24
0.0
 34
0.0
 15
0.0
 25
0.0
 35
0.0
146
0.0
 13
0.0
 23
0.0
 33
0.0
 16
1.0
 26
0.0
 36
0.0
 17
0.0
 27
1.0
 37
0.0
 76
     0
330
23
331
187
  0
LAYOUT
  5
22
102
{ACAD_REACTORS
330
1A
102
}
330
1A
100
AcDbPlotSettings
  1

  2
none_device
  4
ANSI_A_(11.00_x_8.50_Inches)
  6

 40
6.35
 41
19.05
 42
6.35000508
 43
19.05000254
 44
279.4
 45
215.9
 46
148.3829322426
 47
71.3114650343
 48
0.0
 49
0.0
140
0.0
141
0.0
142
0.2367391304
143
1.0
 70
  1696
 72
     0
 73
     0
 74
     0
  7

 75
     0
147
0.0179189148
148
-1300.4909072572
149
0.0
100
AcDbLayout
  1
Model
 70
     1
 71
     0
 10
0.0
 20
0.0
 11
420.0
 21
297.0
 12
0.0
 22
0.0
 32
0.0
 14
-25.5
 24
-4.15
 34
0.0
 15
20.5
 25
10.0
 35
0.0
146
0.0
 13
0.0
 23
0.0
 33
0.0
 16
1.0
 26
0.0
 36
0.0
 17
0.0
 27
1.0
 37
0.0
 76
     0
330
1F
331
29
  0
MLINESTYLE
  5
18
102
{ACAD_REACTORS
330
17
102
}
330
17
100
AcDbMlineStyle
  2
Standard
 70
     0
  3

 62
   256
 51
90.0
 52
90.0
 71
     2
 49
0.5
 62
   256
  6
BYLAYER
 49
-0.5
 62
   256
  6
BYLAYER
  0
ACDBPLACEHOLDER
  5
F
102
{ACAD_REACTORS
330
E
102
}
330
E
  0
SCALE
  5
48
102
{ACAD_REACTORS
330
47
102
}
330
47
100
AcDbScale
 70
     0
300
1:1
140
1.0
141
1.0
290
     1
  0
SCALE
  5
49
102
{ACAD_REACTORS
330
47
102
}
330
47
100
AcDbScale
 70
     0
300
1:2
140
1.0
141
2.0
290
     0
  0
SCALE
  5
4A
102
{ACAD_REACTORS
330
47
102
}
330
47
100
AcDbScale
 70
     0
300
1:4
140
1.0
141
4.0
290
     0
  0
SCALE
  5
4B
102
{ACAD_REACTORS
330
47
102
}
330
47
100
AcDbScale
 70
     0
300
1:5
140
1.0
141
5.0
290
     0
  0
SCALE
  5
4C
102
{ACAD_REACTORS
330
47
102
}
330
47
100
AcDbScale
 70
     0
300
1:8
140
1.0
141
8.0
290
     0
  0
SCALE
  5
4D
102
{ACAD_REACTORS
330
47
102
}
330
47
100
AcDbScale
 70
     0
300
1:10
140
1.0
141
10.0
290
     0
  0
SCALE
  5
4E
102
{ACAD_REACTORS
330
47
102
}
330
47
100
AcDbScale
 70
     0
300
1:16
140
1.0
141
16.0
290
     0
  0
SCALE
  5
4F
102
{ACAD_REACTORS
330
47
102
}
330
47
100
AcDbScale
 70
     0
300
1:20
140
1.0
141
20.0
290
     0
  0
SCALE
  5
50
102
{ACAD_REACTORS
330
47
102
}
330
47
100
AcDbScale
 70
     0
300
1:30
140
1.0
141
30.0
290
     0
  0
SCALE
  5
51
102
{ACAD_REACTORS
330
47
102
}
330
47
100
AcDbScale
 70
     0
300
1:40
140
1.0
141
40.0
290
     0
  0
SCALE
  5
52
102
{ACAD_REACTORS
330
47
102
}
330
47
100
AcDbScale
 70
     0
300
1:50
140
1.0
141
50.0
290
     0
  0
SCALE
  5
53
102
{ACAD_REACTORS
330
47
102
}
330
47
100
AcDbScale
 70
     0
300
1:100
140
1.0
141
100.0
290
     0
  0
SCALE
  5
54
102
{ACAD_REACTORS
330
47
102
}
330
47
100
AcDbScale
 70
     0
300
2:1
140
2.0
141
1.0
290
     0
  0
SCALE
  5
55
102
{ACAD_REACTORS
330
47
102
}
330
47
100
AcDbScale
 70
     0
300
4:1
140
4.0
141
1.0
290
     0
  0
SCALE
  5
56
102
{ACAD_REACTORS
330
47
102
}
330
47
100
AcDbScale
 70
     0
300
8:1
140
8.0
141
1.0
290
     0
  0
SCALE
  5
57
102
{ACAD_REACTORS
330
47
102
}
330
47
100
AcDbScale
 70
     0
300
10:1
140
10.0
141
1.0
290
     0
  0
SCALE
  5
58
102
{ACAD_REACTORS
330
47
102
}
330
47
100
AcDbScale
 70
     0
300
100:1
140
100.0
141
1.0
290
     0
  0
ENDSEC
  0
EOF
