  0
SECTION
  2
HEADER
  9
$ACADVER
  1
AC1015
  9
$ACADMAINTVER
 70
     6
  9
$DWGCODEPAGE
  3
ANSI_1252
  9
$INSBASE
 10
0.0
 20
0.0
 30
0.0
  9
$EXTMIN
 10
-885.1402056842
 20
-658.8361184724
 30
0.0
  9
$EXTMAX
 10
-38.5003616148
 20
199.663881532
 30
0.0
  9
$LIMMIN
 10
0.0
 20
0.0
  9
$LIMMAX
 10
420.0
 20
297.0
  9
$ORTHOMODE
 70
     0
  9
$REGENMODE
 70
     1
  9
$FILLMODE
 70
     1
  9
$QTEXTMODE
 70
     0
  9
$MIRRTEXT
 70
     1
  9
$LTSCALE
 40
1.0
  9
$ATTMODE
 70
     1
  9
$TEXTSIZE
 40
3.5
  9
$TRACEWID
 40
1.0
  9
$TEXTSTYLE
  7
Standard
  9
$CLAYER
  8
0
  9
$CELTYPE
  6
ByLayer
  9
$CECOLOR
 62
   256
  9
$CELTSCALE
 40
1.0
  9
$DISPSILH
 70
     0
  9
$DIMSCALE
 40
1.0
  9
$DIMASZ
 40
3.556
  9
$DIMEXO
 40
0.0
  9
$DIMDLI
 40
3.75
  9
$DIMRND
 40
0.0
  9
$DIMDLE
 40
0.0
  9
$DIMEXE
 40
1.0
  9
$DIMTP
 40
0.0
  9
$DIMTM
 40
0.0
  9
$DIMTXT
 40
3.5
  9
$DIMCEN
 40
2.5
  9
$DIMTSZ
 40
0.0
  9
$DIMTOL
 70
     0
  9
$DIMLIM
 70
     0
  9
$DIMTIH
 70
     1
  9
$DIMTOH
 70
     1
  9
$DIMSE1
 70
     0
  9
$DIMSE2
 70
     0
  9
$DIMTAD
 70
     1
  9
$DIMZIN
 70
     1
  9
$DIMBLK
  1

  9
$DIMASO
 70
     1
  9
$DIMSHO
 70
     1
  9
$DIMPOST
  1

  9
$DIMAPOST
  1

  9
$DIMALT
 70
     0
  9
$DIMALTD
 70
     3
  9
$DIMALTF
 40
0.0393700787
  9
$DIMLFAC
 40
1.0
  9
$DIMTOFL
 70
     1
  9
$DIMTVP
 40
0.0
  9
$DIMTIX
 70
     0
  9
$DIMSOXD
 70
     0
  9
$DIMSAH
 70
     0
  9
$DIMBLK1
  1

  9
$DIMBLK2
  1

  9
$DIMSTYLE
  2
ISO-25
  9
$DIMCLRD
 70
     0
  9
$DIMCLRE
 70
     0
  9
$DIMCLRT
 70
     0
  9
$DIMTFAC
 40
1.0
  9
$DIMGAP
 40
1.524
  9
$DIMJUST
 70
     0
  9
$DIMSD1
 70
     0
  9
$DIMSD2
 70
     0
  9
$DIMTOLJ
 70
     0
  9
$DIMTZIN
 70
     1
  9
$DIMALTZ
 70
     0
  9
$DIMALTTZ
 70
     0
  9
$DIMUPT
 70
     0
  9
$DIMDEC
 70
     2
  9
$DIMTDEC
 70
     2
  9
$DIMALTU
 70
     2
  9
$DIMALTTD
 70
     3
  9
$DIMTXSTY
  7
Standard
  9
$DIMAUNIT
 70
     0
  9
$DIMADEC
 70
     2
  9
$DIMALTRND
 40
0.0
  9
$DIMAZIN
 70
     0
  9
$DIMDSEP
 70
    44
  9
$DIMATFIT
 70
     3
  9
$DIMFRAC
 70
     0
  9
$DIMLDRBLK
  1

  9
$DIMLUNIT
 70
     2
  9
$DIMLWD
 70
    -2
  9
$DIMLWE
 70
    -2
  9
$DIMTMOVE
 70
     0
  9
$LUNITS
 70
     2
  9
$LUPREC
 70
     2
  9
$SKETCHINC
 40
1.0
  9
$FILLETRAD
 40
0.0
  9
$AUNITS
 70
     0
  9
$AUPREC
 70
     2
  9
$MENU
  1
.
  9
$ELEVATION
 40
0.0
  9
$PELEVATION
 40
0.0
  9
$THICKNESS
 40
0.0
  9
$LIMCHECK
 70
     0
  9
$CHAMFERA
 40
0.0
  9
$CHAMFERB
 40
0.0
  9
$CHAMFERC
 40
0.0
  9
$CHAMFERD
 40
0.0
  9
$SKPOLY
 70
     0
  9
$TDCREATE
 40
2460729.400367489
  9
$TDUCREATE
 40
2460729.108700822
  9
$TDUPDATE
 40
2460729.400444005
  9
$TDUUPDATE
 40
2460729.108777338
  9
$TDINDWG
 40
0.0000000116
  9
$TDUSRTIMER
 40
0.0000000116
  9
$USRTIMER
 70
     1
  9
$ANGBASE
 50
0.0
  9
$ANGDIR
 70
     0
  9
$PDMODE
 70
     0
  9
$PDSIZE
 40
-1.0
  9
$PLINEWID
 40
0.0
  9
$SPLFRAME
 70
     0
  9
$SPLINETYPE
 70
     6
  9
$SPLINESEGS
 70
     8
  9
$HANDSEED
  5
43F
  9
$SURFTAB1
 70
     6
  9
$SURFTAB2
 70
     6
  9
$SURFTYPE
 70
     6
  9
$SURFU
 70
     6
  9
$SURFV
 70
     6
  9
$UCSBASE
  2

  9
$UCSNAME
  2

  9
$UCSORG
 10
0.0
 20
0.0
 30
0.0
  9
$UCSXDIR
 10
1.0
 20
0.0
 30
0.0
  9
$UCSYDIR
 10
0.0
 20
1.0
 30
0.0
  9
$UCSORTHOREF
  2

  9
$UCSORTHOVIEW
 70
     0
  9
$UCSORGTOP
 10
0.0
 20
0.0
 30
0.0
  9
$UCSORGBOTTOM
 10
0.0
 20
0.0
 30
0.0
  9
$UCSORGLEFT
 10
0.0
 20
0.0
 30
0.0
  9
$UCSORGRIGHT
 10
0.0
 20
0.0
 30
0.0
  9
$UCSORGFRONT
 10
0.0
 20
0.0
 30
0.0
  9
$UCSORGBACK
 10
0.0
 20
0.0
 30
0.0
  9
$PUCSBASE
  2

  9
$PUCSNAME
  2

  9
$PUCSORG
 10
0.0
 20
0.0
 30
0.0
  9
$PUCSXDIR
 10
1.0
 20
0.0
 30
0.0
  9
$PUCSYDIR
 10
0.0
 20
1.0
 30
0.0
  9
$PUCSORTHOREF
  2

  9
$PUCSORTHOVIEW
 70
     0
  9
$PUCSORGTOP
 10
0.0
 20
0.0
 30
0.0
  9
$PUCSORGBOTTOM
 10
0.0
 20
0.0
 30
0.0
  9
$PUCSORGLEFT
 10
0.0
 20
0.0
 30
0.0
  9
$PUCSORGRIGHT
 10
0.0
 20
0.0
 30
0.0
  9
$PUCSORGFRONT
 10
0.0
 20
0.0
 30
0.0
  9
$PUCSORGBACK
 10
0.0
 20
0.0
 30
0.0
  9
$USERI1
 70
     0
  9
$USERI2
 70
     0
  9
$USERI3
 70
     0
  9
$USERI4
 70
     0
  9
$USERI5
 70
     0
  9
$USERR1
 40
0.0
  9
$USERR2
 40
0.0
  9
$USERR3
 40
0.0
  9
$USERR4
 40
0.0
  9
$USERR5
 40
0.0
  9
$WORLDVIEW
 70
     1
  9
$SHADEDGE
 70
     3
  9
$SHADEDIF
 70
    70
  9
$TILEMODE
 70
     1
  9
$MAXACTVP
 70
    64
  9
$PINSBASE
 10
0.0
 20
0.0
 30
0.0
  9
$PLIMCHECK
 70
     0
  9
$PEXTMIN
 10
1.0000000000E+20
 20
1.0000000000E+20
 30
1.0000000000E+20
  9
$PEXTMAX
 10
-1.0000000000E+20
 20
-1.0000000000E+20
 30
-1.0000000000E+20
  9
$PLIMMIN
 10
0.0
 20
0.0
  9
$PLIMMAX
 10
420.0
 20
297.0
  9
$UNITMODE
 70
     0
  9
$VISRETAIN
 70
     1
  9
$PLINEGEN
 70
     0
  9
$PSLTSCALE
 70
     1
  9
$TREEDEPTH
 70
  3020
  9
$CMLSTYLE
  2
Standard
  9
$CMLJUST
 70
     0
  9
$CMLSCALE
 40
20.0
  9
$PROXYGRAPHICS
 70
     1
  9
$MEASUREMENT
 70
     1
  9
$CELWEIGHT
370
    -1
  9
$ENDCAPS
280
     0
  9
$JOINSTYLE
280
     0
  9
$LWDISPLAY
290
     1
  9
$INSUNITS
 70
     4
  9
$HYPERLINKBASE
  1

  9
$STYLESHEET
  1

  9
$XEDIT
290
     1
  9
$CEPSNTYPE
380
     0
  9
$PSTYLEMODE
290
     1
  9
$FINGERPRINTGUID
  2
{1765940d-9b65-4ebc-b4f7-f865db84a279}
  9
$VERSIONGUID
  2
{FAEB1C32-E019-11D5-929B-00C0DF256EC4}
  9
$EXTNAMES
290
     1
  9
$PSVPSCALE
 40
0.0
  9
$OLESTARTUP
290
     0
  0
ENDSEC
  0
SECTION
  2
CLASSES
  0
CLASS
  1
ACDBDICTIONARYWDFLT
  2
AcDbDictionaryWithDefault
  3
ObjectDBX Classes
 90
        0
280
     0
281
     0
  0
CLASS
  1
VISUALSTYLE
  2
AcDbVisualStyle
  3
ObjectDBX Classes
 90
     4095
280
     0
281
     0
  0
CLASS
  1
MATERIAL
  2
AcDbMaterial
  3
ObjectDBX Classes
 90
     1153
280
     0
281
     0
  0
CLASS
  1
SCALE
  2
AcDbScale
  3
ObjectDBX Classes
 90
     1153
280
     0
281
     0
  0
CLASS
  1
TABLESTYLE
  2
AcDbTableStyle
  3
ObjectDBX Classes
 90
     4095
280
     0
281
     0
  0
CLASS
  1
MLEADERSTYLE
  2
AcDbMLeaderStyle
  3
ACDB_MLEADERSTYLE_CLASS
 90
     4095
280
     0
281
     0
  0
CLASS
  1
SUN
  2
AcDbSun
  3
SCENEOE
 90
     1153
280
     0
281
     0
  0
CLASS
  1
ACDBPLACEHOLDER
  2
AcDbPlaceHolder
  3
ObjectDBX Classes
 90
        0
280
     0
281
     0
  0
CLASS
  1
LAYOUT
  2
AcDbLayout
  3
ObjectDBX Classes
 90
        0
280
     0
281
     0
  0
ENDSEC
  0
SECTION
  2
TABLES
  0
TABLE
  2
VPORT
  5
8
330
0
100
AcDbSymbolTable
 70
     1
  0
VPORT
  5
29
330
8
100
AcDbSymbolTableRecord
100
AcDbViewportTableRecord
  2
*Active
 70
     0
 10
0.0
 20
0.0
 11
1.0
 21
1.0
 12
-461.8202836495
 22
-229.5861184702
 13
0.0
 23
0.0
 14
10.0
 24
10.0
 15
10.0
 25
10.0
 16
0.0
 26
0.0
 36
1.0
 17
0.0
 27
0.0
 37
0.0
 40
875.6700000045
 41
0.9861850251
 42
50.0
 43
0.0
 44
0.0
 50
0.0
 51
0.0
 71
     0
 72
   100
 73
     1
 74
     3
 75
     0
 76
     0
 77
     0
 78
     0
281
     0
 65
     1
110
0.0
120
0.0
130
0.0
111
1.0
121
0.0
131
0.0
112
0.0
122
1.0
132
0.0
 79
     0
146
0.0
  0
ENDTAB
  0
TABLE
  2
LTYPE
  5
5
330
0
100
AcDbSymbolTable
 70
     6
  0
LTYPE
  5
14
330
5
100
AcDbSymbolTableRecord
100
AcDbLinetypeTableRecord
  2
ByBlock
 70
     0
  3

 72
    65
 73
     0
 40
0.0
  0
LTYPE
  5
15
330
5
100
AcDbSymbolTableRecord
100
AcDbLinetypeTableRecord
  2
ByLayer
 70
     0
  3

 72
    65
 73
     0
 40
0.0
  0
LTYPE
  5
16
330
5
100
AcDbSymbolTableRecord
100
AcDbLinetypeTableRecord
  2
Continuous
 70
     0
  3
Solid line
 72
    65
 73
     0
 40
0.0
  0
LTYPE
  5
5E
330
5
100
AcDbSymbolTableRecord
100
AcDbLinetypeTableRecord
  2
HIDDEN
 70
     0
  3
Hidden __ __ __ __ __ __ __ __ __ __ __ __ __ __
 72
    65
 73
     2
 40
1.905
 49
1.27
 74
     0
 49
-0.635
 74
     0
  0
LTYPE
  5
5F
330
5
100
AcDbSymbolTableRecord
100
AcDbLinetypeTableRecord
  2
PHANTOM
 70
     0
  3
Phantom ______  __  __  ______  __  __  ______
 72
    65
 73
     6
 40
12.7
 49
6.35
 74
     0
 49
-1.27
 74
     0
 49
1.27
 74
     0
 49
-1.27
 74
     0
 49
1.27
 74
     0
 49
-1.27
 74
     0
  0
LTYPE
  5
60
330
5
100
AcDbSymbolTableRecord
100
AcDbLinetypeTableRecord
  2
CENTER
 70
     0
  3
Center ____ _ ____ _ ____ _ ____ _ ____ _ ____
 72
    65
 73
     4
 40
10.16
 49
6.35
 74
     0
 49
-1.27
 74
     0
 49
1.27
 74
     0
 49
-1.27
 74
     0
  0
LTYPE
  5
61
330
5
100
AcDbSymbolTableRecord
100
AcDbLinetypeTableRecord
  2
CENTERX2
 70
     0
  3
Center (2x) ________  __  ________  __  _____
 72
    65
 73
     4
 40
20.32
 49
12.7
 74
     0
 49
-2.54
 74
     0
 49
2.54
 74
     0
 49
-2.54
 74
     0
  0
LTYPE
  5
62
330
5
100
AcDbSymbolTableRecord
100
AcDbLinetypeTableRecord
  2
DOT2
 70
     0
  3
Dot (.5x) ........................................
 72
    65
 73
     2
 40
0.635
 49
0.0
 74
     0
 49
-0.635
 74
     0
  0
ENDTAB
  0
TABLE
  2
LAYER
  5
2
330
0
100
AcDbSymbolTable
 70
     1
  0
LAYER
  5
10
330
2
100
AcDbSymbolTableRecord
100
AcDbLayerTableRecord
  2
0
 70
     0
 62
     7
  6
Continuous
370
    -3
390
F
  0
ENDTAB
  0
TABLE
  2
STYLE
  5
3
330
0
100
AcDbSymbolTable
 70
     1
  0
STYLE
  5
11
330
3
100
AcDbSymbolTableRecord
100
AcDbTextStyleTableRecord
  2
Standard
 70
     0
 40
0.0
 41
1.0
 50
0.0
 71
     0
 42
3.5
  3
txt
  4

  0
ENDTAB
  0
TABLE
  2
VIEW
  5
6
330
0
100
AcDbSymbolTable
 70
     0
  0
ENDTAB
  0
TABLE
  2
UCS
  5
7
330
0
100
AcDbSymbolTable
 70
     0
  0
ENDTAB
  0
TABLE
  2
APPID
  5
9
330
0
100
AcDbSymbolTable
 70
     1
  0
APPID
  5
12
330
9
100
AcDbSymbolTableRecord
100
AcDbRegAppTableRecord
  2
ACAD
 70
     0
  0
ENDTAB
  0
TABLE
  2
DIMSTYLE
  5
A
330
0
100
AcDbSymbolTable
 70
     1
100
AcDbDimStyleTable
  0
DIMSTYLE
105
27
330
A
100
AcDbSymbolTableRecord
100
AcDbDimStyleTableRecord
  2
ISO-25
 70
     0
 41
2.5
 42
0.625
 43
3.75
 44
1.25
 73
     0
 74
     0
 77
     1
 78
     8
140
2.5
141
2.5
143
0.0393700787
147
0.625
171
     3
172
     1
178
     0
271
     2
272
     2
274
     3
278
    44
283
     0
284
     8
340
11
  0
ENDTAB
  0
TABLE
  2
BLOCK_RECORD
  5
1
330
0
100
AcDbSymbolTable
 70
     1
  0
BLOCK_RECORD
  5
1F
330
1
100
AcDbSymbolTableRecord
100
AcDbBlockTableRecord
  2
*Model_Space
340
22
  0
BLOCK_RECORD
  5
1B
330
1
100
AcDbSymbolTableRecord
100
AcDbBlockTableRecord
  2
*Paper_Space
340
1E
  0
BLOCK_RECORD
  5
23
330
1
100
AcDbSymbolTableRecord
100
AcDbBlockTableRecord
  2
*Paper_Space0
340
26
  0
ENDTAB
  0
ENDSEC
  0
SECTION
  2
BLOCKS
  0
BLOCK
  5
20
330
1F
100
AcDbEntity
  8
0
100
AcDbBlockBegin
  2
*Model_Space
 70
     0
 10
0.0
 20
0.0
 30
0.0
  3
*Model_Space
  1

  0
ENDBLK
  5
21
330
1F
100
AcDbEntity
  8
0
100
AcDbBlockEnd
  0
BLOCK
  5
1C
330
1B
100
AcDbEntity
 67
     1
  8
0
100
AcDbBlockBegin
  2
*Paper_Space
 70
     0
 10
0.0
 20
0.0
 30
0.0
  3
*Paper_Space
  1

  0
ENDBLK
  5
1D
330
1B
100
AcDbEntity
 67
     1
  8
0
100
AcDbBlockEnd
  0
BLOCK
  5
24
330
23
100
AcDbEntity
  8
0
100
AcDbBlockBegin
  2
*Paper_Space0
 70
     0
 10
0.0
 20
0.0
 30
0.0
  3
*Paper_Space0
  1

  0
ENDBLK
  5
25
330
23
100
AcDbEntity
  8
0
100
AcDbBlockEnd
  0
ENDSEC
  0
SECTION
  2
ENTITIES
  0
LWPOLYLINE
  5
B6
330
1F
100
AcDbEntity
  8
0
  6
Continuous
 62
     7
370
    25
100
AcDbPolyline
 90
       19
 70
   128
 43
0.0
 10
-820.2767612397
 20
160.3209645708
 10
-819.0629144366
 20
160.1681673069
 10
-817.8666096937
 20
160.3679248754
 10
-816.787888254
 20
160.9035325066
 10
-815.9169584312
 20
161.7301998963
 10
-815.3266519201
 20
162.7787968053
 10
-815.0663332305
 20
163.9616340903
 10
-815.1577715691
 20
165.1797967273
 10
-815.5933203851
 20
166.3314156024
 10
-816.3365568144
 20
167.3201863379
 10
-817.3253275499
 20
168.0634227672
 10
-818.476946425
 20
168.4989715832
 10
-819.695109062
 20
168.5904099218
 10
-820.877946347
 20
168.3300912322
 10
-821.926543256
 20
167.7397847212
 10
-822.7532106457
 20
166.8688548983
 10
-823.2888182769
 20
165.7901334586
 10
-823.4885758454
 20
164.5938287157
 10
-823.3357785815
 20
163.3799819126
  0
LWPOLYLINE
  5
B7
330
1F
100
AcDbEntity
  8
0
  6
Continuous
 62
     7
370
    25
100
AcDbPolyline
 90
       19
 70
   128
 43
0.0
 10
-852.7089620008
 20
134.0067984932
 10
-853.922808804
 20
134.1595957572
 10
-855.1191135469
 20
133.9598381886
 10
-856.1978349866
 20
133.4242305575
 10
-857.0687648094
 20
132.5975631678
 10
-857.6590713205
 20
131.5489662587
 10
-857.91939001
 20
130.3661289738
 10
-857.8279516714
 20
129.1479663367
 10
-857.3924028555
 20
127.9963474617
 10
-856.6491664262
 20
127.0075767262
 10
-855.6603956906
 20
126.2643402968
 10
-854.5087768156
 20
125.8287914809
 10
-853.2906141785
 20
125.7373531423
 10
-852.1077768936
 20
125.9976718319
 10
-851.0591799846
 20
126.5879783429
 10
-850.2325125948
 20
127.4589081657
 10
-849.6969049637
 20
128.5376296054
 10
-849.4971473951
 20
129.7339343483
 10
-849.6499446591
 20
130.9477811515
  0
LWPOLYLINE
  5
B8
330
1F
100
AcDbEntity
  8
0
  6
Continuous
 62
     7
370
    25
100
AcDbPolyline
 90
       19
 70
   128
 43
0.0
 10
-838.6559135264
 20
126.3939043512
 10
-839.6222768137
 20
125.6436290268
 10
-840.3269420785
 20
124.6564638995
 10
-840.7109815355
 20
123.5149608664
 10
-840.7422798021
 20
122.3145783657
 10
-840.4182195539
 20
121.1556986436
 10
-839.7659003993
 20
120.1352332677
 10
-838.8398726688
 20
119.3385188758
 10
-837.7175756316
 20
118.8321808812
 10
-836.4928616203
 20
118.6585619082
 10
-835.268147609
 20
118.8321808812
 10
-834.1458505718
 20
119.3385188758
 10
-833.2198228412
 20
120.1352332677
 10
-832.5675036867
 20
121.1556986436
 10
-832.2434434385
 20
122.3145783657
 10
-832.2747417051
 20
123.5149608664
 10
-832.6587811621
 20
124.6564638995
 10
-833.3634464269
 20
125.6436290268
 10
-834.3298097142
 20
126.3939043512
  0
LWPOLYLINE
  5
B9
330
1F
100
AcDbEntity
  8
0
  6
Continuous
 62
     7
370
    25
100
AcDbPolyline
 90
       19
 70
   128
 43
0.0
 10
-815.7228844394
 20
145.0008296259
 10
-814.9726091151
 20
144.0344663386
 10
-813.9854439877
 20
143.3298010738
 10
-812.8439409546
 20
142.9457616168
 10
-811.6435584539
 20
142.9144633503
 10
-810.4846787319
 20
143.2385235984
 10
-809.464213356
 20
143.890842753
 10
-808.667498964
 20
144.8168704835
 10
-808.1611609694
 20
145.9391675207
 10
-807.9875419965
 20
147.163881532
 10
-808.1611609694
 20
148.3885955434
 10
-808.667498964
 20
149.5108925806
 10
-809.464213356
 20
150.4369203111
 10
-810.4846787319
 20
151.0892394656
 10
-811.6435584539
 20
151.4132997138
 10
-812.8439409546
 20
151.3820014472
 10
-813.9854439877
 20
150.9979619902
 10
-814.9726091151
 20
150.2932967255
 10
-815.7228844394
 20
149.3269334381
  0
LWPOLYLINE
  5
BA
330
1F
100
AcDbEntity
  8
0
  6
Continuous
 62
     7
370
    25
100
AcDbPolyline
 90
       19
 70
   128
 43
0.0
 10
-823.3357785815
 20
130.9477811515
 10
-823.4885758454
 20
129.7339343483
 10
-823.2888182769
 20
128.5376296054
 10
-822.7532106457
 20
127.4589081657
 10
-821.926543256
 20
126.5879783429
 10
-820.877946347
 20
125.9976718319
 10
-819.695109062
 20
125.7373531423
 10
-818.476946425
 20
125.8287914809
 10
-817.3253275499
 20
126.2643402968
 10
-816.3365568144
 20
127.0075767262
 10
-815.5933203851
 20
127.9963474617
 10
-815.1577715691
 20
129.1479663367
 10
-815.0663332305
 20
130.3661289738
 10
-815.3266519201
 20
131.5489662587
 10
-815.9169584312
 20
132.5975631678
 10
-816.787888254
 20
133.4242305575
 10
-817.8666096937
 20
133.9598381886
 10
-819.0629144366
 20
134.1595957572
 10
-820.2767612397
 20
134.0067984932
  0
LWPOLYLINE
  5
BB
330
1F
100
AcDbEntity
  8
0
  6
Continuous
 62
     7
370
    25
100
AcDbPolyline
 90
       19
 70
   128
 43
0.0
 10
-834.3298097142
 20
167.9338587129
 10
-833.3634464269
 20
168.6841340372
 10
-832.6587811621
 20
169.6712991646
 10
-832.2747417051
 20
170.8128021977
 10
-832.2434434385
 20
172.0131846984
 10
-832.5675036867
 20
173.1720644204
 10
-833.2198228412
 20
174.1925297963
 10
-834.1458505718
 20
174.9892441883
 10
-835.268147609
 20
175.4955821829
 10
-836.4928616203
 20
175.6692011558
 10
-837.7175756316
 20
175.4955821829
 10
-838.8398726688
 20
174.9892441883
 10
-839.7659003993
 20
174.1925297963
 10
-840.4182195539
 20
173.1720644204
 10
-840.7422798021
 20
172.0131846984
 10
-840.7109815355
 20
170.8128021977
 10
-840.3269420785
 20
169.6712991646
 10
-839.6222768137
 20
168.6841340372
 10
-838.6559135264
 20
167.9338587129
  0
LWPOLYLINE
  5
BC
330
1F
100
AcDbEntity
  8
0
  6
Continuous
 62
     7
370
    25
100
AcDbPolyline
 90
       19
 70
   128
 43
0.0
 10
-849.6499446591
 20
163.3799819126
 10
-849.4971473951
 20
164.5938287157
 10
-849.6969049637
 20
165.7901334586
 10
-850.2325125948
 20
166.8688548983
 10
-851.0591799846
 20
167.7397847212
 10
-852.1077768936
 20
168.3300912322
 10
-853.2906141785
 20
168.5904099218
 10
-854.5087768156
 20
168.4989715832
 10
-855.6603956906
 20
168.0634227672
 10
-856.6491664262
 20
167.3201863379
 10
-857.3924028555
 20
166.3314156024
 10
-857.8279516714
 20
165.1797967273
 10
-857.91939001
 20
163.9616340903
 10
-857.6590713205
 20
162.7787968053
 10
-857.0687648094
 20
161.7301998963
 10
-856.1978349866
 20
160.9035325066
 10
-855.1191135469
 20
160.3679248754
 10
-853.922808804
 20
160.1681673069
 10
-852.7089620008
 20
160.3209645708
  0
LWPOLYLINE
  5
BD
330
1F
100
AcDbEntity
  8
0
  6
Continuous
 62
     7
370
    25
100
AcDbPolyline
 90
       19
 70
   128
 43
0.0
 10
-857.2628388012
 20
149.3269334381
 10
-858.0131141255
 20
150.2932967255
 10
-859.0002792529
 20
150.9979619902
 10
-860.1417822859
 20
151.3820014472
 10
-861.3421647867
 20
151.4132997138
 10
-862.5010445087
 20
151.0892394656
 10
-863.5215098846
 20
150.4369203111
 10
-864.3182242765
 20
149.5108925806
 10
-864.8245622712
 20
148.3885955434
 10
-864.9981812441
 20
147.163881532
 10
-864.8245622712
 20
145.9391675207
 10
-864.3182242765
 20
144.8168704835
 10
-863.5215098846
 20
143.890842753
 10
-862.5010445087
 20
143.2385235984
 10
-861.3421647867
 20
142.9144633503
 10
-860.1417822859
 20
142.9457616168
 10
-859.0002792529
 20
143.3298010738
 10
-858.0131141255
 20
144.0344663386
 10
-857.2628388012
 20
145.0008296259
  0
SPLINE
  5
BE
330
1F
100
AcDbEntity
  8
0
  6
Continuous
 62
     7
370
    25
100
AcDbSpline
210
0.0
220
0.0
230
1.0
 70
    11
 71
     3
 72
    23
 73
    19
 74
     0
 42
0.00000001
 43
0.00000001
 40
0.0
 40
0.0
 40
0.0
 40
0.0
 40
0.0624929655697661
 40
0.1250139044485906
 40
0.1874925097349151
 40
0.2499186867864895
 40
0.3123949929707162
 40
0.3749362556210784
 40
0.4374709541359293
 40
0.4999415284373276
 40
0.5623718758300478
 40
0.6248518706807891
 40
0.6873712222843712
 40
0.7498524746781192
 40
0.8123330390840653
 40
0.8748824762299523
 40
0.9374696282037149
 40
1.0
 40
1.0
 40
1.0
 40
1.0
 10
-343.7178616202869
 20
149.2638815320364
 30
0.0
 10
-343.4434537399661
 20
149.2309829520623
 30
0.0
 10
-342.8945151479569
 20
149.1651710659424
 30
0.0
 10
-342.1928815267649
 20
148.6847668759851
 30
0.0
 10
-341.7316227027244
 20
147.9887451424729
 30
0.0
 10
-341.5610730915353
 20
147.1645153311941
 30
0.0
 10
-341.7313629247287
 20
146.3417921535982
 30
0.0
 10
-342.1920722555078
 20
145.639395748055
 30
0.0
 10
-342.8939768574079
 20
145.1781997874991
 30
0.0
 10
-343.7168616880697
 20
145.0070295537426
 30
0.0
 10
-344.5397966256234
 20
145.177076433097
 30
0.0
 10
-345.2415452889903
 20
145.6375166474623
 30
0.0
 10
-345.7031110824561
 20
146.338868805485
 30
0.0
 10
-345.8747326738008
 20
147.1615251057592
 30
0.0
 10
-345.7050251016461
 20
147.9865470509138
 30
0.0
 10
-345.2440327244555
 20
148.6838481531452
 30
0.0
 10
-344.5417724590222
 20
149.1648405507948
 30
0.0
 10
-343.99241546443
 20
149.2308778611909
 30
0.0
 10
-343.7178616202869
 20
149.2638815320364
 30
0.0
  0
SPLINE
  5
BF
330
1F
100
AcDbEntity
  8
0
  6
Continuous
 62
     7
370
    25
100
AcDbSpline
210
0.0
220
0.0
230
1.0
 70
    11
 71
     3
 72
    23
 73
    19
 74
     0
 42
0.00000001
 43
0.00000001
 40
0.0
 40
0.0
 40
0.0
 40
0.0
 40
0.0624929655697449
 40
0.1250139044485957
 40
0.1874925097349025
 40
0.2499186867864911
 40
0.3123949929707065
 40
0.3749362556210785
 40
0.4374709541359146
 40
0.4999415284373207
 40
0.5623718758300379
 40
0.6248518706807739
 40
0.6873712222843682
 40
0.7498524746781179
 40
0.8123330390840615
 40
0.8748824762299419
 40
0.9374696282037238
 40
1.0
 40
1.0
 40
1.0
 40
1.0
 10
-161.842861620287
 20
149.2638815320383
 30
0.0
 10
-161.5684537399664
 20
149.2309829520642
 30
0.0
 10
-161.0195151479572
 20
149.1651710659441
 30
0.0
 10
-160.317881526765
 20
148.6847668759873
 30
0.0
 10
-159.8566227027249
 20
147.9887451424746
 30
0.0
 10
-159.6860730915355
 20
147.1645153311962
 30
0.0
 10
-159.8563629247283
 20
146.3417921535999
 30
0.0
 10
-160.317072255508
 20
145.6393957480572
 30
0.0
 10
-161.0189768574075
 20
145.1781997875007
 30
0.0
 10
-161.8418616880693
 20
145.0070295537447
 30
0.0
 10
-162.6647966256232
 20
145.1770764330989
 30
0.0
 10
-163.3665452889898
 20
145.6375166474643
 30
0.0
 10
-163.828111082456
 20
146.3388688054868
 30
0.0
 10
-163.9997326738006
 20
147.1615251057613
 30
0.0
 10
-163.8300251016463
 20
147.9865470509157
 30
0.0
 10
-163.3690327244557
 20
148.6838481531473
 30
0.0
 10
-162.6667724590223
 20
149.1648405507965
 30
0.0
 10
-162.11741546443
 20
149.2308778611929
 30
0.0
 10
-161.842861620287
 20
149.2638815320383
 30
0.0
  0
CIRCLE
  5
D3
330
1F
100
AcDbEntity
  8
0
  6
Continuous
 62
     7
370
    25
100
AcDbCircle
 10
-251.6428616203
 20
164.663881532
 30
0.0
 40
1.650000000000006
  0
CIRCLE
  5
D4
330
1F
100
AcDbEntity
  8
0
  6
Continuous
 62
     7
370
    25
100
AcDbCircle
 10
-251.6428616203
 20
129.663881532
 30
0.0
 40
1.649999999999977
  0
CIRCLE
  5
D5
330
1F
100
AcDbEntity
  8
0
  6
Continuous
 62
     7
370
    25
100
AcDbCircle
 10
-264.0172302911
 20
134.7895128613
 30
0.0
 40
1.649999999999892
  0
CIRCLE
  5
D6
330
1F
100
AcDbEntity
  8
0
  6
Continuous
 62
     7
370
    25
100
AcDbCircle
 10
-269.1428616203
 20
147.163881532
 30
0.0
 40
1.650000000000006
  0
CIRCLE
  5
D7
330
1F
100
AcDbEntity
  8
0
  6
Continuous
 62
     7
370
    25
100
AcDbCircle
 10
-264.0172302911
 20
159.5382502028
 30
0.0
 40
1.649999999999949
  0
CIRCLE
  5
D8
330
1F
100
AcDbEntity
  8
0
  6
Continuous
 62
     7
370
    25
100
AcDbCircle
 10
-239.2684929495
 20
134.7895128613
 30
0.0
 40
1.650000000000034
  0
CIRCLE
  5
D9
330
1F
100
AcDbEntity
  8
0
  6
Continuous
 62
     7
370
    25
100
AcDbCircle
 10
-239.2684929495
 20
159.5382502028
 30
0.0
 40
1.650000000000034
  0
CIRCLE
  5
DA
330
1F
100
AcDbEntity
  8
0
  6
Continuous
 62
     7
370
    25
100
AcDbCircle
 10
-234.1428616203
 20
147.163881532
 30
0.0
 40
1.650000000000006
  0
CIRCLE
  5
E1
330
1F
100
AcDbEntity
  8
0
  6
Continuous
 62
     7
370
    25
100
AcDbCircle
 10
-191.8582508072
 20
169.8466749619
 30
0.0
 40
1.649999999999977
  0
CIRCLE
  5
E2
330
1F
100
AcDbEntity
  8
0
  6
Continuous
 62
     7
370
    25
100
AcDbCircle
 10
-188.1678616203
 20
154.8741774667
 30
0.0
 40
1.650000000000006
  0
CIRCLE
  5
E3
330
1F
100
AcDbEntity
  8
0
  6
Continuous
 62
     7
370
    25
100
AcDbCircle
 10
-188.1678616203
 20
139.4535855974
 30
0.0
 40
1.649999999999977
  0
CIRCLE
  5
E4
330
1F
100
AcDbEntity
  8
0
  6
Continuous
 62
     7
370
    25
100
AcDbCircle
 10
-191.8582508072
 20
124.4810881021
 30
0.0
 40
1.649999999999977
  0
CIRCLE
  5
F9
330
1F
100
AcDbEntity
  8
0
  6
Continuous
 62
     7
370
    25
100
AcDbCircle
 10
-315.1678616203
 20
139.4535855974
 30
0.0
 40
2.025000000000034
  0
CIRCLE
  5
FA
330
1F
100
AcDbEntity
  8
0
  6
Continuous
 62
     7
370
    25
100
AcDbCircle
 10
-311.4774724334
 20
124.4810881021
 30
0.0
 40
2.024999999999963
  0
CIRCLE
  5
FB
330
1F
100
AcDbEntity
  8
0
  6
Continuous
 62
     7
370
    25
100
AcDbCircle
 10
-311.4774724334
 20
169.8466749619
 30
0.0
 40
2.024999999999949
  0
CIRCLE
  5
FC
330
1F
100
AcDbEntity
  8
0
  6
Continuous
 62
     7
370
    25
100
AcDbCircle
 10
-315.1678616203
 20
154.8741774667
 30
0.0
 40
2.024999999999892
  0
CIRCLE
  5
FD
330
1F
100
AcDbEntity
  8
0
  6
Continuous
 62
     7
370
    25
100
AcDbCircle
 10
-316.1342486013
 20
66.5447148654
 30
0.0
 40
1.51249999999996
  0
CIRCLE
  5
FE
330
1F
100
AcDbEntity
  8
0
  6
Continuous
 62
     7
370
    25
100
AcDbCircle
 10
-316.1342486013
 20
54.5197148654
 30
0.0
 40
1.512499999999974
  0
CIRCLE
  5
FF
330
1F
100
AcDbEntity
  8
0
  6
Continuous
 62
     7
370
    25
100
AcDbCircle
 10
-316.1342486013
 20
42.4947148654
 30
0.0
 40
1.512499999999989
  0
CIRCLE
  5
100
330
1F
100
AcDbEntity
  8
0
  6
Continuous
 62
     7
370
    25
100
AcDbCircle
 10
-316.1342486013
 20
30.4697148654
 30
0.0
 40
1.512499999999967
  0
SPLINE
  5
10A
330
1F
100
AcDbEntity
  8
0
  6
Continuous
 62
     7
370
    25
100
AcDbSpline
210
0.0
220
0.0
230
1.0
 70
     8
 71
     3
 72
    12
 73
     8
 74
     0
 42
0.00000001
 43
0.00000001
 40
0.0
 40
0.0
 40
0.0
 40
0.0
 40
0.2502268960150016
 40
0.5000404546266656
 40
0.7499426574325387
 40
0.999634462419681
 40
1.0
 40
1.0
 40
1.0
 40
1.0
 10
-343.7178616202874
 20
184.9899471438526
 30
0.0
 10
-344.3968966713037
 20
185.0014284736196
 30
0.0
 10
-345.7538451090019
 20
185.0243721677144
 30
0.0
 10
-347.5110290723566
 20
185.1715392906377
 30
0.0
 10
-348.5732147423578
 20
185.2991354148871
 30
0.0
 10
-349.0512683411332
 20
185.3629047242092
 30
0.0
 10
-348.917470426861
 20
185.3456492593371
 30
0.0
 10
-348.9172748390596
 20
185.3456240350394
 30
0.0
  0
SPLINE
  5
10B
330
1F
100
AcDbEntity
  8
0
  6
Continuous
 62
     7
370
    25
100
AcDbSpline
210
0.0
220
0.0
230
1.0
 70
     8
 71
     3
 72
    11
 73
     7
 74
     0
 42
0.00000001
 43
0.00000001
 40
0.0
 40
0.0
 40
0.0
 40
0.0
 40
0.2491201753574157
 40
0.499304010106655
 40
0.7492174944480031
 40
1.0
 40
1.0
 40
1.0
 40
1.0
 10
-338.5187878988849
 20
185.3455809452896
 30
0.0
 10
-338.6004478873577
 20
185.3345841421527
 30
0.0
 10
-338.7641165249996
 20
185.3125435832271
 30
0.0
 10
-339.9488785474172
 20
185.168607672439
 30
0.0
 10
-341.668790810842
 20
185.0241040623345
 30
0.0
 10
-343.0340481582113
 20
185.001345949874
 30
0.0
 10
-343.7178616202874
 20
184.9899471438526
 30
0.0
  0
SPLINE
  5
10C
330
1F
100
AcDbEntity
  8
0
  6
Continuous
 62
     7
370
    25
100
AcDbSpline
210
0.0
220
0.0
230
1.0
 70
    11
 71
     3
 72
    23
 73
    19
 74
     0
 42
0.00000001
 43
0.00000001
 40
0.0
 40
0.0
 40
0.0
 40
0.0
 40
0.0625536135183969
 40
0.1250038978240146
 40
0.1874763420762766
 40
0.2498961894892424
 40
0.3123575828108163
 40
0.3749217437113022
 40
0.4374676797090842
 40
0.4999092654591762
 40
0.5623123533141656
 40
0.6248160648934499
 40
0.687375193327982
 40
0.7498254842994694
 40
0.8122536726713212
 40
0.8748103810056711
 40
0.9372960146039381
 40
1.0
 40
1.0
 40
1.0
 40
1.0
 10
-343.7178616202868
 20
141.9638815320364
 30
0.0
 10
-344.3982760973089
 20
142.0458788133118
 30
0.0
 10
-345.757981108413
 20
142.2097379286189
 30
0.0
 10
-347.4945145116791
 20
143.3983938064395
 30
0.0
 10
-348.6351502743368
 20
145.1206856320594
 30
0.0
 10
-349.058756796739
 20
147.1620851898617
 30
0.0
 10
-348.6366384320267
 20
149.2005083443543
 30
0.0
 10
-347.4957665404857
 20
150.9388841879759
 30
0.0
 10
-345.7584751244365
 20
152.0803516314438
 30
0.0
 10
-343.7203767064773
 20
152.5048413174375
 30
0.0
 10
-341.6820003970365
 20
152.0831053197535
 30
0.0
 10
-339.944873240326
 20
150.9432076979478
 30
0.0
 10
-338.8016999894076
 20
149.2074896055521
 30
0.0
 10
-338.3761502957646
 20
147.1693984034356
 30
0.0
 10
-338.8014194076911
 20
145.1271225023749
 30
0.0
 10
-339.9386557112911
 20
143.4030337059268
 30
0.0
 10
-341.6713383278124
 20
142.2006630331178
 30
0.0
 10
-343.0348944322319
 20
142.0429004205932
 30
0.0
 10
-343.7178616202868
 20
141.9638815320364
 30
0.0
  0
SPLINE
  5
10D
330
1F
100
AcDbEntity
  8
0
  6
Continuous
 62
     7
370
    25
100
AcDbSpline
210
0.0
220
0.0
230
1.0
 70
     8
 71
     3
 72
    16
 73
    12
 74
     0
 42
0.00000001
 43
0.00000001
 40
0.0
 40
0.0
 40
0.0
 40
0.0
 40
0.1247482516177626
 40
0.2498775830207419
 40
0.3749752551504533
 40
0.4998618333210362
 40
0.6246726115100264
 40
0.7496846445690277
 40
0.8748075154257103
 40
0.9997127033291412
 40
1.0
 40
1.0
 40
1.0
 40
1.0
 10
-348.9172748390587
 20
108.9821390290334
 30
0.0
 10
-348.8362800756494
 20
108.993059299036
 30
0.0
 10
-348.6740431267895
 20
109.0149331981792
 30
0.0
 10
-347.4854821821446
 20
109.1610618828716
 30
0.0
 10
-345.7615097351262
 20
109.2971779425826
 30
0.0
 10
-343.7184517084629
 20
109.3578074120511
 30
0.0
 10
-341.6866382992678
 20
109.2984207182165
 30
0.0
 10
-339.9282048000711
 20
109.1580265437052
 30
0.0
 10
-338.8637380767064
 20
109.0283650163265
 30
0.0
 10
-338.3839398467067
 20
108.9648933258462
 30
0.0
 10
-338.518479152757
 20
108.982142534616
 30
0.0
 10
-338.5187878988839
 20
108.9821821187833
 30
0.0
  0
CIRCLE
  5
10E
330
1F
100
AcDbEntity
  8
0
  6
Continuous
 62
     7
370
    25
100
AcDbCircle
 10
-343.7178616203
 20
147.163881532
 30
0.0
 40
2.51249999999996
  0
CIRCLE
  5
119
330
1F
100
AcDbEntity
  8
0
  6
Continuous
 62
     7
370
    25
100
AcDbCircle
 10
-630.8928616154
 20
135.9972148614
 30
0.0
 40
1.649999999999977
  0
CIRCLE
  5
11A
330
1F
100
AcDbEntity
  8
0
  6
Continuous
 62
     7
370
    25
100
AcDbCircle
 10
-630.8928616154
 20
113.6638815281
 30
0.0
 40
1.649999999999906
  0
CIRCLE
  5
11B
330
1F
100
AcDbEntity
  8
0
  6
Continuous
 62
     7
370
    25
100
AcDbCircle
 10
-630.8928616154
 20
158.3305481947
 30
0.0
 40
1.649999999999864
  0
CIRCLE
  5
11C
330
1F
100
AcDbEntity
  8
0
  6
Continuous
 62
     7
370
    25
100
AcDbCircle
 10
-630.8928616154
 20
180.6638815281
 30
0.0
 40
1.650000000000006
  0
LWPOLYLINE
  5
11F
330
1F
100
AcDbEntity
  8
0
  6
Continuous
 62
     7
370
    25
100
AcDbPolyline
 90
        3
 70
   128
 43
0.0
 10
-239.3546930669
 20
120.0197770079
 10
-239.8676516461
 20
118.7171700583
 10
-239.8702186898
 20
118.7069229027
  0
LWPOLYLINE
  5
120
330
1F
100
AcDbEntity
  8
0
  6
Continuous
 62
     7
370
    25
100
AcDbPolyline
 90
        3
 70
   128
 43
0.0
 10
-232.8847339981
 20
122.7399943699
 10
-232.894891817
 20
122.7428948227
 10
-234.2794618161
 20
122.9499631367
  0
LWPOLYLINE
  5
121
330
1F
100
AcDbEntity
  8
0
  6
Continuous
 62
     7
370
    25
100
AcDbPolyline
 90
        3
 70
   128
 43
0.0
 10
-272.4737934527
 20
168.4681950814
 10
-272.4372878766
 20
169.8676873864
 10
-272.4383803782
 20
169.8781945436
  0
LWPOLYLINE
  5
122
330
1F
100
AcDbEntity
  8
0
  6
Continuous
 62
     7
370
    25
100
AcDbPolyline
 90
        3
 70
   128
 43
0.0
 10
-277.6231971144
 20
163.6991705713
 10
-277.6126598736
 20
163.699919216
 10
-276.2407681281
 20
163.9788894788
  0
LWPOLYLINE
  5
123
330
1F
100
AcDbEntity
  8
0
  6
Continuous
 62
     7
370
    25
100
AcDbPolyline
 90
        3
 70
   128
 43
0.0
 10
-222.7773189601
 20
154.5518409087
 10
-221.5835758596
 20
153.8204799999
 10
-221.5739301438
 20
153.8161725555
  0
LWPOLYLINE
  5
124
330
1F
100
AcDbEntity
  8
0
  6
Continuous
 62
     7
370
    25
100
AcDbPolyline
 90
        3
 70
   128
 43
0.0
 10
-224.3327135063
 20
161.3958675492
 10
-224.3373337814
 20
161.3863677086
 10
-224.7816843197
 20
160.0587894744
  0
LWPOLYLINE
  5
125
330
1F
100
AcDbEntity
  8
0
  6
Continuous
 62
     7
370
    25
100
AcDbPolyline
 90
        3
 70
   128
 43
0.0
 10
-253.9061324131
 20
176.8737974211
 10
-252.9785912058
 20
177.9224053925
 10
-252.9726742402
 20
177.9311565884
  0
LWPOLYLINE
  5
126
330
1F
100
AcDbEntity
  8
0
  6
Continuous
 62
     7
370
    25
100
AcDbPolyline
 90
        3
 70
   128
 43
0.0
 10
-260.9162743389
 20
176.5304855671
 10
-260.9077211246
 20
176.5242858543
 10
-259.677472448
 20
175.8561544581
  0
LWPOLYLINE
  5
127
330
1F
100
AcDbEntity
  8
0
  6
Continuous
 62
     7
370
    25
100
AcDbPolyline
 90
        3
 70
   128
 43
0.0
 10
-224.7816843197
 20
134.2689735897
 10
-224.3373337814
 20
132.9413953555
 10
-224.3327135063
 20
132.9318955149
  0
LWPOLYLINE
  5
128
330
1F
100
AcDbEntity
  8
0
  6
Continuous
 62
     7
370
    25
100
AcDbPolyline
 90
        3
 70
   128
 43
0.0
 10
-221.5739301438
 20
140.5115905086
 10
-221.5835758596
 20
140.5072830642
 10
-222.7773189601
 20
139.7759221553
  0
LWPOLYLINE
  5
129
330
1F
100
AcDbEntity
  8
0
  6
Continuous
 62
     7
370
    25
100
AcDbPolyline
 90
        3
 70
   128
 43
0.0
 10
-276.2407681281
 20
130.3488735853
 10
-277.6126598736
 20
130.6278438481
 10
-277.6231971144
 20
130.6285924928
  0
LWPOLYLINE
  5
12A
330
1F
100
AcDbEntity
  8
0
  6
Continuous
 62
     7
370
    25
100
AcDbPolyline
 90
        3
 70
   128
 43
0.0
 10
-272.4383803782
 20
124.4495685204
 10
-272.4372878766
 20
124.4600756776
 10
-272.4737934527
 20
125.8595679827
  0
LWPOLYLINE
  5
12B
330
1F
100
AcDbEntity
  8
0
  6
Continuous
 62
     7
370
    25
100
AcDbPolyline
 90
        3
 70
   128
 43
0.0
 10
-234.2794618161
 20
171.3777999274
 10
-232.894891817
 20
171.5848682414
 10
-232.884733998
 20
171.5877686942
  0
LWPOLYLINE
  5
12C
330
1F
100
AcDbEntity
  8
0
  6
Continuous
 62
     7
370
    25
100
AcDbPolyline
 90
        3
 70
   128
 43
0.0
 10
-239.8702186898
 20
175.6208401614
 10
-239.8676516461
 20
175.6105930057
 10
-239.3546930669
 20
174.3079860562
  0
LWPOLYLINE
  5
12D
330
1F
100
AcDbEntity
  8
0
  6
Continuous
 62
     7
370
    25
100
AcDbPolyline
 90
        3
 70
   128
 43
0.0
 10
-259.677472448
 20
118.471608606
 10
-260.9077211246
 20
117.8034772098
 10
-260.9162743389
 20
117.797277497
  0
LWPOLYLINE
  5
12E
330
1F
100
AcDbEntity
  8
0
  6
Continuous
 62
     7
370
    25
100
AcDbPolyline
 90
        3
 70
   128
 43
0.0
 10
-252.9726742402
 20
116.3966064757
 10
-252.9785912058
 20
116.4053576715
 10
-253.9061324131
 20
117.453965643
  0
LWPOLYLINE
  5
12F
330
1F
100
AcDbEntity
  8
0
  6
Continuous
 62
     7
370
    25
100
AcDbPolyline
 90
        3
 70
   128
 43
0.0
 10
-281.2944299779
 20
150.0940676609
 10
-282.1660413977
 20
151.1896062964
 10
-282.173632173
 20
151.1969529993
  0
LWPOLYLINE
  5
130
330
1F
100
AcDbEntity
  8
0
  6
Continuous
 62
     7
370
    25
100
AcDbPolyline
 90
        3
 70
   128
 43
0.0
 10
-282.173632173
 20
143.1308100648
 10
-282.1660413977
 20
143.1381567677
 10
-281.2944299779
 20
144.2336954032
  0
LWPOLYLINE
  5
131
330
1F
100
AcDbEntity
  8
0
  6
Continuous
 62
     7
370
    25
100
AcDbPolyline
 90
        3
 70
   128
 43
0.0
 10
-221.1605397425
 20
151.5481339131
 10
-221.4066379409
 20
151.519040578
 10
-222.1785996503
 20
151.3264120011
  0
LWPOLYLINE
  5
132
330
1F
100
AcDbEntity
  8
0
  6
Continuous
 62
     7
370
    25
100
AcDbPolyline
 90
        3
 70
   128
 43
0.0
 10
-222.1785996503
 20
143.001351063
 10
-221.4066379409
 20
142.8087224861
 10
-221.1605397425
 20
142.779629151
  0
LWPOLYLINE
  5
133
330
1F
100
AcDbEntity
  8
0
  6
Continuous
 62
     7
370
    25
100
AcDbPolyline
 90
        3
 70
   128
 43
0.0
 10
-225.4739052242
 20
130.9287548883
 10
-226.0917349687
 20
131.2855799489
 10
-226.3963044571
 20
131.4133023443
  0
LWPOLYLINE
  5
134
330
1F
100
AcDbEntity
  8
0
  6
Continuous
 62
     7
370
    25
100
AcDbPolyline
 90
        3
 70
   128
 43
0.0
 10
-231.747550478
 20
125.035935674
 10
-231.7229493478
 20
124.9946630406
 10
-231.1101914408
 20
124.2116905408
  0
LWPOLYLINE
  5
135
330
1F
100
AcDbEntity
  8
0
  6
Continuous
 62
     7
370
    25
100
AcDbPolyline
 90
        3
 70
   128
 43
0.0
 10
-231.1101914408
 20
170.1160725233
 10
-231.7229493478
 20
169.3331000234
 10
-231.747550478
 20
169.2918273901
  0
LWPOLYLINE
  5
136
330
1F
100
AcDbEntity
  8
0
  6
Continuous
 62
     7
370
    25
100
AcDbPolyline
 90
        3
 70
   128
 43
0.0
 10
-226.3963044571
 20
162.9144607198
 10
-226.0917349687
 20
163.0421831151
 10
-225.4739052242
 20
163.3990081758
  0
LWPOLYLINE
  5
137
330
1F
100
AcDbEntity
  8
0
  6
Continuous
 62
     7
370
    25
100
AcDbPolyline
 90
        3
 70
   128
 43
0.0
 10
-242.0320162391
 20
117.9059720534
 10
-242.2891926034
 20
118.6046455361
 10
-242.4271539448
 20
118.8700637376
  0
LWPOLYLINE
  5
138
330
1F
100
AcDbEntity
  8
0
  6
Continuous
 62
     7
370
    25
100
AcDbPolyline
 90
        3
 70
   128
 43
0.0
 10
-250.625738501
 20
117.4244320767
 10
-250.6381162653
 20
117.3461652081
 10
-250.6673077112
 20
116.3833371806
  0
LWPOLYLINE
  5
139
330
1F
100
AcDbEntity
  8
0
  6
Continuous
 62
     7
370
    25
100
AcDbPolyline
 90
        3
 70
   128
 43
0.0
 10
-242.4271539448
 20
175.4576993265
 10
-242.2891926034
 20
175.723117528
 10
-242.0320162391
 20
176.4217910106
  0
LWPOLYLINE
  5
13A
330
1F
100
AcDbEntity
  8
0
  6
Continuous
 62
     7
370
    25
100
AcDbPolyline
 90
        3
 70
   128
 43
0.0
 10
-250.6673077112
 20
177.9444258834
 10
-250.6381162653
 20
176.9815978559
 10
-250.625738501
 20
176.9033309873
  0
LWPOLYLINE
  5
13C
330
1F
100
AcDbEntity
  8
0
  6
Continuous
 62
     7
370
    25
100
AcDbPolyline
 90
        3
 70
   128
 43
0.0
 10
-270.6808964978
 20
171.370220454
 10
-270.3601337279
 20
170.968412638
 10
-269.9798497355
 20
170.5994156673
  0
LWPOLYLINE
  5
13E
330
1F
100
AcDbEntity
  8
0
  6
Continuous
 62
     7
370
    25
100
AcDbPolyline
 90
        3
 70
   128
 43
0.0
 10
-269.9798497355
 20
123.7283473967
 10
-270.3601337279
 20
123.359350426
 10
-270.6808964978
 20
122.9575426101
  0
LWPOLYLINE
  5
13F
330
1F
100
AcDbEntity
  8
0
  6
Continuous
 62
     7
370
    25
100
AcDbPolyline
 90
        3
 70
   128
 43
0.0
 10
-280.7538804381
 20
140.9980095956
 10
-281.3261193258
 20
140.9535398989
 10
-281.786377181
 20
140.8581630447
  0
LWPOLYLINE
  5
140
330
1F
100
AcDbEntity
  8
0
  6
Continuous
 62
     7
370
    25
100
AcDbPolyline
 90
        3
 70
   128
 43
0.0
 10
-278.7873719255
 20
132.6184638244
 10
-278.7642741163
 20
132.6293283899
 10
-277.9065419028
 20
133.1750112645
  0
LWPOLYLINE
  5
141
330
1F
100
AcDbEntity
  8
0
  6
Continuous
 62
     7
370
    25
100
AcDbPolyline
 90
        3
 70
   128
 43
0.0
 10
-277.9065419028
 20
161.1527517996
 10
-278.7642741163
 20
161.6984346741
 10
-278.7873719255
 20
161.7092992397
  0
LWPOLYLINE
  5
142
330
1F
100
AcDbEntity
  8
0
  6
Continuous
 62
     7
370
    25
100
AcDbPolyline
 90
        3
 70
   128
 43
0.0
 10
-281.786377181
 20
153.4696000194
 10
-281.3261193258
 20
153.3742231651
 10
-280.7538804381
 20
153.3297534685
  0
CIRCLE
  5
145
330
1F
100
AcDbEntity
  8
0
  6
Continuous
 62
     7
370
    25
100
AcDbCircle
 10
-225.3928616203
 20
-502.836118468
 30
0.0
 40
2.100000000000023
  0
CIRCLE
  5
146
330
1F
100
AcDbEntity
  8
0
  6
Continuous
 62
     7
370
    25
100
AcDbCircle
 10
-264.7678616203
 20
-480.1029516186
 30
0.0
 40
2.100000000000023
  0
CIRCLE
  5
147
330
1F
100
AcDbEntity
  8
0
  6
Continuous
 62
     7
370
    25
100
AcDbCircle
 10
-276.3097929159
 20
-493.8580897057
 30
0.0
 40
2.099999999999909
  0
CIRCLE
  5
148
330
1F
100
AcDbEntity
  8
0
  6
Continuous
 62
     7
370
    25
100
AcDbCircle
 10
-276.3097929159
 20
-511.8141472303
 30
0.0
 40
2.100000000000023
  0
CIRCLE
  5
149
330
1F
100
AcDbEntity
  8
0
  6
Continuous
 62
     7
370
    25
100
AcDbCircle
 10
-264.7678616203
 20
-525.5692853173
 30
0.0
 40
2.100000000000023
  0
CIRCLE
  5
14A
330
1F
100
AcDbEntity
  8
0
  6
Continuous
 62
     7
370
    25
100
AcDbCircle
 10
-247.0845969565
 20
-528.6873219845
 30
0.0
 40
2.100000000000023
  0
CIRCLE
  5
14B
330
1F
100
AcDbEntity
  8
0
  6
Continuous
 62
     7
370
    25
100
AcDbCircle
 10
-231.5341949884
 20
-519.7092932222
 30
0.0
 40
2.099999999999966
  0
CIRCLE
  5
14C
330
1F
100
AcDbEntity
  8
0
  6
Continuous
 62
     7
370
    25
100
AcDbCircle
 10
-231.5341949884
 20
-485.9629437137
 30
0.0
 40
2.099999999999966
  0
CIRCLE
  5
14D
330
1F
100
AcDbEntity
  8
0
  6
Continuous
 62
     7
370
    25
100
AcDbCircle
 10
-247.0845969565
 20
-476.9849149514
 30
0.0
 40
2.100000000000023
  0
CIRCLE
  5
162
330
1F
100
AcDbEntity
  8
0
  6
Continuous
 62
     7
370
    25
100
AcDbCircle
 10
-316.1342486013
 20
66.5447148654
 30
0.0
 40
1.249999999999972
  0
CIRCLE
  5
163
330
1F
100
AcDbEntity
  8
0
  6
Continuous
 62
     7
370
    25
100
AcDbCircle
 10
-316.1342486013
 20
54.5197148654
 30
0.0
 40
1.249999999999922
  0
CIRCLE
  5
164
330
1F
100
AcDbEntity
  8
0
  6
Continuous
 62
     7
370
    25
100
AcDbCircle
 10
-316.1342486013
 20
42.4947148654
 30
0.0
 40
1.249999999999993
  0
CIRCLE
  5
165
330
1F
100
AcDbEntity
  8
0
  6
Continuous
 62
     7
370
    25
100
AcDbCircle
 10
-316.1342486013
 20
30.4697148654
 30
0.0
 40
1.249999999999986
  0
SPLINE
  5
167
330
1F
100
AcDbEntity
  8
0
  6
Continuous
 62
     7
370
    25
100
AcDbSpline
210
0.0
220
0.0
230
1.0
 70
     8
 71
     3
 72
    11
 73
     7
 74
     0
 42
0.00000001
 43
0.00000001
 40
0.0
 40
0.0
 40
0.0
 40
0.0
 40
0.2943369599166386
 40
0.6406770242511433
 40
0.9579558741945384
 40
1.0
 40
1.0
 40
1.0
 40
1.0
 10
-316.1345555791384
 20
65.29475705195092
 30
0.0
 10
-316.0336952684078
 20
65.30177000429765
 30
0.0
 10
-315.8141547670643
 20
65.31703494908075
 30
0.0
 10
-315.5254627580468
 20
65.44356537909573
 30
0.0
 10
-315.332606317393
 20
65.56660517158785
 30
0.0
 10
-315.2623119710948
 20
65.65281163732229
 30
0.0
 10
-315.2540868796349
 20
65.6628985945591
 30
0.0
  0
CIRCLE
  5
168
330
1F
100
AcDbEntity
  8
0
  6
Continuous
 62
     7
370
    25
100
AcDbCircle
 10
-836.4928616203
 20
147.163881532
 30
0.0
 40
30.9899999999999
  0
CIRCLE
  5
169
330
1F
100
AcDbEntity
  8
0
  6
Continuous
 62
     7
370
    25
100
AcDbCircle
 10
-836.4928616203
 20
147.163881532
 30
0.0
 40
38.5
  0
SPLINE
  5
172
330
1F
100
AcDbEntity
  8
0
  6
Continuous
 62
     7
370
    25
100
AcDbSpline
210
0.0
220
0.0
230
1.0
 70
    11
 71
     3
 72
    30
 73
    26
 74
     0
 42
0.00000001
 43
0.00000001
 40
0.0
 40
0.0
 40
0.0
 40
0.0
 40
0.0523032201832744
 40
0.0861507177581847
 40
0.1250665537326251
 40
0.1641715041447363
 40
0.1980613831084822
 40
0.2500115369513061
 40
0.3022137464211293
 40
0.3360921296526524
 40
0.3750936750092568
 40
0.4142379374299033
 40
0.4481581680931135
 40
0.5001419789616829
 40
0.5520457326320428
 40
0.5859535061943724
 40
0.6251038616428947
 40
0.6640716040537237
 40
0.697935426260998
 40
0.750165638824949
 40
0.8124340464701685
 40
0.874827325060988
 40
0.9136056265211212
 40
0.9474245103570911
 40
1.0
 40
1.0
 40
1.0
 40
1.0
 10
-161.8428616202869
 20
141.9638815320383
 30
0.0
 10
-161.2717514475404
 20
142.0173143044651
 30
0.0
 10
-160.331053128609
 20
142.1053255527258
 30
0.0
 10
-159.0926826896937
 20
142.7014411681908
 30
0.0
 10
-158.1271125351548
 20
143.4506872168998
 30
0.0
 10
-157.3731350465281
 20
144.4187446726459
 30
0.0
 10
-156.7991334416098
 20
145.6564811183401
 30
0.0
 10
-156.5483292279162
 20
147.1636658449919
 30
0.0
 10
-156.7986716420363
 20
148.6709991853169
 30
0.0
 10
-157.3738693498291
 20
149.9101790090334
 30
0.0
 10
-158.1286154182661
 20
150.8776743125032
 30
0.0
 10
-159.0963553177378
 20
151.6330236603834
 30
0.0
 10
-160.3353936313647
 20
152.2076617832553
 30
0.0
 10
-161.8399810646056
 20
152.4579204355047
 30
0.0
 10
-163.3445814957549
 20
152.2092236691631
 30
0.0
 10
-164.5835189476232
 20
151.6366074324291
 30
0.0
 10
-165.5519236166402
 20
150.8827950065266
 30
0.0
 10
-166.3077412944335
 20
149.9167615979204
 30
0.0
 10
-166.8847661667068
 20
148.6786225095001
 30
0.0
 10
-167.1563823000266
 20
147.059298191743
 30
0.0
 10
-166.773828237375
 20
145.1253526483453
 30
0.0
 10
-165.7622373358573
 20
143.6096685543524
 30
0.0
 10
-164.5989733971956
 20
142.7054423602546
 30
0.0
 10
-163.3604414285912
 20
142.1065317219255
 30
0.0
 10
-162.4169969018614
 20
142.0178493737883
 30
0.0
 10
-161.8428616202869
 20
141.9638815320384
 30
0.0
  0
CIRCLE
  5
179
330
1F
100
AcDbEntity
  8
0
  6
Continuous
 62
     7
370
    25
100
AcDbCircle
 10
-161.8428616203
 20
147.163881532
 30
0.0
 40
2.512500000000017
  0
SPLINE
  5
189
330
1F
100
AcDbEntity
  8
0
  6
Continuous
 62
     7
370
    25
100
AcDbSpline
210
0.0
220
0.0
230
1.0
 70
     8
 71
     3
 72
    14
 73
    10
 74
     0
 42
0.00000001
 43
0.00000001
 40
0.0
 40
0.0
 40
0.0
 40
0.0
 40
0.209127396004189
 40
0.34446206573008
 40
0.5000618053283655
 40
0.656417693587445
 40
0.7919218196002559
 40
0.9996375272966065
 40
1.0
 40
1.0
 40
1.0
 40
1.0
 10
-161.8428616202873
 20
184.3015982092924
 30
0.0
 10
-161.2718169260516
 20
184.3132362020131
 30
0.0
 10
-160.3312264593836
 20
184.3324056034886
 30
0.0
 10
-159.0922389081589
 20
184.4060898771636
 30
0.0
 10
-158.1290921632664
 20
184.4827943977013
 30
0.0
 10
-157.3661492838951
 20
184.562721649297
 30
0.0
 10
-156.8262938673534
 20
184.6265258680136
 30
0.0
 10
-156.5509169219462
 20
184.6788233975971
 30
0.0
 10
-156.6431831078004
 20
184.66382932082
 30
0.0
 10
-156.6433438357236
 20
184.6638032011013
 30
0.0
  0
SPLINE
  5
18A
330
1F
100
AcDbEntity
  8
0
  6
Continuous
 62
     7
370
    25
100
AcDbSpline
210
0.0
220
0.0
230
1.0
 70
     8
 71
     3
 72
    12
 73
     8
 74
     0
 42
0.00000001
 43
0.00000001
 40
0.0
 40
0.0
 40
0.0
 40
0.0
 40
0.2488115332727055
 40
0.4986922306844135
 40
0.6539966037218846
 40
0.7894388575908967
 40
1.0
 40
1.0
 40
1.0
 40
1.0
 10
-167.0419605497714
 20
184.6637555996159
 30
0.0
 10
-166.9647512147972
 20
184.6515371647598
 30
0.0
 10
-166.8100007698261
 20
184.6270477914026
 30
0.0
 10
-165.7563512905256
 20
184.4985987304473
 30
0.0
 10
-164.6000259354824
 20
184.4044680673134
 30
0.0
 10
-163.3600269751773
 20
184.3293364176618
 30
0.0
 10
-162.4168401046203
 20
184.3120922103231
 30
0.0
 10
-161.8428616202873
 20
184.3015982092924
 30
0.0
  0
SPLINE
  5
190
330
1F
100
AcDbEntity
  8
0
  6
Continuous
 62
     7
370
    25
100
AcDbSpline
210
0.0
220
0.0
230
1.0
 70
     8
 71
     3
 72
    20
 73
    16
 74
     0
 42
0.00000001
 43
0.00000001
 40
0.0
 40
0.0
 40
0.0
 40
0.0
 40
0.1041802825463634
 40
0.1719092073103325
 40
0.2498802460427231
 40
0.328136601616448
 40
0.3959491868530228
 40
0.4998740876135044
 40
0.6036389397696245
 40
0.6714266210418454
 40
0.7496951576639915
 40
0.8275986182845353
 40
0.895298432966446
 40
0.9997159346215531
 40
1.0
 40
1.0
 40
1.0
 40
1.0
 10
-156.6433438357229
 20
109.6639598629755
 30
0.0
 10
-156.6961923988995
 20
109.6749691536439
 30
0.0
 10
-156.7833984841695
 20
109.6931357239929
 30
0.0
 10
-157.377886435311
 20
109.7667753830253
 30
0.0
 10
-158.1274660216334
 20
109.8442969583007
 30
0.0
 10
-159.0966169933835
 20
109.9233253922541
 30
0.0
 10
-160.3352773139936
 20
109.9930914047537
 30
0.0
 10
-161.8400831680207
 20
110.0461125955542
 30
0.0
 10
-163.3443604465305
 20
109.9932946035546
 30
0.0
 10
-164.5840526909823
 20
109.9235116215999
 30
0.0
 10
-165.5495599814347
 20
109.8453778093658
 30
0.0
 10
-166.3159982688401
 20
109.7654339235218
 30
0.0
 10
-166.8524522132516
 20
109.7015751696094
 30
0.0
 10
-167.1529884804471
 20
109.6484839681536
 30
0.0
 10
-167.0422609641265
 20
109.6639654616859
 30
0.0
 10
-167.0419605497706
 20
109.6640074644605
 30
0.0
  0
CIRCLE
  5
193
330
1F
100
AcDbEntity
  8
0
  6
Continuous
 62
     7
370
    25
100
AcDbCircle
 10
-836.4928616203
 20
147.163881532
 30
0.0
 40
29.20691380780079
  0
CIRCLE
  5
19C
330
1F
100
AcDbEntity
  8
0
  6
Continuous
 62
     7
370
    25
100
AcDbCircle
 10
-836.4928616203
 20
147.163881532
 30
0.0
 40
20.88230500000003
  0
CIRCLE
  5
19D
330
1F
100
AcDbEntity
  8
0
  6
Continuous
 62
     7
370
    25
100
AcDbCircle
 10
-827.6972574425
 20
154.1781418029
 30
0.0
 40
1.512500000000017
  0
CIRCLE
  5
19E
330
1F
100
AcDbEntity
  8
0
  6
Continuous
 62
     7
370
    25
100
AcDbCircle
 10
-825.5249226082
 20
144.660521025
 30
0.0
 40
1.512499999999932
  0
CIRCLE
  5
19F
330
1F
100
AcDbEntity
  8
0
  6
Continuous
 62
     7
370
    25
100
AcDbCircle
 10
-831.6116695552
 20
137.0279817681
 30
0.0
 40
1.512500000000074
  0
CIRCLE
  5
1A0
330
1F
100
AcDbEntity
  8
0
  6
Continuous
 62
     7
370
    25
100
AcDbCircle
 10
-841.3740536854
 20
137.0279817681
 30
0.0
 40
1.512500000000017
  0
CIRCLE
  5
1A1
330
1F
100
AcDbEntity
  8
0
  6
Continuous
 62
     7
370
    25
100
AcDbCircle
 10
-847.4608006323
 20
144.660521025
 30
0.0
 40
1.512500000000045
  0
CIRCLE
  5
1A2
330
1F
100
AcDbEntity
  8
0
  6
Continuous
 62
     7
370
    25
100
AcDbCircle
 10
-845.2884657981
 20
154.1781418029
 30
0.0
 40
1.512500000000102
  0
CIRCLE
  5
1A3
330
1F
100
AcDbEntity
  8
0
  6
Continuous
 62
     7
370
    25
100
AcDbCircle
 10
-836.4928616203
 20
158.413881532
 30
0.0
 40
1.512500000000045
  0
CIRCLE
  5
1A4
330
1F
100
AcDbEntity
  8
0
  6
Continuous
 62
     7
370
    25
100
AcDbCircle
 10
-239.2684929495
 20
134.7895128613
 30
0.0
 40
5.125000000000028
  0
CIRCLE
  5
1A5
330
1F
100
AcDbEntity
  8
0
  6
Continuous
 62
     7
370
    25
100
AcDbCircle
 10
-251.6428616203
 20
129.663881532
 30
0.0
 40
5.124999999999972
  0
CIRCLE
  5
1A6
330
1F
100
AcDbEntity
  8
0
  6
Continuous
 62
     7
370
    25
100
AcDbCircle
 10
-234.1428616203
 20
147.163881532
 30
0.0
 40
5.125000000000028
  0
CIRCLE
  5
1A7
330
1F
100
AcDbEntity
  8
0
  6
Continuous
 62
     7
370
    25
100
AcDbCircle
 10
-251.6428616203
 20
164.663881532
 30
0.0
 40
5.124999999999972
  0
CIRCLE
  5
1A8
330
1F
100
AcDbEntity
  8
0
  6
Continuous
 62
     7
370
    25
100
AcDbCircle
 10
-264.0172302911
 20
134.7895128613
 30
0.0
 40
5.125000000000085
  0
CIRCLE
  5
1A9
330
1F
100
AcDbEntity
  8
0
  6
Continuous
 62
     7
370
    25
100
AcDbCircle
 10
-264.0172302911
 20
159.5382502028
 30
0.0
 40
5.124999999999972
  0
CIRCLE
  5
1AA
330
1F
100
AcDbEntity
  8
0
  6
Continuous
 62
     7
370
    25
100
AcDbCircle
 10
-269.1428616203
 20
147.163881532
 30
0.0
 40
5.125
  0
CIRCLE
  5
1AB
330
1F
100
AcDbEntity
  8
0
  6
Continuous
 62
     7
370
    25
100
AcDbCircle
 10
-239.2684929495
 20
159.5382502028
 30
0.0
 40
5.124999999999943
  0
CIRCLE
  5
1AC
330
1F
100
AcDbEntity
  8
0
  6
Continuous
 62
     7
370
    25
100
AcDbCircle
 10
-251.6428616203
 20
147.163881532
 30
0.0
 40
29.79600000000002
  0
CIRCLE
  5
1AD
330
1F
100
AcDbEntity
  8
0
  6
Continuous
 62
     7
370
    25
100
AcDbCircle
 10
-234.1428616203
 20
147.163881532
 30
0.0
 40
2.024999999999977
  0
CIRCLE
  5
1AE
330
1F
100
AcDbEntity
  8
0
  6
Continuous
 62
     7
370
    25
100
AcDbCircle
 10
-239.2684929495
 20
159.5382502028
 30
0.0
 40
2.025000000000006
  0
CIRCLE
  5
1AF
330
1F
100
AcDbEntity
  8
0
  6
Continuous
 62
     7
370
    25
100
AcDbCircle
 10
-239.2684929495
 20
134.7895128613
 30
0.0
 40
2.025000000000006
  0
CIRCLE
  5
1B0
330
1F
100
AcDbEntity
  8
0
  6
Continuous
 62
     7
370
    25
100
AcDbCircle
 10
-251.6428616203
 20
129.663881532
 30
0.0
 40
2.024999999999991
  0
CIRCLE
  5
1B1
330
1F
100
AcDbEntity
  8
0
  6
Continuous
 62
     7
370
    25
100
AcDbCircle
 10
-251.6428616203
 20
164.663881532
 30
0.0
 40
2.025000000000006
  0
CIRCLE
  5
1B2
330
1F
100
AcDbEntity
  8
0
  6
Continuous
 62
     7
370
    25
100
AcDbCircle
 10
-264.0172302911
 20
159.5382502028
 30
0.0
 40
2.02499999999992
  0
CIRCLE
  5
1B3
330
1F
100
AcDbEntity
  8
0
  6
Continuous
 62
     7
370
    25
100
AcDbCircle
 10
-264.0172302911
 20
134.7895128613
 30
0.0
 40
2.025000000000034
  0
CIRCLE
  5
1B4
330
1F
100
AcDbEntity
  8
0
  6
Continuous
 62
     7
370
    25
100
AcDbCircle
 10
-269.1428616203
 20
147.163881532
 30
0.0
 40
2.025000000000063
  0
CIRCLE
  5
1B5
330
1F
100
AcDbEntity
  8
0
  6
Continuous
 62
     7
370
    25
100
AcDbCircle
 10
-251.6428616203
 20
99.663881532
 30
0.0
 40
1.650000000000006
  0
CIRCLE
  5
1B6
330
1F
100
AcDbEntity
  8
0
  6
Continuous
 62
     7
370
    25
100
AcDbCircle
 10
-297.9519374489
 20
157.733625895
 30
0.0
 40
1.64999999999992
  0
CIRCLE
  5
1B7
330
1F
100
AcDbEntity
  8
0
  6
Continuous
 62
     7
370
    25
100
AcDbCircle
 10
-297.9519374489
 20
136.5941371691
 30
0.0
 40
1.649999999999977
  0
CIRCLE
  5
1B8
330
1F
100
AcDbEntity
  8
0
  6
Continuous
 62
     7
370
    25
100
AcDbCircle
 10
-288.7798570375
 20
117.5481159437
 30
0.0
 40
1.64999999999992
  0
CIRCLE
  5
1B9
330
1F
100
AcDbEntity
  8
0
  6
Continuous
 62
     7
370
    25
100
AcDbCircle
 10
-272.2523392284
 20
104.3678603067
 30
0.0
 40
1.649999999999878
  0
CIRCLE
  5
1BA
330
1F
100
AcDbEntity
  8
0
  6
Continuous
 62
     7
370
    25
100
AcDbCircle
 10
-231.0333840122
 20
104.3678603067
 30
0.0
 40
1.649999999999977
  0
CIRCLE
  5
1BB
330
1F
100
AcDbEntity
  8
0
  6
Continuous
 62
     7
370
    25
100
AcDbCircle
 10
-214.5058662031
 20
117.5481159437
 30
0.0
 40
1.649999999999935
  0
CIRCLE
  5
1BC
330
1F
100
AcDbEntity
  8
0
  6
Continuous
 62
     7
370
    25
100
AcDbCircle
 10
-205.3337857917
 20
136.5941371691
 30
0.0
 40
1.650000000000034
  0
CIRCLE
  5
1BD
330
1F
100
AcDbEntity
  8
0
  6
Continuous
 62
     7
370
    25
100
AcDbCircle
 10
-205.3337857917
 20
157.733625895
 30
0.0
 40
1.649999999999977
  0
CIRCLE
  5
1BE
330
1F
100
AcDbEntity
  8
0
  6
Continuous
 62
     7
370
    25
100
AcDbCircle
 10
-214.5058662031
 20
176.7796471203
 30
0.0
 40
1.649999999999892
  0
CIRCLE
  5
1BF
330
1F
100
AcDbEntity
  8
0
  6
Continuous
 62
     7
370
    25
100
AcDbCircle
 10
-231.0333840122
 20
189.9599027574
 30
0.0
 40
1.649999999999949
  0
CIRCLE
  5
1C0
330
1F
100
AcDbEntity
  8
0
  6
Continuous
 62
     7
370
    25
100
AcDbCircle
 10
-251.6428616203
 20
194.663881532
 30
0.0
 40
1.650000000000034
  0
CIRCLE
  5
1C1
330
1F
100
AcDbEntity
  8
0
  6
Continuous
 62
     7
370
    25
100
AcDbCircle
 10
-272.2523392284
 20
189.9599027574
 30
0.0
 40
1.649999999999949
  0
CIRCLE
  5
1C2
330
1F
100
AcDbEntity
  8
0
  6
Continuous
 62
     7
370
    25
100
AcDbCircle
 10
-288.7798570375
 20
176.7796471203
 30
0.0
 40
1.649999999999835
  0
CIRCLE
  5
21A
330
1F
100
AcDbEntity
  8
0
  6
Continuous
 62
     7
370
    25
100
AcDbCircle
 10
-432.5803616203
 20
180.663881532
 30
0.0
 40
2.025000000000063
  0
CIRCLE
  5
21B
330
1F
100
AcDbEntity
  8
0
  6
Continuous
 62
     7
370
    25
100
AcDbCircle
 10
-459.6303616203
 20
180.663881532
 30
0.0
 40
2.025000000000006
  0
CIRCLE
  5
21C
330
1F
100
AcDbEntity
  8
0
  6
Continuous
 62
     7
370
    25
100
AcDbCircle
 10
-432.5803616203
 20
113.663881532
 30
0.0
 40
2.025000000000048
  0
CIRCLE
  5
21D
330
1F
100
AcDbEntity
  8
0
  6
Continuous
 62
     7
370
    25
100
AcDbCircle
 10
-630.8928616203
 20
180.663881532
 30
0.0
 40
2.02499999999992
  0
CIRCLE
  5
21E
330
1F
100
AcDbEntity
  8
0
  6
Continuous
 62
     7
370
    25
100
AcDbCircle
 10
-405.5303616203
 20
180.663881532
 30
0.0
 40
2.024999999999949
  0
CIRCLE
  5
21F
330
1F
100
AcDbEntity
  8
0
  6
Continuous
 62
     7
370
    25
100
AcDbCircle
 10
-364.9553616203
 20
135.9972148654
 30
0.0
 40
2.025000000000034
  0
CIRCLE
  5
220
330
1F
100
AcDbEntity
  8
0
  6
Continuous
 62
     7
370
    25
100
AcDbCircle
 10
-419.0553616203
 20
158.3305481987
 30
0.0
 40
2.025000000000006
  0
CIRCLE
  5
221
330
1F
100
AcDbEntity
  8
0
  6
Continuous
 62
     7
370
    25
100
AcDbCircle
 10
-630.8928616203
 20
135.9972148654
 30
0.0
 40
2.025000000000006
  0
CIRCLE
  5
222
330
1F
100
AcDbEntity
  8
0
  6
Continuous
 62
     7
370
    25
100
AcDbCircle
 10
-630.8928616203
 20
158.3305481987
 30
0.0
 40
2.025000000000006
  0
CIRCLE
  5
223
330
1F
100
AcDbEntity
  8
0
  6
Continuous
 62
     7
370
    25
100
AcDbCircle
 10
-446.1053616203
 20
158.3305481987
 30
0.0
 40
2.025000000000006
  0
CIRCLE
  5
224
330
1F
100
AcDbEntity
  8
0
  6
Continuous
 62
     7
370
    25
100
AcDbCircle
 10
-392.0053616203
 20
158.3305481987
 30
0.0
 40
2.024999999999977
  0
CIRCLE
  5
225
330
1F
100
AcDbEntity
  8
0
  6
Continuous
 62
     7
370
    25
100
AcDbCircle
 10
-364.9553616203
 20
158.3305481987
 30
0.0
 40
2.02499999999992
  0
CIRCLE
  5
226
330
1F
100
AcDbEntity
  8
0
  6
Continuous
 62
     7
370
    25
100
AcDbCircle
 10
-446.1053616203
 20
135.9972148654
 30
0.0
 40
2.024999999999949
  0
CIRCLE
  5
227
330
1F
100
AcDbEntity
  8
0
  6
Continuous
 62
     7
370
    25
100
AcDbCircle
 10
-419.0553616203
 20
135.9972148654
 30
0.0
 40
2.025000000000006
  0
CIRCLE
  5
228
330
1F
100
AcDbEntity
  8
0
  6
Continuous
 62
     7
370
    25
100
AcDbCircle
 10
-392.0053616203
 20
135.9972148654
 30
0.0
 40
2.02499999999992
  0
CIRCLE
  5
229
330
1F
100
AcDbEntity
  8
0
  6
Continuous
 62
     7
370
    25
100
AcDbCircle
 10
-378.4803616203
 20
113.663881532
 30
0.0
 40
2.024999999999977
  0
CIRCLE
  5
22A
330
1F
100
AcDbEntity
  8
0
  6
Continuous
 62
     7
370
    25
100
AcDbCircle
 10
-405.5303616203
 20
113.663881532
 30
0.0
 40
2.024999999999935
  0
CIRCLE
  5
22B
330
1F
100
AcDbEntity
  8
0
  6
Continuous
 62
     7
370
    25
100
AcDbCircle
 10
-378.4803616203
 20
180.663881532
 30
0.0
 40
2.024999999999949
  0
CIRCLE
  5
22C
330
1F
100
AcDbEntity
  8
0
  6
Continuous
 62
     7
370
    25
100
AcDbCircle
 10
-630.8928616203
 20
113.663881532
 30
0.0
 40
2.024999999999935
  0
CIRCLE
  5
22D
330
1F
100
AcDbEntity
  8
0
  6
Continuous
 62
     7
370
    25
100
AcDbCircle
 10
-459.6303616203
 20
113.663881532
 30
0.0
 40
2.024999999999963
  0
CIRCLE
  5
22F
330
1F
100
AcDbEntity
  8
0
  6
Continuous
 62
     7
370
    25
100
AcDbCircle
 10
-311.4774724334
 20
169.8466749619
 30
0.0
 40
1.649999999999949
  0
CIRCLE
  5
230
330
1F
100
AcDbEntity
  8
0
  6
Continuous
 62
     7
370
    25
100
AcDbCircle
 10
-315.1678616203
 20
154.8741774667
 30
0.0
 40
1.650000000000006
  0
CIRCLE
  5
231
330
1F
100
AcDbEntity
  8
0
  6
Continuous
 62
     7
370
    25
100
AcDbCircle
 10
-315.1678616203
 20
139.4535855974
 30
0.0
 40
1.650000000000006
  0
CIRCLE
  5
232
330
1F
100
AcDbEntity
  8
0
  6
Continuous
 62
     7
370
    25
100
AcDbCircle
 10
-311.4774724334
 20
124.4810881021
 30
0.0
 40
1.649999999999935
  0
CIRCLE
  5
253
330
1F
100
AcDbEntity
  8
0
  6
Continuous
 62
     7
370
    25
100
AcDbCircle
 10
-251.6428616203
 20
-400.336118468
 30
0.0
 40
2.22950000000003
  0
CIRCLE
  5
255
330
1F
100
AcDbEntity
  8
0
  6
Continuous
 62
     7
370
    25
100
AcDbCircle
 10
-251.6428616203
 20
-400.336118468
 30
0.0
 40
21.00000000000006
  0
CIRCLE
  5
2B3
330
1F
100
AcDbEntity
  8
0
  6
Continuous
 62
     7
370
    25
100
AcDbCircle
 10
-378.5053616203
 20
113.663881532
 30
0.0
 40
1.650000000000034
  0
CIRCLE
  5
2B4
330
1F
100
AcDbEntity
  8
0
  6
Continuous
 62
     7
370
    25
100
AcDbCircle
 10
-432.6053616203
 20
113.663881532
 30
0.0
 40
1.649999999999949
  0
CIRCLE
  5
2B5
330
1F
100
AcDbEntity
  8
0
  6
Continuous
 62
     7
370
    25
100
AcDbCircle
 10
-446.1303616203
 20
135.9972148654
 30
0.0
 40
1.649999999999949
  0
CIRCLE
  5
2B6
330
1F
100
AcDbEntity
  8
0
  6
Continuous
 62
     7
370
    25
100
AcDbCircle
 10
-392.0303616203
 20
135.9972148654
 30
0.0
 40
1.649999999999949
  0
CIRCLE
  5
2B7
330
1F
100
AcDbEntity
  8
0
  6
Continuous
 62
     7
370
    25
100
AcDbCircle
 10
-432.6053616203
 20
180.663881532
 30
0.0
 40
1.649999999999977
  0
CIRCLE
  5
2B8
330
1F
100
AcDbEntity
  8
0
  6
Continuous
 62
     7
370
    25
100
AcDbCircle
 10
-419.0803616203
 20
135.9972148654
 30
0.0
 40
1.649999999999864
  0
CIRCLE
  5
2B9
330
1F
100
AcDbEntity
  8
0
  6
Continuous
 62
     7
370
    25
100
AcDbCircle
 10
-459.6553616203
 20
113.663881532
 30
0.0
 40
1.64999999999992
  0
CIRCLE
  5
2BA
330
1F
100
AcDbEntity
  8
0
  6
Continuous
 62
     7
370
    25
100
AcDbCircle
 10
-405.5553616203
 20
113.663881532
 30
0.0
 40
1.649999999999977
  0
CIRCLE
  5
2BB
330
1F
100
AcDbEntity
  8
0
  6
Continuous
 62
     7
370
    25
100
AcDbCircle
 10
-446.1303616203
 20
158.3305481987
 30
0.0
 40
1.650000000000034
  0
CIRCLE
  5
2BC
330
1F
100
AcDbEntity
  8
0
  6
Continuous
 62
     7
370
    25
100
AcDbCircle
 10
-378.5053616203
 20
180.663881532
 30
0.0
 40
1.649999999999949
  0
CIRCLE
  5
2BD
330
1F
100
AcDbEntity
  8
0
  6
Continuous
 62
     7
370
    25
100
AcDbCircle
 10
-459.6553616203
 20
180.663881532
 30
0.0
 40
1.64999999999992
  0
CIRCLE
  5
2BE
330
1F
100
AcDbEntity
  8
0
  6
Continuous
 62
     7
370
    25
100
AcDbCircle
 10
-405.5553616203
 20
180.663881532
 30
0.0
 40
1.649999999999977
  0
CIRCLE
  5
2BF
330
1F
100
AcDbEntity
  8
0
  6
Continuous
 62
     7
370
    25
100
AcDbCircle
 10
-419.0803616203
 20
158.3305481987
 30
0.0
 40
1.650000000000063
  0
CIRCLE
  5
2C0
330
1F
100
AcDbEntity
  8
0
  6
Continuous
 62
     7
370
    25
100
AcDbCircle
 10
-392.0303616203
 20
158.3305481987
 30
0.0
 40
1.650000000000034
  0
CIRCLE
  5
2C1
330
1F
100
AcDbEntity
  8
0
  6
Continuous
 62
     7
370
    25
100
AcDbCircle
 10
-364.9803616203
 20
158.3305481987
 30
0.0
 40
1.650000000000006
  0
CIRCLE
  5
2C2
330
1F
100
AcDbEntity
  8
0
  6
Continuous
 62
     7
370
    25
100
AcDbCircle
 10
-364.9803616203
 20
135.9972148654
 30
0.0
 40
1.650000000000091
  0
SPLINE
  5
2C6
330
1F
100
AcDbEntity
  8
0
  6
Continuous
 62
     7
370
    25
100
AcDbSpline
210
0.0
220
0.0
230
1.0
 70
     8
 71
     3
 72
    11
 73
     7
 74
     0
 42
0.00000001
 43
0.00000001
 40
0.0
 40
0.0
 40
0.0
 40
0.0
 40
0.2638232610292714
 40
0.5008421114222921
 40
0.7368504173897114
 40
1.0
 40
1.0
 40
1.0
 40
1.0
 10
-200.6924020145837
 20
-566.8361184723568
 30
0.0
 10
-200.2605702727512
 20
-566.6625828933454
 30
0.0
 10
-199.4407808405583
 20
-566.3331429286516
 30
0.0
 10
-198.1400993381923
 20
-566.1715548895187
 30
0.0
 10
-196.840890518831
 20
-566.3342286739266
 30
0.0
 10
-196.0239838465787
 20
-566.6628654268799
 30
0.0
 10
-195.5933212150669
 20
-566.8361184723568
 30
0.0
  0
SPLINE
  5
2C7
330
1F
100
AcDbEntity
  8
0
  6
Continuous
 62
     7
370
    25
100
AcDbSpline
210
0.0
220
0.0
230
1.0
 70
     8
 71
     3
 72
    11
 73
     7
 74
     0
 42
0.00000001
 43
0.00000001
 40
0.0
 40
0.0
 40
0.0
 40
0.0
 40
0.2624771462446855
 40
0.4984695469548646
 40
0.7355052751641453
 40
1.0
 40
1.0
 40
1.0
 40
1.0
 10
-278.6924020145835
 20
-566.8361184723577
 30
0.0
 10
-278.2628183864107
 20
-566.6634201436123
 30
0.0
 10
-277.4469974298887
 20
-566.3354492748291
 30
0.0
 10
-276.1492397144677
 20
-566.1715574867039
 30
0.0
 10
-274.8471063960565
 20
-566.3319218093488
 30
0.0
 10
-274.0262307016278
 20
-566.6620284274137
 30
0.0
 10
-273.5933212150668
 20
-566.8361184723577
 30
0.0
  0
CIRCLE
  5
2D5
330
1F
100
AcDbEntity
  8
0
  6
Continuous
 62
     7
370
    25
100
AcDbCircle
 10
-251.6428616203
 20
99.663881532
 30
0.0
 40
2.025000000000063
  0
CIRCLE
  5
2D6
330
1F
100
AcDbEntity
  8
0
  6
Continuous
 62
     7
370
    25
100
AcDbCircle
 10
-231.0333840122
 20
104.3678603067
 30
0.0
 40
2.025000000000063
  0
CIRCLE
  5
2D7
330
1F
100
AcDbEntity
  8
0
  6
Continuous
 62
     7
370
    25
100
AcDbCircle
 10
-214.5058662031
 20
117.5481159437
 30
0.0
 40
2.024999999999906
  0
CIRCLE
  5
2D8
330
1F
100
AcDbEntity
  8
0
  6
Continuous
 62
     7
370
    25
100
AcDbCircle
 10
-205.3337857917
 20
136.5941371691
 30
0.0
 40
2.024999999999977
  0
CIRCLE
  5
2D9
330
1F
100
AcDbEntity
  8
0
  6
Continuous
 62
     7
370
    25
100
AcDbCircle
 10
-205.3337857917
 20
157.733625895
 30
0.0
 40
2.025000000000205
  0
CIRCLE
  5
2DA
330
1F
100
AcDbEntity
  8
0
  6
Continuous
 62
     7
370
    25
100
AcDbCircle
 10
-214.5058662031
 20
176.7796471203
 30
0.0
 40
2.02499999999992
  0
CIRCLE
  5
2DB
330
1F
100
AcDbEntity
  8
0
  6
Continuous
 62
     7
370
    25
100
AcDbCircle
 10
-231.0333840122
 20
189.9599027574
 30
0.0
 40
2.025000000000063
  0
CIRCLE
  5
2DC
330
1F
100
AcDbEntity
  8
0
  6
Continuous
 62
     7
370
    25
100
AcDbCircle
 10
-251.6428616203
 20
194.663881532
 30
0.0
 40
2.025000000000091
  0
CIRCLE
  5
2DD
330
1F
100
AcDbEntity
  8
0
  6
Continuous
 62
     7
370
    25
100
AcDbCircle
 10
-272.2523392284
 20
189.9599027574
 30
0.0
 40
2.025000000000063
  0
CIRCLE
  5
2DE
330
1F
100
AcDbEntity
  8
0
  6
Continuous
 62
     7
370
    25
100
AcDbCircle
 10
-288.7798570375
 20
176.7796471203
 30
0.0
 40
2.024999999999892
  0
CIRCLE
  5
2DF
330
1F
100
AcDbEntity
  8
0
  6
Continuous
 62
     7
370
    25
100
AcDbCircle
 10
-297.9519374489
 20
157.733625895
 30
0.0
 40
2.024999999999949
  0
CIRCLE
  5
2E0
330
1F
100
AcDbEntity
  8
0
  6
Continuous
 62
     7
370
    25
100
AcDbCircle
 10
-297.9519374489
 20
136.5941371691
 30
0.0
 40
2.025000000000006
  0
CIRCLE
  5
2E1
330
1F
100
AcDbEntity
  8
0
  6
Continuous
 62
     7
370
    25
100
AcDbCircle
 10
-288.7798570375
 20
117.5481159437
 30
0.0
 40
2.02499999999992
  0
CIRCLE
  5
2E2
330
1F
100
AcDbEntity
  8
0
  6
Continuous
 62
     7
370
    25
100
AcDbCircle
 10
-272.2523392284
 20
104.3678603067
 30
0.0
 40
2.02500000000002
  0
CIRCLE
  5
2E3
330
1F
100
AcDbEntity
  8
0
  6
Continuous
 62
     7
370
    25
100
AcDbCircle
 10
-251.6428616203
 20
147.163881532
 30
0.0
 40
30.79600000000006
  0
CIRCLE
  5
2E4
330
1F
100
AcDbEntity
  8
0
  6
Continuous
 62
     7
370
    25
100
AcDbCircle
 10
-231.5341949884
 20
-519.7092932222
 30
0.0
 40
2.512500000000045
  0
CIRCLE
  5
2E5
330
1F
100
AcDbEntity
  8
0
  6
Continuous
 62
     7
370
    25
100
AcDbCircle
 10
-247.0845969565
 20
-528.6873219845
 30
0.0
 40
2.512500000000045
  0
CIRCLE
  5
2E6
330
1F
100
AcDbEntity
  8
0
  6
Continuous
 62
     7
370
    25
100
AcDbCircle
 10
-264.7678616203
 20
-525.5692853173
 30
0.0
 40
2.512499999999932
  0
CIRCLE
  5
2E7
330
1F
100
AcDbEntity
  8
0
  6
Continuous
 62
     7
370
    25
100
AcDbCircle
 10
-276.3097929159
 20
-511.8141472303
 30
0.0
 40
2.512500000000216
  0
CIRCLE
  5
2E8
330
1F
100
AcDbEntity
  8
0
  6
Continuous
 62
     7
370
    25
100
AcDbCircle
 10
-276.3097929159
 20
-493.8580897057
 30
0.0
 40
2.512499999999989
  0
CIRCLE
  5
2E9
330
1F
100
AcDbEntity
  8
0
  6
Continuous
 62
     7
370
    25
100
AcDbCircle
 10
-264.7678616203
 20
-480.1029516186
 30
0.0
 40
2.512499999999989
  0
CIRCLE
  5
2EA
330
1F
100
AcDbEntity
  8
0
  6
Continuous
 62
     7
370
    25
100
AcDbCircle
 10
-247.0845969565
 20
-476.9849149514
 30
0.0
 40
2.512500000000045
  0
CIRCLE
  5
2EB
330
1F
100
AcDbEntity
  8
0
  6
Continuous
 62
     7
370
    25
100
AcDbCircle
 10
-231.5341949884
 20
-485.9629437137
 30
0.0
 40
2.512499999999989
  0
CIRCLE
  5
2EC
330
1F
100
AcDbEntity
  8
0
  6
Continuous
 62
     7
370
    25
100
AcDbCircle
 10
-225.3928616203
 20
-502.836118468
 30
0.0
 40
2.512500000000045
  0
LINE
  5
308
330
1F
100
AcDbEntity
  8
0
  6
Continuous
 62
     7
370
    25
100
AcDbLine
 10
-823.1353202064
 20
166.1916343642
 30
0.0
 11
-824.1158828324
 21
163.9829498236
 31
0.0
  0
LINE
  5
309
330
1F
100
AcDbEntity
  8
0
  6
Continuous
 62
     7
370
    25
100
AcDbLine
 10
-819.6737933287
 20
159.54086032
 30
0.0
 11
-817.4651087881
 21
160.5214229459
 31
0.0
  0
LINE
  5
30A
330
1F
100
AcDbEntity
  8
0
  6
Continuous
 62
     7
370
    25
100
AcDbLine
 10
-849.8504030341
 20
128.1361286999
 30
0.0
 11
-848.8698404082
 21
130.3448132405
 31
0.0
  0
LINE
  5
30B
330
1F
100
AcDbEntity
  8
0
  6
Continuous
 62
     7
370
    25
100
AcDbLine
 10
-853.3119299119
 20
134.7869027441
 30
0.0
 11
-855.5206144524
 21
133.8063401182
 31
0.0
  0
LINE
  5
30C
330
1F
100
AcDbEntity
  8
0
  6
Continuous
 62
     7
370
    25
100
AcDbLine
 10
-832.4834166757
 20
124.26402036
 30
0.0
 11
-833.3518300096
 21
126.5191586583
 31
0.0
  0
LINE
  5
30D
330
1F
100
AcDbEntity
  8
0
  6
Continuous
 62
     7
370
    25
100
AcDbLine
 10
-839.6338932309
 20
126.5191586583
 30
0.0
 11
-840.5023065649
 21
124.26402036
 31
0.0
  0
LINE
  5
30E
330
1F
100
AcDbEntity
  8
0
  6
Continuous
 62
     7
370
    25
100
AcDbLine
 10
-813.5930004482
 20
151.1733264767
 30
0.0
 11
-815.8481387465
 21
150.3049131427
 31
0.0
  0
LINE
  5
30F
330
1F
100
AcDbEntity
  8
0
  6
Continuous
 62
     7
370
    25
100
AcDbLine
 10
-815.8481387465
 20
144.0228499214
 30
0.0
 11
-813.5930004482
 21
143.1544365874
 31
0.0
  0
LINE
  5
310
330
1F
100
AcDbEntity
  8
0
  6
Continuous
 62
     7
370
    25
100
AcDbLine
 10
-817.4651087881
 20
133.8063401182
 30
0.0
 11
-819.6737933287
 21
134.7869027441
 31
0.0
  0
LINE
  5
311
330
1F
100
AcDbEntity
  8
0
  6
Continuous
 62
     7
370
    25
100
AcDbLine
 10
-824.1158828324
 20
130.3448132405
 30
0.0
 11
-823.1353202064
 21
128.1361286999
 31
0.0
  0
LINE
  5
312
330
1F
100
AcDbEntity
  8
0
  6
Continuous
 62
     7
370
    25
100
AcDbLine
 10
-840.5023065649
 20
170.0637427041
 30
0.0
 11
-839.6338932309
 21
167.8086044058
 31
0.0
  0
LINE
  5
313
330
1F
100
AcDbEntity
  8
0
  6
Continuous
 62
     7
370
    25
100
AcDbLine
 10
-833.3518300096
 20
167.8086044058
 30
0.0
 11
-832.4834166757
 21
170.0637427041
 31
0.0
  0
LINE
  5
314
330
1F
100
AcDbEntity
  8
0
  6
Continuous
 62
     7
370
    25
100
AcDbLine
 10
-855.5206144524
 20
160.5214229459
 30
0.0
 11
-853.3119299119
 21
159.54086032
 31
0.0
  0
LINE
  5
315
330
1F
100
AcDbEntity
  8
0
  6
Continuous
 62
     7
370
    25
100
AcDbLine
 10
-848.8698404082
 20
163.9829498236
 30
0.0
 11
-849.8504030341
 21
166.1916343642
 31
0.0
  0
LINE
  5
316
330
1F
100
AcDbEntity
  8
0
  6
Continuous
 62
     7
370
    25
100
AcDbLine
 10
-859.3927227924
 20
143.1544365874
 30
0.0
 11
-857.137584494
 21
144.0228499214
 31
0.0
  0
LINE
  5
317
330
1F
100
AcDbEntity
  8
0
  6
Continuous
 62
     7
370
    25
100
AcDbLine
 10
-857.137584494
 20
150.3049131427
 30
0.0
 11
-859.3927227924
 21
151.1733264767
 31
0.0
  0
LINE
  5
318
330
1F
100
AcDbEntity
  8
0
  6
Continuous
 62
     7
370
    25
100
AcDbLine
 10
-176.8928616148
 20
-567.8361184724
 30
0.0
 11
-176.8928616148
 21
-566.8361184724
 31
0.0
  0
LINE
  5
319
330
1F
100
AcDbEntity
  8
0
  6
Continuous
 62
     7
370
    25
100
AcDbLine
 10
-279.3928616148
 20
-566.8361184724
 30
0.0
 11
-279.3928616148
 21
-567.8361184724
 31
0.0
  0
LINE
  5
31A
330
1F
100
AcDbEntity
  8
0
  6
Continuous
 62
     7
370
    25
100
AcDbLine
 10
-327.1928616203
 20
187.3456997139
 30
0.0
 11
-330.1428616203
 21
187.3456997139
 31
0.0
  0
LINE
  5
31B
330
1F
100
AcDbEntity
  8
0
  6
Continuous
 62
     7
370
    25
100
AcDbLine
 10
-330.1428616203
 20
106.9820633502
 30
0.0
 11
-327.1928616203
 21
106.9820633502
 31
0.0
  0
LINE
  5
31C
330
1F
100
AcDbEntity
  8
0
  6
Continuous
 62
     7
370
    25
100
AcDbLine
 10
-355.2428616203
 20
187.3456997139
 30
0.0
 11
-358.1928616203
 21
187.3456997139
 31
0.0
  0
LINE
  5
31D
330
1F
100
AcDbEntity
  8
0
  6
Continuous
 62
     7
370
    25
100
AcDbLine
 10
-358.1928616203
 20
106.9820633502
 30
0.0
 11
-355.2428616203
 21
106.9820633502
 31
0.0
  0
LINE
  5
31E
330
1F
100
AcDbEntity
  8
0
  6
Continuous
 62
     7
370
    25
100
AcDbLine
 10
-338.5187878989
 20
108.9820633502
 30
0.0
 11
-330.1428616203
 21
108.9820633502
 31
0.0
  0
LINE
  5
31F
330
1F
100
AcDbEntity
  8
0
  6
Continuous
 62
     7
370
    25
100
AcDbLine
 10
-355.2428616203
 20
108.9820633502
 30
0.0
 11
-348.9172748391
 21
108.9820633502
 31
0.0
  0
LINE
  5
320
330
1F
100
AcDbEntity
  8
0
  6
Continuous
 62
     7
370
    25
100
AcDbLine
 10
-348.9172748391
 20
185.3456997139
 30
0.0
 11
-355.2428616203
 21
185.3456997139
 31
0.0
  0
LINE
  5
321
330
1F
100
AcDbEntity
  8
0
  6
Continuous
 62
     7
370
    25
100
AcDbLine
 10
-330.1428616203
 20
185.3456997139
 30
0.0
 11
-338.5187878989
 21
185.3456997139
 31
0.0
  0
LINE
  5
322
330
1F
100
AcDbEntity
  8
0
  6
Continuous
 62
     7
370
    25
100
AcDbLine
 10
-158.6428616148
 20
-633.8361184724
 30
0.0
 11
-158.6428616148
 21
-567.8361184724
 31
0.0
  0
LINE
  5
323
330
1F
100
AcDbEntity
  8
0
  6
Continuous
 62
     7
370
    25
100
AcDbLine
 10
-297.6428616148
 20
-567.8361184724
 30
0.0
 11
-297.6428616148
 21
-633.8361184724
 31
0.0
  0
LINE
  5
324
330
1F
100
AcDbEntity
  8
0
  6
Continuous
 62
     7
370
    25
100
AcDbLine
 10
-176.8928616148
 20
-649.8361184724
 30
0.0
 11
-176.8928616148
 21
-642.8361184724
 31
0.0
  0
LINE
  5
325
330
1F
100
AcDbEntity
  8
0
  6
Continuous
 62
     7
370
    25
100
AcDbLine
 10
-279.3928616148
 20
-642.8361184724
 30
0.0
 11
-279.3928616148
 21
-649.8361184724
 31
0.0
  0
LINE
  5
326
330
1F
100
AcDbEntity
  8
0
  6
Continuous
 62
     7
370
    25
100
AcDbLine
 10
-232.499670172
 20
123.0406181298
 30
0.0
 11
-233.2754702844
 21
123.7024120232
 31
0.0
  0
LINE
  5
327
330
1F
100
AcDbEntity
  8
0
  6
Continuous
 62
     7
370
    25
100
AcDbLine
 10
-240.5083286834
 20
119.5265192795
 30
0.0
 11
-240.3230984159
 21
118.5237597272
 31
0.0
  0
LINE
  5
328
330
1F
100
AcDbEntity
  8
0
  6
Continuous
 62
     7
370
    25
100
AcDbLine
 10
-277.8822193688
 20
163.2849770576
 30
0.0
 11
-276.9268588857
 21
162.9284334851
 31
0.0
  0
LINE
  5
329
330
1F
100
AcDbEntity
  8
0
  6
Continuous
 62
     7
370
    25
100
AcDbLine
 10
-271.5584346557
 20
169.3262723478
 30
0.0
 11
-272.0754581371
 21
170.2052056169
 31
0.0
  0
LINE
  5
32A
330
1F
100
AcDbEntity
  8
0
  6
Continuous
 62
     7
370
    25
100
AcDbLine
 10
-224.5619044841
 20
161.8272841585
 30
0.0
 11
-225.3483605169
 21
161.1781894966
 31
0.0
  0
LINE
  5
32B
330
1F
100
AcDbEntity
  8
0
  6
Continuous
 62
     7
370
    25
100
AcDbLine
 10
-222.4918816475
 20
153.3300783038
 30
0.0
 11
-221.4721913676
 21
153.3383671384
 31
0.0
  0
LINE
  5
32C
330
1F
100
AcDbEntity
  8
0
  6
Continuous
 62
     7
370
    25
100
AcDbLine
 10
-261.3809353562
 20
176.3796912233
 30
0.0
 11
-260.8782685576
 21
175.4924691195
 31
0.0
  0
LINE
  5
32D
330
1F
100
AcDbEntity
  8
0
  6
Continuous
 62
     7
370
    25
100
AcDbLine
 10
-252.6533654582
 20
176.9427414497
 30
0.0
 11
-252.4844610079
 21
177.948379684
 31
0.0
  0
LINE
  5
32E
330
1F
100
AcDbEntity
  8
0
  6
Continuous
 62
     7
370
    25
100
AcDbLine
 10
-221.4721913676
 20
140.9893959257
 30
0.0
 11
-222.4918816475
 21
140.9976847603
 31
0.0
  0
LINE
  5
32F
330
1F
100
AcDbEntity
  8
0
  6
Continuous
 62
     7
370
    25
100
AcDbLine
 10
-225.3483605169
 20
133.1495735675
 30
0.0
 11
-224.5619044841
 21
132.5004789056
 31
0.0
  0
LINE
  5
330
330
1F
100
AcDbEntity
  8
0
  6
Continuous
 62
     7
370
    25
100
AcDbLine
 10
-272.0754581371
 20
124.1225574472
 30
0.0
 11
-271.5584346557
 21
125.0014907163
 31
0.0
  0
LINE
  5
331
330
1F
100
AcDbEntity
  8
0
  6
Continuous
 62
     7
370
    25
100
AcDbLine
 10
-276.9268588857
 20
131.399329579
 30
0.0
 11
-277.8822193688
 21
131.0427860065
 31
0.0
  0
LINE
  5
332
330
1F
100
AcDbEntity
  8
0
  6
Continuous
 62
     7
370
    25
100
AcDbLine
 10
-240.3230984159
 20
175.8040033369
 30
0.0
 11
-240.5083286834
 21
174.8012437846
 31
0.0
  0
LINE
  5
333
330
1F
100
AcDbEntity
  8
0
  6
Continuous
 62
     7
370
    25
100
AcDbLine
 10
-233.2754702844
 20
170.6253510409
 30
0.0
 11
-232.499670172
 21
171.2871449343
 31
0.0
  0
LINE
  5
334
330
1F
100
AcDbEntity
  8
0
  6
Continuous
 62
     7
370
    25
100
AcDbLine
 10
-252.4844610079
 20
116.37938338
 30
0.0
 11
-252.6533654582
 21
117.3850216144
 31
0.0
  0
LINE
  5
335
330
1F
100
AcDbEntity
  8
0
  6
Continuous
 62
     7
370
    25
100
AcDbLine
 10
-260.8782685576
 20
118.8352939446
 30
0.0
 11
-261.3809353562
 21
117.9480718408
 31
0.0
  0
LINE
  5
336
330
1F
100
AcDbEntity
  8
0
  6
Continuous
 62
     7
370
    25
100
AcDbLine
 10
-282.105816273
 20
142.6470231294
 30
0.0
 11
-281.144785893
 21
142.9879887884
 31
0.0
  0
LINE
  5
337
330
1F
100
AcDbEntity
  8
0
  6
Continuous
 62
     7
370
    25
100
AcDbLine
 10
-281.144785893
 20
151.3397742757
 30
0.0
 11
-282.105816273
 21
151.6807399346
 31
0.0
  0
LINE
  5
338
330
1F
100
AcDbEntity
  8
0
  6
Continuous
 62
     7
370
    25
100
AcDbLine
 10
-221.1799069676
 20
151.6807399346
 30
0.0
 11
-222.1409373476
 21
151.3397742757
 31
0.0
  0
LINE
  5
339
330
1F
100
AcDbEntity
  8
0
  6
Continuous
 62
     7
370
    25
100
AcDbLine
 10
-222.1409373476
 20
142.9879887884
 30
0.0
 11
-221.1799069676
 21
142.6470231294
 31
0.0
  0
LINE
  5
33A
330
1F
100
AcDbEntity
  8
0
  6
Continuous
 62
     7
370
    25
100
AcDbLine
 10
-225.4035038717
 20
131.0427860065
 30
0.0
 11
-226.3588643548
 21
131.399329579
 31
0.0
  0
LINE
  5
33B
330
1F
100
AcDbEntity
  8
0
  6
Continuous
 62
     7
370
    25
100
AcDbLine
 10
-231.7272885849
 20
125.0014907163
 30
0.0
 11
-231.2102651035
 21
124.1225574472
 31
0.0
  0
LINE
  5
33C
330
1F
100
AcDbEntity
  8
0
  6
Continuous
 62
     7
370
    25
100
AcDbLine
 10
-231.2102651035
 20
170.2052056169
 30
0.0
 11
-231.7272885849
 21
169.3262723478
 31
0.0
  0
LINE
  5
33D
330
1F
100
AcDbEntity
  8
0
  6
Continuous
 62
     7
370
    25
100
AcDbLine
 10
-226.3588643548
 20
162.9284334851
 30
0.0
 11
-225.4035038717
 21
163.2849770576
 31
0.0
  0
LINE
  5
33E
330
1F
100
AcDbEntity
  8
0
  6
Continuous
 62
     7
370
    25
100
AcDbLine
 10
-241.9047878844
 20
117.9480718408
 30
0.0
 11
-242.407454683
 21
118.8352939446
 31
0.0
  0
LINE
  5
33F
330
1F
100
AcDbEntity
  8
0
  6
Continuous
 62
     7
370
    25
100
AcDbLine
 10
-250.6323577824
 20
117.3850216144
 30
0.0
 11
-250.8012622326
 21
116.37938338
 31
0.0
  0
LINE
  5
340
330
1F
100
AcDbEntity
  8
0
  6
Continuous
 62
     7
370
    25
100
AcDbLine
 10
-250.8012622326
 20
177.948379684
 30
0.0
 11
-250.6323577824
 21
176.9427414497
 31
0.0
  0
LINE
  5
341
330
1F
100
AcDbEntity
  8
0
  6
Continuous
 62
     7
370
    25
100
AcDbLine
 10
-242.407454683
 20
175.4924691195
 30
0.0
 11
-241.9047878844
 21
176.3796912233
 31
0.0
  0
LINE
  5
342
330
1F
100
AcDbEntity
  8
0
  6
Continuous
 62
     7
370
    25
100
AcDbLine
 10
-262.9626248247
 20
118.5237597272
 30
0.0
 11
-262.7773945572
 21
119.5265192795
 31
0.0
  0
LINE
  5
343
330
1F
100
AcDbEntity
  8
0
  6
Continuous
 62
     7
370
    25
100
AcDbLine
 10
-270.0102529561
 20
123.7024120232
 30
0.0
 11
-270.7860530686
 21
123.0406181298
 31
0.0
  0
LINE
  5
344
330
1F
100
AcDbEntity
  8
0
  6
Continuous
 62
     7
370
    25
100
AcDbLine
 10
-270.7860530686
 20
171.2871449343
 30
0.0
 11
-270.0102529561
 21
170.6253510409
 31
0.0
  0
LINE
  5
345
330
1F
100
AcDbEntity
  8
0
  6
Continuous
 62
     7
370
    25
100
AcDbLine
 10
-262.7773945572
 20
174.8012437846
 30
0.0
 11
-262.9626248247
 21
175.8040033369
 31
0.0
  0
LINE
  5
346
330
1F
100
AcDbEntity
  8
0
  6
Continuous
 62
     7
370
    25
100
AcDbLine
 10
-278.7238187565
 20
132.5004789056
 30
0.0
 11
-277.9373627237
 21
133.1495735675
 31
0.0
  0
LINE
  5
347
330
1F
100
AcDbEntity
  8
0
  6
Continuous
 62
     7
370
    25
100
AcDbLine
 10
-280.793841593
 20
140.9976847603
 30
0.0
 11
-281.813531873
 21
140.9893959257
 31
0.0
  0
LINE
  5
348
330
1F
100
AcDbEntity
  8
0
  6
Continuous
 62
     7
370
    25
100
AcDbLine
 10
-281.813531873
 20
153.3383671384
 30
0.0
 11
-280.793841593
 21
153.3300783038
 31
0.0
  0
LINE
  5
349
330
1F
100
AcDbEntity
  8
0
  6
Continuous
 62
     7
370
    25
100
AcDbLine
 10
-277.9373627237
 20
161.1781894966
 30
0.0
 11
-278.7238187565
 21
161.8272841585
 31
0.0
  0
LINE
  5
34A
330
1F
100
AcDbEntity
  8
0
  6
Continuous
 62
     7
370
    25
100
AcDbLine
 10
-310.1428616148
 20
-633.8361184724
 30
0.0
 11
-310.1428616148
 21
-642.8361184724
 31
0.0
  0
LINE
  5
34B
330
1F
100
AcDbEntity
  8
0
  6
Continuous
 62
     7
370
    25
100
AcDbLine
 10
-44.1759833842
 20
-634.8361184724
 30
0.0
 11
-44.1759833842
 21
-633.8361184724
 31
0.0
  0
LINE
  5
34C
330
1F
100
AcDbEntity
  8
0
  6
Continuous
 62
     7
370
    25
100
AcDbLine
 10
-167.0419605498
 20
184.663881532
 30
0.0
 11
-176.0928616203
 21
184.663881532
 31
0.0
  0
LINE
  5
34D
330
1F
100
AcDbEntity
  8
0
  6
Continuous
 62
     7
370
    25
100
AcDbLine
 10
-151.5928616203
 20
184.663881532
 30
0.0
 11
-156.6433438357
 21
184.663881532
 31
0.0
  0
LINE
  5
34E
330
1F
100
AcDbEntity
  8
0
  6
Continuous
 62
     7
370
    25
100
AcDbLine
 10
-156.6433438357
 20
109.663881532
 30
0.0
 11
-151.5928616203
 21
109.663881532
 31
0.0
  0
LINE
  5
34F
330
1F
100
AcDbEntity
  8
0
  6
Continuous
 62
     7
370
    25
100
AcDbLine
 10
-176.0928616203
 20
109.663881532
 30
0.0
 11
-167.0419605498
 21
109.663881532
 31
0.0
  0
LINE
  5
350
330
1F
100
AcDbEntity
  8
0
  6
Continuous
 62
     7
370
    25
100
AcDbLine
 10
-336.6342486013
 20
43.173881532
 30
0.0
 11
-320.6342486013
 21
43.173881532
 31
0.0
  0
LINE
  5
351
330
1F
100
AcDbEntity
  8
0
  6
Continuous
 62
     7
370
    25
100
AcDbLine
 10
-317.1836449224
 20
43.173881532
 30
0.0
 11
-315.6342486013
 21
43.173881532
 31
0.0
  0
LINE
  5
352
330
1F
100
AcDbEntity
  8
0
  6
Continuous
 62
     7
370
    25
100
AcDbLine
 10
-51.0828616148
 20
-633.8361184724
 30
0.0
 11
-51.0828616148
 21
-561.8361184724
 31
0.0
  0
LINE
  5
353
330
1F
100
AcDbEntity
  8
0
  6
Continuous
 62
     7
370
    25
100
AcDbLine
 10
-108.0828616148
 20
-561.8361184724
 30
0.0
 11
-108.0828616148
 21
-633.8361184724
 31
0.0
  0
LINE
  5
354
330
1F
100
AcDbEntity
  8
0
  6
Continuous
 62
     7
370
    25
100
AcDbLine
 10
-72.5828616148
 20
-658.8361184724
 30
0.0
 11
-72.5828616148
 21
-642.8361184724
 31
0.0
  0
LINE
  5
355
330
1F
100
AcDbEntity
  8
0
  6
Continuous
 62
     7
370
    25
100
AcDbLine
 10
-885.1402056842
 20
140.163881532
 30
0.0
 11
-874.3511500127
 21
140.163881532
 31
0.0
  0
LINE
  5
356
330
1F
100
AcDbEntity
  8
0
  6
Continuous
 62
     7
370
    25
100
AcDbLine
 10
-158.6428616148
 20
-566.8361184724
 30
0.0
 11
-158.6428616148
 21
-557.8361184724
 31
0.0
  0
LINE
  5
357
330
1F
100
AcDbEntity
  8
0
  6
Continuous
 62
     7
370
    25
100
AcDbLine
 10
-291.1428616148
 20
-554.7136194732
 30
0.0
 11
-291.1428616148
 21
-557.8361184724
 31
0.0
  0
LINE
  5
358
330
1F
100
AcDbEntity
  8
0
  6
Continuous
 62
     7
370
    25
100
AcDbLine
 10
-122.1328616148
 20
-621.3361184724
 30
0.0
 11
-113.1328616148
 21
-621.3361184724
 31
0.0
  0
LINE
  5
359
330
1F
100
AcDbEntity
  8
0
  6
Continuous
 62
     7
370
    25
100
AcDbLine
 10
-113.1328616148
 20
-621.3361184724
 30
0.0
 11
-113.1328616148
 21
-633.8361184724
 31
0.0
  0
LINE
  5
35A
330
1F
100
AcDbEntity
  8
0
  6
Continuous
 62
     7
370
    25
100
AcDbLine
 10
-113.1328616148
 20
-625.8361184724
 30
0.0
 11
-122.1328616148
 21
-625.8361184724
 31
0.0
  0
LINE
  5
35B
330
1F
100
AcDbEntity
  8
0
  6
Continuous
 62
     7
370
    25
100
AcDbLine
 10
-122.1328616148
 20
-621.3361184724
 30
0.0
 11
-122.1328616148
 21
-633.8361184724
 31
0.0
  0
LINE
  5
35C
330
1F
100
AcDbEntity
  8
0
  6
Continuous
 62
     7
370
    25
100
AcDbLine
 10
-122.1328616148
 20
-633.7861184724
 30
0.0
 11
-113.1328616148
 21
-633.7861184724
 31
0.0
  0
LINE
  5
35D
330
1F
100
AcDbEntity
  8
0
  6
Continuous
 62
     7
370
    25
100
AcDbLine
 10
-122.1328616148
 20
-642.8861184724
 30
0.0
 11
-113.1328616148
 21
-642.8861184724
 31
0.0
  0
LINE
  5
35E
330
1F
100
AcDbEntity
  8
0
  6
Continuous
 62
     7
370
    25
100
AcDbLine
 10
-122.1328616148
 20
-647.3361184724
 30
0.0
 11
-113.1328616148
 21
-647.3361184724
 31
0.0
  0
LINE
  5
35F
330
1F
100
AcDbEntity
  8
0
  6
Continuous
 62
     7
370
    25
100
AcDbLine
 10
-122.1328616148
 20
-649.8361184724
 30
0.0
 11
-122.1328616148
 21
-642.8361184724
 31
0.0
  0
LINE
  5
360
330
1F
100
AcDbEntity
  8
0
  6
Continuous
 62
     7
370
    25
100
AcDbLine
 10
-113.1328616148
 20
-649.8361184724
 30
0.0
 11
-113.1328616148
 21
-642.8361184724
 31
0.0
  0
LINE
  5
361
330
1F
100
AcDbEntity
  8
0
  6
Continuous
 62
     7
370
    25
100
AcDbLine
 10
-113.1328616148
 20
-649.8361184724
 30
0.0
 11
-122.1328616148
 21
-649.8361184724
 31
0.0
  0
LINE
  5
362
330
1F
100
AcDbEntity
  8
0
  6
Continuous
 62
     7
370
    25
100
AcDbLine
 10
-176.1428616203
 20
156.92349218
 30
0.0
 11
-178.1428616203
 21
156.92349218
 31
0.0
  0
LINE
  5
363
330
1F
100
AcDbEntity
  8
0
  6
Continuous
 62
     7
370
    25
100
AcDbLine
 10
-176.1428616203
 20
177.5028376827
 30
0.0
 11
-235.1670853102
 21
197.0116377
 31
0.0
  0
LINE
  5
364
330
1F
100
AcDbEntity
  8
0
  6
Continuous
 62
     7
370
    25
100
AcDbLine
 10
-176.1428616203
 20
137.4042708841
 30
0.0
 11
-178.1428616203
 21
137.4042708841
 31
0.0
  0
LINE
  5
365
330
1F
100
AcDbEntity
  8
0
  6
Continuous
 62
     7
370
    25
100
AcDbLine
 10
-176.1428616203
 20
114.763881532
 30
0.0
 11
-176.1428616203
 21
179.563881532
 31
0.0
  0
LINE
  5
366
330
1F
100
AcDbEntity
  8
0
  6
Continuous
 62
     7
370
    25
100
AcDbLine
 10
-176.1428616203
 20
116.8249253814
 30
0.0
 11
-199.1428616203
 21
109.2229211135
 31
0.0
  0
LINE
  5
367
330
1F
100
AcDbEntity
  8
0
  6
Continuous
 62
     7
370
    25
100
AcDbLine
 10
-178.1428616203
 20
178.163881532
 30
0.0
 11
-178.1428616203
 21
156.92349218
 31
0.0
  0
LINE
  5
368
330
1F
100
AcDbEntity
  8
0
  6
Continuous
 62
     7
370
    25
100
AcDbLine
 10
-178.1428616203
 20
137.4042708841
 30
0.0
 11
-178.1428616203
 21
116.163881532
 31
0.0
  0
LINE
  5
369
330
1F
100
AcDbEntity
  8
0
  6
Continuous
 62
     7
370
    25
100
AcDbLine
 10
-310.6342486013
 20
116.3658718236
 30
0.0
 11
-310.6342486013
 21
14.6872148654
 31
0.0
  0
LINE
  5
36A
330
1F
100
AcDbEntity
  8
0
  6
Continuous
 62
     7
370
    25
100
AcDbLine
 10
-320.6342486013
 20
13.6872148654
 30
0.0
 11
-311.6342486013
 21
13.6872148654
 31
0.0
  0
LINE
  5
36B
330
1F
100
AcDbEntity
  8
0
  6
Continuous
 62
     7
370
    25
100
AcDbLine
 10
-320.6342486013
 20
147.163881532
 30
0.0
 11
-320.6342486013
 21
13.6872148654
 31
0.0
  0
LINE
  5
36C
330
1F
100
AcDbEntity
  8
0
  6
Continuous
 62
     7
370
    25
100
AcDbLine
 10
-327.1928616203
 20
106.9820633502
 30
0.0
 11
-327.1928616203
 21
187.3456997139
 31
0.0
  0
LINE
  5
36D
330
1F
100
AcDbEntity
  8
0
  6
Continuous
 62
     7
370
    25
100
AcDbLine
 10
-330.1428616203
 20
106.9820633502
 30
0.0
 11
-330.1428616203
 21
187.3456997139
 31
0.0
  0
LINE
  5
36E
330
1F
100
AcDbEntity
  8
0
  6
Continuous
 62
     7
370
    25
100
AcDbLine
 10
-358.1928616203
 20
187.3456997139
 30
0.0
 11
-358.1928616203
 21
106.9820633502
 31
0.0
  0
LINE
  5
36F
330
1F
100
AcDbEntity
  8
0
  6
Continuous
 62
     7
370
    25
100
AcDbLine
 10
-355.2428616203
 20
106.9820633502
 30
0.0
 11
-355.2428616203
 21
187.3456997139
 31
0.0
  0
LINE
  5
370
330
1F
100
AcDbEntity
  8
0
  6
Continuous
 62
     7
370
    25
100
AcDbLine
 10
-297.6428616148
 20
-567.8361184724
 30
0.0
 11
-158.6428616148
 21
-567.8361184724
 31
0.0
  0
LINE
  5
371
330
1F
100
AcDbEntity
  8
0
  6
Continuous
 62
     7
370
    25
100
AcDbLine
 10
-327.1428616203
 20
114.763881532
 30
0.0
 11
-327.1428616203
 21
179.563881532
 31
0.0
  0
LINE
  5
372
330
1F
100
AcDbEntity
  8
0
  6
Continuous
 62
     7
370
    25
100
AcDbLine
 10
-279.3928616148
 20
-649.8361184724
 30
0.0
 11
-176.8928616148
 21
-649.8361184724
 31
0.0
  0
LINE
  5
373
330
1F
100
AcDbEntity
  8
0
  6
Continuous
 62
     7
370
    25
100
AcDbLine
 10
-262.7701354751
 20
174.7619461364
 30
0.0
 11
-263.0871486205
 21
175.754472835
 31
0.0
  0
LINE
  5
374
330
1F
100
AcDbEntity
  8
0
  6
Continuous
 62
     7
370
    25
100
AcDbLine
 10
-263.0871486206
 20
118.573290229
 30
0.0
 11
-262.7701354751
 21
119.5658169277
 31
0.0
  0
LINE
  5
375
330
1F
100
AcDbEntity
  8
0
  6
Continuous
 62
     7
370
    25
100
AcDbLine
 10
-305.1094471023
 20
21.673881532
 30
0.0
 11
-309.7660033257
 21
14.6872148654
 31
0.0
  0
LINE
  5
376
330
1F
100
AcDbEntity
  8
0
  6
Continuous
 62
     7
370
    25
100
AcDbLine
 10
-204.917815957
 20
-633.8361184724
 30
0.0
 11
-204.917815957
 21
-642.8361184724
 31
0.0
  0
LINE
  5
377
330
1F
100
AcDbEntity
  8
0
  6
Continuous
 62
     7
370
    25
100
AcDbLine
 10
-44.1759833842
 20
-633.8361184724
 30
0.0
 11
-310.1428616148
 21
-633.8361184724
 31
0.0
  0
LINE
  5
378
330
1F
100
AcDbEntity
  8
0
  6
Continuous
 62
     7
370
    25
100
AcDbLine
 10
-38.5003616148
 20
-642.8361184724
 30
0.0
 11
-310.1428616148
 21
-642.8361184724
 31
0.0
  0
LINE
  5
379
330
1F
100
AcDbEntity
  8
0
  6
Continuous
 62
     7
370
    25
100
AcDbLine
 10
-43.8761196339
 20
-634.8361184724
 30
0.0
 11
-43.8761196339
 21
-642.8361184724
 31
0.0
  0
LINE
  5
37A
330
1F
100
AcDbEntity
  8
0
  6
Continuous
 62
     7
370
    25
100
AcDbLine
 10
-45.251134988
 20
-634.8361184724
 30
0.0
 11
-45.251134988
 21
-633.8361184724
 31
0.0
  0
LINE
  5
37B
330
1F
100
AcDbEntity
  8
0
  6
Continuous
 62
     7
370
    25
100
AcDbLine
 10
-45.251134988
 20
-634.8361184724
 30
0.0
 11
-38.5003616148
 21
-634.8361184724
 31
0.0
  0
LINE
  5
37C
330
1F
100
AcDbEntity
  8
0
  6
Continuous
 62
     7
370
    25
100
AcDbLine
 10
-38.5003616148
 20
-634.8361184724
 30
0.0
 11
-38.5003616148
 21
-642.8361184724
 31
0.0
  0
LINE
  5
37D
330
1F
100
AcDbEntity
  8
0
  6
Continuous
 62
     7
370
    25
100
AcDbLine
 10
-297.6428616148
 20
-557.8361184724
 30
0.0
 11
-297.6428616148
 21
-566.8361184724
 31
0.0
  0
LINE
  5
37E
330
1F
100
AcDbEntity
  8
0
  6
Continuous
 62
     7
370
    25
100
AcDbLine
 10
-312.6428616148
 20
-502.8361184724
 30
0.0
 11
-312.6428616148
 21
-566.8361184724
 31
0.0
  0
LINE
  5
37F
330
1F
100
AcDbEntity
  8
0
  6
Continuous
 62
     7
370
    25
100
AcDbLine
 10
-190.6428616148
 20
-566.8361184724
 30
0.0
 11
-190.6428616148
 21
-502.8361184724
 31
0.0
  0
LINE
  5
380
330
1F
100
AcDbEntity
  8
0
  6
Continuous
 62
     7
370
    25
100
AcDbLine
 10
-158.6428616148
 20
-557.8361184724
 30
0.0
 11
-297.6428616148
 21
-557.8361184724
 31
0.0
  0
LINE
  5
381
330
1F
100
AcDbEntity
  8
0
  6
Continuous
 62
     7
370
    25
100
AcDbLine
 10
-317.2651525539
 20
67.0772148654
 30
0.0
 11
-317.3306886648
 21
66.8807083521
 31
0.0
  0
LINE
  5
382
330
1F
100
AcDbEntity
  8
0
  6
Continuous
 62
     7
370
    25
100
AcDbLine
 10
-176.0928616203
 20
124.42586051
 30
0.0
 11
-151.5928616203
 21
124.42586051
 31
0.0
  0
LINE
  5
383
330
1F
100
AcDbEntity
  8
0
  6
Continuous
 62
     7
370
    25
100
AcDbLine
 10
-176.0928616203
 20
169.9019025541
 30
0.0
 11
-151.5928616203
 21
169.9019025541
 31
0.0
  0
LINE
  5
384
330
1F
100
AcDbEntity
  8
0
  6
Continuous
 62
     7
370
    25
100
AcDbLine
 10
-151.5928616203
 20
169.9019025541
 30
0.0
 11
-151.5928616203
 21
124.42586051
 31
0.0
  0
LINE
  5
385
330
1F
100
AcDbEntity
  8
0
  6
Continuous
 62
     7
370
    25
100
AcDbLine
 10
-176.0928616203
 20
176.983881532
 30
0.0
 11
-151.5928616203
 21
176.983881532
 31
0.0
  0
LINE
  5
386
330
1F
100
AcDbEntity
  8
0
  6
Continuous
 62
     7
370
    25
100
AcDbLine
 10
-152.5928616203
 20
169.9019025541
 30
0.0
 11
-152.5928616203
 21
176.983881532
 31
0.0
  0
LINE
  5
387
330
1F
100
AcDbEntity
  8
0
  6
Continuous
 62
     7
370
    25
100
AcDbLine
 10
-176.0928616203
 20
170.733881532
 30
0.0
 11
-152.5928616203
 21
170.733881532
 31
0.0
  0
LINE
  5
388
330
1F
100
AcDbEntity
  8
0
  6
Continuous
 62
     7
370
    25
100
AcDbLine
 10
-176.0928616203
 20
123.593881532
 30
0.0
 11
-152.5928616203
 21
123.593881532
 31
0.0
  0
LINE
  5
389
330
1F
100
AcDbEntity
  8
0
  6
Continuous
 62
     7
370
    25
100
AcDbLine
 10
-152.5928616203
 20
117.343881532
 30
0.0
 11
-152.5928616203
 21
124.42586051
 31
0.0
  0
LINE
  5
38A
330
1F
100
AcDbEntity
  8
0
  6
Continuous
 62
     7
370
    25
100
AcDbLine
 10
-176.0928616203
 20
117.343881532
 30
0.0
 11
-151.5928616203
 21
117.343881532
 31
0.0
  0
LINE
  5
38B
330
1F
100
AcDbEntity
  8
0
  6
Continuous
 62
     7
370
    25
100
AcDbLine
 10
-176.0928616203
 20
184.663881532
 30
0.0
 11
-176.0928616203
 21
109.663881532
 31
0.0
  0
LINE
  5
38C
330
1F
100
AcDbEntity
  8
0
  6
Continuous
 62
     7
370
    25
100
AcDbLine
 10
-152.5928616203
 20
118.613881532
 30
0.0
 11
-151.5928616203
 21
118.613881532
 31
0.0
  0
LINE
  5
38D
330
1F
100
AcDbEntity
  8
0
  6
Continuous
 62
     7
370
    25
100
AcDbLine
 10
-151.5928616203
 20
118.613881532
 30
0.0
 11
-151.5928616203
 21
109.663881532
 31
0.0
  0
LINE
  5
38E
330
1F
100
AcDbEntity
  8
0
  6
Continuous
 62
     7
370
    25
100
AcDbLine
 10
-151.5928616203
 20
184.663881532
 30
0.0
 11
-151.5928616203
 21
175.713881532
 31
0.0
  0
LINE
  5
38F
330
1F
100
AcDbEntity
  8
0
  6
Continuous
 62
     7
370
    25
100
AcDbLine
 10
-152.5928616203
 20
175.713881532
 30
0.0
 11
-151.5928616203
 21
175.713881532
 31
0.0
  0
LINE
  5
390
330
1F
100
AcDbEntity
  8
0
  6
Continuous
 62
     7
370
    25
100
AcDbLine
 10
-199.1428616203
 20
67.623881532
 30
0.0
 11
-155.6342486013
 21
67.623881532
 31
0.0
  0
LINE
  5
391
330
1F
100
AcDbEntity
  8
0
  6
Continuous
 62
     7
370
    25
100
AcDbLine
 10
-155.6342486013
 20
69.123881532
 30
0.0
 11
-156.1342486013
 21
69.623881532
 31
0.0
  0
LINE
  5
392
330
1F
100
AcDbEntity
  8
0
  6
Continuous
 62
     7
370
    25
100
AcDbLine
 10
-199.1428616203
 20
69.623881532
 30
0.0
 11
-156.1342486013
 21
69.623881532
 31
0.0
  0
LINE
  5
393
330
1F
100
AcDbEntity
  8
0
  6
Continuous
 62
     7
370
    25
100
AcDbLine
 10
-155.6342486013
 20
31.223881532
 30
0.0
 11
-156.1342486013
 21
30.723881532
 31
0.0
  0
LINE
  5
394
330
1F
100
AcDbEntity
  8
0
  6
Continuous
 62
     7
370
    25
100
AcDbLine
 10
-199.1428616203
 20
32.723881532
 30
0.0
 11
-155.6342486013
 21
32.723881532
 31
0.0
  0
LINE
  5
395
330
1F
100
AcDbEntity
  8
0
  6
Continuous
 62
     7
370
    25
100
AcDbLine
 10
-199.1428616203
 20
30.723881532
 30
0.0
 11
-156.1342486013
 21
30.723881532
 31
0.0
  0
LINE
  5
396
330
1F
100
AcDbEntity
  8
0
  6
Continuous
 62
     7
370
    25
100
AcDbLine
 10
-199.1428616203
 20
26.473881532
 30
0.0
 11
-155.6342486013
 21
26.473881532
 31
0.0
  0
LINE
  5
397
330
1F
100
AcDbEntity
  8
0
  6
Continuous
 62
     7
370
    25
100
AcDbLine
 10
-199.1428616203
 20
73.873881532
 30
0.0
 11
-155.6342486013
 21
73.873881532
 31
0.0
  0
LINE
  5
398
330
1F
100
AcDbEntity
  8
0
  6
Continuous
 62
     7
370
    25
100
AcDbLine
 10
-199.1428616203
 20
23.973881532
 30
0.0
 11
-155.6342486013
 21
23.973881532
 31
0.0
  0
LINE
  5
399
330
1F
100
AcDbEntity
  8
0
  6
Continuous
 62
     7
370
    25
100
AcDbLine
 10
-155.6342486013
 20
22.473881532
 30
0.0
 11
-156.1342486013
 21
21.973881532
 31
0.0
  0
LINE
  5
39A
330
1F
100
AcDbEntity
  8
0
  6
Continuous
 62
     7
370
    25
100
AcDbLine
 10
-199.1428616203
 20
21.973881532
 30
0.0
 11
-156.1342486013
 21
21.973881532
 31
0.0
  0
LINE
  5
39B
330
1F
100
AcDbEntity
  8
0
  6
Continuous
 62
     7
370
    25
100
AcDbLine
 10
-199.1428616203
 20
76.373881532
 30
0.0
 11
-155.6342486013
 21
76.373881532
 31
0.0
  0
LINE
  5
39C
330
1F
100
AcDbEntity
  8
0
  6
Continuous
 62
     7
370
    25
100
AcDbLine
 10
-156.1342486013
 20
78.373881532
 30
0.0
 11
-156.1342486013
 21
21.973881532
 31
0.0
  0
LINE
  5
39D
330
1F
100
AcDbEntity
  8
0
  6
Continuous
 62
     7
370
    25
100
AcDbLine
 10
-155.6342486013
 20
77.873881532
 30
0.0
 11
-156.1342486013
 21
78.373881532
 31
0.0
  0
LINE
  5
39E
330
1F
100
AcDbEntity
  8
0
  6
Continuous
 62
     7
370
    25
100
AcDbLine
 10
-155.6342486013
 20
77.873881532
 30
0.0
 11
-155.6342486013
 21
22.473881532
 31
0.0
  0
LINE
  5
39F
330
1F
100
AcDbEntity
  8
0
  6
Continuous
 62
     7
370
    25
100
AcDbLine
 10
-199.1428616203
 20
78.373881532
 30
0.0
 11
-156.1342486013
 21
78.373881532
 31
0.0
  0
LINE
  5
3A0
330
1F
100
AcDbEntity
  8
0
  6
Continuous
 62
     7
370
    25
100
AcDbLine
 10
-51.3828616148
 20
-561.5861184724
 30
0.0
 11
-51.3828616148
 21
-478.3361184724
 31
0.0
  0
LINE
  5
3A1
330
1F
100
AcDbEntity
  8
0
  6
Continuous
 62
     7
370
    25
100
AcDbLine
 10
-51.3828616148
 20
-561.5861184724
 30
0.0
 11
-107.7828616148
 21
-561.5861184724
 31
0.0
  0
LINE
  5
3A2
330
1F
100
AcDbEntity
  8
0
  6
Continuous
 62
     7
370
    25
100
AcDbLine
 10
-54.3828616148
 20
-556.8361184724
 30
0.0
 11
-54.3828616148
 21
-561.8361184724
 31
0.0
  0
LINE
  5
3A3
330
1F
100
AcDbEntity
  8
0
  6
Continuous
 62
     7
370
    25
100
AcDbLine
 10
-51.3828616148
 20
-556.8361184724
 30
0.0
 11
-62.1328616148
 21
-556.8361184724
 31
0.0
  0
LINE
  5
3A4
330
1F
100
AcDbEntity
  8
0
  6
Continuous
 62
     7
370
    25
100
AcDbLine
 10
-51.6328616148
 20
-561.8361184724
 30
0.0
 11
-51.3828616148
 21
-561.5861184724
 31
0.0
  0
LINE
  5
3A5
330
1F
100
AcDbEntity
  8
0
  6
Continuous
 62
     7
370
    25
100
AcDbLine
 10
-104.7828616148
 20
-556.8361184724
 30
0.0
 11
-104.7828616148
 21
-561.8361184724
 31
0.0
  0
LINE
  5
3A6
330
1F
100
AcDbEntity
  8
0
  6
Continuous
 62
     7
370
    25
100
AcDbLine
 10
-62.1328616148
 20
-556.8361184724
 30
0.0
 11
-62.1328616148
 21
-477.8361184724
 31
0.0
  0
LINE
  5
3A7
330
1F
100
AcDbEntity
  8
0
  6
Continuous
 62
     7
370
    25
100
AcDbLine
 10
-97.0328616148
 20
-556.8361184724
 30
0.0
 11
-107.7828616148
 21
-556.8361184724
 31
0.0
  0
LINE
  5
3A8
330
1F
100
AcDbEntity
  8
0
  6
Continuous
 62
     7
370
    25
100
AcDbLine
 10
-97.0328616148
 20
-556.8361184724
 30
0.0
 11
-97.0328616148
 21
-477.8361184724
 31
0.0
  0
LINE
  5
3A9
330
1F
100
AcDbEntity
  8
0
  6
Continuous
 62
     7
370
    25
100
AcDbLine
 10
-60.1328616148
 20
-556.8361184724
 30
0.0
 11
-60.1328616148
 21
-478.3361184724
 31
0.0
  0
LINE
  5
3AA
330
1F
100
AcDbEntity
  8
0
  6
Continuous
 62
     7
370
    25
100
AcDbLine
 10
-60.6328616148
 20
-477.8361184724
 30
0.0
 11
-60.1328616148
 21
-478.3361184724
 31
0.0
  0
LINE
  5
3AB
330
1F
100
AcDbEntity
  8
0
  6
Continuous
 62
     7
370
    25
100
AcDbLine
 10
-99.0328616148
 20
-556.8361184724
 30
0.0
 11
-99.0328616148
 21
-478.3361184724
 31
0.0
  0
LINE
  5
3AC
330
1F
100
AcDbEntity
  8
0
  6
Continuous
 62
     7
370
    25
100
AcDbLine
 10
-98.5328616148
 20
-477.8361184724
 30
0.0
 11
-99.0328616148
 21
-478.3361184724
 31
0.0
  0
LINE
  5
3AD
330
1F
100
AcDbEntity
  8
0
  6
Continuous
 62
     7
370
    25
100
AcDbLine
 10
-107.7828616148
 20
-561.5861184724
 30
0.0
 11
-107.7828616148
 21
-478.3361184724
 31
0.0
  0
LINE
  5
3AE
330
1F
100
AcDbEntity
  8
0
  6
Continuous
 62
     7
370
    25
100
AcDbLine
 10
-107.5328616148
 20
-561.8361184724
 30
0.0
 11
-107.7828616148
 21
-561.5861184724
 31
0.0
  0
LINE
  5
3AF
330
1F
100
AcDbEntity
  8
0
  6
Continuous
 62
     7
370
    25
100
AcDbLine
 10
-55.8828616148
 20
-556.8361184724
 30
0.0
 11
-55.8828616148
 21
-477.8361184724
 31
0.0
  0
LINE
  5
3B0
330
1F
100
AcDbEntity
  8
0
  6
Continuous
 62
     7
370
    25
100
AcDbLine
 10
-103.2828616148
 20
-556.8361184724
 30
0.0
 11
-103.2828616148
 21
-477.8361184724
 31
0.0
  0
LINE
  5
3B1
330
1F
100
AcDbEntity
  8
0
  6
Continuous
 62
     7
370
    25
100
AcDbLine
 10
-51.8828616148
 20
-477.8361184724
 30
0.0
 11
-51.3828616148
 21
-478.3361184724
 31
0.0
  0
LINE
  5
3B2
330
1F
100
AcDbEntity
  8
0
  6
Continuous
 62
     7
370
    25
100
AcDbLine
 10
-53.3828616148
 20
-556.8361184724
 30
0.0
 11
-53.3828616148
 21
-477.8361184724
 31
0.0
  0
LINE
  5
3B3
330
1F
100
AcDbEntity
  8
0
  6
Continuous
 62
     7
370
    25
100
AcDbLine
 10
-105.7828616148
 20
-556.8361184724
 30
0.0
 11
-105.7828616148
 21
-477.8361184724
 31
0.0
  0
LINE
  5
3B4
330
1F
100
AcDbEntity
  8
0
  6
Continuous
 62
     7
370
    25
100
AcDbLine
 10
-107.7828616148
 20
-478.3361184724
 30
0.0
 11
-51.3828616148
 21
-478.3361184724
 31
0.0
  0
LINE
  5
3B5
330
1F
100
AcDbEntity
  8
0
  6
Continuous
 62
     7
370
    25
100
AcDbLine
 10
-107.2828616148
 20
-477.8361184724
 30
0.0
 11
-107.7828616148
 21
-478.3361184724
 31
0.0
  0
LINE
  5
3B6
330
1F
100
AcDbEntity
  8
0
  6
Continuous
 62
     7
370
    25
100
AcDbLine
 10
-107.2828616148
 20
-477.8361184724
 30
0.0
 11
-51.8828616148
 21
-477.8361184724
 31
0.0
  0
LINE
  5
3B7
330
1F
100
AcDbEntity
  8
0
  6
Continuous
 62
     7
370
    25
100
AcDbLine
 10
-836.4928616203
 20
185.663881532
 30
0.0
 11
-358.1928616203
 21
185.663881532
 31
0.0
  0
LINE
  5
3B8
330
1F
100
AcDbEntity
  8
0
  6
Continuous
 62
     7
370
    25
100
AcDbLine
 10
-358.1928616203
 20
108.663881532
 30
0.0
 11
-836.4928616203
 21
108.663881532
 31
0.0
  0
LINE
  5
3B9
330
1F
100
AcDbEntity
  8
0
  6
Continuous
 62
     7
370
    25
100
AcDbLine
 10
-325.1428616203
 20
137.4042708841
 30
0.0
 11
-325.1428616203
 21
116.163881532
 31
0.0
  0
LINE
  5
3BA
330
1F
100
AcDbEntity
  8
0
  6
Continuous
 62
     7
370
    25
100
AcDbLine
 10
-327.1428616203
 20
137.4042708841
 30
0.0
 11
-325.1428616203
 21
137.4042708841
 31
0.0
  0
LINE
  5
3BB
330
1F
100
AcDbEntity
  8
0
  6
Continuous
 62
     7
370
    25
100
AcDbLine
 10
-327.1428616203
 20
156.92349218
 30
0.0
 11
-325.1428616203
 21
156.92349218
 31
0.0
  0
LINE
  5
3BC
330
1F
100
AcDbEntity
  8
0
  6
Continuous
 62
     7
370
    25
100
AcDbLine
 10
-325.1428616203
 20
178.163881532
 30
0.0
 11
-325.1428616203
 21
156.92349218
 31
0.0
  0
LINE
  5
3BD
330
1F
100
AcDbEntity
  8
0
  6
Continuous
 62
     7
370
    25
100
AcDbLine
 10
-327.1428616203
 20
177.5028376827
 30
0.0
 11
-268.1186379304
 21
197.0116377
 31
0.0
  0
LINE
  5
3BE
330
1F
100
AcDbEntity
  8
0
  6
Continuous
 62
     7
370
    25
100
AcDbLine
 10
-327.1428616203
 20
116.8249253814
 30
0.0
 11
-320.6342486013
 21
114.6736860793
 31
0.0
  0
LINE
  5
3BF
330
1F
100
AcDbEntity
  8
0
  6
Continuous
 62
     7
370
    25
100
AcDbLine
 10
-310.6342486013
 20
111.3684668324
 30
0.0
 11
-304.1428616203
 21
109.2229211135
 31
0.0
  0
LINE
  5
3C0
330
1F
100
AcDbEntity
  8
0
  6
Continuous
 62
     7
370
    25
100
AcDbLine
 10
-310.6342486013
 20
77.673881532
 30
0.0
 11
-304.1428616203
 21
77.673881532
 31
0.0
  0
LINE
  5
3C1
330
1F
100
AcDbEntity
  8
0
  6
Continuous
 62
     7
370
    25
100
AcDbLine
 10
-304.1428616203
 20
22.673881532
 30
0.0
 11
-310.6342486013
 21
22.673881532
 31
0.0
  0
LINE
  5
3C2
330
1F
100
AcDbEntity
  8
0
  6
Continuous
 62
     7
370
    25
100
AcDbLine
 10
-304.1428616203
 20
78.673881532
 30
0.0
 11
-310.6342486013
 21
78.673881532
 31
0.0
  0
LINE
  5
3C3
330
1F
100
AcDbEntity
  8
0
  6
Continuous
 62
     7
370
    25
100
AcDbLine
 10
-310.6342486013
 20
21.673881532
 30
0.0
 11
-304.1428616203
 21
21.673881532
 31
0.0
  0
LINE
  5
3C4
330
1F
100
AcDbEntity
  8
0
  6
Continuous
 62
     7
370
    25
100
AcDbLine
 10
-315.6342486013
 20
41.2898820783
 30
0.0
 11
-315.6342486013
 21
43.4796543847
 31
0.0
  0
LINE
  5
3C5
330
1F
100
AcDbEntity
  8
0
  6
Continuous
 62
     7
370
    25
100
AcDbLine
 10
-315.6342486013
 20
53.3740709416
 30
0.0
 11
-315.6342486013
 21
55.6849777037
 31
0.0
  0
LINE
  5
3C6
330
1F
100
AcDbEntity
  8
0
  6
Continuous
 62
     7
370
    25
100
AcDbLine
 10
-336.6342486013
 20
43.173881532
 30
0.0
 11
-336.6342486013
 21
59.473881532
 31
0.0
  0
LINE
  5
3C7
330
1F
100
AcDbEntity
  8
0
  6
Continuous
 62
     7
370
    25
100
AcDbLine
 10
-320.6342486013
 20
56.7122299473
 30
0.0
 11
-336.6342486013
 21
56.7122299473
 31
0.0
  0
LINE
  5
3C8
330
1F
100
AcDbEntity
  8
0
  6
Continuous
 62
     7
370
    25
100
AcDbLine
 10
-336.6342486013
 20
59.473881532
 30
0.0
 11
-320.6342486013
 21
59.473881532
 31
0.0
  0
LINE
  5
3C9
330
1F
100
AcDbEntity
  8
0
  6
Continuous
 62
     7
370
    25
100
AcDbLine
 10
-260.9428616203
 20
-402.836118468
 30
0.0
 11
-260.9428616203
 21
-397.836118468
 31
0.0
  0
LINE
  5
3CA
330
1F
100
AcDbEntity
  8
0
  6
Continuous
 62
     7
370
    25
100
AcDbLine
 10
-260.9428616203
 20
-397.836118468
 30
0.0
 11
-258.1812100356
 21
-397.836118468
 31
0.0
  0
LINE
  5
3CB
330
1F
100
AcDbEntity
  8
0
  6
Continuous
 62
     7
370
    25
100
AcDbLine
 10
-258.1812100356
 20
-402.836118468
 30
0.0
 11
-260.9428616203
 21
-402.836118468
 31
0.0
  0
LINE
  5
3CC
330
1F
100
AcDbEntity
  8
0
  6
Continuous
 62
     7
370
    25
100
AcDbLine
 10
-277.8628616203
 20
-428.836118468
 30
0.0
 11
-272.5628616203
 21
-428.836118468
 31
0.0
  0
LINE
  5
3CD
330
1F
100
AcDbEntity
  8
0
  6
Continuous
 62
     7
370
    25
100
AcDbLine
 10
-261.6853961609
 20
-428.836118468
 30
0.0
 11
-241.6003270796
 21
-428.836118468
 31
0.0
  0
LINE
  5
3CE
330
1F
100
AcDbEntity
  8
0
  6
Continuous
 62
     7
370
    25
100
AcDbLine
 10
-230.7228616203
 20
-428.836118468
 30
0.0
 11
-225.4228616203
 21
-428.836118468
 31
0.0
  0
LINE
  5
3CF
330
1F
100
AcDbEntity
  8
0
  6
Continuous
 62
     7
370
    25
100
AcDbLine
 10
-225.4228616203
 20
-371.836118468
 30
0.0
 11
-230.7228616203
 21
-371.836118468
 31
0.0
  0
LINE
  5
3D0
330
1F
100
AcDbEntity
  8
0
  6
Continuous
 62
     7
370
    25
100
AcDbLine
 10
-272.5628616203
 20
-371.836118468
 30
0.0
 11
-277.8628616203
 21
-371.836118468
 31
0.0
  0
LINE
  5
3D1
330
1F
100
AcDbEntity
  8
0
  6
Continuous
 62
     7
370
    25
100
AcDbLine
 10
-107.0828616148
 20
-633.8361184724
 30
0.0
 11
-107.0828616148
 21
-623.8361184724
 31
0.0
  0
LINE
  5
3D2
330
1F
100
AcDbEntity
  8
0
  6
Continuous
 62
     7
370
    25
100
AcDbLine
 10
-51.0828616148
 20
-623.8361184724
 30
0.0
 11
-108.0828616148
 21
-623.8361184724
 31
0.0
  0
LINE
  5
3D3
330
1F
100
AcDbEntity
  8
0
  6
Continuous
 62
     7
370
    25
100
AcDbLine
 10
-52.0828616148
 20
-623.8361184724
 30
0.0
 11
-52.0828616148
 21
-633.8361184724
 31
0.0
  0
LINE
  5
3D4
330
1F
100
AcDbEntity
  8
0
  6
Continuous
 62
     7
370
    25
100
AcDbLine
 10
-51.0828616148
 20
-581.8361184724
 30
0.0
 11
-108.0828616148
 21
-581.8361184724
 31
0.0
  0
LINE
  5
3D5
330
1F
100
AcDbEntity
  8
0
  6
Continuous
 62
     7
370
    25
100
AcDbLine
 10
-107.0828616148
 20
-581.8361184724
 30
0.0
 11
-107.0828616148
 21
-561.8361184724
 31
0.0
  0
LINE
  5
3D6
330
1F
100
AcDbEntity
  8
0
  6
Continuous
 62
     7
370
    25
100
AcDbLine
 10
-52.0828616148
 20
-561.8361184724
 30
0.0
 11
-52.0828616148
 21
-581.8361184724
 31
0.0
  0
LINE
  5
3D7
330
1F
100
AcDbEntity
  8
0
  6
Continuous
 62
     7
370
    25
100
AcDbLine
 10
-108.0828616148
 20
-561.8361184724
 30
0.0
 11
-51.0828616148
 21
-561.8361184724
 31
0.0
  0
LINE
  5
3D8
330
1F
100
AcDbEntity
  8
0
  6
Continuous
 62
     7
370
    25
100
AcDbLine
 10
-72.5828616148
 20
-658.8361184724
 30
0.0
 11
-88.8828616148
 21
-658.8361184724
 31
0.0
  0
LINE
  5
3D9
330
1F
100
AcDbEntity
  8
0
  6
Continuous
 62
     7
370
    25
100
AcDbLine
 10
-86.1212100301
 20
-642.8361184724
 30
0.0
 11
-86.1212100301
 21
-658.8361184724
 31
0.0
  0
LINE
  5
3DA
330
1F
100
AcDbEntity
  8
0
  6
Continuous
 62
     7
370
    25
100
AcDbLine
 10
-88.8828616148
 20
-658.8361184724
 30
0.0
 11
-88.8828616148
 21
-642.8361184724
 31
0.0
  0
LINE
  5
3DB
330
1F
100
AcDbEntity
  8
0
  6
Continuous
 62
     7
370
    25
100
AcDbLine
 10
-885.1402056842
 20
140.163881532
 30
0.0
 11
-885.1402056842
 21
156.463881532
 31
0.0
  0
LINE
  5
3DC
330
1F
100
AcDbEntity
  8
0
  6
Continuous
 62
     7
370
    25
100
AcDbLine
 10
-874.4336048919
 20
153.7022299473
 30
0.0
 11
-885.1402056842
 21
153.7022299473
 31
0.0
  0
LINE
  5
3DD
330
1F
100
AcDbEntity
  8
0
  6
Continuous
 62
     7
370
    25
100
AcDbLine
 10
-885.1402056842
 20
156.463881532
 30
0.0
 11
-873.8527331404
 21
156.463881532
 31
0.0
  0
LINE
  5
3DE
330
1F
100
AcDbEntity
  8
0
  6
Continuous
 62
     7
370
    25
100
AcDbLine
 10
-147.5928616203
 20
163.7338626546
 30
0.0
 11
-98.5928616203
 21
163.7338626546
 31
0.0
  0
LINE
  5
3DF
330
1F
100
AcDbEntity
  8
0
  6
Continuous
 62
     7
370
    25
100
AcDbLine
 10
-147.5928616203
 20
130.5938626546
 30
0.0
 11
-98.5928616203
 21
130.5938626546
 31
0.0
  0
LINE
  5
3E0
330
1F
100
AcDbEntity
  8
0
  6
Continuous
 62
     7
370
    25
100
AcDbLine
 10
-147.5928616203
 20
128.5938626546
 30
0.0
 11
-99.5928616203
 21
128.5938626546
 31
0.0
  0
LINE
  5
3E1
330
1F
100
AcDbEntity
  8
0
  6
Continuous
 62
     7
370
    25
100
AcDbLine
 10
-147.5928616203
 20
165.7338626546
 30
0.0
 11
-99.5928616203
 21
165.7338626546
 31
0.0
  0
LINE
  5
3E2
330
1F
100
AcDbEntity
  8
0
  6
Continuous
 62
     7
370
    25
100
AcDbLine
 10
-147.5928616203
 20
118.6638626546
 30
0.0
 11
-147.5928616203
 21
130.5938626546
 31
0.0
  0
LINE
  5
3E3
330
1F
100
AcDbEntity
  8
0
  6
Continuous
 62
     7
370
    25
100
AcDbLine
 10
-147.5928616203
 20
121.6638626546
 30
0.0
 11
-152.5928616203
 21
121.6638626546
 31
0.0
  0
LINE
  5
3E4
330
1F
100
AcDbEntity
  8
0
  6
Continuous
 62
     7
370
    25
100
AcDbLine
 10
-149.0928616203
 20
159.0338626546
 30
0.0
 11
-151.5928616203
 21
159.0338626546
 31
0.0
  0
LINE
  5
3E5
330
1F
100
AcDbEntity
  8
0
  6
Continuous
 62
     7
370
    25
100
AcDbLine
 10
-149.0928616203
 20
165.7338626546
 30
0.0
 11
-149.0928616203
 21
159.0338626546
 31
0.0
  0
LINE
  5
3E6
330
1F
100
AcDbEntity
  8
0
  6
Continuous
 62
     7
370
    25
100
AcDbLine
 10
-151.5928616203
 20
165.7338626546
 30
0.0
 11
-149.0928616203
 21
165.7338626546
 31
0.0
  0
LINE
  5
3E7
330
1F
100
AcDbEntity
  8
0
  6
Continuous
 62
     7
370
    25
100
AcDbLine
 10
-147.5928616203
 20
172.6638626546
 30
0.0
 11
-152.5928616203
 21
172.6638626546
 31
0.0
  0
LINE
  5
3E8
330
1F
100
AcDbEntity
  8
0
  6
Continuous
 62
     7
370
    25
100
AcDbLine
 10
-147.5928616203
 20
163.7338626546
 30
0.0
 11
-147.5928616203
 21
175.6638626546
 31
0.0
  0
LINE
  5
3E9
330
1F
100
AcDbEntity
  8
0
  6
Continuous
 62
     7
370
    25
100
AcDbLine
 10
-152.5928616203
 20
118.6638626546
 30
0.0
 11
-99.5928616203
 21
118.6638626546
 31
0.0
  0
LINE
  5
3EA
330
1F
100
AcDbEntity
  8
0
  6
Continuous
 62
     7
370
    25
100
AcDbLine
 10
-152.5928616203
 20
175.6638626546
 30
0.0
 11
-99.5928616203
 21
175.6638626546
 31
0.0
  0
LINE
  5
3EB
330
1F
100
AcDbEntity
  8
0
  6
Continuous
 62
     7
370
    25
100
AcDbLine
 10
-147.5928616203
 20
123.5938626546
 30
0.0
 11
-98.5928616203
 21
123.5938626546
 31
0.0
  0
LINE
  5
3EC
330
1F
100
AcDbEntity
  8
0
  6
Continuous
 62
     7
370
    25
100
AcDbLine
 10
-98.5928616203
 20
170.7338626546
 30
0.0
 11
-147.5928616203
 21
170.7338626546
 31
0.0
  0
LINE
  5
3ED
330
1F
100
AcDbEntity
  8
0
  6
Continuous
 62
     7
370
    25
100
AcDbLine
 10
-98.5928616203
 20
173.6638626546
 30
0.0
 11
-147.5928616203
 21
173.6638626546
 31
0.0
  0
LINE
  5
3EE
330
1F
100
AcDbEntity
  8
0
  6
Continuous
 62
     7
370
    25
100
AcDbLine
 10
-99.5928616203
 20
175.6638626546
 30
0.0
 11
-99.5928616203
 21
118.6638626546
 31
0.0
  0
LINE
  5
3EF
330
1F
100
AcDbEntity
  8
0
  6
Continuous
 62
     7
370
    25
100
AcDbLine
 10
-147.5928616203
 20
120.6638626546
 30
0.0
 11
-98.5928616203
 21
120.6638626546
 31
0.0
  0
LINE
  5
3F0
330
1F
100
AcDbEntity
  8
0
  6
Continuous
 62
     7
370
    25
100
AcDbLine
 10
-98.5928616203
 20
119.6638626546
 30
0.0
 11
-98.5928616203
 21
174.6638626546
 31
0.0
  0
LINE
  5
3F1
330
1F
100
AcDbEntity
  8
0
  6
Continuous
 62
     7
370
    25
100
AcDbLine
 10
-158.6428616148
 20
-566.8361184724
 30
0.0
 11
-312.6428616148
 21
-566.8361184724
 31
0.0
  0
LINE
  5
3F2
330
1F
100
AcDbEntity
  8
0
  6
Continuous
 62
     7
370
    25
100
AcDbLine
 10
-187.1338878458
 20
-557.8361184724
 30
0.0
 11
-187.1338878458
 21
-566.8361184724
 31
0.0
  0
LINE
  5
3F3
330
1F
100
AcDbEntity
  8
0
  6
Continuous
 62
     7
370
    25
100
AcDbLine
 10
-199.1428616203
 20
-502.836118468
 30
0.0
 11
-199.1428616203
 21
147.163881532
 31
0.0
  0
LINE
  5
3F4
330
1F
100
AcDbEntity
  8
0
  6
Continuous
 62
     7
370
    25
100
AcDbLine
 10
-304.1428616203
 20
-502.836118468
 30
0.0
 11
-304.1428616203
 21
147.163881532
 31
0.0
  0
LINE
  5
3F5
330
1F
100
AcDbEntity
  8
0
  6
Continuous
 62
     7
370
    25
100
AcDbLine
 10
-225.4228616203
 20
-386.766118468
 30
0.0
 11
-225.4228616203
 21
-371.766118468
 31
0.0
  0
LINE
  5
3F6
330
1F
100
AcDbEntity
  8
0
  6
Continuous
 62
     7
370
    25
100
AcDbLine
 10
-230.7228616203
 20
-386.766118468
 30
0.0
 11
-230.7228616203
 21
-371.766118468
 31
0.0
  0
LINE
  5
3F7
330
1F
100
AcDbEntity
  8
0
  6
Continuous
 62
     7
370
    25
100
AcDbLine
 10
-277.8628616203
 20
-418.906118468
 30
0.0
 11
-277.8628616203
 21
-433.906118468
 31
0.0
  0
LINE
  5
3F8
330
1F
100
AcDbEntity
  8
0
  6
Continuous
 62
     7
370
    25
100
AcDbLine
 10
-272.5628616203
 20
-418.906118468
 30
0.0
 11
-272.5628616203
 21
-433.906118468
 31
0.0
  0
LINE
  5
3F9
330
1F
100
AcDbEntity
  8
0
  6
Continuous
 62
     7
370
    25
100
AcDbLine
 10
-225.4228616203
 20
-418.906118468
 30
0.0
 11
-225.4228616203
 21
-433.906118468
 31
0.0
  0
LINE
  5
3FA
330
1F
100
AcDbEntity
  8
0
  6
Continuous
 62
     7
370
    25
100
AcDbLine
 10
-230.7228616203
 20
-418.906118468
 30
0.0
 11
-230.7228616203
 21
-433.906118468
 31
0.0
  0
LINE
  5
3FB
330
1F
100
AcDbEntity
  8
0
  6
Continuous
 62
     7
370
    25
100
AcDbLine
 10
-272.5628616203
 20
-386.766118468
 30
0.0
 11
-272.5628616203
 21
-371.766118468
 31
0.0
  0
LINE
  5
3FC
330
1F
100
AcDbEntity
  8
0
  6
Continuous
 62
     7
370
    25
100
AcDbLine
 10
-277.8628616203
 20
-386.766118468
 30
0.0
 11
-277.8628616203
 21
-371.766118468
 31
0.0
  0
LINE
  5
3FD
330
1F
100
AcDbEntity
  8
0
  6
Continuous
 62
     7
370
    25
100
AcDbLine
 10
-272.6928616203
 20
-395.336118468
 30
0.0
 11
-272.6928616203
 21
-410.336118468
 31
0.0
  0
LINE
  5
3FE
330
1F
100
AcDbEntity
  8
0
  6
Continuous
 62
     7
370
    25
100
AcDbLine
 10
-230.5928616203
 20
-395.336118468
 30
0.0
 11
-230.5928616203
 21
-410.336118468
 31
0.0
  0
ARC
  5
3FF
330
1F
100
AcDbEntity
  8
0
  6
Continuous
 62
     7
370
    25
100
AcDbCircle
 10
-327.2428616203
 20
179.563881532
 30
0.0
 40
0.1000000000000227
100
AcDbArc
 50
360.0
 51
59.9999999993
  0
ARC
  5
400
330
1F
100
AcDbEntity
  8
0
  6
Continuous
 62
     7
370
    25
100
AcDbCircle
 10
-327.2428616203
 20
114.763881532
 30
0.0
 40
0.1000000000002501
100
AcDbArc
 50
300.0000000008
 51
360.0
  0
ARC
  5
401
330
1F
100
AcDbEntity
  8
0
  6
Continuous
 62
     7
370
    25
100
AcDbCircle
 10
-176.0428616203
 20
114.763881532
 30
0.0
 40
0.1000000000000796
100
AcDbArc
 50
180.0
 51
240.0000000008
  0
ARC
  5
402
330
1F
100
AcDbEntity
  8
0
  6
Continuous
 62
     7
370
    25
100
AcDbCircle
 10
-176.0428616203
 20
179.563881532
 30
0.0
 40
0.0999999999992147
100
AcDbArc
 50
119.9999999993
 51
180.0000000003
  0
ARC
  5
403
330
1F
100
AcDbEntity
  8
0
  6
Continuous
 62
     7
370
    25
100
AcDbCircle
 10
-251.6428616203
 20
147.163881532
 30
0.0
 40
53.49999999999999
100
AcDbArc
 50
348.9046874524
 51
52.6110602999
  0
ARC
  5
404
330
1F
100
AcDbEntity
  8
0
  6
Continuous
 62
     7
370
    25
100
AcDbCircle
 10
-218.5492366956
 20
190.4658675066
 30
0.0
 40
1.000000000000006
100
AcDbArc
 50
71.7101469089
 51
232.6110602999
  0
ARC
  5
405
330
1F
100
AcDbEntity
  8
0
  6
Continuous
 62
     7
370
    25
100
AcDbCircle
 10
-251.6428616203
 20
147.163881532
 30
0.0
 40
52.54999999999965
100
AcDbArc
 50
357.5003988647
 51
55.8052769768
  0
ARC
  5
406
330
1F
100
AcDbEntity
  8
0
  6
Continuous
 62
     7
370
    25
100
AcDbCircle
 10
-221.5473760156
 20
191.4568182852
 30
0.0
 40
1.000000000000023
100
AcDbArc
 50
71.710146909
 51
235.8052769768
  0
ARC
  5
407
330
1F
100
AcDbEntity
  8
0
  6
Continuous
 62
     7
370
    25
100
AcDbCircle
 10
-251.6678616203
 20
147.163881532
 30
0.0
 40
68.96638698096675
100
AcDbArc
 50
159.2307692308
 51
180.0
  0
ARC
  5
408
330
1F
100
AcDbEntity
  8
0
  6
Continuous
 62
     7
370
    25
100
AcDbCircle
 10
-311.4774724334
 20
169.8466749619
 30
0.0
 40
5.000000000000022
100
AcDbArc
 50
339.2307692308
 51
159.2307692308
  0
ARC
  5
409
330
1F
100
AcDbEntity
  8
0
  6
Continuous
 62
     7
370
    25
100
AcDbCircle
 10
-251.6678616203
 20
147.163881532
 30
0.0
 40
58.96638698097104
100
AcDbArc
 50
159.2307692308
 51
200.7692307692
  0
ARC
  5
40A
330
1F
100
AcDbEntity
  8
0
  6
Continuous
 62
     7
370
    25
100
AcDbCircle
 10
-305.6342486013
 20
116.3658718236
 30
0.0
 40
5.00000000000035
100
AcDbArc
 50
125.7551339061
 51
180.0
  0
ARC
  5
40B
330
1F
100
AcDbEntity
  8
0
  6
Continuous
 62
     7
370
    25
100
AcDbCircle
 10
-311.6342486013
 20
14.6872148654
 30
0.0
 40
1.000000000000171
100
AcDbArc
 50
270.0
 51
360.0
  0
ARC
  5
40C
330
1F
100
AcDbEntity
  8
0
  6
Continuous
 62
     7
370
    25
100
AcDbCircle
 10
-311.4774724334
 20
124.4810881021
 30
0.0
 40
5.000000000000326
100
AcDbArc
 50
305.7551339061
 51
20.7692307692
  0
ARC
  5
40D
330
1F
100
AcDbEntity
  8
0
  6
Continuous
 62
     7
370
    25
100
AcDbCircle
 10
-311.6342486013
 20
15.9323850702
 30
0.0
 40
2.24517020487893
100
AcDbArc
 50
270.0000000001
 51
326.3168683232
  0
ARC
  5
40E
330
1F
100
AcDbEntity
  8
0
  6
Continuous
 62
     7
370
    25
100
AcDbCircle
 10
-293.6428616148
 20
-557.8361184724
 30
0.0
 40
4.0
100
AcDbArc
 50
0.0
 51
180.0
  0
ARC
  5
40F
330
1F
100
AcDbEntity
  8
0
  6
Continuous
 62
     7
370
    25
100
AcDbCircle
 10
-251.6428616148
 20
-502.8361184724
 30
0.0
 40
60.99999999999925
100
AcDbArc
 50
149.3902890039
 51
180.0
  0
ARC
  5
410
330
1F
100
AcDbEntity
  8
0
  6
Continuous
 62
     7
370
    25
100
AcDbCircle
 10
-251.6428616148
 20
-502.8361184724
 30
0.0
 40
60.99999999999897
100
AcDbArc
 50
0.0
 51
30.6097110162
  0
ARC
  5
411
330
1F
100
AcDbEntity
  8
0
  6
Continuous
 62
     7
370
    25
100
AcDbCircle
 10
-836.4928616203
 20
147.163881532
 30
0.0
 40
24.37648500000834
100
AcDbArc
 50
280.0757148841
 51
304.9242852383
  0
ARC
  5
412
330
1F
100
AcDbEntity
  8
0
  6
Continuous
 62
     7
370
    25
100
AcDbCircle
 10
-836.4928616203
 20
147.163881532
 30
0.0
 40
24.37648500000642
100
AcDbArc
 50
325.0757147641
 51
349.924285076
  0
ARC
  5
413
330
1F
100
AcDbEntity
  8
0
  6
Continuous
 62
     7
370
    25
100
AcDbCircle
 10
-836.4928616203
 20
147.163881532
 30
0.0
 40
24.37648499997567
100
AcDbArc
 50
10.0757149238
 51
34.9242850858
  0
ARC
  5
414
330
1F
100
AcDbEntity
  8
0
  6
Continuous
 62
     7
370
    25
100
AcDbCircle
 10
-836.4928616203
 20
147.163881532
 30
0.0
 40
24.37648500002339
100
AcDbArc
 50
55.0757149141
 51
79.9242851159
  0
ARC
  5
415
330
1F
100
AcDbEntity
  8
0
  6
Continuous
 62
     7
370
    25
100
AcDbCircle
 10
-836.4928616203
 20
147.1638815321
 30
0.0
 40
24.37648499997157
100
AcDbArc
 50
100.0757148832
 51
124.9242850795
  0
ARC
  5
416
330
1F
100
AcDbEntity
  8
0
  6
Continuous
 62
     7
370
    25
100
AcDbCircle
 10
-836.4928616203
 20
147.163881532
 30
0.0
 40
24.37648500000333
100
AcDbArc
 50
145.0757149205
 51
169.9242850777
  0
ARC
  5
417
330
1F
100
AcDbEntity
  8
0
  6
Continuous
 62
     7
370
    25
100
AcDbCircle
 10
-836.4928616203
 20
147.163881532
 30
0.0
 40
24.3764849999916
100
AcDbArc
 50
190.0757149226
 51
214.9242850745
  0
ARC
  5
418
330
1F
100
AcDbEntity
  8
0
  6
Continuous
 62
     7
370
    25
100
AcDbCircle
 10
-836.4928616203
 20
147.163881532
 30
0.0
 40
24.37648499999726
100
AcDbArc
 50
235.0757149255
 51
259.9242851167
  0
ARC
  5
419
330
1F
100
AcDbEntity
  8
0
  6
Continuous
 62
     7
370
    25
100
AcDbCircle
 10
-836.4928616203
 20
147.163881532
 30
0.0
 40
24.37648571038984
100
AcDbArc
 50
145.0757147804
 51
169.9242852242
  0
ARC
  5
41A
330
1F
100
AcDbEntity
  8
0
  6
Continuous
 62
     7
370
    25
100
AcDbCircle
 10
-836.4928616203
 20
147.163881532
 30
0.0
 40
24.37648571035904
100
AcDbArc
 50
100.0757148222
 51
124.9242852194
  0
ARC
  5
41B
330
1F
100
AcDbEntity
  8
0
  6
Continuous
 62
     7
370
    25
100
AcDbCircle
 10
-836.4928616203
 20
147.163881532
 30
0.0
 40
24.37648571036735
100
AcDbArc
 50
55.0757147802
 51
79.9242851787
  0
ARC
  5
41C
330
1F
100
AcDbEntity
  8
0
  6
Continuous
 62
     7
370
    25
100
AcDbCircle
 10
-836.4928616203
 20
147.163881532
 30
0.0
 40
24.37648571038375
100
AcDbArc
 50
10.0757147773
 51
34.92428522
  0
ARC
  5
41D
330
1F
100
AcDbEntity
  8
0
  6
Continuous
 62
     7
370
    25
100
AcDbCircle
 10
-836.4928616203
 20
147.163881532
 30
0.0
 40
24.37648571037829
100
AcDbArc
 50
325.0757145903
 51
349.9242852226
  0
ARC
  5
41E
330
1F
100
AcDbEntity
  8
0
  6
Continuous
 62
     7
370
    25
100
AcDbCircle
 10
-836.4928616203
 20
147.163881532
 30
0.0
 40
24.37648571036544
100
AcDbArc
 50
280.0757147721
 51
304.9242854124
  0
ARC
  5
41F
330
1F
100
AcDbEntity
  8
0
  6
Continuous
 62
     7
370
    25
100
AcDbCircle
 10
-836.4928616203
 20
147.163881532
 30
0.0
 40
24.37648571037733
100
AcDbArc
 50
235.0757147646
 51
259.924285228
  0
ARC
  5
420
330
1F
100
AcDbEntity
  8
0
  6
Continuous
 62
     7
370
    25
100
AcDbCircle
 10
-836.4928616203
 20
147.163881532
 30
0.0
 40
24.37648571038141
100
AcDbArc
 50
190.075714776
 51
214.9242852355
  0
ARC
  5
421
330
1F
100
AcDbEntity
  8
0
  6
Continuous
 62
     7
370
    25
100
AcDbCircle
 10
-284.736486545
 20
190.4658675066
 30
0.0
 40
1.000000000000058
100
AcDbArc
 50
307.3889397001
 51
108.289853091
  0
ARC
  5
422
330
1F
100
AcDbEntity
  8
0
  6
Continuous
 62
     7
370
    25
100
AcDbCircle
 10
-251.6428616203
 20
147.163881532
 30
0.0
 40
53.50000000000008
100
AcDbArc
 50
127.3889397001
 51
191.0953125476
  0
ARC
  5
423
330
1F
100
AcDbEntity
  8
0
  6
Continuous
 62
     7
370
    25
100
AcDbCircle
 10
-251.6428616203
 20
147.163881532
 30
0.0
 40
52.55000000000001
100
AcDbArc
 50
124.1947230232
 51
182.4996011354
  0
ARC
  5
424
330
1F
100
AcDbEntity
  8
0
  6
Continuous
 62
     7
370
    25
100
AcDbCircle
 10
-281.738347225
 20
191.4568182852
 30
0.0
 40
1.000000000000071
100
AcDbArc
 50
304.1947230232
 51
108.289853091
  0
ARC
  5
425
330
1F
100
AcDbEntity
  8
0
  6
Continuous
 62
     7
370
    25
100
AcDbCircle
 10
-251.6428616203
 20
-400.336118468
 30
0.0
 40
6.999999999999931
100
AcDbArc
 50
200.9248324276
 51
159.0751675724
  0
ARC
  5
426
330
1F
100
AcDbEntity
  8
0
  6
Continuous
 62
     7
370
    25
100
AcDbCircle
 10
-275.2128616203
 20
-376.766118468
 30
0.0
 40
2.75000000000029
100
AcDbArc
 50
15.4987327566
 51
164.5012672434
  0
ARC
  5
427
330
1F
100
AcDbEntity
  8
0
  6
Continuous
 62
     7
370
    25
100
AcDbCircle
 10
-275.2128616203
 20
-376.766118468
 30
0.0
 40
2.750000000000071
100
AcDbArc
 50
195.4987327566
 51
344.5012672434
  0
ARC
  5
428
330
1F
100
AcDbEntity
  8
0
  6
Continuous
 62
     7
370
    25
100
AcDbCircle
 10
-275.2128616203
 20
-423.906118468
 30
0.0
 40
2.750000000000386
100
AcDbArc
 50
15.4987327566
 51
164.5012672434
  0
ARC
  5
429
330
1F
100
AcDbEntity
  8
0
  6
Continuous
 62
     7
370
    25
100
AcDbCircle
 10
-275.2128616203
 20
-423.906118468
 30
0.0
 40
2.750000000000091
100
AcDbArc
 50
195.4987327566
 51
344.5012672434
  0
ARC
  5
42A
330
1F
100
AcDbEntity
  8
0
  6
Continuous
 62
     7
370
    25
100
AcDbCircle
 10
-228.0728616203
 20
-376.766118468
 30
0.0
 40
2.750000000000056
100
AcDbArc
 50
15.4987327566
 51
164.5012672434
  0
ARC
  5
42B
330
1F
100
AcDbEntity
  8
0
  6
Continuous
 62
     7
370
    25
100
AcDbCircle
 10
-228.0728616203
 20
-376.766118468
 30
0.0
 40
2.750000000000034
100
AcDbArc
 50
195.4987327566
 51
344.5012672434
  0
ARC
  5
42C
330
1F
100
AcDbEntity
  8
0
  6
Continuous
 62
     7
370
    25
100
AcDbCircle
 10
-228.0728616203
 20
-423.906118468
 30
0.0
 40
2.749999999999995
100
AcDbArc
 50
15.4987327566
 51
164.5012672434
  0
ARC
  5
42D
330
1F
100
AcDbEntity
  8
0
  6
Continuous
 62
     7
370
    25
100
AcDbCircle
 10
-228.0728616203
 20
-423.906118468
 30
0.0
 40
2.750000000000068
100
AcDbArc
 50
195.4987327566
 51
344.5012672434
  0
ARC
  5
42E
330
1F
100
AcDbEntity
  8
0
  6
Continuous
 62
     7
370
    25
100
AcDbCircle
 10
-99.5928616203
 20
164.7338626546
 30
0.0
 40
1.000000000000171
100
AcDbArc
 50
0.0
 51
90.0
  0
ARC
  5
42F
330
1F
100
AcDbEntity
  8
0
  6
Continuous
 62
     7
370
    25
100
AcDbCircle
 10
-99.5928616203
 20
129.5938626546
 30
0.0
 40
1.0
100
AcDbArc
 50
270.0
 51
0.0
  0
ARC
  5
430
330
1F
100
AcDbEntity
  8
0
  6
Continuous
 62
     7
370
    25
100
AcDbCircle
 10
-99.5928616203
 20
174.6638626546
 30
0.0
 40
1.000000000000114
100
AcDbArc
 50
0.0
 51
90.0
  0
ARC
  5
431
330
1F
100
AcDbEntity
  8
0
  6
Continuous
 62
     7
370
    25
100
AcDbCircle
 10
-99.5928616203
 20
119.6638626546
 30
0.0
 40
1.000000000000085
100
AcDbArc
 50
270.0
 51
360.0
  0
ARC
  5
432
330
1F
100
AcDbEntity
  8
0
  6
Continuous
 62
     7
370
    25
100
AcDbCircle
 10
-251.6428616203
 20
147.163881532
 30
0.0
 40
52.49999999999997
100
AcDbArc
 50
0.0
 51
180.0
  0
ARC
  5
433
330
1F
100
AcDbEntity
  8
0
  6
Continuous
 62
     7
370
    25
100
AcDbCircle
 10
-228.0728616203
 20
-371.766118468
 30
0.0
 40
2.650000000000006
100
AcDbArc
 50
360.0
 51
180.0
  0
ARC
  5
434
330
1F
100
AcDbEntity
  8
0
  6
Continuous
 62
     7
370
    25
100
AcDbCircle
 10
-228.0728616203
 20
-386.766118468
 30
0.0
 40
2.650000000000006
100
AcDbArc
 50
180.0
 51
0.0
  0
ARC
  5
435
330
1F
100
AcDbEntity
  8
0
  6
Continuous
 62
     7
370
    25
100
AcDbCircle
 10
-275.2128616203
 20
-433.906118468
 30
0.0
 40
2.650000000000034
100
AcDbArc
 50
180.0
 51
0.0
  0
ARC
  5
436
330
1F
100
AcDbEntity
  8
0
  6
Continuous
 62
     7
370
    25
100
AcDbCircle
 10
-275.2128616203
 20
-418.906118468
 30
0.0
 40
2.650000000000034
100
AcDbArc
 50
0.0
 51
180.0
  0
ARC
  5
437
330
1F
100
AcDbEntity
  8
0
  6
Continuous
 62
     7
370
    25
100
AcDbCircle
 10
-228.0728616203
 20
-433.906118468
 30
0.0
 40
2.650000000000063
100
AcDbArc
 50
180.0
 51
360.0
  0
ARC
  5
438
330
1F
100
AcDbEntity
  8
0
  6
Continuous
 62
     7
370
    25
100
AcDbCircle
 10
-228.0728616203
 20
-418.906118468
 30
0.0
 40
2.650000000000034
100
AcDbArc
 50
0.0
 51
180.0
  0
ARC
  5
439
330
1F
100
AcDbEntity
  8
0
  6
Continuous
 62
     7
370
    25
100
AcDbCircle
 10
-275.2128616203
 20
-371.766118468
 30
0.0
 40
2.650000000000091
100
AcDbArc
 50
0.0
 51
180.0
  0
ARC
  5
43A
330
1F
100
AcDbEntity
  8
0
  6
Continuous
 62
     7
370
    25
100
AcDbCircle
 10
-275.2128616203
 20
-386.766118468
 30
0.0
 40
2.650000000000091
100
AcDbArc
 50
180.0
 51
0.0
  0
ARC
  5
43B
330
1F
100
AcDbEntity
  8
0
  6
Continuous
 62
     7
370
    25
100
AcDbCircle
 10
-251.6428616203
 20
-395.336118468
 30
0.0
 40
21.04999999999998
100
AcDbArc
 50
0.0
 51
180.0
  0
ARC
  5
43C
330
1F
100
AcDbEntity
  8
0
  6
Continuous
 62
     7
370
    25
100
AcDbCircle
 10
-251.6428616203
 20
-410.336118468
 30
0.0
 40
21.05000000000001
100
AcDbArc
 50
180.0
 51
0.0
  0
ARC
  5
43D
330
1F
100
AcDbEntity
  8
0
  6
Continuous
 62
     7
370
    25
100
AcDbCircle
 10
-251.6428616203
 20
-502.836118468
 30
0.0
 40
52.50000000000003
100
AcDbArc
 50
180.0
 51
0.0
  0
ENDSEC
  0
SECTION
  2
OBJECTS
  0
DICTIONARY
  5
C
330
0
100
AcDbDictionary
281
     1
  3
ACAD_GROUP
350
D
  3
ACAD_LAYOUT
350
1A
  3
ACAD_MLINESTYLE
350
17
  3
ACAD_PLOTSETTINGS
350
19
  3
ACAD_PLOTSTYLENAME
350
E
  3
ACAD_SCALELIST
350
47
  3
DWGPROPS
350
43E
  0
DICTIONARY
  5
D
102
{ACAD_REACTORS
330
C
102
}
330
C
100
AcDbDictionary
281
     1
  0
DICTIONARY
  5
1A
102
{ACAD_REACTORS
330
C
102
}
330
C
100
AcDbDictionary
281
     1
  3
Layout1
350
1E
  3
Layout2
350
26
  3
Model
350
22
  0
DICTIONARY
  5
17
102
{ACAD_REACTORS
330
C
102
}
330
C
100
AcDbDictionary
281
     1
  3
Standard
350
18
  0
DICTIONARY
  5
19
102
{ACAD_REACTORS
330
C
102
}
330
C
100
AcDbDictionary
281
     1
  0
ACDBDICTIONARYWDFLT
  5
E
102
{ACAD_REACTORS
330
C
102
}
330
C
100
AcDbDictionary
281
     1
  3
Normal
350
F
100
AcDbDictionaryWithDefault
340
F
  0
DICTIONARY
  5
47
102
{ACAD_REACTORS
330
C
102
}
330
C
100
AcDbDictionary
281
     1
  3
A0
350
48
  3
A1
350
49
  3
A2
350
4A
  3
A3
350
4B
  3
A4
350
4C
  3
A5
350
4D
  3
A6
350
4E
  3
A7
350
4F
  3
A8
350
50
  3
A9
350
51
  3
B0
350
52
  3
B1
350
53
  3
B2
350
54
  3
B3
350
55
  3
B4
350
56
  3
B5
350
57
  3
B6
350
58
  0
XRECORD
  5
43E
102
{ACAD_REACTORS
330
C
102
}
330
C
100
AcDbXrecord
280
     1
  1
DWGPROPS COOKIE
  2

  3

  4

  6

  7

  8
lenovo
  9

300
=
301
=
302
=
303
=
304
=
305
=
306
=
307
=
308
=
309
=
 40
0.0
 41
2460729.108700822
 42
2460729.108777338
  1

 90
        0
  0
LAYOUT
  5
1E
102
{ACAD_REACTORS
330
1A
102
}
330
1A
100
AcDbPlotSettings
  1

  2
none_device
  4

  6

 40
0.0
 41
0.0
 42
0.0
 43
0.0
 44
0.0
 45
0.0
 46
0.0
 47
0.0
 48
0.0
 49
0.0
140
0.0
141
0.0
142
1.0
143
1.0
 70
   688
 72
     1
 73
     0
 74
     5
  7

 75
    16
147
1.0
148
0.0
149
0.0
100
AcDbLayout
  1
Layout1
 70
     1
 71
     1
 10
0.0
 20
0.0
 11
420.0
 21
297.0
 12
0.0
 22
0.0
 32
0.0
 14
1.0000000000E+20
 24
1.0000000000E+20
 34
1.0000000000E+20
 15
-1.0000000000E+20
 25
-1.0000000000E+20
 35
-1.0000000000E+20
146
0.0
 13
0.0
 23
0.0
 33
0.0
 16
1.0
 26
0.0
 36
0.0
 17
0.0
 27
1.0
 37
0.0
 76
     0
330
1B
  0
LAYOUT
  5
26
102
{ACAD_REACTORS
330
1A
102
}
330
1A
100
AcDbPlotSettings
  1

  2
none_device
  4

  6

 40
0.0
 41
0.0
 42
0.0
 43
0.0
 44
0.0
 45
0.0
 46
0.0
 47
0.0
 48
0.0
 49
0.0
140
0.0
141
0.0
142
1.0
143
1.0
 70
   688
 72
     1
 73
     0
 74
     5
  7

 75
    16
147
1.0
148
0.0
149
0.0
100
AcDbLayout
  1
Layout2
 70
     1
 71
     2
 10
0.0
 20
0.0
 11
0.0
 21
0.0
 12
0.0
 22
0.0
 32
0.0
 14
0.0
 24
0.0
 34
0.0
 15
0.0
 25
0.0
 35
0.0
146
0.0
 13
0.0
 23
0.0
 33
0.0
 16
1.0
 26
0.0
 36
0.0
 17
0.0
 27
1.0
 37
0.0
 76
     0
330
23
  0
LAYOUT
  5
22
102
{ACAD_REACTORS
330
1A
102
}
330
1A
100
AcDbPlotSettings
  1

  2
none_device
  4
ANSI_A_(11.00_x_8.50_Inches)
  6

 40
6.35
 41
19.05
 42
6.35000508
 43
19.05000254
 44
279.4
 45
215.9
 46
248.329530654
 47
146.0601228391
 48
0.0
 49
0.0
140
0.0
141
0.0
142
0.0098019802
143
1.0
 70
  1696
 72
     0
 73
     0
 74
     0
  7

 75
     0
147
0.0179189148
148
-1300.4909072572
149
0.0
100
AcDbLayout
  1
Model
 70
     1
 71
     0
 10
0.0
 20
0.0
 11
420.0
 21
297.0
 12
0.0
 22
0.0
 32
0.0
 14
-885.1402056842
 24
-658.8361184724
 34
0.0
 15
-38.5003616148
 25
199.663881532
 35
0.0
146
0.0
 13
0.0
 23
0.0
 33
0.0
 16
1.0
 26
0.0
 36
0.0
 17
0.0
 27
1.0
 37
0.0
 76
     0
330
1F
331
29
  0
MLINESTYLE
  5
18
102
{ACAD_REACTORS
330
17
102
}
330
17
100
AcDbMlineStyle
  2
Standard
 70
     0
  3

 62
   256
 51
90.0
 52
90.0
 71
     2
 49
0.5
 62
   256
  6
BYLAYER
 49
-0.5
 62
   256
  6
BYLAYER
  0
ACDBPLACEHOLDER
  5
F
102
{ACAD_REACTORS
330
E
102
}
330
E
  0
SCALE
  5
48
102
{ACAD_REACTORS
330
47
102
}
330
47
100
AcDbScale
 70
     0
300
1:1
140
1.0
141
1.0
290
     1
  0
SCALE
  5
49
102
{ACAD_REACTORS
330
47
102
}
330
47
100
AcDbScale
 70
     0
300
1:2
140
1.0
141
2.0
290
     0
  0
SCALE
  5
4A
102
{ACAD_REACTORS
330
47
102
}
330
47
100
AcDbScale
 70
     0
300
1:4
140
1.0
141
4.0
290
     0
  0
SCALE
  5
4B
102
{ACAD_REACTORS
330
47
102
}
330
47
100
AcDbScale
 70
     0
300
1:5
140
1.0
141
5.0
290
     0
  0
SCALE
  5
4C
102
{ACAD_REACTORS
330
47
102
}
330
47
100
AcDbScale
 70
     0
300
1:8
140
1.0
141
8.0
290
     0
  0
SCALE
  5
4D
102
{ACAD_REACTORS
330
47
102
}
330
47
100
AcDbScale
 70
     0
300
1:10
140
1.0
141
10.0
290
     0
  0
SCALE
  5
4E
102
{ACAD_REACTORS
330
47
102
}
330
47
100
AcDbScale
 70
     0
300
1:16
140
1.0
141
16.0
290
     0
  0
SCALE
  5
4F
102
{ACAD_REACTORS
330
47
102
}
330
47
100
AcDbScale
 70
     0
300
1:20
140
1.0
141
20.0
290
     0
  0
SCALE
  5
50
102
{ACAD_REACTORS
330
47
102
}
330
47
100
AcDbScale
 70
     0
300
1:30
140
1.0
141
30.0
290
     0
  0
SCALE
  5
51
102
{ACAD_REACTORS
330
47
102
}
330
47
100
AcDbScale
 70
     0
300
1:40
140
1.0
141
40.0
290
     0
  0
SCALE
  5
52
102
{ACAD_REACTORS
330
47
102
}
330
47
100
AcDbScale
 70
     0
300
1:50
140
1.0
141
50.0
290
     0
  0
SCALE
  5
53
102
{ACAD_REACTORS
330
47
102
}
330
47
100
AcDbScale
 70
     0
300
1:100
140
1.0
141
100.0
290
     0
  0
SCALE
  5
54
102
{ACAD_REACTORS
330
47
102
}
330
47
100
AcDbScale
 70
     0
300
2:1
140
2.0
141
1.0
290
     0
  0
SCALE
  5
55
102
{ACAD_REACTORS
330
47
102
}
330
47
100
AcDbScale
 70
     0
300
4:1
140
4.0
141
1.0
290
     0
  0
SCALE
  5
56
102
{ACAD_REACTORS
330
47
102
}
330
47
100
AcDbScale
 70
     0
300
8:1
140
8.0
141
1.0
290
     0
  0
SCALE
  5
57
102
{ACAD_REACTORS
330
47
102
}
330
47
100
AcDbScale
 70
     0
300
10:1
140
10.0
141
1.0
290
     0
  0
SCALE
  5
58
102
{ACAD_REACTORS
330
47
102
}
330
47
100
AcDbScale
 70
     0
300
100:1
140
100.0
141
1.0
290
     0
  0
ENDSEC
  0
EOF
