  0
SECTION
  2
HEADER
  9
$ACADVER
  1
AC1015
  9
$ACADMAINTVER
 70
     6
  9
$DWGCODEPAGE
  3
ANSI_1252
  9
$INSBASE
 10
0.0
 20
0.0
 30
0.0
  9
$EXTMIN
 10
-206.5
 20
-885.1402056842
 30
0.0
  9
$EXTMAX
 10
95.5
 20
-38.5003616148
 30
0.0
  9
$LIMMIN
 10
0.0
 20
0.0
  9
$LIMMAX
 10
420.0
 20
297.0
  9
$ORTHOMODE
 70
     0
  9
$REGENMODE
 70
     1
  9
$FILLMODE
 70
     1
  9
$QTEXTMODE
 70
     0
  9
$MIRRTEXT
 70
     1
  9
$LTSCALE
 40
1.0
  9
$ATTMODE
 70
     1
  9
$TEXTSIZE
 40
3.5
  9
$TRACEWID
 40
1.0
  9
$TEXTSTYLE
  7
Standard
  9
$CLAYER
  8
0
  9
$CELTYPE
  6
ByLayer
  9
$CECOLOR
 62
   256
  9
$CELTSCALE
 40
1.0
  9
$DISPSILH
 70
     0
  9
$DIMSCALE
 40
1.0
  9
$DIMASZ
 40
3.556
  9
$DIMEXO
 40
0.0
  9
$DIMDLI
 40
3.75
  9
$DIMRND
 40
0.0
  9
$DIMDLE
 40
0.0
  9
$DIMEXE
 40
1.0
  9
$DIMTP
 40
0.0
  9
$DIMTM
 40
0.0
  9
$DIMTXT
 40
3.5
  9
$DIMCEN
 40
2.5
  9
$DIMTSZ
 40
0.0
  9
$DIMTOL
 70
     0
  9
$DIMLIM
 70
     0
  9
$DIMTIH
 70
     1
  9
$DIMTOH
 70
     1
  9
$DIMSE1
 70
     0
  9
$DIMSE2
 70
     0
  9
$DIMTAD
 70
     1
  9
$DIMZIN
 70
     1
  9
$DIMBLK
  1

  9
$DIMASO
 70
     1
  9
$DIMSHO
 70
     1
  9
$DIMPOST
  1

  9
$DIMAPOST
  1

  9
$DIMALT
 70
     0
  9
$DIMALTD
 70
     3
  9
$DIMALTF
 40
0.0393700787
  9
$DIMLFAC
 40
1.0
  9
$DIMTOFL
 70
     1
  9
$DIMTVP
 40
0.0
  9
$DIMTIX
 70
     0
  9
$DIMSOXD
 70
     0
  9
$DIMSAH
 70
     0
  9
$DIMBLK1
  1

  9
$DIMBLK2
  1

  9
$DIMSTYLE
  2
ISO-25
  9
$DIMCLRD
 70
     0
  9
$DIMCLRE
 70
     0
  9
$DIMCLRT
 70
     0
  9
$DIMTFAC
 40
1.0
  9
$DIMGAP
 40
1.524
  9
$DIMJUST
 70
     0
  9
$DIMSD1
 70
     0
  9
$DIMSD2
 70
     0
  9
$DIMTOLJ
 70
     0
  9
$DIMTZIN
 70
     1
  9
$DIMALTZ
 70
     0
  9
$DIMALTTZ
 70
     0
  9
$DIMUPT
 70
     0
  9
$DIMDEC
 70
     2
  9
$DIMTDEC
 70
     2
  9
$DIMALTU
 70
     2
  9
$DIMALTTD
 70
     3
  9
$DIMTXSTY
  7
Standard
  9
$DIMAUNIT
 70
     0
  9
$DIMADEC
 70
     2
  9
$DIMALTRND
 40
0.0
  9
$DIMAZIN
 70
     0
  9
$DIMDSEP
 70
    44
  9
$DIMATFIT
 70
     3
  9
$DIMFRAC
 70
     0
  9
$DIMLDRBLK
  1

  9
$DIMLUNIT
 70
     2
  9
$DIMLWD
 70
    -2
  9
$DIMLWE
 70
    -2
  9
$DIMTMOVE
 70
     0
  9
$LUNITS
 70
     2
  9
$LUPREC
 70
     2
  9
$SKETCHINC
 40
1.0
  9
$FILLETRAD
 40
0.0
  9
$AUNITS
 70
     0
  9
$AUPREC
 70
     2
  9
$MENU
  1
.
  9
$ELEVATION
 40
0.0
  9
$PELEVATION
 40
0.0
  9
$THICKNESS
 40
0.0
  9
$LIMCHECK
 70
     0
  9
$CHAMFERA
 40
0.0
  9
$CHAMFERB
 40
0.0
  9
$CHAMFERC
 40
0.0
  9
$CHAMFERD
 40
0.0
  9
$SKPOLY
 70
     0
  9
$TDCREATE
 40
2460729.401227523
  9
$TDUCREATE
 40
2460729.109560857
  9
$TDUPDATE
 40
2460729.401258252
  9
$TDUUPDATE
 40
2460729.109591586
  9
$TDINDWG
 40
0.0000000116
  9
$TDUSRTIMER
 40
0.0000000116
  9
$USRTIMER
 70
     1
  9
$ANGBASE
 50
0.0
  9
$ANGDIR
 70
     0
  9
$PDMODE
 70
     0
  9
$PDSIZE
 40
-1.0
  9
$PLINEWID
 40
0.0
  9
$SPLFRAME
 70
     0
  9
$SPLINETYPE
 70
     6
  9
$SPLINESEGS
 70
     8
  9
$HANDSEED
  5
525
  9
$SURFTAB1
 70
     6
  9
$SURFTAB2
 70
     6
  9
$SURFTYPE
 70
     6
  9
$SURFU
 70
     6
  9
$SURFV
 70
     6
  9
$UCSBASE
  2

  9
$UCSNAME
  2

  9
$UCSORG
 10
0.0
 20
0.0
 30
0.0
  9
$UCSXDIR
 10
1.0
 20
0.0
 30
0.0
  9
$UCSYDIR
 10
0.0
 20
1.0
 30
0.0
  9
$UCSORTHOREF
  2

  9
$UCSORTHOVIEW
 70
     0
  9
$UCSORGTOP
 10
0.0
 20
0.0
 30
0.0
  9
$UCSORGBOTTOM
 10
0.0
 20
0.0
 30
0.0
  9
$UCSORGLEFT
 10
0.0
 20
0.0
 30
0.0
  9
$UCSORGRIGHT
 10
0.0
 20
0.0
 30
0.0
  9
$UCSORGFRONT
 10
0.0
 20
0.0
 30
0.0
  9
$UCSORGBACK
 10
0.0
 20
0.0
 30
0.0
  9
$PUCSBASE
  2

  9
$PUCSNAME
  2

  9
$PUCSORG
 10
0.0
 20
0.0
 30
0.0
  9
$PUCSXDIR
 10
1.0
 20
0.0
 30
0.0
  9
$PUCSYDIR
 10
0.0
 20
1.0
 30
0.0
  9
$PUCSORTHOREF
  2

  9
$PUCSORTHOVIEW
 70
     0
  9
$PUCSORGTOP
 10
0.0
 20
0.0
 30
0.0
  9
$PUCSORGBOTTOM
 10
0.0
 20
0.0
 30
0.0
  9
$PUCSORGLEFT
 10
0.0
 20
0.0
 30
0.0
  9
$PUCSORGRIGHT
 10
0.0
 20
0.0
 30
0.0
  9
$PUCSORGFRONT
 10
0.0
 20
0.0
 30
0.0
  9
$PUCSORGBACK
 10
0.0
 20
0.0
 30
0.0
  9
$USERI1
 70
     0
  9
$USERI2
 70
     0
  9
$USERI3
 70
     0
  9
$USERI4
 70
     0
  9
$USERI5
 70
     0
  9
$USERR1
 40
0.0
  9
$USERR2
 40
0.0
  9
$USERR3
 40
0.0
  9
$USERR4
 40
0.0
  9
$USERR5
 40
0.0
  9
$WORLDVIEW
 70
     1
  9
$SHADEDGE
 70
     3
  9
$SHADEDIF
 70
    70
  9
$TILEMODE
 70
     1
  9
$MAXACTVP
 70
    64
  9
$PINSBASE
 10
0.0
 20
0.0
 30
0.0
  9
$PLIMCHECK
 70
     0
  9
$PEXTMIN
 10
1.0000000000E+20
 20
1.0000000000E+20
 30
1.0000000000E+20
  9
$PEXTMAX
 10
-1.0000000000E+20
 20
-1.0000000000E+20
 30
-1.0000000000E+20
  9
$PLIMMIN
 10
0.0
 20
0.0
  9
$PLIMMAX
 10
420.0
 20
297.0
  9
$UNITMODE
 70
     0
  9
$VISRETAIN
 70
     1
  9
$PLINEGEN
 70
     0
  9
$PSLTSCALE
 70
     1
  9
$TREEDEPTH
 70
  3020
  9
$CMLSTYLE
  2
Standard
  9
$CMLJUST
 70
     0
  9
$CMLSCALE
 40
20.0
  9
$PROXYGRAPHICS
 70
     1
  9
$MEASUREMENT
 70
     1
  9
$CELWEIGHT
370
    -1
  9
$ENDCAPS
280
     0
  9
$JOINSTYLE
280
     0
  9
$LWDISPLAY
290
     1
  9
$INSUNITS
 70
     4
  9
$HYPERLINKBASE
  1

  9
$STYLESHEET
  1

  9
$XEDIT
290
     1
  9
$CEPSNTYPE
380
     0
  9
$PSTYLEMODE
290
     1
  9
$FINGERPRINTGUID
  2
{1a8f977e-7766-4933-be97-9898947d38ca}
  9
$VERSIONGUID
  2
{FAEB1C32-E019-11D5-929B-00C0DF256EC4}
  9
$EXTNAMES
290
     1
  9
$PSVPSCALE
 40
0.0
  9
$OLESTARTUP
290
     0
  0
ENDSEC
  0
SECTION
  2
CLASSES
  0
CLASS
  1
ACDBDICTIONARYWDFLT
  2
AcDbDictionaryWithDefault
  3
ObjectDBX Classes
 90
        0
280
     0
281
     0
  0
CLASS
  1
VISUALSTYLE
  2
AcDbVisualStyle
  3
ObjectDBX Classes
 90
     4095
280
     0
281
     0
  0
CLASS
  1
MATERIAL
  2
AcDbMaterial
  3
ObjectDBX Classes
 90
     1153
280
     0
281
     0
  0
CLASS
  1
SCALE
  2
AcDbScale
  3
ObjectDBX Classes
 90
     1153
280
     0
281
     0
  0
CLASS
  1
TABLESTYLE
  2
AcDbTableStyle
  3
ObjectDBX Classes
 90
     4095
280
     0
281
     0
  0
CLASS
  1
MLEADERSTYLE
  2
AcDbMLeaderStyle
  3
ACDB_MLEADERSTYLE_CLASS
 90
     4095
280
     0
281
     0
  0
CLASS
  1
SUN
  2
AcDbSun
  3
SCENEOE
 90
     1153
280
     0
281
     0
  0
CLASS
  1
ACDBPLACEHOLDER
  2
AcDbPlaceHolder
  3
ObjectDBX Classes
 90
        0
280
     0
281
     0
  0
CLASS
  1
LAYOUT
  2
AcDbLayout
  3
ObjectDBX Classes
 90
        0
280
     0
281
     0
  0
ENDSEC
  0
SECTION
  2
TABLES
  0
TABLE
  2
VPORT
  5
8
330
0
100
AcDbSymbolTable
 70
     1
  0
VPORT
  5
29
330
8
100
AcDbSymbolTableRecord
100
AcDbViewportTableRecord
  2
*Active
 70
     0
 10
0.0
 20
0.0
 11
1.0
 21
1.0
 12
-55.5
 22
-461.8202836495
 13
0.0
 23
0.0
 14
10.0
 24
10.0
 15
10.0
 25
10.0
 16
0.0
 26
0.0
 36
1.0
 17
0.0
 27
0.0
 37
0.0
 40
863.5726409508
 41
0.3567042139
 42
50.0
 43
0.0
 44
0.0
 50
0.0
 51
0.0
 71
     0
 72
   100
 73
     1
 74
     3
 75
     0
 76
     0
 77
     0
 78
     0
281
     0
 65
     1
110
0.0
120
0.0
130
0.0
111
1.0
121
0.0
131
0.0
112
0.0
122
1.0
132
0.0
 79
     0
146
0.0
  0
ENDTAB
  0
TABLE
  2
LTYPE
  5
5
330
0
100
AcDbSymbolTable
 70
     6
  0
LTYPE
  5
14
330
5
100
AcDbSymbolTableRecord
100
AcDbLinetypeTableRecord
  2
ByBlock
 70
     0
  3

 72
    65
 73
     0
 40
0.0
  0
LTYPE
  5
15
330
5
100
AcDbSymbolTableRecord
100
AcDbLinetypeTableRecord
  2
ByLayer
 70
     0
  3

 72
    65
 73
     0
 40
0.0
  0
LTYPE
  5
16
330
5
100
AcDbSymbolTableRecord
100
AcDbLinetypeTableRecord
  2
Continuous
 70
     0
  3
Solid line
 72
    65
 73
     0
 40
0.0
  0
LTYPE
  5
5E
330
5
100
AcDbSymbolTableRecord
100
AcDbLinetypeTableRecord
  2
HIDDEN
 70
     0
  3
Hidden __ __ __ __ __ __ __ __ __ __ __ __ __ __
 72
    65
 73
     2
 40
1.905
 49
1.27
 74
     0
 49
-0.635
 74
     0
  0
LTYPE
  5
5F
330
5
100
AcDbSymbolTableRecord
100
AcDbLinetypeTableRecord
  2
PHANTOM
 70
     0
  3
Phantom ______  __  __  ______  __  __  ______
 72
    65
 73
     6
 40
12.7
 49
6.35
 74
     0
 49
-1.27
 74
     0
 49
1.27
 74
     0
 49
-1.27
 74
     0
 49
1.27
 74
     0
 49
-1.27
 74
     0
  0
LTYPE
  5
60
330
5
100
AcDbSymbolTableRecord
100
AcDbLinetypeTableRecord
  2
CENTER
 70
     0
  3
Center ____ _ ____ _ ____ _ ____ _ ____ _ ____
 72
    65
 73
     4
 40
10.16
 49
6.35
 74
     0
 49
-1.27
 74
     0
 49
1.27
 74
     0
 49
-1.27
 74
     0
  0
LTYPE
  5
61
330
5
100
AcDbSymbolTableRecord
100
AcDbLinetypeTableRecord
  2
CENTERX2
 70
     0
  3
Center (2x) ________  __  ________  __  _____
 72
    65
 73
     4
 40
20.32
 49
12.7
 74
     0
 49
-2.54
 74
     0
 49
2.54
 74
     0
 49
-2.54
 74
     0
  0
LTYPE
  5
62
330
5
100
AcDbSymbolTableRecord
100
AcDbLinetypeTableRecord
  2
DOT2
 70
     0
  3
Dot (.5x) ........................................
 72
    65
 73
     2
 40
0.635
 49
0.0
 74
     0
 49
-0.635
 74
     0
  0
ENDTAB
  0
TABLE
  2
LAYER
  5
2
330
0
100
AcDbSymbolTable
 70
     1
  0
LAYER
  5
10
330
2
100
AcDbSymbolTableRecord
100
AcDbLayerTableRecord
  2
0
 70
     0
 62
     7
  6
Continuous
370
    -3
390
F
  0
ENDTAB
  0
TABLE
  2
STYLE
  5
3
330
0
100
AcDbSymbolTable
 70
     1
  0
STYLE
  5
11
330
3
100
AcDbSymbolTableRecord
100
AcDbTextStyleTableRecord
  2
Standard
 70
     0
 40
0.0
 41
1.0
 50
0.0
 71
     0
 42
3.5
  3
txt
  4

  0
ENDTAB
  0
TABLE
  2
VIEW
  5
6
330
0
100
AcDbSymbolTable
 70
     0
  0
ENDTAB
  0
TABLE
  2
UCS
  5
7
330
0
100
AcDbSymbolTable
 70
     0
  0
ENDTAB
  0
TABLE
  2
APPID
  5
9
330
0
100
AcDbSymbolTable
 70
     1
  0
APPID
  5
12
330
9
100
AcDbSymbolTableRecord
100
AcDbRegAppTableRecord
  2
ACAD
 70
     0
  0
ENDTAB
  0
TABLE
  2
DIMSTYLE
  5
A
330
0
100
AcDbSymbolTable
 70
     1
100
AcDbDimStyleTable
  0
DIMSTYLE
105
27
330
A
100
AcDbSymbolTableRecord
100
AcDbDimStyleTableRecord
  2
ISO-25
 70
     0
 41
2.5
 42
0.625
 43
3.75
 44
1.25
 73
     0
 74
     0
 77
     1
 78
     8
140
2.5
141
2.5
143
0.0393700787
147
0.625
171
     3
172
     1
178
     0
271
     2
272
     2
274
     3
278
    44
283
     0
284
     8
340
11
  0
ENDTAB
  0
TABLE
  2
BLOCK_RECORD
  5
1
330
0
100
AcDbSymbolTable
 70
     1
  0
BLOCK_RECORD
  5
1F
330
1
100
AcDbSymbolTableRecord
100
AcDbBlockTableRecord
  2
*Model_Space
340
22
  0
BLOCK_RECORD
  5
1B
330
1
100
AcDbSymbolTableRecord
100
AcDbBlockTableRecord
  2
*Paper_Space
340
1E
  0
BLOCK_RECORD
  5
23
330
1
100
AcDbSymbolTableRecord
100
AcDbBlockTableRecord
  2
*Paper_Space0
340
26
  0
ENDTAB
  0
ENDSEC
  0
SECTION
  2
BLOCKS
  0
BLOCK
  5
20
330
1F
100
AcDbEntity
  8
0
100
AcDbBlockBegin
  2
*Model_Space
 70
     0
 10
0.0
 20
0.0
 30
0.0
  3
*Model_Space
  1

  0
ENDBLK
  5
21
330
1F
100
AcDbEntity
  8
0
100
AcDbBlockEnd
  0
BLOCK
  5
1C
330
1B
100
AcDbEntity
 67
     1
  8
0
100
AcDbBlockBegin
  2
*Paper_Space
 70
     0
 10
0.0
 20
0.0
 30
0.0
  3
*Paper_Space
  1

  0
ENDBLK
  5
1D
330
1B
100
AcDbEntity
 67
     1
  8
0
100
AcDbBlockEnd
  0
BLOCK
  5
24
330
23
100
AcDbEntity
  8
0
100
AcDbBlockBegin
  2
*Paper_Space0
 70
     0
 10
0.0
 20
0.0
 30
0.0
  3
*Paper_Space0
  1

  0
ENDBLK
  5
25
330
23
100
AcDbEntity
  8
0
100
AcDbBlockEnd
  0
ENDSEC
  0
SECTION
  2
ENTITIES
  0
LWPOLYLINE
  5
B8
330
1F
100
AcDbEntity
  8
0
  6
Continuous
 62
     7
370
    25
100
AcDbPolyline
 90
        3
 70
   128
 43
0.0
 10
-57.5142637167
 20
-213.4064627318
 10
-58.0264106814
 20
-215.5735479365
 10
-58.7847226055
 20
-219.8116929628
  0
SPLINE
  5
BE
330
1F
100
AcDbEntity
  8
0
  6
Continuous
 62
     7
370
    25
100
AcDbSpline
210
0.0
220
0.0
230
1.0
 70
    11
 71
     3
 72
    23
 73
    19
 74
     0
 42
0.00000001
 43
0.00000001
 40
0.0
 40
0.0
 40
0.0
 40
0.0
 40
0.06249296556977
 40
0.125013904448595
 40
0.1874925097349223
 40
0.249918686786497
 40
0.3123949929707234
 40
0.3749362556210786
 40
0.4374709541359374
 40
0.4999415284373298
 40
0.5623718758300541
 40
0.6248518706807915
 40
0.6873712222843805
 40
0.7498524746781218
 40
0.8123330390840691
 40
0.874882476229962
 40
0.9374696282037317
 40
1.0
 40
1.0
 40
1.0
 40
1.0
 10
-2.099999999999998
 20
-343.7178616202872
 30
0.0
 10
-2.067101420025919
 20
-343.4434537399665
 30
0.0
 10
-2.001289533905985
 20
-342.8945151479571
 30
0.0
 10
-1.520885343948696
 20
-342.1928815267652
 30
0.0
 10
-0.824863610436509
 20
-341.7316227027245
 30
0.0
 10
-0.0006337991576774
 20
-341.5610730915357
 30
0.0
 10
0.8220893784382649
 20
-341.7313629247288
 30
0.0
 10
1.52448578398133
 20
-342.1920722555082
 30
0.0
 10
1.985681744537428
 20
-342.893976857408
 30
0.0
 10
2.156851978293711
 20
-343.7168616880699
 30
0.0
 10
1.986805098939275
 20
-344.5397966256237
 30
0.0
 10
1.526364884574187
 20
-345.2415452889905
 30
0.0
 10
0.8250127265513538
 20
-345.7031110824565
 30
0.0
 10
0.0023564262771406
 20
-345.8747326738011
 30
0.0
 10
-0.8226655188774343
 20
-345.7050251016464
 30
0.0
 10
-1.519966621108912
 20
-345.2440327244557
 30
0.0
 10
-2.000959018758228
 20
-344.5417724590224
 30
0.0
 10
-2.066996329154532
 20
-343.9924154644303
 30
0.0
 10
-2.099999999999998
 20
-343.7178616202872
 30
0.0
  0
SPLINE
  5
BF
330
1F
100
AcDbEntity
  8
0
  6
Continuous
 62
     7
370
    25
100
AcDbSpline
210
0.0
220
0.0
230
1.0
 70
    11
 71
     3
 72
    23
 73
    19
 74
     0
 42
0.00000001
 43
0.00000001
 40
0.0
 40
0.0
 40
0.0
 40
0.0
 40
0.062492965569747
 40
0.1250139044485961
 40
0.187492509734906
 40
0.2499186867864869
 40
0.3123949929707087
 40
0.3749362556210807
 40
0.4374709541359161
 40
0.4999415284373221
 40
0.5623718758300393
 40
0.624851870680775
 40
0.6873712222843746
 40
0.7498524746781173
 40
0.8123330390840607
 40
0.8748824762299454
 40
0.9374696282037268
 40
1.0
 40
1.0
 40
1.0
 40
1.0
 10
-2.099999999999998
 20
-161.8428616202873
 30
0.0
 10
-2.067101420025849
 20
-161.5684537399667
 30
0.0
 10
-2.001289533905756
 20
-161.0195151479575
 30
0.0
 10
-1.520885343948987
 20
-160.3178815267652
 30
0.0
 10
-0.824863610436287
 20
-159.8566227027252
 30
0.0
 10
-0.0006337991578093
 20
-159.6860730915359
 30
0.0
 10
0.8220893784384314
 20
-159.8563629247284
 30
0.0
 10
1.524485783981198
 20
-160.3170722555082
 30
0.0
 10
1.985681744537671
 20
-161.0189768574077
 30
0.0
 10
2.156851978293767
 20
-161.8418616880697
 30
0.0
 10
1.98680509893942
 20
-162.6647966256234
 30
0.0
 10
1.526364884574069
 20
-163.36654528899
 30
0.0
 10
0.8250127265514301
 20
-163.8281110824563
 30
0.0
 10
0.0023564262771683
 20
-163.9997326738009
 30
0.0
 10
-0.8226655188774135
 20
-163.8300251016465
 30
0.0
 10
-1.519966621108947
 20
-163.369032724456
 30
0.0
 10
-2.00095901875827
 20
-162.6667724590226
 30
0.0
 10
-2.066996329154545
 20
-162.1174154644304
 30
0.0
 10
-2.099999999999998
 20
-161.8428616202873
 30
0.0
  0
LWPOLYLINE
  5
D1
330
1F
100
AcDbEntity
  8
0
  6
Continuous
 62
     7
370
    25
100
AcDbPolyline
 90
       15
 70
   128
 43
0.0
 10
-19.3281673885
 20
-178.1428616203
 10
-20.1507182905
 20
-179.9994109159
 10
-20.8918884203
 20
-182.1468870016
 10
-21.5405094494
 20
-184.5529306149
 10
-22.0868076257
 20
-187.1812862658
 10
-22.5225510504
 20
-189.9923485536
 10
-22.8411737198
 20
-192.9437589611
 10
-23.0378744652
 20
-195.9910441338
 10
-23.1096892998
 20
-199.0882860279
 10
-23.055536081
 20
-202.188813826
 10
-22.8762308172
 20
-205.2459071971
 10
-22.5744753712
 20
-208.2135003022
 10
-22.1548167478
 20
-211.0468759381
 10
-21.6235785767
 20
-213.7033393584
 10
-20.988765825
 20
-216.1428616203
  0
LWPOLYLINE
  5
D3
330
1F
100
AcDbEntity
  8
0
  6
Continuous
 62
     7
370
    25
100
AcDbPolyline
 90
       15
 70
   128
 43
0.0
 10
-8.511234175
 20
-216.1428616203
 10
-7.8764214233
 20
-213.7033393584
 10
-7.3451832522
 20
-211.0468759381
 10
-6.9255246288
 20
-208.2135003022
 10
-6.6237691828
 20
-205.2459071971
 10
-6.444463919
 20
-202.188813826
 10
-6.3903107002
 20
-199.0882860279
 10
-6.4621255348
 20
-195.9910441338
 10
-6.6588262802
 20
-192.9437589611
 10
-6.9774489496
 20
-189.9923485536
 10
-7.4131923743
 20
-187.1812862658
 10
-7.9594905506
 20
-184.5529306149
 10
-8.6081115797
 20
-182.1468870016
 10
-9.3492817095
 20
-179.9994109159
 10
-10.1718326115
 20
-178.1428616203
  0
LWPOLYLINE
  5
D5
330
1F
100
AcDbEntity
  8
0
  6
Continuous
 62
     7
370
    25
100
AcDbPolyline
 90
        3
 70
   128
 43
0.0
 10
-9.759610648
 20
-178.1428616203
 10
-10.2150893582
 20
-177.6978329917
 10
-10.6683524523
 20
-177.2325579454
  0
SPLINE
  5
EE
330
1F
100
AcDbEntity
  8
0
  6
Continuous
 62
     7
370
    25
100
AcDbSpline
210
0.0
220
0.0
230
1.0
 70
     8
 71
     3
 72
    12
 73
     8
 74
     0
 42
0.00000001
 43
0.00000001
 40
0.0
 40
0.0
 40
0.0
 40
0.0
 40
0.2502268960150015
 40
0.5000404546266698
 40
0.7499426574325503
 40
0.9996344624196953
 40
1.0
 40
1.0
 40
1.0
 40
1.0
 10
-37.8260656118162
 20
-343.717861620287
 30
0.0
 10
-37.83754694158334
 20
-344.3968966713029
 30
0.0
 10
-37.8604906356782
 20
-345.7538451090005
 30
0.0
 10
-38.00765775860117
 20
-347.51102907236
 30
0.0
 10
-38.13525388285144
 20
-348.573214742343
 30
0.0
 10
-38.19902319217154
 20
-349.0512683411637
 30
0.0
 10
-38.18176772730079
 20
-348.9174704268605
 30
0.0
 10
-38.18174250300299
 20
-348.9172748390591
 30
0.0
  0
SPLINE
  5
EF
330
1F
100
AcDbEntity
  8
0
  6
Continuous
 62
     7
370
    25
100
AcDbSpline
210
0.0
220
0.0
230
1.0
 70
     8
 71
     3
 72
     9
 73
     5
 74
     0
 42
0.00000001
 43
0.00000001
 40
0.0
 40
0.0
 40
0.0
 40
0.0
 40
0.52967965766081
 40
1.0
 40
1.0
 40
1.0
 40
1.0
 10
-37.82609196126488
 20
-343.7188462839704
 30
0.0
 10
-37.83733149129922
 20
-343.030549368081
 30
0.0
 10
-37.8585509772126
 20
-341.7310905235997
 30
0.0
 10
-37.94779156980407
 20
-340.7148197684568
 30
0.0
 10
-37.98976323586224
 20
-340.2368469589888
 30
0.0
  0
SPLINE
  5
F0
330
1F
100
AcDbEntity
  8
0
  6
Continuous
 62
     7
370
    25
100
AcDbSpline
210
0.0
220
0.0
230
1.0
 70
     8
 71
     3
 72
    11
 73
     7
 74
     0
 42
0.00000001
 43
0.00000001
 40
0.0
 40
0.0
 40
0.0
 40
0.0
 40
0.2491201753574247
 40
0.4993040101066429
 40
0.7492174944479911
 40
1.0
 40
1.0
 40
1.0
 40
1.0
 10
-38.18169941325316
 20
-338.5187878988845
 30
0.0
 10
-38.17070261011634
 20
-338.6004478873573
 30
0.0
 10
-38.14866205119058
 20
-338.7641165249991
 30
0.0
 10
-38.00472614040272
 20
-339.9488785474171
 30
0.0
 10
-37.86022253029824
 20
-341.6687908108417
 30
0.0
 10
-37.83746441783764
 20
-343.0340481582109
 30
0.0
 10
-37.8260656118162
 20
-343.717861620287
 30
0.0
  0
SPLINE
  5
F1
330
1F
100
AcDbEntity
  8
0
  6
Continuous
 62
     7
370
    25
100
AcDbSpline
210
0.0
220
0.0
230
1.0
 70
    11
 71
     3
 72
    23
 73
    19
 74
     0
 42
0.00000001
 43
0.00000001
 40
0.0
 40
0.0
 40
0.0
 40
0.0
 40
0.0625536129227387
 40
0.1250038966336834
 40
0.1874763402910636
 40
0.2498961871096456
 40
0.3123593920882743
 40
0.3749217500810968
 40
0.4374682790211538
 40
0.4999092648747654
 40
0.5623123521355268
 40
0.6248160631196326
 40
0.6873751909584543
 40
0.7498254813352728
 40
0.81225685995337
 40
0.8748105432236418
 40
0.9372966305447021
 40
1.0
 40
1.0
 40
1.0
 40
1.0
 10
5.199999999999997
 20
-343.7178616202874
 30
0.0
 10
5.118002716926903
 20
-344.3982760969836
 30
0.0
 10
4.954143598027219
 20
-345.757981107437
 30
0.0
 10
3.76548774711976
 20
-347.494514515579
 30
0.0
 10
2.04319581925845
 20
-348.6351502597138
 30
0.0
 10
0.0017768970907786
 20
-349.0587609487976
 30
0.0
 10
-2.036647734551901
 20
-348.6366300272211
 30
0.0
 10
-3.775019065641254
 20
-347.4957463420392
 30
0.0
 10
-4.916473104431114
 20
-345.7584681859085
 30
0.0
 10
-5.340958364142883
 20
-343.7203702815365
 30
0.0
 10
-4.919223798495693
 20
-341.6820003731847
 30
0.0
 10
-3.779326195160047
 20
-339.944873240039
 30
0.0
 10
-2.04360794570032
 20
-338.801700014459
 30
0.0
 10
-0.0054826569762106
 20
-338.3761429517336
 30
0.0
 10
2.036797442824735
 20
-338.8014346544493
 30
0.0
 10
3.760874799740022
 20
-339.9386898525516
 30
0.0
 10
4.96322199692014
 20
-341.6713471687345
 30
0.0
 10
5.120982727740232
 20
-343.0349012629126
 30
0.0
 10
5.199999999999997
 20
-343.7178616202874
 30
0.0
  0
SPLINE
  5
F2
330
1F
100
AcDbEntity
  8
0
  6
Continuous
 62
     7
370
    25
100
AcDbSpline
210
0.0
220
0.0
230
1.0
 70
     8
 71
     3
 72
    16
 73
    12
 74
     0
 42
0.00000001
 43
0.00000001
 40
0.0
 40
0.0
 40
0.0
 40
0.0
 40
0.124744628269273
 40
0.249877565519222
 40
0.3749740516192858
 40
0.4998618295259035
 40
0.6246726088022637
 40
0.7496846429503752
 40
0.8748075148971644
 40
0.9997127038887662
 40
1.0
 40
1.0
 40
1.0
 40
1.0
 10
38.18174250511522
 20
-348.9172748559581
 30
0.0
 10
38.17082288520034
 20
-348.83628454392
 30
0.0
 10
38.14894965443614
 20
-348.6740518106674
 30
0.0
 10
38.00282148281196
 20
-347.4855024998413
 30
0.0
 10
37.8667040257787
 20
-345.7615166390286
 30
0.0
 10
37.80607391039124
 20
-343.7184581843321
 30
0.0
 10
37.86546084415176
 20
-341.686638104487
 30
0.0
 10
38.00585488642398
 20
-339.9282056047288
 30
0.0
 10
38.13551689301691
 20
-338.8637350526922
 30
0.0
 10
38.19898739375331
 20
-338.3839463661581
 30
0.0
 10
38.18173900131325
 20
-338.5184791215541
 30
0.0
 10
38.18169941909656
 20
-338.5187878520456
 30
0.0
  0
CIRCLE
  5
F3
330
1F
100
AcDbEntity
  8
0
  6
Continuous
 62
     7
370
    25
100
AcDbCircle
 10
0.0
 20
-343.7178616203
 30
0.0
 40
2.512500000000072
  0
CIRCLE
  5
123
330
1F
100
AcDbEntity
  8
0
  6
Continuous
 62
     7
370
    25
100
AcDbCircle
 10
-65.0
 20
-217.6178616148
 30
0.0
 40
2.02500000000002
  0
CIRCLE
  5
12A
330
1F
100
AcDbEntity
  8
0
  6
Continuous
 62
     7
370
    25
100
AcDbCircle
 10
-65.0
 20
-285.6678616148
 30
0.0
 40
2.024999999999984
  0
CIRCLE
  5
145
330
1F
100
AcDbEntity
  8
0
  6
Continuous
 62
     7
370
    25
100
AcDbCircle
 10
63.1475806257
 20
-174.5182230458
 30
0.0
 40
2.512500000000031
  0
CIRCLE
  5
146
330
1F
100
AcDbEntity
  8
0
  6
Continuous
 62
     7
370
    25
100
AcDbCircle
 10
-54.2261548382
 20
-144.3094280214
 30
0.0
 40
2.512500000000017
  0
CIRCLE
  5
147
330
1F
100
AcDbEntity
  8
0
  6
Continuous
 62
     7
370
    25
100
AcDbCircle
 10
-72.0425311094
 20
-204.7348242909
 30
0.0
 40
2.512500000000003
  0
CIRCLE
  5
148
330
1F
100
AcDbEntity
  8
0
  6
Continuous
 62
     7
370
    25
100
AcDbCircle
 10
-45.3047290508
 20
-114.1006329969
 30
0.0
 40
2.51250000000001
  0
CIRCLE
  5
149
330
1F
100
AcDbEntity
  8
0
  6
Continuous
 62
     7
370
    25
100
AcDbCircle
 10
-36.3833032633
 20
-83.8918379724
 30
0.0
 40
2.512500000000024
  0
CIRCLE
  5
14A
330
1F
100
AcDbEntity
  8
0
  6
Continuous
 62
     7
370
    25
100
AcDbCircle
 10
36.3833032633
 20
-83.8918379724
 30
0.0
 40
2.512500000000031
  0
CIRCLE
  5
14B
330
1F
100
AcDbEntity
  8
0
  6
Continuous
 62
     7
370
    25
100
AcDbCircle
 10
45.3047290508
 20
-114.1006329969
 30
0.0
 40
2.512499999999982
  0
CIRCLE
  5
14C
330
1F
100
AcDbEntity
  8
0
  6
Continuous
 62
     7
370
    25
100
AcDbCircle
 10
54.2261548382
 20
-144.3094280214
 30
0.0
 40
2.512500000000017
  0
CIRCLE
  5
14D
330
1F
100
AcDbEntity
  8
0
  6
Continuous
 62
     7
370
    25
100
AcDbCircle
 10
-63.1475806257
 20
-174.5182230458
 30
0.0
 40
2.512500000000024
  0
LWPOLYLINE
  5
151
330
1F
100
AcDbEntity
  8
0
  6
Continuous
 62
     7
370
    25
100
AcDbPolyline
 90
        3
 70
   128
 43
0.0
 10
-38.0
 20
-300.8064701132
 10
-41.5135341687
 20
-298.8579694831
 10
-43.5172379638
 20
-297.6428616148
  0
LWPOLYLINE
  5
152
330
1F
100
AcDbEntity
  8
0
  6
Continuous
 62
     7
370
    25
100
AcDbPolyline
 90
        3
 70
   128
 43
0.0
 10
-56.4753017403
 20
-287.5948615252
 10
-58.609590487
 20
-285.491932252
 10
-60.5
 20
-283.4940133644
  0
CIRCLE
  5
161
330
1F
100
AcDbEntity
  8
0
  6
Continuous
 62
     7
370
    25
100
AcDbCircle
 10
0.0
 20
-44.7503616148
 30
0.0
 40
2.512499999999998
  0
SPLINE
  5
16D
330
1F
100
AcDbEntity
  8
0
  6
Continuous
 62
     7
370
    25
100
AcDbSpline
210
0.0
220
0.0
230
1.0
 70
    11
 71
     3
 72
    30
 73
    26
 74
     0
 42
0.00000001
 43
0.00000001
 40
0.0
 40
0.0
 40
0.0
 40
0.0
 40
0.0523032201832476
 40
0.086150717758164
 40
0.1250665537326247
 40
0.1641715041447558
 40
0.1980613831085077
 40
0.2500115369513055
 40
0.3022137464210262
 40
0.3360921296525757
 40
0.3750936750092562
 40
0.4142379374299808
 40
0.448158168093217
 40
0.5001419789616826
 40
0.5520457326320433
 40
0.5859535061943724
 40
0.6251038616428947
 40
0.6640716040537225
 40
0.6979354262609967
 40
0.750165638824949
 40
0.8124340464701686
 40
0.8748273250609876
 40
0.9136056265211203
 40
0.9474245103570903
 40
1.0
 40
1.0
 40
1.0
 40
1.0
 10
5.200000000000003
 20
-161.8428616202873
 30
0.0
 10
5.146567227573263
 20
-161.2717514475412
 30
0.0
 10
5.058555979312755
 20
-160.3310531286099
 30
0.0
 10
4.462440363847839
 20
-159.0926826896946
 30
0.0
 10
3.71319431513871
 20
-158.1271125351552
 30
0.0
 10
2.745136859392115
 20
-157.3731350465282
 30
0.0
 10
1.507400413697811
 20
-156.7991334416101
 30
0.0
 10
0.000215687047285
 20
-156.5483292279169
 30
0.0
 10
-1.507117653276512
 20
-156.7986716420363
 30
0.0
 10
-2.746297476993398
 20
-157.3738693498283
 30
0.0
 10
-3.713792780464908
 20
-158.1286154182663
 30
0.0
 10
-4.469142128346225
 20
-159.0963553177399
 30
0.0
 10
-5.043780251217468
 20
-160.3353936313671
 30
0.0
 10
-5.294038903466171
 20
-161.839981064607
 30
0.0
 10
-5.045342137124771
 20
-163.3445814957552
 30
0.0
 10
-4.47272590039087
 20
-164.5835189476236
 30
0.0
 10
-3.718913474488265
 20
-165.5519236166405
 30
0.0
 10
-2.752880065882174
 20
-166.3077412944339
 30
0.0
 10
-1.514740977461793
 20
-166.884766166707
 30
0.0
 10
0.1045833402952556
 20
-167.1563823000272
 30
0.0
 10
2.038528883692984
 20
-166.7738282373754
 30
0.0
 10
3.554212977685899
 20
-165.7622373358577
 30
0.0
 10
4.458439171783734
 20
-164.5989733971961
 30
0.0
 10
5.057349810112758
 20
-163.3604414285917
 30
0.0
 10
5.146032158249998
 20
-162.4169969018618
 30
0.0
 10
5.200000000000003
 20
-161.8428616202873
 30
0.0
  0
CIRCLE
  5
174
330
1F
100
AcDbEntity
  8
0
  6
Continuous
 62
     7
370
    25
100
AcDbCircle
 10
0.0
 20
-161.8428616203
 30
0.0
 40
2.512500000000003
  0
SPLINE
  5
181
330
1F
100
AcDbEntity
  8
0
  6
Continuous
 62
     7
370
    25
100
AcDbSpline
210
0.0
220
0.0
230
1.0
 70
     8
 71
     3
 72
    14
 73
    10
 74
     0
 42
0.00000001
 43
0.00000001
 40
0.0
 40
0.0
 40
0.0
 40
0.0
 40
0.2091273960042941
 40
0.3444620657301585
 40
0.5000618053283643
 40
0.6564176935873632
 40
0.7919218196001478
 40
0.9996375272966018
 40
1.0
 40
1.0
 40
1.0
 40
1.0
 10
-37.13771667725415
 20
-161.842861620287
 30
0.0
 10
-37.14935466997483
 20
-161.271816926051
 30
0.0
 10
-37.16852407145024
 20
-160.3312264593829
 30
0.0
 10
-37.24220834512535
 20
-159.0922389081582
 30
0.0
 10
-37.31891286566302
 20
-158.1290921632662
 30
0.0
 10
-37.3988401172586
 20
-157.3661492838946
 30
0.0
 10
-37.46264433597598
 20
-156.8262938673548
 30
0.0
 10
-37.51494186555589
 20
-156.5509169219395
 30
0.0
 10
-37.49994778878164
 20
-156.6431831078
 30
0.0
 10
-37.49992166906291
 20
-156.6433438357233
 30
0.0
  0
SPLINE
  5
182
330
1F
100
AcDbEntity
  8
0
  6
Continuous
 62
     7
370
    25
100
AcDbSpline
210
0.0
220
0.0
230
1.0
 70
     8
 71
     3
 72
    10
 73
     6
 74
     0
 42
0.00000001
 43
0.00000001
 40
0.0
 40
0.0
 40
0.0
 40
0.0
 40
0.4222649799983323
 40
0.698288136338829
 40
1.0
 40
1.0
 40
1.0
 40
1.0
 10
-37.1377438157504
 20
-161.8418817297164
 30
0.0
 10
-37.14890798659896
 20
-162.4069300612519
 30
0.0
 10
-37.16736987291412
 20
-163.3413351506126
 30
0.0
 10
-37.2398105983223
 20
-164.5718418575202
 30
0.0
 10
-37.2890243365458
 20
-165.1571140116818
 30
0.0
 10
-37.31472533815221
 20
-165.4627620099294
 30
0.0
  0
SPLINE
  5
183
330
1F
100
AcDbEntity
  8
0
  6
Continuous
 62
     7
370
    25
100
AcDbSpline
210
0.0
220
0.0
230
1.0
 70
     8
 71
     3
 72
    12
 73
     8
 74
     0
 42
0.00000001
 43
0.00000001
 40
0.0
 40
0.0
 40
0.0
 40
0.0
 40
0.2488115332726899
 40
0.4986922306843694
 40
0.6539966037356306
 40
0.7894388576092397
 40
1.0
 40
1.0
 40
1.0
 40
1.0
 10
-37.49987406757782
 20
-167.041960549771
 30
0.0
 10
-37.48765563272202
 20
-166.9647512147968
 30
0.0
 10
-37.46316625936555
 20
-166.8100007698255
 30
0.0
 10
-37.33471719840238
 20
-165.7563512905037
 30
0.0
 10
-37.24058653527799
 20
-164.600025935409
 30
0.0
 10
-37.16545488562739
 20
-163.3600269750879
 30
0.0
 10
-37.14821067828601
 20
-162.4168401045693
 30
0.0
 10
-37.13771667725415
 20
-161.842861620287
 30
0.0
  0
SPLINE
  5
189
330
1F
100
AcDbEntity
  8
0
  6
Continuous
 62
     7
370
    25
100
AcDbSpline
210
0.0
220
0.0
230
1.0
 70
     8
 71
     3
 72
    20
 73
    16
 74
     0
 42
0.00000001
 43
0.00000001
 40
0.0
 40
0.0
 40
0.0
 40
0.0
 40
0.1041802825463629
 40
0.1719092073103313
 40
0.2498802460427217
 40
0.3281366016164475
 40
0.395949186853022
 40
0.4998740876135053
 40
0.603638939769624
 40
0.6714266210418458
 40
0.7496951576639919
 40
0.8275986182845375
 40
0.8952984329664475
 40
0.999715934621554
 40
1.0
 40
1.0
 40
1.0
 40
1.0
 10
37.49992166906292
 20
-156.6433438357233
 30
0.0
 10
37.48891237839451
 20
-156.6961923988999
 30
0.0
 10
37.47074580804549
 20
-156.7833984841698
 30
0.0
 10
37.39710614901315
 20
-157.3778864353114
 30
0.0
 10
37.31958457373773
 20
-158.1274660216339
 30
0.0
 10
37.24055613978426
 20
-159.0966169933839
 30
0.0
 10
37.17079012728475
 20
-160.3352773139941
 30
0.0
 10
37.11776893648415
 20
-161.8400831680212
 30
0.0
 10
37.17058692848384
 20
-163.3443604465308
 30
0.0
 10
37.24036991043837
 20
-164.5840526909827
 30
0.0
 10
37.31850372267252
 20
-165.5495599814353
 30
0.0
 10
37.39844760851643
 20
-166.3159982688402
 30
0.0
 10
37.46230636242868
 20
-166.8524522132533
 30
0.0
 10
37.51539756388543
 20
-167.1529884804431
 30
0.0
 10
37.49991607035233
 20
-167.0422609641269
 30
0.0
 10
37.49987406757774
 20
-167.041960549771
 30
0.0
  0
SPLINE
  5
19D
330
1F
100
AcDbEntity
  8
0
  6
Continuous
 62
     7
370
    25
100
AcDbSpline
210
0.0
220
0.0
230
1.0
 70
     8
 71
     3
 72
     9
 73
     5
 74
     0
 42
0.00000001
 43
0.00000001
 40
0.0
 40
0.0
 40
0.0
 40
0.0
 40
0.498578885730209
 40
1.0
 40
1.0
 40
1.0
 40
1.0
 10
-96.0
 20
-233.6120852084217
 30
0.0
 10
-96.01965132055568
 20
-233.7886981662072
 30
0.0
 10
-96.05906598715733
 20
-234.1429308921414
 30
0.0
 10
-96.18623484806385
 20
-234.4759025800533
 30
0.0
 10
-96.25
 20
-234.6428616148263
 30
0.0
  0
SPLINE
  5
1B7
330
1F
100
AcDbEntity
  8
0
  6
Continuous
 62
     7
370
    25
100
AcDbSpline
210
0.0
220
0.0
230
1.0
 70
     8
 71
     3
 72
    13
 73
     9
 74
     0
 42
0.00000001
 43
0.00000001
 40
0.0
 40
0.0
 40
0.0
 40
0.0
 40
0.1963467599611872
 40
0.3910537322497599
 40
0.5835612804954368
 40
0.7813703919508919
 40
0.9769062151686071
 40
1.0
 40
1.0
 40
1.0
 40
1.0
 10
-202.86744619031
 20
-268.6428616148262
 30
0.0
 10
-202.8342225906839
 20
-268.5597046023694
 30
0.0
 10
-202.768052857936
 20
-268.3940850622739
 30
0.0
 10
-202.6768650470954
 20
-268.0910097249443
 30
0.0
 10
-202.6555654817068
 20
-267.756422309934
 30
0.0
 10
-202.6930976274583
 20
-267.4296870201622
 30
0.0
 10
-202.7585348452557
 20
-267.2107088629795
 30
0.0
 10
-202.7960384994177
 20
-267.119777533543
 30
0.0
 10
-202.8
 20
-267.1101724824468
 30
0.0
  0
SPLINE
  5
1B8
330
1F
100
AcDbEntity
  8
0
  6
Continuous
 62
     7
370
    25
100
AcDbSpline
210
0.0
220
0.0
230
1.0
 70
     8
 71
     3
 72
    13
 73
     9
 74
     0
 42
0.00000001
 43
0.00000001
 40
0.0
 40
0.0
 40
0.0
 40
0.0
 40
0.022719804296729
 40
0.2180151869746109
 40
0.4157808346255593
 40
0.6082166316044733
 40
0.7980417674773712
 40
1.0
 40
1.0
 40
1.0
 40
1.0
 10
-202.8
 20
-236.1755666036026
 30
0.0
 10
-202.7961030687245
 20
-236.166117468863
 30
0.0
 10
-202.7587088117341
 20
-236.075445258394
 30
0.0
 10
-202.6933919867112
 20
-235.8568750674125
 30
0.0
 10
-202.6553066175491
 20
-235.5303325115177
 30
0.0
 10
-202.6773816149135
 20
-235.1987847388884
 30
0.0
 10
-202.7633664661588
 20
-234.8938660793167
 30
0.0
 10
-202.8320439932961
 20
-234.7282395265734
 30
0.0
 10
-202.86744619031
 20
-234.6428616148264
 30
0.0
  0
SPLINE
  5
1FD
330
1F
100
AcDbEntity
  8
0
  6
Continuous
 62
     7
370
    25
100
AcDbSpline
210
0.0
220
0.0
230
1.0
 70
    24
 71
     3
 72
     9
 73
     5
 74
     0
 42
0.00000001
 43
0.00000001
 40
0.0
 40
0.0
 40
0.0
 40
0.0
 40
0.4985788857302467
 40
1.0
 40
1.0
 40
1.0
 40
1.0
 10
-96.0
 20
-279.7428616148262
 30
0.0
 10
-96.01965132055567
 20
-279.742861614826
 30
0.0
 10
-96.05906598715733
 20
-279.7428616148258
 30
0.0
 10
-96.18623484806383
 20
-279.742861614826
 30
0.0
 10
-96.25
 20
-279.7428616148262
 30
0.0
  0
CIRCLE
  5
222
330
1F
100
AcDbEntity
  8
0
  6
Continuous
 62
     7
370
    25
100
AcDbCircle
 10
-65.0
 20
-217.6178616148
 30
0.0
 40
1.649999999999949
  0
CIRCLE
  5
225
330
1F
100
AcDbEntity
  8
0
  6
Continuous
 62
     7
370
    25
100
AcDbCircle
 10
-65.0
 20
-285.6678616148
 30
0.0
 40
1.650000000000091
  0
CIRCLE
  5
23B
330
1F
100
AcDbEntity
  8
0
  6
Continuous
 62
     7
370
    25
100
AcDbCircle
 10
15.9
 20
-54.0828616148
 30
0.0
 40
1.500000000000007
  0
CIRCLE
  5
23C
330
1F
100
AcDbEntity
  8
0
  6
Continuous
 62
     7
370
    25
100
AcDbCircle
 10
-15.9
 20
-54.0828616148
 30
0.0
 40
1.499999999999996
  0
CIRCLE
  5
23D
330
1F
100
AcDbEntity
  8
0
  6
Continuous
 62
     7
370
    25
100
AcDbCircle
 10
0.0
 20
-79.5828616148
 30
0.0
 40
6.0
  0
CIRCLE
  5
259
330
1F
100
AcDbEntity
  8
0
  6
Continuous
 62
     7
370
    25
100
AcDbCircle
 10
0.0
 20
-79.5828616148
 30
0.0
 40
5.499999999999844
  0
CIRCLE
  5
25C
330
1F
100
AcDbEntity
  8
0
  6
Continuous
 62
     7
370
    25
100
AcDbCircle
 10
0.0
 20
-79.5828616148
 30
0.0
 40
3.749999999999943
  0
CIRCLE
  5
25D
330
1F
100
AcDbEntity
  8
0
  6
Continuous
 62
     7
370
    25
100
AcDbCircle
 10
0.0
 20
-79.5828616148
 30
0.0
 40
3.249999999999961
  0
CIRCLE
  5
25E
330
1F
100
AcDbEntity
  8
0
  6
Continuous
 62
     7
370
    25
100
AcDbCircle
 10
0.0
 20
-79.5828616148
 30
0.0
 40
1.500000000000007
  0
CIRCLE
  5
25F
330
1F
100
AcDbEntity
  8
0
  6
Continuous
 62
     7
370
    25
100
AcDbCircle
 10
0.0
 20
-79.5828616148
 30
0.0
 40
1.0
  0
CIRCLE
  5
261
330
1F
100
AcDbEntity
  8
0
  6
Continuous
 62
     7
370
    25
100
AcDbCircle
 10
23.55
 20
-56.0328616148
 30
0.0
 40
2.49999999999995
  0
CIRCLE
  5
264
330
1F
100
AcDbEntity
  8
0
  6
Continuous
 62
     7
370
    25
100
AcDbCircle
 10
-23.55
 20
-56.0328616148
 30
0.0
 40
2.499999999999996
  0
LINE
  5
36B
330
1F
100
AcDbEntity
  8
0
  6
Continuous
 62
     7
370
    25
100
AcDbLine
 10
71.0
 20
-857.3751686203
 30
0.0
 11
72.0
 21
-857.3751686203
 31
0.0
  0
LINE
  5
36C
330
1F
100
AcDbEntity
  8
0
  6
Continuous
 62
     7
370
    25
100
AcDbLine
 10
72.0
 20
-815.6105546203
 30
0.0
 11
71.0
 21
-815.6105546203
 31
0.0
  0
LINE
  5
36D
330
1F
100
AcDbEntity
  8
0
  6
Continuous
 62
     7
370
    25
100
AcDbLine
 10
-20.01
 20
-251.6178616203
 30
0.0
 11
-20.01
 21
-251.6678616203
 31
0.0
  0
LINE
  5
36E
330
1F
100
AcDbEntity
  8
0
  6
Continuous
 62
     7
370
    25
100
AcDbLine
 10
20.01
 20
-251.6678616203
 30
0.0
 11
20.01
 21
-251.6178616203
 31
0.0
  0
LINE
  5
36F
330
1F
100
AcDbEntity
  8
0
  6
Continuous
 62
     7
370
    25
100
AcDbLine
 10
35.0
 20
-797.9928616203
 30
0.0
 11
29.95
 21
-797.9928616203
 31
0.0
  0
LINE
  5
370
330
1F
100
AcDbEntity
  8
0
  6
Continuous
 62
     7
370
    25
100
AcDbLine
 10
29.95
 20
-874.9928616203
 30
0.0
 11
35.0
 21
-874.9928616203
 31
0.0
  0
LINE
  5
371
330
1F
100
AcDbEntity
  8
0
  6
Continuous
 62
     7
370
    25
100
AcDbLine
 10
36.0
 20
-810.4928616203
 30
0.0
 11
35.0
 21
-810.4928616203
 31
0.0
  0
LINE
  5
372
330
1F
100
AcDbEntity
  8
0
  6
Continuous
 62
     7
370
    25
100
AcDbLine
 10
35.0
 20
-862.4928616203
 30
0.0
 11
36.0
 21
-862.4928616203
 31
0.0
  0
LINE
  5
373
330
1F
100
AcDbEntity
  8
0
  6
Continuous
 62
     7
370
    25
100
AcDbLine
 10
21.5
 20
-222.5473760156
 30
0.0
 11
28.5
 21
-222.5473760156
 31
0.0
  0
LINE
  5
374
330
1F
100
AcDbEntity
  8
0
  6
Continuous
 62
     7
370
    25
100
AcDbLine
 10
28.5
 20
-219.5492366956
 30
0.0
 11
31.0
 21
-219.5492366956
 31
0.0
  0
LINE
  5
375
330
1F
100
AcDbEntity
  8
0
  6
Continuous
 62
     7
370
    25
100
AcDbLine
 10
38.0
 20
-306.4774724334
 30
0.0
 11
31.0
 21
-306.4774724334
 31
0.0
  0
LINE
  5
376
330
1F
100
AcDbEntity
  8
0
  6
Continuous
 62
     7
370
    25
100
AcDbLine
 10
-40.1818181818
 20
-327.1928616203
 30
0.0
 11
-40.1818181818
 21
-330.1428616203
 31
0.0
  0
LINE
  5
377
330
1F
100
AcDbEntity
  8
0
  6
Continuous
 62
     7
370
    25
100
AcDbLine
 10
40.1818181818
 20
-330.1428616203
 30
0.0
 11
40.1818181818
 21
-327.1928616203
 31
0.0
  0
LINE
  5
378
330
1F
100
AcDbEntity
  8
0
  6
Continuous
 62
     7
370
    25
100
AcDbLine
 10
-40.1818181818
 20
-355.2428616203
 30
0.0
 11
-40.1818181818
 21
-358.1928616203
 31
0.0
  0
LINE
  5
379
330
1F
100
AcDbEntity
  8
0
  6
Continuous
 62
     7
370
    25
100
AcDbLine
 10
40.1818181818
 20
-358.1928616203
 30
0.0
 11
40.1818181818
 21
-355.2428616203
 31
0.0
  0
LINE
  5
37A
330
1F
100
AcDbEntity
  8
0
  6
Continuous
 62
     7
370
    25
100
AcDbLine
 10
38.1818181818
 20
-338.518787852
 30
0.0
 11
38.1818181818
 21
-330.1428616203
 31
0.0
  0
LINE
  5
37B
330
1F
100
AcDbEntity
  8
0
  6
Continuous
 62
     7
370
    25
100
AcDbLine
 10
38.1818181818
 20
-355.2428616203
 30
0.0
 11
38.1818181818
 21
-348.917274856
 31
0.0
  0
LINE
  5
37C
330
1F
100
AcDbEntity
  8
0
  6
Continuous
 62
     7
370
    25
100
AcDbLine
 10
-38.1818181818
 20
-348.9172748391
 30
0.0
 11
-38.1818181818
 21
-355.2428616203
 31
0.0
  0
LINE
  5
37D
330
1F
100
AcDbEntity
  8
0
  6
Continuous
 62
     7
370
    25
100
AcDbLine
 10
-38.1818181818
 20
-330.1428616203
 30
0.0
 11
-38.1818181818
 21
-338.5187878989
 31
0.0
  0
LINE
  5
37E
330
1F
100
AcDbEntity
  8
0
  6
Continuous
 62
     7
370
    25
100
AcDbLine
 10
12.0514336111
 20
-626.3928616154
 30
0.0
 11
12.0514336111
 21
-621.3928616154
 31
0.0
  0
LINE
  5
37F
330
1F
100
AcDbEntity
  8
0
  6
Continuous
 62
     7
370
    25
100
AcDbLine
 10
-9.196
 20
-621.3928616154
 30
0.0
 11
-9.196
 21
-626.3928616154
 31
0.0
  0
LINE
  5
380
330
1F
100
AcDbEntity
  8
0
  6
Continuous
 62
     7
370
    25
100
AcDbLine
 10
-12.0514336111
 20
-621.3928616154
 30
0.0
 11
-12.0514336111
 21
-626.3928616154
 31
0.0
  0
LINE
  5
381
330
1F
100
AcDbEntity
  8
0
  6
Continuous
 62
     7
370
    25
100
AcDbLine
 10
79.5
 20
-281.4388596203
 30
0.0
 11
80.5
 21
-281.4388596203
 31
0.0
  0
LINE
  5
382
330
1F
100
AcDbEntity
  8
0
  6
Continuous
 62
     7
370
    25
100
AcDbLine
 10
80.5
 20
-221.8468636203
 30
0.0
 11
79.5
 21
-221.8468636203
 31
0.0
  0
LINE
  5
383
330
1F
100
AcDbEntity
  8
0
  6
Continuous
 62
     7
370
    25
100
AcDbLine
 10
29.5
 20
-221.8468636203
 30
0.0
 11
28.5
 21
-221.8468636203
 31
0.0
  0
LINE
  5
384
330
1F
100
AcDbEntity
  8
0
  6
Continuous
 62
     7
370
    25
100
AcDbLine
 10
28.5
 20
-281.4388596203
 30
0.0
 11
29.5
 21
-281.4388596203
 31
0.0
  0
LINE
  5
385
330
1F
100
AcDbEntity
  8
0
  6
Continuous
 62
     7
370
    25
100
AcDbLine
 10
-56.6
 20
-456.1292252567
 30
0.0
 11
-53.6
 21
-456.1292252567
 31
0.0
  0
LINE
  5
386
330
1F
100
AcDbEntity
  8
0
  6
Continuous
 62
     7
370
    25
100
AcDbLine
 10
-53.6
 20
-394.8564979839
 30
0.0
 11
-56.6
 21
-394.8564979839
 31
0.0
  0
LINE
  5
387
330
1F
100
AcDbEntity
  8
0
  6
Continuous
 62
     7
370
    25
100
AcDbLine
 10
-38.5
 20
-396.8564979839
 30
0.0
 11
-53.6
 21
-396.8564979839
 31
0.0
  0
LINE
  5
388
330
1F
100
AcDbEntity
  8
0
  6
Continuous
 62
     7
370
    25
100
AcDbLine
 10
-53.6
 20
-454.1292252567
 30
0.0
 11
-38.5
 21
-454.1292252567
 31
0.0
  0
LINE
  5
389
330
1F
100
AcDbEntity
  8
0
  6
Continuous
 62
     7
370
    25
100
AcDbLine
 10
-58.1
 20
-867.1292252567
 30
0.0
 11
-55.1
 21
-867.1292252567
 31
0.0
  0
LINE
  5
38A
330
1F
100
AcDbEntity
  8
0
  6
Continuous
 62
     7
370
    25
100
AcDbLine
 10
-55.1
 20
-805.8564979839
 30
0.0
 11
-58.1
 21
-805.8564979839
 31
0.0
  0
LINE
  5
38B
330
1F
100
AcDbEntity
  8
0
  6
Continuous
 62
     7
370
    25
100
AcDbLine
 10
-40.0
 20
-807.8564979839
 30
0.0
 11
-55.1
 21
-807.8564979839
 31
0.0
  0
LINE
  5
38C
330
1F
100
AcDbEntity
  8
0
  6
Continuous
 62
     7
370
    25
100
AcDbLine
 10
-55.1
 20
-865.1292252567
 30
0.0
 11
-40.0
 21
-865.1292252567
 31
0.0
  0
LINE
  5
38D
330
1F
100
AcDbEntity
  8
0
  6
Continuous
 62
     7
370
    25
100
AcDbLine
 10
-31.0
 20
-182.7014746393
 30
0.0
 11
-38.0
 21
-182.7014746393
 31
0.0
  0
LINE
  5
38E
330
1F
100
AcDbEntity
  8
0
  6
Continuous
 62
     7
370
    25
100
AcDbLine
 10
16.5623819372
 20
-466.4428616203
 30
0.0
 11
16.5623819372
 21
-626.3928616154
 31
0.0
  0
LINE
  5
38F
330
1F
100
AcDbEntity
  8
0
  6
Continuous
 62
     7
370
    25
100
AcDbLine
 10
22.5623819372
 20
-626.3928616154
 30
0.0
 11
22.5623819372
 21
-466.4428616203
 31
0.0
  0
LINE
  5
390
330
1F
100
AcDbEntity
  8
0
  6
Continuous
 62
     7
370
    25
100
AcDbLine
 10
-22.5623819372
 20
-466.4428616203
 30
0.0
 11
-22.5623819372
 21
-626.3928616154
 31
0.0
  0
LINE
  5
391
330
1F
100
AcDbEntity
  8
0
  6
Continuous
 62
     7
370
    25
100
AcDbLine
 10
-16.5623819372
 20
-626.3928616154
 30
0.0
 11
-16.5623819372
 21
-466.4428616203
 31
0.0
  0
LINE
  5
392
330
1F
100
AcDbEntity
  8
0
  6
Continuous
 62
     7
370
    25
100
AcDbLine
 10
36.0
 20
-874.9928616203
 30
0.0
 11
71.0
 21
-874.9928616203
 31
0.0
  0
LINE
  5
393
330
1F
100
AcDbEntity
  8
0
  6
Continuous
 62
     7
370
    25
100
AcDbLine
 10
71.0
 20
-797.9928616203
 30
0.0
 11
43.0
 21
-797.9928616203
 31
0.0
  0
LINE
  5
394
330
1F
100
AcDbEntity
  8
0
  6
Continuous
 62
     7
370
    25
100
AcDbLine
 10
-37.5
 20
-167.0419605498
 30
0.0
 11
-37.5
 21
-176.0928616203
 31
0.0
  0
LINE
  5
395
330
1F
100
AcDbEntity
  8
0
  6
Continuous
 62
     7
370
    25
100
AcDbLine
 10
-37.5
 20
-151.5928616203
 30
0.0
 11
-37.5
 21
-156.6433438357
 31
0.0
  0
LINE
  5
396
330
1F
100
AcDbEntity
  8
0
  6
Continuous
 62
     7
370
    25
100
AcDbLine
 10
37.5
 20
-156.6433438357
 30
0.0
 11
37.5
 21
-151.5928616203
 31
0.0
  0
LINE
  5
397
330
1F
100
AcDbEntity
  8
0
  6
Continuous
 62
     7
370
    25
100
AcDbLine
 10
37.5
 20
-176.0928616203
 30
0.0
 11
37.5
 21
-167.0419605498
 31
0.0
  0
LINE
  5
398
330
1F
100
AcDbEntity
  8
0
  6
Continuous
 62
     7
370
    25
100
AcDbLine
 10
-35.5
 20
-434.4928616203
 30
0.0
 11
-34.5
 21
-434.4928616203
 31
0.0
  0
LINE
  5
399
330
1F
100
AcDbEntity
  8
0
  6
Continuous
 62
     7
370
    25
100
AcDbLine
 10
-34.5
 20
-416.4928616203
 30
0.0
 11
-35.5
 21
-416.4928616203
 31
0.0
  0
LINE
  5
39A
330
1F
100
AcDbEntity
  8
0
  6
Continuous
 62
     7
370
    25
100
AcDbLine
 10
-37.0
 20
-845.4928616203
 30
0.0
 11
-35.95
 21
-845.4928616203
 31
0.0
  0
LINE
  5
39B
330
1F
100
AcDbEntity
  8
0
  6
Continuous
 62
     7
370
    25
100
AcDbLine
 10
-35.95
 20
-827.4928616203
 30
0.0
 11
-37.0
 21
-827.4928616203
 31
0.0
  0
LINE
  5
39C
330
1F
100
AcDbEntity
  8
0
  6
Continuous
 62
     7
370
    25
100
AcDbLine
 10
72.0
 20
-857.3751666203
 30
0.0
 11
77.0
 21
-857.3751666203
 31
0.0
  0
LINE
  5
39D
330
1F
100
AcDbEntity
  8
0
  6
Continuous
 62
     7
370
    25
100
AcDbLine
 10
77.0
 20
-815.6105566203
 30
0.0
 11
72.0
 21
-815.6105566203
 31
0.0
  0
LINE
  5
39E
330
1F
100
AcDbEntity
  8
0
  6
Continuous
 62
     7
370
    25
100
AcDbLine
 10
80.5
 20
-281.4388616203
 30
0.0
 11
87.5
 21
-281.4388616203
 31
0.0
  0
LINE
  5
39F
330
1F
100
AcDbEntity
  8
0
  6
Continuous
 62
     7
370
    25
100
AcDbLine
 10
87.5
 20
-221.8468616203
 30
0.0
 11
80.5
 21
-221.8468616203
 31
0.0
  0
LINE
  5
3A0
330
1F
100
AcDbEntity
  8
0
  6
Continuous
 62
     7
370
    25
100
AcDbLine
 10
31.0
 20
-304.1428616203
 30
0.0
 11
79.5
 21
-304.1428616203
 31
0.0
  0
LINE
  5
3A1
330
1F
100
AcDbEntity
  8
0
  6
Continuous
 62
     7
370
    25
100
AcDbLine
 10
79.5
 20
-199.1428616203
 30
0.0
 11
31.0
 21
-199.1428616203
 31
0.0
  0
LINE
  5
3A2
330
1F
100
AcDbEntity
  8
0
  6
Continuous
 62
     7
370
    25
100
AcDbLine
 10
-38.5
 20
-456.1292252567
 30
0.0
 11
-35.5
 21
-456.1292252567
 31
0.0
  0
LINE
  5
3A3
330
1F
100
AcDbEntity
  8
0
  6
Continuous
 62
     7
370
    25
100
AcDbLine
 10
-35.5
 20
-394.8564979839
 30
0.0
 11
-38.5
 21
-394.8564979839
 31
0.0
  0
LINE
  5
3A4
330
1F
100
AcDbEntity
  8
0
  6
Continuous
 62
     7
370
    25
100
AcDbLine
 10
-40.0
 20
-867.1292252567
 30
0.0
 11
-37.0
 21
-867.1292252567
 31
0.0
  0
LINE
  5
3A5
330
1F
100
AcDbEntity
  8
0
  6
Continuous
 62
     7
370
    25
100
AcDbLine
 10
-37.0
 20
-805.8564979839
 30
0.0
 11
-40.0
 21
-805.8564979839
 31
0.0
  0
LINE
  5
3A6
330
1F
100
AcDbEntity
  8
0
  6
Continuous
 62
     7
370
    25
100
AcDbLine
 10
28.5
 20
-280.738347225
 30
0.0
 11
21.5
 21
-280.738347225
 31
0.0
  0
LINE
  5
3A7
330
1F
100
AcDbEntity
  8
0
  6
Continuous
 62
     7
370
    25
100
AcDbLine
 10
31.0
 20
-283.736486545
 30
0.0
 11
28.5
 21
-283.736486545
 31
0.0
  0
LINE
  5
3A8
330
1F
100
AcDbEntity
  8
0
  6
Continuous
 62
     7
370
    25
100
AcDbLine
 10
95.5
 20
-244.6428616203
 30
0.0
 11
87.5
 21
-244.6428616203
 31
0.0
  0
LINE
  5
3A9
330
1F
100
AcDbEntity
  8
0
  6
Continuous
 62
     7
370
    25
100
AcDbLine
 10
-38.0
 20
-223.1428616148
 30
0.0
 11
-60.5
 21
-223.1428616148
 31
0.0
  0
LINE
  5
3AA
330
1F
100
AcDbEntity
  8
0
  6
Continuous
 62
     7
370
    25
100
AcDbLine
 10
-69.5
 20
-223.1428616148
 30
0.0
 11
-90.5
 21
-223.1428616148
 31
0.0
  0
LINE
  5
3AB
330
1F
100
AcDbEntity
  8
0
  6
Continuous
 62
     7
370
    25
100
AcDbLine
 10
-90.5
 20
-280.1428616148
 30
0.0
 11
-69.5
 21
-280.1428616148
 31
0.0
  0
LINE
  5
3AC
330
1F
100
AcDbEntity
  8
0
  6
Continuous
 62
     7
370
    25
100
AcDbLine
 10
-60.5
 20
-280.1428616148
 30
0.0
 11
-38.0
 21
-280.1428616148
 31
0.0
  0
LINE
  5
3AD
330
1F
100
AcDbEntity
  8
0
  6
Continuous
 62
     7
370
    25
100
AcDbLine
 10
28.55
 20
-822.8455175563
 30
0.0
 11
28.55
 21
-788.1402056842
 31
0.0
  0
LINE
  5
3AE
330
1F
100
AcDbEntity
  8
0
  6
Continuous
 62
     7
370
    25
100
AcDbLine
 10
-28.45
 20
-788.1402056842
 30
0.0
 11
-28.45
 21
-861.1402056842
 31
0.0
  0
LINE
  5
3AF
330
1F
100
AcDbEntity
  8
0
  6
Continuous
 62
     7
370
    25
100
AcDbLine
 10
21.05
 20
-864.1402056842
 30
0.0
 11
21.05
 21
-861.1402056842
 31
0.0
  0
LINE
  5
3B0
330
1F
100
AcDbEntity
  8
0
  6
Continuous
 62
     7
370
    25
100
AcDbLine
 10
-20.95
 20
-861.1402056842
 30
0.0
 11
-20.95
 21
-864.1402056842
 31
0.0
  0
LINE
  5
3B1
330
1F
100
AcDbEntity
  8
0
  6
Continuous
 62
     7
370
    25
100
AcDbLine
 10
7.05
 20
-885.1402056842
 30
0.0
 11
7.05
 21
-864.1402056842
 31
0.0
  0
LINE
  5
3B2
330
1F
100
AcDbEntity
  8
0
  6
Continuous
 62
     7
370
    25
100
AcDbLine
 10
-6.95
 20
-864.1402056842
 30
0.0
 11
-6.95
 21
-885.1402056842
 31
0.0
  0
LINE
  5
3B3
330
1F
100
AcDbEntity
  8
0
  6
Continuous
 62
     7
370
    25
100
AcDbLine
 10
-27.5
 20
-404.8928616203
 30
0.0
 11
-34.5
 21
-404.8928616203
 31
0.0
  0
LINE
  5
3B4
330
1F
100
AcDbEntity
  8
0
  6
Continuous
 62
     7
370
    25
100
AcDbLine
 10
-34.5
 20
-446.0928616203
 30
0.0
 11
-27.5
 21
-446.0928616203
 31
0.0
  0
LINE
  5
3B5
330
1F
100
AcDbEntity
  8
0
  6
Continuous
 62
     7
370
    25
100
AcDbLine
 10
-4.0000295459
 20
-466.4428616203
 30
0.0
 11
-4.0000295459
 21
-621.3928616154
 31
0.0
  0
LINE
  5
3B6
330
1F
100
AcDbEntity
  8
0
  6
Continuous
 62
     7
370
    25
100
AcDbLine
 10
3.9999704541
 20
-621.3928616154
 30
0.0
 11
3.9999704541
 21
-466.4428616203
 31
0.0
  0
LINE
  5
3B7
330
1F
100
AcDbEntity
  8
0
  6
Continuous
 62
     7
370
    25
100
AcDbLine
 10
29.95
 20
-850.1402056842
 30
0.0
 11
-35.95
 21
-850.1402056842
 31
0.0
  0
LINE
  5
3B8
330
1F
100
AcDbEntity
  8
0
  6
Continuous
 62
     7
370
    25
100
AcDbLine
 10
0.05
 20
-822.8455175563
 30
0.0
 11
0.05
 21
-850.1402056842
 31
0.0
  0
LINE
  5
3B9
330
1F
100
AcDbEntity
  8
0
  6
Continuous
 62
     7
370
    25
100
AcDbLine
 10
29.95
 20
-822.8455175563
 30
0.0
 11
-35.95
 21
-822.8455175563
 31
0.0
  0
LINE
  5
3BA
330
1F
100
AcDbEntity
  8
0
  6
Continuous
 62
     7
370
    25
100
AcDbLine
 10
72.0
 20
-857.3751686203
 30
0.0
 11
72.0
 21
-815.6105546203
 31
0.0
  0
LINE
  5
3BB
330
1F
100
AcDbEntity
  8
0
  6
Continuous
 62
     7
370
    25
100
AcDbLine
 10
29.95
 20
-797.9928616203
 30
0.0
 11
29.95
 21
-874.9928616203
 31
0.0
  0
LINE
  5
3BC
330
1F
100
AcDbEntity
  8
0
  6
Continuous
 62
     7
370
    25
100
AcDbLine
 10
35.0
 20
-797.9928616203
 30
0.0
 11
35.0
 21
-874.9928616203
 31
0.0
  0
LINE
  5
3BD
330
1F
100
AcDbEntity
  8
0
  6
Continuous
 62
     7
370
    25
100
AcDbLine
 10
21.5
 20
-221.2335517049
 30
0.0
 11
21.5
 21
-282.0521715357
 31
0.0
  0
LINE
  5
3BE
330
1F
100
AcDbEntity
  8
0
  6
Continuous
 62
     7
370
    25
100
AcDbLine
 10
-31.0
 20
-251.6178616203
 30
0.0
 11
21.5
 21
-251.6178616203
 31
0.0
  0
LINE
  5
3BF
330
1F
100
AcDbEntity
  8
0
  6
Continuous
 62
     7
370
    25
100
AcDbLine
 10
-31.0
 20
-235.1670853102
 30
0.0
 11
21.5
 21
-235.1670853102
 31
0.0
  0
LINE
  5
3C0
330
1F
100
AcDbEntity
  8
0
  6
Continuous
 62
     7
370
    25
100
AcDbLine
 10
-31.0
 20
-176.1428616203
 30
0.0
 11
-31.0
 21
-251.6178616203
 31
0.0
  0
LINE
  5
3C1
330
1F
100
AcDbEntity
  8
0
  6
Continuous
 62
     7
370
    25
100
AcDbLine
 10
9.759610648
 20
-178.1428616203
 30
0.0
 11
31.0
 21
-178.1428616203
 31
0.0
  0
LINE
  5
3C2
330
1F
100
AcDbEntity
  8
0
  6
Continuous
 62
     7
370
    25
100
AcDbLine
 10
31.0
 20
-176.1428616203
 30
0.0
 11
31.0
 21
-219.5492366956
 31
0.0
  0
LINE
  5
3C3
330
1F
100
AcDbEntity
  8
0
  6
Continuous
 62
     7
370
    25
100
AcDbLine
 10
31.0
 20
-218.235412385
 30
0.0
 11
28.5
 21
-218.235412385
 31
0.0
  0
LINE
  5
3C4
330
1F
100
AcDbEntity
  8
0
  6
Continuous
 62
     7
370
    25
100
AcDbLine
 10
28.5
 20
-221.2335517049
 30
0.0
 11
21.5
 21
-221.2335517049
 31
0.0
  0
LINE
  5
3C5
330
1F
100
AcDbEntity
  8
0
  6
Continuous
 62
     7
370
    25
100
AcDbLine
 10
-31.0
 20
-178.1428616203
 30
0.0
 11
-12.839756703
 21
-178.1428616203
 31
0.0
  0
LINE
  5
3C6
330
1F
100
AcDbEntity
  8
0
  6
Continuous
 62
     7
370
    25
100
AcDbLine
 10
-8.511234175
 20
-216.1428616203
 30
0.0
 11
-20.988765825
 21
-216.1428616203
 31
0.0
  0
LINE
  5
3C7
330
1F
100
AcDbEntity
  8
0
  6
Continuous
 62
     7
370
    25
100
AcDbLine
 10
-10.6683524523
 20
-178.1428616203
 30
0.0
 11
-9.759610648
 21
-178.1428616203
 31
0.0
  0
LINE
  5
3C8
330
1F
100
AcDbEntity
  8
0
  6
Continuous
 62
     7
370
    25
100
AcDbLine
 10
-12.839756703
 20
-176.1428616203
 30
0.0
 11
-12.839756703
 21
-178.1428616203
 31
0.0
  0
LINE
  5
3C9
330
1F
100
AcDbEntity
  8
0
  6
Continuous
 62
     7
370
    25
100
AcDbLine
 10
-32.3983087099
 20
-176.1428616203
 30
0.0
 11
32.4016912901
 21
-176.1428616203
 31
0.0
  0
LINE
  5
3CA
330
1F
100
AcDbEntity
  8
0
  6
Continuous
 62
     7
370
    25
100
AcDbLine
 10
-10.6683524523
 20
-178.1428616203
 30
0.0
 11
-10.6683524523
 21
-177.2325579454
 31
0.0
  0
LINE
  5
3CB
330
1F
100
AcDbEntity
  8
0
  6
Continuous
 62
     7
370
    25
100
AcDbLine
 10
38.0
 20
-320.6342486013
 30
0.0
 11
38.0
 21
-306.4774724334
 31
0.0
  0
LINE
  5
3CC
330
1F
100
AcDbEntity
  8
0
  6
Continuous
 62
     7
370
    25
100
AcDbLine
 10
38.0
 20
-316.1525536468
 30
0.0
 11
31.0
 21
-316.1525536468
 31
0.0
  0
LINE
  5
3CD
330
1F
100
AcDbEntity
  8
0
  6
Continuous
 62
     7
370
    25
100
AcDbLine
 10
38.0
 20
-320.6342486013
 30
0.0
 11
31.0
 21
-320.6342486013
 31
0.0
  0
LINE
  5
3CE
330
1F
100
AcDbEntity
  8
0
  6
Continuous
 62
     7
370
    25
100
AcDbLine
 10
40.1818181818
 20
-327.1928616203
 30
0.0
 11
-40.1818181818
 21
-327.1928616203
 31
0.0
  0
LINE
  5
3CF
330
1F
100
AcDbEntity
  8
0
  6
Continuous
 62
     7
370
    25
100
AcDbLine
 10
40.1818181818
 20
-330.1428616203
 30
0.0
 11
-40.1818181818
 21
-330.1428616203
 31
0.0
  0
LINE
  5
3D0
330
1F
100
AcDbEntity
  8
0
  6
Continuous
 62
     7
370
    25
100
AcDbLine
 10
40.1818181818
 20
-355.2428616203
 30
0.0
 11
-40.1818181818
 21
-355.2428616203
 31
0.0
  0
LINE
  5
3D1
330
1F
100
AcDbEntity
  8
0
  6
Continuous
 62
     7
370
    25
100
AcDbLine
 10
-204.8
 20
-243.1428616148
 30
0.0
 11
-206.5
 21
-243.1428616148
 31
0.0
  0
LINE
  5
3D2
330
1F
100
AcDbEntity
  8
0
  6
Continuous
 62
     7
370
    25
100
AcDbLine
 10
-204.8
 20
-240.1428616148
 30
0.0
 11
-206.5
 21
-240.1428616148
 31
0.0
  0
LINE
  5
3D3
330
1F
100
AcDbEntity
  8
0
  6
Continuous
 62
     7
370
    25
100
AcDbLine
 10
-206.5
 20
-263.1428616148
 30
0.0
 11
-206.5
 21
-240.1428616148
 31
0.0
  0
LINE
  5
3D4
330
1F
100
AcDbEntity
  8
0
  6
Continuous
 62
     7
370
    25
100
AcDbLine
 10
-204.8
 20
-260.1428616148
 30
0.0
 11
-206.5
 21
-260.1428616148
 31
0.0
  0
LINE
  5
3D5
330
1F
100
AcDbEntity
  8
0
  6
Continuous
 62
     7
370
    25
100
AcDbLine
 10
-204.8
 20
-263.1428616148
 30
0.0
 11
-206.5
 21
-263.1428616148
 31
0.0
  0
LINE
  5
3D6
330
1F
100
AcDbEntity
  8
0
  6
Continuous
 62
     7
370
    25
100
AcDbLine
 10
-60.3940567102
 20
-212.0942475286
 30
0.0
 11
-60.5
 21
-212.4983705716
 31
0.0
  0
LINE
  5
3D7
330
1F
100
AcDbEntity
  8
0
  6
Continuous
 62
     7
370
    25
100
AcDbLine
 10
5.9357281548
 20
-621.3928616154
 30
0.0
 11
5.9357281548
 21
-626.3928616154
 31
0.0
  0
LINE
  5
3D8
330
1F
100
AcDbEntity
  8
0
  6
Continuous
 62
     7
370
    25
100
AcDbLine
 10
-9.1950753095
 20
-621.3928616154
 30
0.0
 11
12.0514336111
 21
-621.3928616154
 31
0.0
  0
LINE
  5
3D9
330
1F
100
AcDbEntity
  8
0
  6
Continuous
 62
     7
370
    25
100
AcDbLine
 10
0.1304072548
 20
-621.3928616154
 30
0.0
 11
0.1304072548
 21
-626.3928616154
 31
0.0
  0
LINE
  5
3DA
330
1F
100
AcDbEntity
  8
0
  6
Continuous
 62
     7
370
    25
100
AcDbLine
 10
-11.2110620571
 20
-621.3928616154
 30
0.0
 11
-11.2110620571
 21
-626.3928616154
 31
0.0
  0
LINE
  5
3DB
330
1F
100
AcDbEntity
  8
0
  6
Continuous
 62
     7
370
    25
100
AcDbLine
 10
-9.196
 20
-621.3928616154
 30
0.0
 11
-12.0514336111
 21
-621.3928616154
 31
0.0
  0
LINE
  5
3DC
330
1F
100
AcDbEntity
  8
0
  6
Continuous
 62
     7
370
    25
100
AcDbLine
 10
-204.8
 20
-267.6428616148
 30
0.0
 11
-202.8
 21
-267.6428616148
 31
0.0
  0
LINE
  5
3DD
330
1F
100
AcDbEntity
  8
0
  6
Continuous
 62
     7
370
    25
100
AcDbLine
 10
-204.8
 20
-270.1428616148
 30
0.0
 11
-204.8
 21
-233.1428616148
 31
0.0
  0
LINE
  5
3DE
330
1F
100
AcDbEntity
  8
0
  6
Continuous
 62
     7
370
    25
100
AcDbLine
 10
-202.8
 20
-235.6428616148
 30
0.0
 11
-204.8
 21
-235.6428616148
 31
0.0
  0
LINE
  5
3DF
330
1F
100
AcDbEntity
  8
0
  6
Continuous
 62
     7
370
    25
100
AcDbLine
 10
-202.8
 20
-270.1428616148
 30
0.0
 11
-202.8
 21
-233.1428616148
 31
0.0
  0
LINE
  5
3E0
330
1F
100
AcDbEntity
  8
0
  6
Continuous
 62
     7
370
    25
100
AcDbLine
 10
-204.8
 20
-233.1428616148
 30
0.0
 11
-202.8
 21
-233.1428616148
 31
0.0
  0
LINE
  5
3E1
330
1F
100
AcDbEntity
  8
0
  6
Continuous
 62
     7
370
    25
100
AcDbLine
 10
-202.8
 20
-270.1428616148
 30
0.0
 11
-204.8
 21
-270.1428616148
 31
0.0
  0
LINE
  5
3E2
330
1F
100
AcDbEntity
  8
0
  6
Continuous
 62
     7
370
    25
100
AcDbLine
 10
32.4
 20
-327.1428616203
 30
0.0
 11
-32.3999999489
 21
-327.1428616203
 31
0.0
  0
LINE
  5
3E3
330
1F
100
AcDbEntity
  8
0
  6
Continuous
 62
     7
370
    25
100
AcDbLine
 10
-19.5623819372
 20
-635.3928616154
 30
0.0
 11
-19.5623819372
 21
-626.3928616154
 31
0.0
  0
LINE
  5
3E4
330
1F
100
AcDbEntity
  8
0
  6
Continuous
 62
     7
370
    25
100
AcDbLine
 10
36.0
 20
-635.3928616154
 30
0.0
 11
-27.5
 21
-635.3928616154
 31
0.0
  0
LINE
  5
3E5
330
1F
100
AcDbEntity
  8
0
  6
Continuous
 62
     7
370
    25
100
AcDbLine
 10
-27.5
 20
-635.3928616154
 30
0.0
 11
-27.5
 21
-626.3928616154
 31
0.0
  0
LINE
  5
3E6
330
1F
100
AcDbEntity
  8
0
  6
Continuous
 62
     7
370
    25
100
AcDbLine
 10
36.0
 20
-626.3928616154
 30
0.0
 11
-27.5
 21
-626.3928616154
 31
0.0
  0
LINE
  5
3E7
330
1F
100
AcDbEntity
  8
0
  6
Continuous
 62
     7
370
    25
100
AcDbLine
 10
36.0
 20
-874.9928616203
 30
0.0
 11
36.0
 21
-358.1928616203
 31
0.0
  0
LINE
  5
3E8
330
1F
100
AcDbEntity
  8
0
  6
Continuous
 62
     7
370
    25
100
AcDbLine
 10
80.5
 20
-221.8468616203
 30
0.0
 11
80.5
 21
-281.4388616203
 31
0.0
  0
LINE
  5
3E9
330
1F
100
AcDbEntity
  8
0
  6
Continuous
 62
     7
370
    25
100
AcDbLine
 10
-60.5
 20
-221.4315494931
 30
0.0
 11
-69.5
 21
-221.4315494931
 31
0.0
  0
LINE
  5
3EA
330
1F
100
AcDbEntity
  8
0
  6
Continuous
 62
     7
370
    25
100
AcDbLine
 10
-60.5
 20
-212.1428616148
 30
0.0
 11
-60.5
 21
-223.4428616203
 31
0.0
  0
LINE
  5
3EB
330
1F
100
AcDbEntity
  8
0
  6
Continuous
 62
     7
370
    25
100
AcDbLine
 10
-69.5
 20
-212.1428616148
 30
0.0
 11
-69.5
 21
-223.4428616203
 31
0.0
  0
LINE
  5
3EC
330
1F
100
AcDbEntity
  8
0
  6
Continuous
 62
     7
370
    25
100
AcDbLine
 10
-60.5
 20
-281.8541737366
 30
0.0
 11
-69.5
 21
-281.8541737366
 31
0.0
  0
LINE
  5
3ED
330
1F
100
AcDbEntity
  8
0
  6
Continuous
 62
     7
370
    25
100
AcDbLine
 10
-60.5
 20
-291.1428616148
 30
0.0
 11
-60.5
 21
-279.8428616203
 31
0.0
  0
LINE
  5
3EE
330
1F
100
AcDbEntity
  8
0
  6
Continuous
 62
     7
370
    25
100
AcDbLine
 10
-69.5
 20
-291.1428616148
 30
0.0
 11
-69.5
 21
-279.8428616203
 31
0.0
  0
LINE
  5
3EF
330
1F
100
AcDbEntity
  8
0
  6
Continuous
 62
     7
370
    25
100
AcDbLine
 10
-60.5
 20
-213.1428932604
 30
0.0
 11
-69.5
 21
-213.1428932604
 31
0.0
  0
LINE
  5
3F0
330
1F
100
AcDbEntity
  8
0
  6
Continuous
 62
     7
370
    25
100
AcDbLine
 10
-60.5
 20
-212.1428932604
 30
0.0
 11
-69.5
 21
-212.1428932604
 31
0.0
  0
LINE
  5
3F1
330
1F
100
AcDbEntity
  8
0
  6
Continuous
 62
     7
370
    25
100
AcDbLine
 10
-60.5
 20
-290.1428299692
 30
0.0
 11
-69.5
 21
-290.1428299692
 31
0.0
  0
LINE
  5
3F2
330
1F
100
AcDbEntity
  8
0
  6
Continuous
 62
     7
370
    25
100
AcDbLine
 10
-60.5
 20
-291.1428299692
 30
0.0
 11
-69.5
 21
-291.1428299692
 31
0.0
  0
LINE
  5
3F3
330
1F
100
AcDbEntity
  8
0
  6
Continuous
 62
     7
370
    25
100
AcDbLine
 10
-53.6
 20
-394.8564979839
 30
0.0
 11
-53.6
 21
-456.1292252567
 31
0.0
  0
LINE
  5
3F4
330
1F
100
AcDbEntity
  8
0
  6
Continuous
 62
     7
370
    25
100
AcDbLine
 10
-56.6
 20
-394.8564979839
 30
0.0
 11
-56.6
 21
-456.1292252567
 31
0.0
  0
LINE
  5
3F5
330
1F
100
AcDbEntity
  8
0
  6
Continuous
 62
     7
370
    25
100
AcDbLine
 10
-46.05
 20
-454.1292252567
 30
0.0
 11
-46.05
 21
-396.8564979839
 31
0.0
  0
LINE
  5
3F6
330
1F
100
AcDbEntity
  8
0
  6
Continuous
 62
     7
370
    25
100
AcDbLine
 10
-58.1
 20
-805.8564979839
 30
0.0
 11
-58.1
 21
-867.1292252567
 31
0.0
  0
LINE
  5
3F7
330
1F
100
AcDbEntity
  8
0
  6
Continuous
 62
     7
370
    25
100
AcDbLine
 10
-55.1
 20
-805.8564979839
 30
0.0
 11
-55.1
 21
-867.1292252567
 31
0.0
  0
LINE
  5
3F8
330
1F
100
AcDbEntity
  8
0
  6
Continuous
 62
     7
370
    25
100
AcDbLine
 10
-47.55
 20
-865.1292252567
 30
0.0
 11
-47.55
 21
-807.8564979839
 31
0.0
  0
LINE
  5
3F9
330
1F
100
AcDbEntity
  8
0
  6
Continuous
 62
     7
370
    25
100
AcDbLine
 10
-38.0
 20
-265.8861717996
 30
0.0
 11
-31.0
 21
-265.8861717996
 31
0.0
  0
LINE
  5
3FA
330
1F
100
AcDbEntity
  8
0
  6
Continuous
 62
     7
370
    25
100
AcDbLine
 10
-38.0
 20
-237.4495514409
 30
0.0
 11
-31.0
 21
-237.4495514409
 31
0.0
  0
LINE
  5
3FB
330
1F
100
AcDbEntity
  8
0
  6
Continuous
 62
     7
370
    25
100
AcDbLine
 10
-38.0
 20
-320.6342486013
 30
0.0
 11
-38.0
 21
-182.7014746393
 31
0.0
  0
LINE
  5
3FC
330
1F
100
AcDbEntity
  8
0
  6
Continuous
 62
     7
370
    25
100
AcDbLine
 10
-38.0
 20
-190.2891292614
 30
0.0
 11
-31.0
 21
-190.2891292614
 31
0.0
  0
LINE
  5
3FD
330
1F
100
AcDbEntity
  8
0
  6
Continuous
 62
     7
370
    25
100
AcDbLine
 10
-38.0
 20
-313.0465939792
 30
0.0
 11
-31.0
 21
-313.0465939792
 31
0.0
  0
LINE
  5
3FE
330
1F
100
AcDbEntity
  8
0
  6
Continuous
 62
     7
370
    25
100
AcDbLine
 10
-38.0
 20
-187.1831695938
 30
0.0
 11
-31.0
 21
-187.1831695938
 31
0.0
  0
LINE
  5
3FF
330
1F
100
AcDbEntity
  8
0
  6
Continuous
 62
     7
370
    25
100
AcDbLine
 10
-38.0
 20
-316.1525536468
 30
0.0
 11
-31.0
 21
-316.1525536468
 31
0.0
  0
LINE
  5
400
330
1F
100
AcDbEntity
  8
0
  6
Continuous
 62
     7
370
    25
100
AcDbLine
 10
-38.0
 20
-320.6342486013
 30
0.0
 11
-31.0
 21
-320.6342486013
 31
0.0
  0
LINE
  5
401
330
1F
100
AcDbEntity
  8
0
  6
Continuous
 62
     7
370
    25
100
AcDbLine
 10
-78.6422103847
 20
-204.917815957
 30
0.0
 11
-31.0825
 21
-43.8761196339
 31
0.0
  0
LINE
  5
402
330
1F
100
AcDbEntity
  8
0
  6
Continuous
 62
     7
370
    25
100
AcDbLine
 10
31.0825
 20
-43.8761196339
 30
0.0
 11
76.9367194342
 21
-199.1428616203
 31
0.0
  0
LINE
  5
403
330
1F
100
AcDbEntity
  8
0
  6
Continuous
 62
     7
370
    25
100
AcDbLine
 10
28.55
 20
-45.6759833842
 30
0.0
 11
28.55
 21
-107.5138091188
 31
0.0
  0
LINE
  5
404
330
1F
100
AcDbEntity
  8
0
  6
Continuous
 62
     7
370
    25
100
AcDbLine
 10
-28.55
 20
-45.6759833842
 30
0.0
 11
-28.55
 21
-107.5138091188
 31
0.0
  0
LINE
  5
405
330
1F
100
AcDbEntity
  8
0
  6
Continuous
 62
     7
370
    25
100
AcDbLine
 10
-23.8896149038
 20
-38.5003616148
 30
0.0
 11
23.8896149038
 21
-38.5003616148
 31
0.0
  0
LINE
  5
406
330
1F
100
AcDbEntity
  8
0
  6
Continuous
 62
     7
370
    25
100
AcDbLine
 10
-26.0825
 20
-46.0128616148
 30
0.0
 11
-26.0825
 21
-51.0828616148
 31
0.0
  0
LINE
  5
407
330
1F
100
AcDbEntity
  8
0
  6
Continuous
 62
     7
370
    25
100
AcDbLine
 10
-21.0575
 20
-46.0128616148
 30
0.0
 11
-21.0575
 21
-51.0828616148
 31
0.0
  0
LINE
  5
408
330
1F
100
AcDbEntity
  8
0
  6
Continuous
 62
     7
370
    25
100
AcDbLine
 10
26.0825
 20
-46.0128616148
 30
0.0
 11
26.0825
 21
-51.0828616148
 31
0.0
  0
LINE
  5
409
330
1F
100
AcDbEntity
  8
0
  6
Continuous
 62
     7
370
    25
100
AcDbLine
 10
21.0575
 20
-46.0128616148
 30
0.0
 11
21.0575
 21
-51.0828616148
 31
0.0
  0
LINE
  5
40A
330
1F
100
AcDbEntity
  8
0
  6
Continuous
 62
     7
370
    25
100
AcDbLine
 10
69.5
 20
-190.6428616148
 30
0.0
 11
31.0
 21
-190.6428616148
 31
0.0
  0
LINE
  5
40B
330
1F
100
AcDbEntity
  8
0
  6
Continuous
 62
     7
370
    25
100
AcDbLine
 10
69.5
 20
-312.6428616148
 30
0.0
 11
38.0
 21
-312.6428616148
 31
0.0
  0
LINE
  5
40C
330
1F
100
AcDbEntity
  8
0
  6
Continuous
 62
     7
370
    25
100
AcDbLine
 10
69.5
 20
-312.6428616148
 30
0.0
 11
69.5
 21
-304.1428616203
 31
0.0
  0
LINE
  5
40D
330
1F
100
AcDbEntity
  8
0
  6
Continuous
 62
     7
370
    25
100
AcDbLine
 10
69.5
 20
-199.1428616203
 30
0.0
 11
69.5
 21
-190.6428616148
 31
0.0
  0
LINE
  5
40E
330
1F
100
AcDbEntity
  8
0
  6
Continuous
 62
     7
370
    25
100
AcDbLine
 10
71.0
 20
-797.9928616203
 30
0.0
 11
71.0
 21
-874.9928616203
 31
0.0
  0
LINE
  5
40F
330
1F
100
AcDbEntity
  8
0
  6
Continuous
 62
     7
370
    25
100
AcDbLine
 10
43.0
 20
-874.9928616203
 30
0.0
 11
43.0
 21
-358.1928616203
 31
0.0
  0
LINE
  5
410
330
1F
100
AcDbEntity
  8
0
  6
Continuous
 62
     7
370
    25
100
AcDbLine
 10
22.7380210221
 20
-176.0928616203
 30
0.0
 11
22.7380210221
 21
-151.5928616203
 31
0.0
  0
LINE
  5
411
330
1F
100
AcDbEntity
  8
0
  6
Continuous
 62
     7
370
    25
100
AcDbLine
 10
-22.7380210221
 20
-176.0928616203
 30
0.0
 11
-22.7380210221
 21
-151.5928616203
 31
0.0
  0
LINE
  5
412
330
1F
100
AcDbEntity
  8
0
  6
Continuous
 62
     7
370
    25
100
AcDbLine
 10
-22.7380210221
 20
-151.5928616203
 30
0.0
 11
22.7380210221
 21
-151.5928616203
 31
0.0
  0
LINE
  5
413
330
1F
100
AcDbEntity
  8
0
  6
Continuous
 62
     7
370
    25
100
AcDbLine
 10
-29.82
 20
-176.0928616203
 30
0.0
 11
-29.82
 21
-151.5928616203
 31
0.0
  0
LINE
  5
414
330
1F
100
AcDbEntity
  8
0
  6
Continuous
 62
     7
370
    25
100
AcDbLine
 10
-22.7380210221
 20
-152.5928616203
 30
0.0
 11
-29.82
 21
-152.5928616203
 31
0.0
  0
LINE
  5
415
330
1F
100
AcDbEntity
  8
0
  6
Continuous
 62
     7
370
    25
100
AcDbLine
 10
-23.57
 20
-176.0928616203
 30
0.0
 11
-23.57
 21
-152.5928616203
 31
0.0
  0
LINE
  5
416
330
1F
100
AcDbEntity
  8
0
  6
Continuous
 62
     7
370
    25
100
AcDbLine
 10
23.57
 20
-176.0928616203
 30
0.0
 11
23.57
 21
-152.5928616203
 31
0.0
  0
LINE
  5
417
330
1F
100
AcDbEntity
  8
0
  6
Continuous
 62
     7
370
    25
100
AcDbLine
 10
29.82
 20
-152.5928616203
 30
0.0
 11
22.7380210221
 21
-152.5928616203
 31
0.0
  0
LINE
  5
418
330
1F
100
AcDbEntity
  8
0
  6
Continuous
 62
     7
370
    25
100
AcDbLine
 10
29.82
 20
-176.0928616203
 30
0.0
 11
29.82
 21
-151.5928616203
 31
0.0
  0
LINE
  5
419
330
1F
100
AcDbEntity
  8
0
  6
Continuous
 62
     7
370
    25
100
AcDbLine
 10
-37.5
 20
-176.0928616203
 30
0.0
 11
37.5
 21
-176.0928616203
 31
0.0
  0
LINE
  5
41A
330
1F
100
AcDbEntity
  8
0
  6
Continuous
 62
     7
370
    25
100
AcDbLine
 10
-37.5
 20
-151.5928616203
 30
0.0
 11
-28.55
 21
-151.5928616203
 31
0.0
  0
LINE
  5
41B
330
1F
100
AcDbEntity
  8
0
  6
Continuous
 62
     7
370
    25
100
AcDbLine
 10
-28.55
 20
-152.5928616203
 30
0.0
 11
-28.55
 21
-151.5928616203
 31
0.0
  0
LINE
  5
41C
330
1F
100
AcDbEntity
  8
0
  6
Continuous
 62
     7
370
    25
100
AcDbLine
 10
28.55
 20
-151.5928616203
 30
0.0
 11
37.5
 21
-151.5928616203
 31
0.0
  0
LINE
  5
41D
330
1F
100
AcDbEntity
  8
0
  6
Continuous
 62
     7
370
    25
100
AcDbLine
 10
28.55
 20
-152.5928616203
 30
0.0
 11
28.55
 21
-151.5928616203
 31
0.0
  0
LINE
  5
41E
330
1F
100
AcDbEntity
  8
0
  6
Continuous
 62
     7
370
    25
100
AcDbLine
 10
-35.95
 20
-850.1402056842
 30
0.0
 11
-35.95
 21
-822.8455175563
 31
0.0
  0
LINE
  5
41F
330
1F
100
AcDbEntity
  8
0
  6
Continuous
 62
     7
370
    25
100
AcDbLine
 10
77.0
 20
-815.6105566203
 30
0.0
 11
77.0
 21
-857.3751666203
 31
0.0
  0
LINE
  5
420
330
1F
100
AcDbEntity
  8
0
  6
Continuous
 62
     7
370
    25
100
AcDbLine
 10
87.5
 20
-221.8468616203
 30
0.0
 11
87.5
 21
-281.4388616203
 31
0.0
  0
LINE
  5
421
330
1F
100
AcDbEntity
  8
0
  6
Continuous
 62
     7
370
    25
100
AcDbLine
 10
29.5
 20
-219.5492366956
 30
0.0
 11
29.5
 21
-283.736486545
 31
0.0
  0
LINE
  5
422
330
1F
100
AcDbEntity
  8
0
  6
Continuous
 62
     7
370
    25
100
AcDbLine
 10
70.5
 20
-199.1428616203
 30
0.0
 11
70.5
 21
-304.1428616203
 31
0.0
  0
LINE
  5
423
330
1F
100
AcDbEntity
  8
0
  6
Continuous
 62
     7
370
    25
100
AcDbLine
 10
-96.0
 20
-223.5428616148
 30
0.0
 11
-96.0
 21
-233.6120852084
 31
0.0
  0
LINE
  5
424
330
1F
100
AcDbEntity
  8
0
  6
Continuous
 62
     7
370
    25
100
AcDbLine
 10
-93.5
 20
-231.2928616148
 30
0.0
 11
-90.5
 21
-231.2928616148
 31
0.0
  0
LINE
  5
425
330
1F
100
AcDbEntity
  8
0
  6
Continuous
 62
     7
370
    25
100
AcDbLine
 10
-93.5
 20
-239.6928616148
 30
0.0
 11
-93.5
 21
-231.2928616148
 31
0.0
  0
LINE
  5
426
330
1F
100
AcDbEntity
  8
0
  6
Continuous
 62
     7
370
    25
100
AcDbLine
 10
-90.5
 20
-239.6928616148
 30
0.0
 11
-93.5
 21
-239.6928616148
 31
0.0
  0
LINE
  5
427
330
1F
100
AcDbEntity
  8
0
  6
Continuous
 62
     7
370
    25
100
AcDbLine
 10
-93.5
 20
-263.5928616148
 30
0.0
 11
-90.5
 21
-263.5928616148
 31
0.0
  0
LINE
  5
428
330
1F
100
AcDbEntity
  8
0
  6
Continuous
 62
     7
370
    25
100
AcDbLine
 10
-93.5
 20
-263.5928616148
 30
0.0
 11
-93.5
 21
-271.9928616148
 31
0.0
  0
LINE
  5
429
330
1F
100
AcDbEntity
  8
0
  6
Continuous
 62
     7
370
    25
100
AcDbLine
 10
-90.5
 20
-271.9928616148
 30
0.0
 11
-93.5
 21
-271.9928616148
 31
0.0
  0
LINE
  5
42A
330
1F
100
AcDbEntity
  8
0
  6
Continuous
 62
     7
370
    25
100
AcDbLine
 10
-91.0
 20
-279.7428616148
 30
0.0
 11
-91.0
 21
-223.5428616148
 31
0.0
  0
LINE
  5
42B
330
1F
100
AcDbEntity
  8
0
  6
Continuous
 62
     7
370
    25
100
AcDbLine
 10
-96.0
 20
-269.6736380212
 30
0.0
 11
-96.0
 21
-279.7428616148
 31
0.0
  0
LINE
  5
42C
330
1F
100
AcDbEntity
  8
0
  6
Continuous
 62
     7
370
    25
100
AcDbLine
 10
-96.0
 20
-269.6736380212
 30
0.0
 11
-96.25
 21
-268.6428616148
 31
0.0
  0
LINE
  5
42D
330
1F
100
AcDbEntity
  8
0
  6
Continuous
 62
     7
370
    25
100
AcDbLine
 10
-96.25
 20
-232.6428616148
 30
0.0
 11
-101.5
 21
-232.6428616148
 31
0.0
  0
LINE
  5
42E
330
1F
100
AcDbEntity
  8
0
  6
Continuous
 62
     7
370
    25
100
AcDbLine
 10
-96.25
 20
-270.6428616148
 30
0.0
 11
-101.5
 21
-270.6428616148
 31
0.0
  0
LINE
  5
42F
330
1F
100
AcDbEntity
  8
0
  6
Continuous
 62
     7
370
    25
100
AcDbLine
 10
-201.5
 20
-223.5428616148
 30
0.0
 11
-201.5
 21
-279.7428616148
 31
0.0
  0
LINE
  5
430
330
1F
100
AcDbEntity
  8
0
  6
Continuous
 62
     7
370
    25
100
AcDbLine
 10
-91.0
 20
-223.5428616148
 30
0.0
 11
-101.5
 21
-223.5428616148
 31
0.0
  0
LINE
  5
431
330
1F
100
AcDbEntity
  8
0
  6
Continuous
 62
     7
370
    25
100
AcDbLine
 10
-90.5
 20
-224.0428616148
 30
0.0
 11
-91.0
 21
-223.5428616148
 31
0.0
  0
LINE
  5
432
330
1F
100
AcDbEntity
  8
0
  6
Continuous
 62
     7
370
    25
100
AcDbLine
 10
-91.0
 20
-232.2928616148
 30
0.0
 11
-93.5
 21
-232.2928616148
 31
0.0
  0
LINE
  5
433
330
1F
100
AcDbEntity
  8
0
  6
Continuous
 62
     7
370
    25
100
AcDbLine
 10
-91.0
 20
-232.2928616148
 30
0.0
 11
-90.5
 21
-231.7928616148
 31
0.0
  0
LINE
  5
434
330
1F
100
AcDbEntity
  8
0
  6
Continuous
 62
     7
370
    25
100
AcDbLine
 10
-96.25
 20
-234.6428616148
 30
0.0
 11
-202.8
 21
-234.6428616148
 31
0.0
  0
LINE
  5
435
330
1F
100
AcDbEntity
  8
0
  6
Continuous
 62
     7
370
    25
100
AcDbLine
 10
-192.0
 20
-232.6428616148
 30
0.0
 11
-201.5
 21
-232.6428616148
 31
0.0
  0
LINE
  5
436
330
1F
100
AcDbEntity
  8
0
  6
Continuous
 62
     7
370
    25
100
AcDbLine
 10
-96.25
 20
-268.6428616148
 30
0.0
 11
-202.8
 21
-268.6428616148
 31
0.0
  0
LINE
  5
437
330
1F
100
AcDbEntity
  8
0
  6
Continuous
 62
     7
370
    25
100
AcDbLine
 10
-91.0
 20
-238.6928616148
 30
0.0
 11
-90.5
 21
-239.1928616148
 31
0.0
  0
LINE
  5
438
330
1F
100
AcDbEntity
  8
0
  6
Continuous
 62
     7
370
    25
100
AcDbLine
 10
-93.5
 20
-238.6928616148
 30
0.0
 11
-91.0
 21
-238.6928616148
 31
0.0
  0
LINE
  5
439
330
1F
100
AcDbEntity
  8
0
  6
Continuous
 62
     7
370
    25
100
AcDbLine
 10
-91.0
 20
-264.5928616148
 30
0.0
 11
-90.5
 21
-264.0928616148
 31
0.0
  0
LINE
  5
43A
330
1F
100
AcDbEntity
  8
0
  6
Continuous
 62
     7
370
    25
100
AcDbLine
 10
-91.0
 20
-264.5928616148
 30
0.0
 11
-93.5
 21
-264.5928616148
 31
0.0
  0
LINE
  5
43B
330
1F
100
AcDbEntity
  8
0
  6
Continuous
 62
     7
370
    25
100
AcDbLine
 10
-192.0
 20
-270.6428616148
 30
0.0
 11
-201.5
 21
-270.6428616148
 31
0.0
  0
LINE
  5
43C
330
1F
100
AcDbEntity
  8
0
  6
Continuous
 62
     7
370
    25
100
AcDbLine
 10
-91.0
 20
-279.7428616148
 30
0.0
 11
-90.5
 21
-279.2428616148
 31
0.0
  0
LINE
  5
43D
330
1F
100
AcDbEntity
  8
0
  6
Continuous
 62
     7
370
    25
100
AcDbLine
 10
-91.0
 20
-270.9928616148
 30
0.0
 11
-90.5
 21
-271.4928616148
 31
0.0
  0
LINE
  5
43E
330
1F
100
AcDbEntity
  8
0
  6
Continuous
 62
     7
370
    25
100
AcDbLine
 10
-96.0
 20
-279.7428616148
 30
0.0
 11
-91.0
 21
-279.7428616148
 31
0.0
  0
LINE
  5
43F
330
1F
100
AcDbEntity
  8
0
  6
Continuous
 62
     7
370
    25
100
AcDbLine
 10
-93.5
 20
-270.9928616148
 30
0.0
 11
-91.0
 21
-270.9928616148
 31
0.0
  0
LINE
  5
440
330
1F
100
AcDbEntity
  8
0
  6
Continuous
 62
     7
370
    25
100
AcDbLine
 10
-101.5
 20
-232.8928616148
 30
0.0
 11
-192.0
 21
-232.8928616148
 31
0.0
  0
LINE
  5
441
330
1F
100
AcDbEntity
  8
0
  6
Continuous
 62
     7
370
    25
100
AcDbLine
 10
-101.5
 20
-270.3928616148
 30
0.0
 11
-192.0
 21
-270.3928616148
 31
0.0
  0
LINE
  5
442
330
1F
100
AcDbEntity
  8
0
  6
Continuous
 62
     7
370
    25
100
AcDbLine
 10
-96.0
 20
-227.6428616148
 30
0.0
 11
-203.0
 21
-227.6428616148
 31
0.0
  0
LINE
  5
443
330
1F
100
AcDbEntity
  8
0
  6
Continuous
 62
     7
370
    25
100
AcDbLine
 10
-203.0
 20
-233.1428616148
 30
0.0
 11
-203.0
 21
-225.0428616148
 31
0.0
  0
LINE
  5
444
330
1F
100
AcDbEntity
  8
0
  6
Continuous
 62
     7
370
    25
100
AcDbLine
 10
-96.0
 20
-275.6428616148
 30
0.0
 11
-203.0
 21
-275.6428616148
 31
0.0
  0
LINE
  5
445
330
1F
100
AcDbEntity
  8
0
  6
Continuous
 62
     7
370
    25
100
AcDbLine
 10
-96.25
 20
-234.6428616148
 30
0.0
 11
-96.25
 21
-223.5428616148
 31
0.0
  0
LINE
  5
446
330
1F
100
AcDbEntity
  8
0
  6
Continuous
 62
     7
370
    25
100
AcDbLine
 10
-96.25
 20
-279.7428616148
 30
0.0
 11
-96.25
 21
-268.6428616148
 31
0.0
  0
LINE
  5
447
330
1F
100
AcDbEntity
  8
0
  6
Continuous
 62
     7
370
    25
100
AcDbLine
 10
-96.25
 20
-279.7428616148
 30
0.0
 11
-101.5
 21
-279.7428616148
 31
0.0
  0
LINE
  5
448
330
1F
100
AcDbEntity
  8
0
  6
Continuous
 62
     7
370
    25
100
AcDbLine
 10
-101.5
 20
-279.7428616148
 30
0.0
 11
-101.5
 21
-223.5428616148
 31
0.0
  0
LINE
  5
449
330
1F
100
AcDbEntity
  8
0
  6
Continuous
 62
     7
370
    25
100
AcDbLine
 10
-90.5
 20
-225.5428616148
 30
0.0
 11
-203.0
 21
-225.5428616148
 31
0.0
  0
LINE
  5
44A
330
1F
100
AcDbEntity
  8
0
  6
Continuous
 62
     7
370
    25
100
AcDbLine
 10
-192.0
 20
-223.5428616148
 30
0.0
 11
-201.5
 21
-223.5428616148
 31
0.0
  0
LINE
  5
44B
330
1F
100
AcDbEntity
  8
0
  6
Continuous
 62
     7
370
    25
100
AcDbLine
 10
-192.0
 20
-223.5428616148
 30
0.0
 11
-192.0
 21
-279.7428616148
 31
0.0
  0
LINE
  5
44C
330
1F
100
AcDbEntity
  8
0
  6
Continuous
 62
     7
370
    25
100
AcDbLine
 10
-90.5
 20
-277.7428616148
 30
0.0
 11
-203.0
 21
-277.7428616148
 31
0.0
  0
LINE
  5
44D
330
1F
100
AcDbEntity
  8
0
  6
Continuous
 62
     7
370
    25
100
AcDbLine
 10
-203.0
 20
-278.2428616148
 30
0.0
 11
-203.0
 21
-270.1428616148
 31
0.0
  0
LINE
  5
44E
330
1F
100
AcDbEntity
  8
0
  6
Continuous
 62
     7
370
    25
100
AcDbLine
 10
-192.0
 20
-279.7428616148
 30
0.0
 11
-201.5
 21
-279.7428616148
 31
0.0
  0
LINE
  5
44F
330
1F
100
AcDbEntity
  8
0
  6
Continuous
 62
     7
370
    25
100
AcDbLine
 10
-101.5
 20
-223.7928616148
 30
0.0
 11
-192.0
 21
-223.7928616148
 31
0.0
  0
LINE
  5
450
330
1F
100
AcDbEntity
  8
0
  6
Continuous
 62
     7
370
    25
100
AcDbLine
 10
-101.5
 20
-279.4928616148
 30
0.0
 11
-192.0
 21
-279.4928616148
 31
0.0
  0
LINE
  5
451
330
1F
100
AcDbEntity
  8
0
  6
Continuous
 62
     7
370
    25
100
AcDbLine
 10
-60.5
 20
-212.1428616148
 30
0.0
 11
-69.5
 21
-212.1428616148
 31
0.0
  0
LINE
  5
452
330
1F
100
AcDbEntity
  8
0
  6
Continuous
 62
     7
370
    25
100
AcDbLine
 10
-60.5
 20
-291.1428616148
 30
0.0
 11
-69.5
 21
-291.1428616148
 31
0.0
  0
LINE
  5
453
330
1F
100
AcDbEntity
  8
0
  6
Continuous
 62
     7
370
    25
100
AcDbLine
 10
-23.7
 20
-98.5328616148
 30
0.0
 11
-22.9474044571
 21
-98.5928616203
 31
0.0
  0
LINE
  5
454
330
1F
100
AcDbEntity
  8
0
  6
Continuous
 62
     7
370
    25
100
AcDbLine
 10
-26.2
 20
-98.5328616148
 30
0.0
 11
-23.7
 21
-98.5328616148
 31
0.0
  0
LINE
  5
455
330
1F
100
AcDbEntity
  8
0
  6
Continuous
 62
     7
370
    25
100
AcDbLine
 10
-27.7
 20
-62.1328616148
 30
0.0
 11
-27.7
 21
-97.0328616148
 31
0.0
  0
LINE
  5
456
330
1F
100
AcDbEntity
  8
0
  6
Continuous
 62
     7
370
    25
100
AcDbLine
 10
-23.7
 20
-60.6328616148
 30
0.0
 11
-26.2
 21
-60.6328616148
 31
0.0
  0
LINE
  5
457
330
1F
100
AcDbEntity
  8
0
  6
Continuous
 62
     7
370
    25
100
AcDbLine
 10
-18.95
 20
-53.3828616148
 30
0.0
 11
-18.95
 21
-55.8828616148
 31
0.0
  0
LINE
  5
458
330
1F
100
AcDbEntity
  8
0
  6
Continuous
 62
     7
370
    25
100
AcDbLine
 10
17.45
 20
-51.8828616148
 30
0.0
 11
-17.45
 21
-51.8828616148
 31
0.0
  0
LINE
  5
459
330
1F
100
AcDbEntity
  8
0
  6
Continuous
 62
     7
370
    25
100
AcDbLine
 10
18.95
 20
-55.8828616148
 30
0.0
 11
18.95
 21
-53.3828616148
 31
0.0
  0
LINE
  5
45A
330
1F
100
AcDbEntity
  8
0
  6
Continuous
 62
     7
370
    25
100
AcDbLine
 10
26.2
 20
-60.6328616148
 30
0.0
 11
23.7
 21
-60.6328616148
 31
0.0
  0
LINE
  5
45B
330
1F
100
AcDbEntity
  8
0
  6
Continuous
 62
     7
370
    25
100
AcDbLine
 10
27.7
 20
-97.0328616148
 30
0.0
 11
27.7
 21
-62.1328616148
 31
0.0
  0
LINE
  5
45C
330
1F
100
AcDbEntity
  8
0
  6
Continuous
 62
     7
370
    25
100
AcDbLine
 10
23.7
 20
-98.5328616148
 30
0.0
 11
26.2
 21
-98.5328616148
 31
0.0
  0
LINE
  5
45D
330
1F
100
AcDbEntity
  8
0
  6
Continuous
 62
     7
370
    25
100
AcDbLine
 10
22.9474044571
 20
-98.5928616203
 30
0.0
 11
23.7
 21
-98.5328616148
 31
0.0
  0
LINE
  5
45E
330
1F
100
AcDbEntity
  8
0
  6
Continuous
 62
     7
370
    25
100
AcDbLine
 10
-17.45
 20
-51.8828616148
 30
0.0
 11
-17.45
 21
-51.3828616148
 31
0.0
  0
LINE
  5
45F
330
1F
100
AcDbEntity
  8
0
  6
Continuous
 62
     7
370
    25
100
AcDbLine
 10
25.2
 20
-51.3828616148
 30
0.0
 11
-25.2
 21
-51.3828616148
 31
0.0
  0
LINE
  5
460
330
1F
100
AcDbEntity
  8
0
  6
Continuous
 62
     7
370
    25
100
AcDbLine
 10
17.45
 20
-51.8828616148
 30
0.0
 11
17.45
 21
-51.3828616148
 31
0.0
  0
LINE
  5
461
330
1F
100
AcDbEntity
  8
0
  6
Continuous
 62
     7
370
    25
100
AcDbLine
 10
-18.95
 20
-55.8828616148
 30
0.0
 11
-19.45
 21
-55.8828616148
 31
0.0
  0
LINE
  5
462
330
1F
100
AcDbEntity
  8
0
  6
Continuous
 62
     7
370
    25
100
AcDbLine
 10
-19.45
 20
-53.3828616148
 30
0.0
 11
-19.45
 21
-55.8828616148
 31
0.0
  0
LINE
  5
463
330
1F
100
AcDbEntity
  8
0
  6
Continuous
 62
     7
370
    25
100
AcDbLine
 10
-18.95
 20
-53.3828616148
 30
0.0
 11
-19.45
 21
-53.3828616148
 31
0.0
  0
LINE
  5
464
330
1F
100
AcDbEntity
  8
0
  6
Continuous
 62
     7
370
    25
100
AcDbLine
 10
18.95
 20
-53.3828616148
 30
0.0
 11
19.45
 21
-53.3828616148
 31
0.0
  0
LINE
  5
465
330
1F
100
AcDbEntity
  8
0
  6
Continuous
 62
     7
370
    25
100
AcDbLine
 10
19.45
 20
-55.8828616148
 30
0.0
 11
19.45
 21
-53.3828616148
 31
0.0
  0
LINE
  5
466
330
1F
100
AcDbEntity
  8
0
  6
Continuous
 62
     7
370
    25
100
AcDbLine
 10
18.95
 20
-55.8828616148
 30
0.0
 11
19.45
 21
-55.8828616148
 31
0.0
  0
LINE
  5
467
330
1F
100
AcDbEntity
  8
0
  6
Continuous
 62
     7
370
    25
100
AcDbLine
 10
23.7
 20
-60.6328616148
 30
0.0
 11
23.7
 21
-60.1328616148
 31
0.0
  0
LINE
  5
468
330
1F
100
AcDbEntity
  8
0
  6
Continuous
 62
     7
370
    25
100
AcDbLine
 10
-23.7
 20
-60.6328616148
 30
0.0
 11
-23.7
 21
-60.1328616148
 31
0.0
  0
LINE
  5
469
330
1F
100
AcDbEntity
  8
0
  6
Continuous
 62
     7
370
    25
100
AcDbLine
 10
26.2
 20
-60.1328616148
 30
0.0
 11
23.7
 21
-60.1328616148
 31
0.0
  0
LINE
  5
46A
330
1F
100
AcDbEntity
  8
0
  6
Continuous
 62
     7
370
    25
100
AcDbLine
 10
26.2
 20
-60.6328616148
 30
0.0
 11
26.2
 21
-60.1328616148
 31
0.0
  0
LINE
  5
46B
330
1F
100
AcDbEntity
  8
0
  6
Continuous
 62
     7
370
    25
100
AcDbLine
 10
-26.2
 20
-60.6328616148
 30
0.0
 11
-26.2
 21
-60.1328616148
 31
0.0
  0
LINE
  5
46C
330
1F
100
AcDbEntity
  8
0
  6
Continuous
 62
     7
370
    25
100
AcDbLine
 10
-23.7
 20
-60.1328616148
 30
0.0
 11
-26.2
 21
-60.1328616148
 31
0.0
  0
LINE
  5
46D
330
1F
100
AcDbEntity
  8
0
  6
Continuous
 62
     7
370
    25
100
AcDbLine
 10
-27.7
 20
-62.1328616148
 30
0.0
 11
-28.2
 21
-62.1328616148
 31
0.0
  0
LINE
  5
46E
330
1F
100
AcDbEntity
  8
0
  6
Continuous
 62
     7
370
    25
100
AcDbLine
 10
27.7
 20
-62.1328616148
 30
0.0
 11
28.2
 21
-62.1328616148
 31
0.0
  0
LINE
  5
46F
330
1F
100
AcDbEntity
  8
0
  6
Continuous
 62
     7
370
    25
100
AcDbLine
 10
28.2
 20
-98.8787477394
 30
0.0
 11
28.2
 21
-54.3828616148
 31
0.0
  0
LINE
  5
470
330
1F
100
AcDbEntity
  8
0
  6
Continuous
 62
     7
370
    25
100
AcDbLine
 10
27.7
 20
-97.0328616148
 30
0.0
 11
28.2
 21
-97.0328616148
 31
0.0
  0
LINE
  5
471
330
1F
100
AcDbEntity
  8
0
  6
Continuous
 62
     7
370
    25
100
AcDbLine
 10
-27.7
 20
-97.0328616148
 30
0.0
 11
-28.2
 21
-97.0328616148
 31
0.0
  0
LINE
  5
472
330
1F
100
AcDbEntity
  8
0
  6
Continuous
 62
     7
370
    25
100
AcDbLine
 10
-28.2
 20
-54.3828616148
 30
0.0
 11
-28.2
 21
-98.8786898178
 31
0.0
  0
LINE
  5
473
330
1F
100
AcDbEntity
  8
0
  6
Continuous
 62
     7
370
    25
100
AcDbLine
 10
-85.5
 20
-232.6928616203
 30
0.0
 11
-85.0
 21
-232.1928616203
 31
0.0
  0
LINE
  5
474
330
1F
100
AcDbEntity
  8
0
  6
Continuous
 62
     7
370
    25
100
AcDbLine
 10
-38.0
 20
-234.1928616203
 30
0.0
 11
-85.5
 21
-234.1928616203
 31
0.0
  0
LINE
  5
475
330
1F
100
AcDbEntity
  8
0
  6
Continuous
 62
     7
370
    25
100
AcDbLine
 10
-38.0
 20
-269.0928616203
 30
0.0
 11
-85.5
 21
-269.0928616203
 31
0.0
  0
LINE
  5
476
330
1F
100
AcDbEntity
  8
0
  6
Continuous
 62
     7
370
    25
100
AcDbLine
 10
-38.0
 20
-232.1928616203
 30
0.0
 11
-85.0
 21
-232.1928616203
 31
0.0
  0
LINE
  5
477
330
1F
100
AcDbEntity
  8
0
  6
Continuous
 62
     7
370
    25
100
AcDbLine
 10
-38.0
 20
-271.0928616203
 30
0.0
 11
-85.0
 21
-271.0928616203
 31
0.0
  0
LINE
  5
478
330
1F
100
AcDbEntity
  8
0
  6
Continuous
 62
     7
370
    25
100
AcDbLine
 10
-85.5
 20
-270.5928616203
 30
0.0
 11
-85.0
 21
-271.0928616203
 31
0.0
  0
LINE
  5
479
330
1F
100
AcDbEntity
  8
0
  6
Continuous
 62
     7
370
    25
100
AcDbLine
 10
-38.0
 20
-227.9428616203
 30
0.0
 11
-85.5
 21
-227.9428616203
 31
0.0
  0
LINE
  5
47A
330
1F
100
AcDbEntity
  8
0
  6
Continuous
 62
     7
370
    25
100
AcDbLine
 10
-38.0
 20
-275.3428616203
 30
0.0
 11
-85.5
 21
-275.3428616203
 31
0.0
  0
LINE
  5
47B
330
1F
100
AcDbEntity
  8
0
  6
Continuous
 62
     7
370
    25
100
AcDbLine
 10
-38.0
 20
-223.4428616203
 30
0.0
 11
-85.0
 21
-223.4428616203
 31
0.0
  0
LINE
  5
47C
330
1F
100
AcDbEntity
  8
0
  6
Continuous
 62
     7
370
    25
100
AcDbLine
 10
-85.5
 20
-223.9428616203
 30
0.0
 11
-85.0
 21
-223.4428616203
 31
0.0
  0
LINE
  5
47D
330
1F
100
AcDbEntity
  8
0
  6
Continuous
 62
     7
370
    25
100
AcDbLine
 10
-38.0
 20
-225.4428616203
 30
0.0
 11
-85.5
 21
-225.4428616203
 31
0.0
  0
LINE
  5
47E
330
1F
100
AcDbEntity
  8
0
  6
Continuous
 62
     7
370
    25
100
AcDbLine
 10
-85.0
 20
-279.8428616203
 30
0.0
 11
-85.0
 21
-223.4428616203
 31
0.0
  0
LINE
  5
47F
330
1F
100
AcDbEntity
  8
0
  6
Continuous
 62
     7
370
    25
100
AcDbLine
 10
-38.0
 20
-279.8428616203
 30
0.0
 11
-85.0
 21
-279.8428616203
 31
0.0
  0
LINE
  5
480
330
1F
100
AcDbEntity
  8
0
  6
Continuous
 62
     7
370
    25
100
AcDbLine
 10
-38.0
 20
-277.8428616203
 30
0.0
 11
-85.5
 21
-277.8428616203
 31
0.0
  0
LINE
  5
481
330
1F
100
AcDbEntity
  8
0
  6
Continuous
 62
     7
370
    25
100
AcDbLine
 10
-85.5
 20
-279.3428616203
 30
0.0
 11
-85.0
 21
-279.8428616203
 31
0.0
  0
LINE
  5
482
330
1F
100
AcDbEntity
  8
0
  6
Continuous
 62
     7
370
    25
100
AcDbLine
 10
-85.5
 20
-279.3428616203
 30
0.0
 11
-85.5
 21
-223.9428616203
 31
0.0
  0
LINE
  5
483
330
1F
100
AcDbEntity
  8
0
  6
Continuous
 62
     7
370
    25
100
AcDbLine
 10
43.0
 20
-358.1928616203
 30
0.0
 11
-40.1818181818
 21
-358.1928616203
 31
0.0
  0
LINE
  5
484
330
1F
100
AcDbEntity
  8
0
  6
Continuous
 62
     7
370
    25
100
AcDbLine
 10
43.0
 20
-836.4928616203
 30
0.0
 11
36.0
 21
-836.4928616203
 31
0.0
  0
LINE
  5
485
330
1F
100
AcDbEntity
  8
0
  6
Continuous
 62
     7
370
    25
100
AcDbLine
 10
-38.5
 20
-394.8564979839
 30
0.0
 11
-38.5
 21
-456.1292252567
 31
0.0
  0
LINE
  5
486
330
1F
100
AcDbEntity
  8
0
  6
Continuous
 62
     7
370
    25
100
AcDbLine
 10
-35.5
 20
-394.8564979839
 30
0.0
 11
-35.5
 21
-456.1292252567
 31
0.0
  0
LINE
  5
487
330
1F
100
AcDbEntity
  8
0
  6
Continuous
 62
     7
370
    25
100
AcDbLine
 10
-40.0
 20
-805.8564979839
 30
0.0
 11
-40.0
 21
-867.1292252567
 31
0.0
  0
LINE
  5
488
330
1F
100
AcDbEntity
  8
0
  6
Continuous
 62
     7
370
    25
100
AcDbLine
 10
-37.0
 20
-805.8564979839
 30
0.0
 11
-37.0
 21
-867.1292252567
 31
0.0
  0
LINE
  5
489
330
1F
100
AcDbEntity
  8
0
  6
Continuous
 62
     7
370
    25
100
AcDbLine
 10
-31.0
 20
-268.1186379304
 30
0.0
 11
21.5
 21
-268.1186379304
 31
0.0
  0
LINE
  5
48A
330
1F
100
AcDbEntity
  8
0
  6
Continuous
 62
     7
370
    25
100
AcDbLine
 10
-31.0
 20
-327.1428616203
 30
0.0
 11
-31.0
 21
-251.6678616203
 31
0.0
  0
LINE
  5
48B
330
1F
100
AcDbEntity
  8
0
  6
Continuous
 62
     7
370
    25
100
AcDbLine
 10
-31.0
 20
-251.6678616203
 30
0.0
 11
21.5
 21
-251.6678616203
 31
0.0
  0
LINE
  5
48C
330
1F
100
AcDbEntity
  8
0
  6
Continuous
 62
     7
370
    25
100
AcDbLine
 10
31.0
 20
-285.0503108556
 30
0.0
 11
28.5
 21
-285.0503108556
 31
0.0
  0
LINE
  5
48D
330
1F
100
AcDbEntity
  8
0
  6
Continuous
 62
     7
370
    25
100
AcDbLine
 10
31.0
 20
-327.1428616203
 30
0.0
 11
31.0
 21
-283.736486545
 31
0.0
  0
LINE
  5
48E
330
1F
100
AcDbEntity
  8
0
  6
Continuous
 62
     7
370
    25
100
AcDbLine
 10
9.759610648
 20
-325.1428616203
 30
0.0
 11
31.0
 21
-325.1428616203
 31
0.0
  0
LINE
  5
48F
330
1F
100
AcDbEntity
  8
0
  6
Continuous
 62
     7
370
    25
100
AcDbLine
 10
-31.0
 20
-325.1428616203
 30
0.0
 11
-9.759610648
 21
-325.1428616203
 31
0.0
  0
LINE
  5
490
330
1F
100
AcDbEntity
  8
0
  6
Continuous
 62
     7
370
    25
100
AcDbLine
 10
28.5
 20
-282.0521715357
 30
0.0
 11
21.5
 21
-282.0521715357
 31
0.0
  0
LINE
  5
491
330
1F
100
AcDbEntity
  8
0
  6
Continuous
 62
     7
370
    25
100
AcDbLine
 10
28.5
 20
-218.235412385
 30
0.0
 11
28.5
 21
-285.0503108556
 31
0.0
  0
LINE
  5
492
330
1F
100
AcDbEntity
  8
0
  6
Continuous
 62
     7
370
    25
100
AcDbLine
 10
-28.5
 20
-251.6178616203
 30
0.0
 11
-28.5
 21
-251.6678616203
 31
0.0
  0
LINE
  5
493
330
1F
100
AcDbEntity
  8
0
  6
Continuous
 62
     7
370
    25
100
AcDbLine
 10
-27.5
 20
-251.6678616203
 30
0.0
 11
-27.5
 21
-251.6178616203
 31
0.0
  0
LINE
  5
494
330
1F
100
AcDbEntity
  8
0
  6
Continuous
 62
     7
370
    25
100
AcDbLine
 10
95.5
 20
-244.6428616203
 30
0.0
 11
95.5
 21
-260.9428616203
 31
0.0
  0
LINE
  5
495
330
1F
100
AcDbEntity
  8
0
  6
Continuous
 62
     7
370
    25
100
AcDbLine
 10
87.5
 20
-258.1812100356
 30
0.0
 11
95.5
 21
-258.1812100356
 31
0.0
  0
LINE
  5
496
330
1F
100
AcDbEntity
  8
0
  6
Continuous
 62
     7
370
    25
100
AcDbLine
 10
95.5
 20
-260.9428616203
 30
0.0
 11
87.5
 21
-260.9428616203
 31
0.0
  0
LINE
  5
497
330
1F
100
AcDbEntity
  8
0
  6
Continuous
 62
     7
370
    25
100
AcDbLine
 10
-85.5
 20
-279.1428616148
 30
0.0
 11
-90.5
 21
-279.1428616148
 31
0.0
  0
LINE
  5
498
330
1F
100
AcDbEntity
  8
0
  6
Continuous
 62
     7
370
    25
100
AcDbLine
 10
-90.5
 20
-280.1428616148
 30
0.0
 11
-90.5
 21
-223.1428616148
 31
0.0
  0
LINE
  5
499
330
1F
100
AcDbEntity
  8
0
  6
Continuous
 62
     7
370
    25
100
AcDbLine
 10
-90.5
 20
-224.1428616148
 30
0.0
 11
-85.5
 21
-224.1428616148
 31
0.0
  0
LINE
  5
49A
330
1F
100
AcDbEntity
  8
0
  6
Continuous
 62
     7
370
    25
100
AcDbLine
 10
-70.5
 20
-223.4428616203
 30
0.0
 11
-70.5
 21
-223.1428616148
 31
0.0
  0
LINE
  5
49B
330
1F
100
AcDbEntity
  8
0
  6
Continuous
 62
     7
370
    25
100
AcDbLine
 10
-70.5
 20
-280.1428616148
 30
0.0
 11
-70.5
 21
-279.8428616203
 31
0.0
  0
LINE
  5
49C
330
1F
100
AcDbEntity
  8
0
  6
Continuous
 62
     7
370
    25
100
AcDbLine
 10
27.5
 20
-51.0828616148
 30
0.0
 11
-27.5
 21
-51.0828616148
 31
0.0
  0
LINE
  5
49D
330
1F
100
AcDbEntity
  8
0
  6
Continuous
 62
     7
370
    25
100
AcDbLine
 10
28.5
 20
-107.0828616148
 30
0.0
 11
28.5
 21
-52.0828616148
 31
0.0
  0
LINE
  5
49E
330
1F
100
AcDbEntity
  8
0
  6
Continuous
 62
     7
370
    25
100
AcDbLine
 10
28.5
 20
-107.0828616148
 30
0.0
 11
28.4999704541
 21
-107.0828911608
 31
0.0
  0
LINE
  5
49F
330
1F
100
AcDbEntity
  8
0
  6
Continuous
 62
     7
370
    25
100
AcDbLine
 10
-28.5
 20
-52.0828616148
 30
0.0
 11
-28.5
 21
-99.5851745533
 31
0.0
  0
LINE
  5
4A0
330
1F
100
AcDbEntity
  8
0
  6
Continuous
 62
     7
370
    25
100
AcDbLine
 10
-28.5
 20
-52.0828616148
 30
0.0
 11
-27.5
 21
-51.0828616148
 31
0.0
  0
LINE
  5
4A1
330
1F
100
AcDbEntity
  8
0
  6
Continuous
 62
     7
370
    25
100
AcDbLine
 10
27.5
 20
-51.0828616148
 30
0.0
 11
28.5
 21
-52.0828616148
 31
0.0
  0
LINE
  5
4A2
330
1F
100
AcDbEntity
  8
0
  6
Continuous
 62
     7
370
    25
100
AcDbLine
 10
-27.45
 20
-808.1402056842
 30
0.0
 11
-27.45
 21
-788.1402056842
 31
0.0
  0
LINE
  5
4A3
330
1F
100
AcDbEntity
  8
0
  6
Continuous
 62
     7
370
    25
100
AcDbLine
 10
27.55
 20
-788.1402056842
 30
0.0
 11
27.55
 21
-808.1402056842
 31
0.0
  0
LINE
  5
4A4
330
1F
100
AcDbEntity
  8
0
  6
Continuous
 62
     7
370
    25
100
AcDbLine
 10
-28.45
 20
-788.1402056842
 30
0.0
 11
28.55
 21
-788.1402056842
 31
0.0
  0
LINE
  5
4A5
330
1F
100
AcDbEntity
  8
0
  6
Continuous
 62
     7
370
    25
100
AcDbLine
 10
28.55
 20
-808.1402056842
 30
0.0
 11
-28.45
 21
-808.1402056842
 31
0.0
  0
LINE
  5
4A6
330
1F
100
AcDbEntity
  8
0
  6
Continuous
 62
     7
370
    25
100
AcDbLine
 10
-27.45
 20
-861.1402056842
 30
0.0
 11
-27.45
 21
-850.1402056842
 31
0.0
  0
LINE
  5
4A7
330
1F
100
AcDbEntity
  8
0
  6
Continuous
 62
     7
370
    25
100
AcDbLine
 10
28.55
 20
-861.1402056842
 30
0.0
 11
-28.45
 21
-861.1402056842
 31
0.0
  0
LINE
  5
4A8
330
1F
100
AcDbEntity
  8
0
  6
Continuous
 62
     7
370
    25
100
AcDbLine
 10
27.55
 20
-850.1402056842
 30
0.0
 11
27.55
 21
-861.1402056842
 31
0.0
  0
LINE
  5
4A9
330
1F
100
AcDbEntity
  8
0
  6
Continuous
 62
     7
370
    25
100
AcDbLine
 10
28.55
 20
-861.1402056842
 30
0.0
 11
28.55
 21
-850.1402056842
 31
0.0
  0
LINE
  5
4AA
330
1F
100
AcDbEntity
  8
0
  6
Continuous
 62
     7
370
    25
100
AcDbLine
 10
21.05
 20
-864.1402056842
 30
0.0
 11
-20.95
 21
-864.1402056842
 31
0.0
  0
LINE
  5
4AB
330
1F
100
AcDbEntity
  8
0
  6
Continuous
 62
     7
370
    25
100
AcDbLine
 10
-2.45
 20
-885.1402056842
 30
0.0
 11
-2.45
 21
-866.1402056842
 31
0.0
  0
LINE
  5
4AC
330
1F
100
AcDbEntity
  8
0
  6
Continuous
 62
     7
370
    25
100
AcDbLine
 10
-2.45
 20
-866.1402056842
 30
0.0
 11
2.55
 21
-866.1402056842
 31
0.0
  0
LINE
  5
4AD
330
1F
100
AcDbEntity
  8
0
  6
Continuous
 62
     7
370
    25
100
AcDbLine
 10
2.55
 20
-885.1402056842
 30
0.0
 11
2.55
 21
-866.1402056842
 31
0.0
  0
LINE
  5
4AE
330
1F
100
AcDbEntity
  8
0
  6
Continuous
 62
     7
370
    25
100
AcDbLine
 10
-6.95
 20
-885.1402056842
 30
0.0
 11
7.05
 21
-885.1402056842
 31
0.0
  0
LINE
  5
4AF
330
1F
100
AcDbEntity
  8
0
  6
Continuous
 62
     7
370
    25
100
AcDbLine
 10
-34.5
 20
-415.4928616203
 30
0.0
 11
-27.5
 21
-415.4928616203
 31
0.0
  0
LINE
  5
4B0
330
1F
100
AcDbEntity
  8
0
  6
Continuous
 62
     7
370
    25
100
AcDbLine
 10
-34.5
 20
-404.8928616203
 30
0.0
 11
-34.5
 21
-446.0928616203
 31
0.0
  0
LINE
  5
4B1
330
1F
100
AcDbEntity
  8
0
  6
Continuous
 62
     7
370
    25
100
AcDbLine
 10
-34.5
 20
-435.4928616203
 30
0.0
 11
-27.5
 21
-435.4928616203
 31
0.0
  0
LINE
  5
4B2
330
1F
100
AcDbEntity
  8
0
  6
Continuous
 62
     7
370
    25
100
AcDbLine
 10
16.6199811226
 20
-783.1402056842
 30
0.0
 11
16.6199811226
 21
-734.1402056842
 31
0.0
  0
LINE
  5
4B3
330
1F
100
AcDbEntity
  8
0
  6
Continuous
 62
     7
370
    25
100
AcDbLine
 10
-16.5200188774
 20
-734.1402056842
 30
0.0
 11
-16.5200188774
 21
-783.1402056842
 31
0.0
  0
LINE
  5
4B4
330
1F
100
AcDbEntity
  8
0
  6
Continuous
 62
     7
370
    25
100
AcDbLine
 10
-18.5200188774
 20
-783.1402056842
 30
0.0
 11
-18.5200188774
 21
-735.1402056842
 31
0.0
  0
LINE
  5
4B5
330
1F
100
AcDbEntity
  8
0
  6
Continuous
 62
     7
370
    25
100
AcDbLine
 10
18.6199811226
 20
-735.1402056842
 30
0.0
 11
18.6199811226
 21
-783.1402056842
 31
0.0
  0
LINE
  5
4B6
330
1F
100
AcDbEntity
  8
0
  6
Continuous
 62
     7
370
    25
100
AcDbLine
 10
28.5499811226
 20
-783.1402056842
 30
0.0
 11
16.6199811226
 21
-783.1402056842
 31
0.0
  0
LINE
  5
4B7
330
1F
100
AcDbEntity
  8
0
  6
Continuous
 62
     7
370
    25
100
AcDbLine
 10
25.5499811226
 20
-783.1402056842
 30
0.0
 11
25.5499811226
 21
-788.1402056842
 31
0.0
  0
LINE
  5
4B8
330
1F
100
AcDbEntity
  8
0
  6
Continuous
 62
     7
370
    25
100
AcDbLine
 10
-11.8198264569
 20
-784.6402056842
 30
0.0
 11
-11.8198264569
 21
-788.1402056842
 31
0.0
  0
LINE
  5
4B9
330
1F
100
AcDbEntity
  8
0
  6
Continuous
 62
     7
370
    25
100
AcDbLine
 10
-18.5210259642
 20
-784.6402056842
 30
0.0
 11
-11.8198264569
 21
-784.6402056842
 31
0.0
  0
LINE
  5
4BA
330
1F
100
AcDbEntity
  8
0
  6
Continuous
 62
     7
370
    25
100
AcDbLine
 10
-18.5210259642
 20
-788.1402056842
 30
0.0
 11
-18.5210259642
 21
-784.6402056842
 31
0.0
  0
LINE
  5
4BB
330
1F
100
AcDbEntity
  8
0
  6
Continuous
 62
     7
370
    25
100
AcDbLine
 10
-25.4500188774
 20
-783.1402056842
 30
0.0
 11
-25.4500188774
 21
-788.1402056842
 31
0.0
  0
LINE
  5
4BC
330
1F
100
AcDbEntity
  8
0
  6
Continuous
 62
     7
370
    25
100
AcDbLine
 10
-16.5200188774
 20
-783.1402056842
 30
0.0
 11
-28.4500188774
 21
-783.1402056842
 31
0.0
  0
LINE
  5
4BD
330
1F
100
AcDbEntity
  8
0
  6
Continuous
 62
     7
370
    25
100
AcDbLine
 10
28.5499811226
 20
-735.1402056842
 30
0.0
 11
28.5499811226
 21
-788.1402056842
 31
0.0
  0
LINE
  5
4BE
330
1F
100
AcDbEntity
  8
0
  6
Continuous
 62
     7
370
    25
100
AcDbLine
 10
-18.5200187261
 20
-788.1402056842
 30
0.0
 11
-18.5200187261
 21
-784.6402056842
 31
0.0
  0
LINE
  5
4BF
330
1F
100
AcDbEntity
  8
0
  6
Continuous
 62
     7
370
    25
100
AcDbLine
 10
-11.8200188829
 20
-788.1402056842
 30
0.0
 11
-11.8200188829
 21
-784.6402056842
 31
0.0
  0
LINE
  5
4C0
330
1F
100
AcDbEntity
  8
0
  6
Continuous
 62
     7
370
    25
100
AcDbLine
 10
-28.4500188774
 20
-788.1402056842
 30
0.0
 11
-28.4500188774
 21
-735.1402056842
 31
0.0
  0
LINE
  5
4C1
330
1F
100
AcDbEntity
  8
0
  6
Continuous
 62
     7
370
    25
100
AcDbLine
 10
-23.5200188774
 20
-783.1402056842
 30
0.0
 11
-23.5200188774
 21
-734.1402056842
 31
0.0
  0
LINE
  5
4C2
330
1F
100
AcDbEntity
  8
0
  6
Continuous
 62
     7
370
    25
100
AcDbLine
 10
23.6199811226
 20
-783.1402056842
 30
0.0
 11
23.6199811226
 21
-734.1402056842
 31
0.0
  0
LINE
  5
4C3
330
1F
100
AcDbEntity
  8
0
  6
Continuous
 62
     7
370
    25
100
AcDbLine
 10
-26.4500188774
 20
-783.1402056842
 30
0.0
 11
-26.4500188774
 21
-734.1402056842
 31
0.0
  0
LINE
  5
4C4
330
1F
100
AcDbEntity
  8
0
  6
Continuous
 62
     7
370
    25
100
AcDbLine
 10
27.5499811226
 20
-734.1402056842
 30
0.0
 11
-27.4500188774
 21
-734.1402056842
 31
0.0
  0
LINE
  5
4C5
330
1F
100
AcDbEntity
  8
0
  6
Continuous
 62
     7
370
    25
100
AcDbLine
 10
26.5499811226
 20
-783.1402056842
 30
0.0
 11
26.5499811226
 21
-734.1402056842
 31
0.0
  0
LINE
  5
4C6
330
1F
100
AcDbEntity
  8
0
  6
Continuous
 62
     7
370
    25
100
AcDbLine
 10
-28.4500188774
 20
-735.1402056842
 30
0.0
 11
28.5499811226
 21
-735.1402056842
 31
0.0
  0
LINE
  5
4C7
330
1F
100
AcDbEntity
  8
0
  6
Continuous
 62
     7
370
    25
100
AcDbLine
 10
16.5699704541
 20
-147.5928616203
 30
0.0
 11
16.5699704541
 21
-98.5928616203
 31
0.0
  0
LINE
  5
4C8
330
1F
100
AcDbEntity
  8
0
  6
Continuous
 62
     7
370
    25
100
AcDbLine
 10
28.4999704541
 20
-147.5928616203
 30
0.0
 11
16.5699704541
 21
-147.5928616203
 31
0.0
  0
LINE
  5
4C9
330
1F
100
AcDbEntity
  8
0
  6
Continuous
 62
     7
370
    25
100
AcDbLine
 10
25.4999704541
 20
-147.5928616203
 30
0.0
 11
25.4999704541
 21
-152.5928616203
 31
0.0
  0
LINE
  5
4CA
330
1F
100
AcDbEntity
  8
0
  6
Continuous
 62
     7
370
    25
100
AcDbLine
 10
-11.8700295459
 20
-149.0928616203
 30
0.0
 11
-11.8700295459
 21
-151.5928616203
 31
0.0
  0
LINE
  5
4CB
330
1F
100
AcDbEntity
  8
0
  6
Continuous
 62
     7
370
    25
100
AcDbLine
 10
-18.5700295459
 20
-149.0928616203
 30
0.0
 11
-11.8700295459
 21
-149.0928616203
 31
0.0
  0
LINE
  5
4CC
330
1F
100
AcDbEntity
  8
0
  6
Continuous
 62
     7
370
    25
100
AcDbLine
 10
-18.5700295459
 20
-151.5928616203
 30
0.0
 11
-18.5700295459
 21
-149.0928616203
 31
0.0
  0
LINE
  5
4CD
330
1F
100
AcDbEntity
  8
0
  6
Continuous
 62
     7
370
    25
100
AcDbLine
 10
-25.5000295459
 20
-147.5928616203
 30
0.0
 11
-25.5000295459
 21
-152.5928616203
 31
0.0
  0
LINE
  5
4CE
330
1F
100
AcDbEntity
  8
0
  6
Continuous
 62
     7
370
    25
100
AcDbLine
 10
-16.5700295459
 20
-147.5928616203
 30
0.0
 11
-28.5000295459
 21
-147.5928616203
 31
0.0
  0
LINE
  5
4CF
330
1F
100
AcDbEntity
  8
0
  6
Continuous
 62
     7
370
    25
100
AcDbLine
 10
-16.5700295459
 20
-98.5928616203
 30
0.0
 11
-16.5700295459
 21
-147.5928616203
 31
0.0
  0
LINE
  5
4D0
330
1F
100
AcDbEntity
  8
0
  6
Continuous
 62
     7
370
    25
100
AcDbLine
 10
-28.5000295459
 20
-99.5928616203
 30
0.0
 11
28.4999704541
 21
-99.5928616203
 31
0.0
  0
LINE
  5
4D1
330
1F
100
AcDbEntity
  8
0
  6
Continuous
 62
     7
370
    25
100
AcDbLine
 10
-18.5700295459
 20
-147.5928616203
 30
0.0
 11
-18.5700295459
 21
-99.5928616203
 31
0.0
  0
LINE
  5
4D2
330
1F
100
AcDbEntity
  8
0
  6
Continuous
 62
     7
370
    25
100
AcDbLine
 10
18.5699704541
 20
-99.5928616203
 30
0.0
 11
18.5699704541
 21
-147.5928616203
 31
0.0
  0
LINE
  5
4D3
330
1F
100
AcDbEntity
  8
0
  6
Continuous
 62
     7
370
    25
100
AcDbLine
 10
-28.5000295459
 20
-152.5928616203
 30
0.0
 11
-28.5000295459
 21
-99.5928616203
 31
0.0
  0
LINE
  5
4D4
330
1F
100
AcDbEntity
  8
0
  6
Continuous
 62
     7
370
    25
100
AcDbLine
 10
28.4999704541
 20
-152.5928616203
 30
0.0
 11
28.4999704541
 21
-99.5928616203
 31
0.0
  0
LINE
  5
4D5
330
1F
100
AcDbEntity
  8
0
  6
Continuous
 62
     7
370
    25
100
AcDbLine
 10
23.5699704541
 20
-147.5928616203
 30
0.0
 11
23.5699704541
 21
-98.5928616203
 31
0.0
  0
LINE
  5
4D6
330
1F
100
AcDbEntity
  8
0
  6
Continuous
 62
     7
370
    25
100
AcDbLine
 10
-23.5700295459
 20
-98.5928616203
 30
0.0
 11
-23.5700295459
 21
-147.5928616203
 31
0.0
  0
LINE
  5
4D7
330
1F
100
AcDbEntity
  8
0
  6
Continuous
 62
     7
370
    25
100
AcDbLine
 10
26.4999704541
 20
-147.5928616203
 30
0.0
 11
26.4999704541
 21
-98.5928616203
 31
0.0
  0
LINE
  5
4D8
330
1F
100
AcDbEntity
  8
0
  6
Continuous
 62
     7
370
    25
100
AcDbLine
 10
-26.5000295459
 20
-98.5928616203
 30
0.0
 11
-26.5000295459
 21
-147.5928616203
 31
0.0
  0
LINE
  5
4D9
330
1F
100
AcDbEntity
  8
0
  6
Continuous
 62
     7
370
    25
100
AcDbLine
 10
27.4999704541
 20
-98.5928616203
 30
0.0
 11
-27.5000295459
 21
-98.5928616203
 31
0.0
  0
LINE
  5
4DA
330
1F
100
AcDbEntity
  8
0
  6
Continuous
 62
     7
370
    25
100
AcDbLine
 10
-19.5623819372
 20
-466.4428616203
 30
0.0
 11
-19.5623819372
 21
-358.1928616203
 31
0.0
  0
LINE
  5
4DB
330
1F
100
AcDbEntity
  8
0
  6
Continuous
 62
     7
370
    25
100
AcDbLine
 10
36.0
 20
-466.4428616203
 30
0.0
 11
-27.5
 21
-466.4428616203
 31
0.0
  0
LINE
  5
4DC
330
1F
100
AcDbEntity
  8
0
  6
Continuous
 62
     7
370
    25
100
AcDbLine
 10
-27.5
 20
-466.4428616203
 30
0.0
 11
-27.5
 21
-358.1928616203
 31
0.0
  0
LINE
  5
4DD
330
1F
100
AcDbEntity
  8
0
  6
Continuous
 62
     7
370
    25
100
AcDbLine
 10
-60.45
 20
-283.0931702686
 30
0.0
 11
-60.45
 21
-280.1428616148
 31
0.0
  0
LINE
  5
4DE
330
1F
100
AcDbEntity
  8
0
  6
Continuous
 62
     7
370
    25
100
AcDbLine
 10
-60.45
 20
-223.1428616148
 30
0.0
 11
-60.45
 21
-220.1925529611
 31
0.0
  0
LINE
  5
4DF
330
1F
100
AcDbEntity
  8
0
  6
Continuous
 62
     7
370
    25
100
AcDbLine
 10
-69.5
 20
-212.0928616148
 30
0.0
 11
-60.5
 21
-212.0928616148
 31
0.0
  0
LINE
  5
4E0
330
1F
100
AcDbEntity
  8
0
  6
Continuous
 62
     7
370
    25
100
AcDbLine
 10
-69.5
 20
-212.0928616148
 30
0.0
 11
-69.5
 21
-190.6428616148
 31
0.0
  0
LINE
  5
4E1
330
1F
100
AcDbEntity
  8
0
  6
Continuous
 62
     7
370
    25
100
AcDbLine
 10
-38.0
 20
-297.6428616148
 30
0.0
 11
-69.5
 21
-297.6428616148
 31
0.0
  0
LINE
  5
4E2
330
1F
100
AcDbEntity
  8
0
  6
Continuous
 62
     7
370
    25
100
AcDbLine
 10
-69.5
 20
-297.6428616148
 30
0.0
 11
-69.5
 21
-291.1928616148
 31
0.0
  0
LINE
  5
4E3
330
1F
100
AcDbEntity
  8
0
  6
Continuous
 62
     7
370
    25
100
AcDbLine
 10
-69.5
 20
-291.1928616148
 30
0.0
 11
-60.5
 21
-291.1928616148
 31
0.0
  0
LINE
  5
4E4
330
1F
100
AcDbEntity
  8
0
  6
Continuous
 62
     7
370
    25
100
AcDbLine
 10
79.5
 20
-304.1428616203
 30
0.0
 11
79.5
 21
-199.1428616203
 31
0.0
  0
LINE
  5
4E5
330
1F
100
AcDbEntity
  8
0
  6
Continuous
 62
     7
370
    25
100
AcDbLine
 10
23.7
 20
-98.5328616148
 30
0.0
 11
23.7
 21
-98.5928616203
 31
0.0
  0
LINE
  5
4E6
330
1F
100
AcDbEntity
  8
0
  6
Continuous
 62
     7
370
    25
100
AcDbLine
 10
-23.7
 20
-98.5328616148
 30
0.0
 11
-23.7
 21
-98.5928616203
 31
0.0
  0
LINE
  5
4E7
330
1F
100
AcDbEntity
  8
0
  6
Continuous
 62
     7
370
    25
100
AcDbLine
 10
-26.2
 20
-98.5328616148
 30
0.0
 11
-26.2
 21
-98.5928616203
 31
0.0
  0
LINE
  5
4E8
330
1F
100
AcDbEntity
  8
0
  6
Continuous
 62
     7
370
    25
100
AcDbLine
 10
26.2
 20
-98.5328616148
 30
0.0
 11
26.2
 21
-98.5928616203
 31
0.0
  0
ARC
  5
4E9
330
1F
100
AcDbEntity
  8
0
  6
Continuous
 62
     7
370
    25
100
AcDbCircle
 10
-32.4
 20
-327.2428616203
 30
0.0
 40
0.1000000000004206
100
AcDbArc
 50
90.0000000001
 51
149.9999999992
  0
ARC
  5
4EA
330
1F
100
AcDbEntity
  8
0
  6
Continuous
 62
     7
370
    25
100
AcDbCircle
 10
32.4
 20
-327.2428616203
 30
0.0
 40
0.1000000000004206
100
AcDbArc
 50
30.0000000008
 51
89.9999999999
  0
ARC
  5
4EB
330
1F
100
AcDbEntity
  8
0
  6
Continuous
 62
     7
370
    25
100
AcDbCircle
 10
32.4016912901
 20
-176.0428616203
 30
0.0
 40
0.1000000000002501
100
AcDbArc
 50
270.0
 51
330.0000000006
  0
ARC
  5
4EC
330
1F
100
AcDbEntity
  8
0
  6
Continuous
 62
     7
370
    25
100
AcDbCircle
 10
-32.3983087099
 20
-176.0428616203
 30
0.0
 40
0.1000000000000227
100
AcDbArc
 50
209.9999999994
 51
270.0
  0
ARC
  5
4ED
330
1F
100
AcDbEntity
  8
0
  6
Continuous
 62
     7
370
    25
100
AcDbCircle
 10
-51.9714443682
 20
-218.9788837684
 30
0.0
 40
6.46579276744306
100
AcDbArc
 50
137.6135023558
 51
185.5992089409
  0
ARC
  5
4EE
330
1F
100
AcDbEntity
  8
0
  6
Continuous
 62
     7
370
    25
100
AcDbCircle
 10
-9.4683542319
 20
-158.0412033364
 30
0.0
 40
27.81710443566356
100
AcDbArc
 50
313.727404218
 51
319.4027020908
  0
ARC
  5
4EF
330
1F
100
AcDbEntity
  8
0
  6
Continuous
 62
     7
370
    25
100
AcDbCircle
 10
-20.7589927876
 20
-183.1503932655
 30
0.0
 40
11.69793987220419
100
AcDbArc
 50
30.3902489136
 51
36.8011598073
  0
ARC
  5
4F0
330
1F
100
AcDbEntity
  8
0
  6
Continuous
 62
     7
370
    25
100
AcDbCircle
 10
-25.4140349955
 20
-109.9968966103
 30
0.0
 40
3.9999999999989
100
AcDbArc
 50
141.6274773452
 51
219.5113434086
  0
ARC
  5
4F1
330
1F
100
AcDbEntity
  8
0
  6
Continuous
 62
     7
370
    25
100
AcDbCircle
 10
25.4140349955
 20
-109.9968966103
 30
0.0
 40
3.999999999998841
100
AcDbArc
 50
320.4873262305
 51
38.3725226548
  0
ARC
  5
4F2
330
1F
100
AcDbEntity
  8
0
  6
Continuous
 62
     7
370
    25
100
AcDbCircle
 10
0.0
 20
-228.1428616148
 30
0.0
 40
82.0000000000052
100
AcDbArc
 50
4.4035317938
 51
14.1843787261
  0
ARC
  5
4F3
330
1F
100
AcDbEntity
  8
0
  6
Continuous
 62
     7
370
    25
100
AcDbCircle
 10
-0.0000000001
 20
-228.1428616148
 30
0.0
 40
81.99999999994841
100
AcDbArc
 50
163.5467885568
 51
176.5041863676
  0
ARC
  5
4F4
330
1F
100
AcDbEntity
  8
0
  6
Continuous
 62
     7
370
    25
100
AcDbCircle
 10
-30.05
 20
-45.6759833842
 30
0.0
 40
1.500000000000185
100
AcDbArc
 50
0.0
 51
163.5467885568
  0
ARC
  5
4F5
330
1F
100
AcDbEntity
  8
0
  6
Continuous
 62
     7
370
    25
100
AcDbCircle
 10
30.05
 20
-45.6759833842
 30
0.0
 40
1.5
100
AcDbArc
 50
16.4532114432
 51
180.0
  0
ARC
  5
4F6
330
1F
100
AcDbEntity
  8
0
  6
Continuous
 62
     7
370
    25
100
AcDbCircle
 10
0.0
 20
-69.5828616148
 30
0.0
 40
21.04999999999212
100
AcDbArc
 50
61.5051330921
 51
118.4948669079
  0
ARC
  5
4F7
330
1F
100
AcDbEntity
  8
0
  6
Continuous
 62
     7
370
    25
100
AcDbCircle
 10
-23.57
 20
-46.0128616148
 30
0.0
 40
2.512500000000006
100
AcDbArc
 50
0.0
 51
180.0
  0
ARC
  5
4F8
330
1F
100
AcDbEntity
  8
0
  6
Continuous
 62
     7
370
    25
100
AcDbCircle
 10
23.57
 20
-46.0128616148
 30
0.0
 40
2.512500000000006
100
AcDbArc
 50
0.0
 51
180.0
  0
ARC
  5
4F9
330
1F
100
AcDbEntity
  8
0
  6
Continuous
 62
     7
370
    25
100
AcDbCircle
 10
23.8896149038
 20
-46.0003616148
 30
0.0
 40
7.499999999999936
100
AcDbArc
 50
16.4532114432
 51
90.0
  0
ARC
  5
4FA
330
1F
100
AcDbEntity
  8
0
  6
Continuous
 62
     7
370
    25
100
AcDbCircle
 10
-23.8896149038
 20
-46.0003616148
 30
0.0
 40
7.499999999999996
100
AcDbArc
 50
90.0
 51
163.5467885568
  0
ARC
  5
4FB
330
1F
100
AcDbEntity
  8
0
  6
Continuous
 62
     7
370
    25
100
AcDbCircle
 10
-96.25
 20
-270.8928616148
 30
0.0
 40
0.2500000000000142
100
AcDbArc
 50
0.0
 51
90.0
  0
ARC
  5
4FC
330
1F
100
AcDbEntity
  8
0
  6
Continuous
 62
     7
370
    25
100
AcDbCircle
 10
-96.25
 20
-232.3928616148
 30
0.0
 40
0.25
100
AcDbArc
 50
270.0
 51
0.0
  0
ARC
  5
4FD
330
1F
100
AcDbEntity
  8
0
  6
Continuous
 62
     7
370
    25
100
AcDbCircle
 10
-201.5
 20
-234.1428616148
 30
0.0
 40
1.499999999999744
100
AcDbArc
 50
90.0
 51
150.0735651334
  0
ARC
  5
4FE
330
1F
100
AcDbEntity
  8
0
  6
Continuous
 62
     7
370
    25
100
AcDbCircle
 10
-201.5
 20
-269.1428616148
 30
0.0
 40
1.50000000000001
100
AcDbArc
 50
209.9264348666
 51
270.0
  0
ARC
  5
4FF
330
1F
100
AcDbEntity
  8
0
  6
Continuous
 62
     7
370
    25
100
AcDbCircle
 10
-201.5
 20
-225.0428616148
 30
0.0
 40
1.500000000000028
100
AcDbArc
 50
90.0
 51
180.0
  0
ARC
  5
500
330
1F
100
AcDbEntity
  8
0
  6
Continuous
 62
     7
370
    25
100
AcDbCircle
 10
-201.5
 20
-278.2428616148
 30
0.0
 40
1.500000000000114
100
AcDbArc
 50
180.0
 51
270.0
  0
ARC
  5
501
330
1F
100
AcDbEntity
  8
0
  6
Continuous
 62
     7
370
    25
100
AcDbCircle
 10
-26.2
 20
-97.0328616148
 30
0.0
 40
1.499999999999886
100
AcDbArc
 50
180.0
 51
270.0
  0
ARC
  5
502
330
1F
100
AcDbEntity
  8
0
  6
Continuous
 62
     7
370
    25
100
AcDbCircle
 10
-26.2
 20
-62.1328616148
 30
0.0
 40
1.50000000000005
100
AcDbArc
 50
90.0
 51
180.0
  0
ARC
  5
503
330
1F
100
AcDbEntity
  8
0
  6
Continuous
 62
     7
370
    25
100
AcDbCircle
 10
-23.7
 20
-55.8828616148
 30
0.0
 40
4.749999999999954
100
AcDbArc
 50
270.0
 51
0.0
  0
ARC
  5
504
330
1F
100
AcDbEntity
  8
0
  6
Continuous
 62
     7
370
    25
100
AcDbCircle
 10
-17.45
 20
-53.3828616148
 30
0.0
 40
1.499999999999929
100
AcDbArc
 50
90.0
 51
180.0
  0
ARC
  5
505
330
1F
100
AcDbEntity
  8
0
  6
Continuous
 62
     7
370
    25
100
AcDbCircle
 10
17.45
 20
-53.3828616148
 30
0.0
 40
1.500000000000018
100
AcDbArc
 50
0.0
 51
90.0
  0
ARC
  5
506
330
1F
100
AcDbEntity
  8
0
  6
Continuous
 62
     7
370
    25
100
AcDbCircle
 10
23.7
 20
-55.8828616148
 30
0.0
 40
4.750000000000078
100
AcDbArc
 50
180.0
 51
270.0
  0
ARC
  5
507
330
1F
100
AcDbEntity
  8
0
  6
Continuous
 62
     7
370
    25
100
AcDbCircle
 10
26.2
 20
-62.1328616148
 30
0.0
 40
1.499999999999964
100
AcDbArc
 50
0.0
 51
90.0
  0
ARC
  5
508
330
1F
100
AcDbEntity
  8
0
  6
Continuous
 62
     7
370
    25
100
AcDbCircle
 10
26.2
 20
-97.0328616148
 30
0.0
 40
1.499999999999972
100
AcDbArc
 50
270.0
 51
0.0
  0
ARC
  5
509
330
1F
100
AcDbEntity
  8
0
  6
Continuous
 62
     7
370
    25
100
AcDbCircle
 10
-17.45
 20
-53.3828616148
 30
0.0
 40
1.999999999999929
100
AcDbArc
 50
90.0
 51
180.0
  0
ARC
  5
50A
330
1F
100
AcDbEntity
  8
0
  6
Continuous
 62
     7
370
    25
100
AcDbCircle
 10
17.45
 20
-53.3828616148
 30
0.0
 40
2.000000000000007
100
AcDbArc
 50
0.0
 51
90.0
  0
ARC
  5
50B
330
1F
100
AcDbEntity
  8
0
  6
Continuous
 62
     7
370
    25
100
AcDbCircle
 10
23.7
 20
-55.8828616148
 30
0.0
 40
4.250000000000242
100
AcDbArc
 50
180.0
 51
270.0
  0
ARC
  5
50C
330
1F
100
AcDbEntity
  8
0
  6
Continuous
 62
     7
370
    25
100
AcDbCircle
 10
-23.7
 20
-55.8828616148
 30
0.0
 40
4.250000000000036
100
AcDbArc
 50
270.0
 51
0.0
  0
ARC
  5
50D
330
1F
100
AcDbEntity
  8
0
  6
Continuous
 62
     7
370
    25
100
AcDbCircle
 10
-26.2
 20
-62.1328616148
 30
0.0
 40
1.999999999999929
100
AcDbArc
 50
90.0
 51
180.0
  0
ARC
  5
50E
330
1F
100
AcDbEntity
  8
0
  6
Continuous
 62
     7
370
    25
100
AcDbCircle
 10
26.2
 20
-62.1328616148
 30
0.0
 40
1.999999999999989
100
AcDbArc
 50
0.0
 51
90.0
  0
ARC
  5
50F
330
1F
100
AcDbEntity
  8
0
  6
Continuous
 62
     7
370
    25
100
AcDbCircle
 10
26.2
 20
-97.0328616148
 30
0.0
 40
1.999999999999581
100
AcDbArc
 50
308.7394243482
 51
0.0
  0
ARC
  5
510
330
1F
100
AcDbEntity
  8
0
  6
Continuous
 62
     7
370
    25
100
AcDbCircle
 10
-26.2
 20
-97.0328616148
 30
0.0
 40
2.000000000000124
100
AcDbArc
 50
180.0
 51
231.2605756518
  0
ARC
  5
511
330
1F
100
AcDbEntity
  8
0
  6
Continuous
 62
     7
370
    25
100
AcDbCircle
 10
25.2
 20
-54.3828616148
 30
0.0
 40
2.999999999999922
100
AcDbArc
 50
360.0
 51
90.0
  0
ARC
  5
512
330
1F
100
AcDbEntity
  8
0
  6
Continuous
 62
     7
370
    25
100
AcDbCircle
 10
-25.2
 20
-54.3828616148
 30
0.0
 40
2.999999999999986
100
AcDbArc
 50
90.0
 51
180.0
  0
ARC
  5
513
330
1F
100
AcDbEntity
  8
0
  6
Continuous
 62
     7
370
    25
100
AcDbCircle
 10
-9.4683542319
 20
-345.2445199042
 30
0.0
 40
27.81710443567094
100
AcDbArc
 50
40.5972979092
 51
46.272595782
  0
ARC
  5
514
330
1F
100
AcDbEntity
  8
0
  6
Continuous
 62
     7
370
    25
100
AcDbCircle
 10
9.4683542319
 20
-345.2445199042
 30
0.0
 40
27.81710443569431
100
AcDbArc
 50
133.727404218
 51
139.4027020908
  0
ARC
  5
515
330
1F
100
AcDbEntity
  8
0
  6
Continuous
 62
     7
370
    25
100
AcDbCircle
 10
-17.5200188774
 20
-735.1402056842
 30
0.0
 40
1.000000000000227
100
AcDbArc
 50
90.0
 51
180.0
  0
ARC
  5
516
330
1F
100
AcDbEntity
  8
0
  6
Continuous
 62
     7
370
    25
100
AcDbCircle
 10
17.6199811226
 20
-735.1402056842
 30
0.0
 40
1.000000000000028
100
AcDbArc
 50
0.0
 51
90.0
  0
ARC
  5
517
330
1F
100
AcDbEntity
  8
0
  6
Continuous
 62
     7
370
    25
100
AcDbCircle
 10
-27.4500188774
 20
-735.1402056842
 30
0.0
 40
1.000000000000039
100
AcDbArc
 50
90.0
 51
180.0
  0
ARC
  5
518
330
1F
100
AcDbEntity
  8
0
  6
Continuous
 62
     7
370
    25
100
AcDbCircle
 10
27.5499811226
 20
-735.1402056842
 30
0.0
 40
1.000000000000032
100
AcDbArc
 50
0.0
 51
90.0
  0
ARC
  5
519
330
1F
100
AcDbEntity
  8
0
  6
Continuous
 62
     7
370
    25
100
AcDbCircle
 10
-17.5700295459
 20
-99.5928616203
 30
0.0
 40
1.0
100
AcDbArc
 50
90.0
 51
180.0
  0
ARC
  5
51A
330
1F
100
AcDbEntity
  8
0
  6
Continuous
 62
     7
370
    25
100
AcDbCircle
 10
17.5699704541
 20
-99.5928616203
 30
0.0
 40
1.000000000000156
100
AcDbArc
 50
0.0
 51
90.0
  0
ARC
  5
51B
330
1F
100
AcDbEntity
  8
0
  6
Continuous
 62
     7
370
    25
100
AcDbCircle
 10
27.4999704541
 20
-99.5928616203
 30
0.0
 40
0.9999999999999574
100
AcDbArc
 50
360.0
 51
90.0
  0
ARC
  5
51C
330
1F
100
AcDbEntity
  8
0
  6
Continuous
 62
     7
370
    25
100
AcDbCircle
 10
-27.5000295459
 20
-99.5928616203
 30
0.0
 40
0.9999999999999858
100
AcDbArc
 50
90.0
 51
180.0
  0
ARC
  5
51D
330
1F
100
AcDbEntity
  8
0
  6
Continuous
 62
     7
370
    25
100
AcDbCircle
 10
-60.5
 20
-287.1428616148
 30
0.0
 40
4.050000000000013
100
AcDbArc
 50
270.0
 51
89.2926267275
  0
ARC
  5
51E
330
1F
100
AcDbEntity
  8
0
  6
Continuous
 62
     7
370
    25
100
AcDbCircle
 10
-60.5
 20
-216.1428616148
 30
0.0
 40
4.049999999999986
100
AcDbArc
 50
270.7073732726
 51
90.0
  0
ARC
  5
51F
330
1F
100
AcDbEntity
  8
0
  6
Continuous
 62
     7
370
    25
100
AcDbCircle
 10
-64.5
 20
-190.6428616148
 30
0.0
 40
5.000000000000139
100
AcDbArc
 50
135.4288247063
 51
180.0
  0
ARC
  5
520
330
1F
100
AcDbEntity
  8
0
  6
Continuous
 62
     7
370
    25
100
AcDbCircle
 10
0.0
 20
-254.1845282815
 30
0.0
 40
95.54166666666256
100
AcDbArc
 50
44.5711752937
 51
66.9142934196
  0
ARC
  5
521
330
1F
100
AcDbEntity
  8
0
  6
Continuous
 62
     7
370
    25
100
AcDbCircle
 10
0.0
 20
-254.1845282815
 30
0.0
 40
95.54166666666086
100
AcDbArc
 50
113.0710765579
 51
135.4288247063
  0
ARC
  5
522
330
1F
100
AcDbEntity
  8
0
  6
Continuous
 62
     7
370
    25
100
AcDbCircle
 10
64.5
 20
-190.6428616148
 30
0.0
 40
4.999999999999988
100
AcDbArc
 50
0.0
 51
44.5711752937
  0
ARC
  5
523
330
1F
100
AcDbEntity
  8
0
  6
Continuous
 62
     7
370
    25
100
AcDbCircle
 10
-33.1848531303
 20
-221.9924126295
 30
0.0
 40
5.612500000000144
100
AcDbArc
 50
149.0852448553
 51
191.8283150802
  0
ENDSEC
  0
SECTION
  2
OBJECTS
  0
DICTIONARY
  5
C
330
0
100
AcDbDictionary
281
     1
  3
ACAD_GROUP
350
D
  3
ACAD_LAYOUT
350
1A
  3
ACAD_MLINESTYLE
350
17
  3
ACAD_PLOTSETTINGS
350
19
  3
ACAD_PLOTSTYLENAME
350
E
  3
ACAD_SCALELIST
350
47
  3
DWGPROPS
350
524
  0
DICTIONARY
  5
D
102
{ACAD_REACTORS
330
C
102
}
330
C
100
AcDbDictionary
281
     1
  0
DICTIONARY
  5
1A
102
{ACAD_REACTORS
330
C
102
}
330
C
100
AcDbDictionary
281
     1
  3
Layout1
350
1E
  3
Layout2
350
26
  3
Model
350
22
  0
DICTIONARY
  5
17
102
{ACAD_REACTORS
330
C
102
}
330
C
100
AcDbDictionary
281
     1
  3
Standard
350
18
  0
DICTIONARY
  5
19
102
{ACAD_REACTORS
330
C
102
}
330
C
100
AcDbDictionary
281
     1
  0
ACDBDICTIONARYWDFLT
  5
E
102
{ACAD_REACTORS
330
C
102
}
330
C
100
AcDbDictionary
281
     1
  3
Normal
350
F
100
AcDbDictionaryWithDefault
340
F
  0
DICTIONARY
  5
47
102
{ACAD_REACTORS
330
C
102
}
330
C
100
AcDbDictionary
281
     1
  3
A0
350
48
  3
A1
350
49
  3
A2
350
4A
  3
A3
350
4B
  3
A4
350
4C
  3
A5
350
4D
  3
A6
350
4E
  3
A7
350
4F
  3
A8
350
50
  3
A9
350
51
  3
B0
350
52
  3
B1
350
53
  3
B2
350
54
  3
B3
350
55
  3
B4
350
56
  3
B5
350
57
  3
B6
350
58
  0
XRECORD
  5
524
102
{ACAD_REACTORS
330
C
102
}
330
C
100
AcDbXrecord
280
     1
  1
DWGPROPS COOKIE
  2

  3

  4

  6

  7

  8
lenovo
  9

300
=
301
=
302
=
303
=
304
=
305
=
306
=
307
=
308
=
309
=
 40
0.0
 41
2460729.109560857
 42
2460729.109591586
  1

 90
        0
  0
LAYOUT
  5
1E
102
{ACAD_REACTORS
330
1A
102
}
330
1A
100
AcDbPlotSettings
  1

  2
none_device
  4

  6

 40
0.0
 41
0.0
 42
0.0
 43
0.0
 44
0.0
 45
0.0
 46
0.0
 47
0.0
 48
0.0
 49
0.0
140
0.0
141
0.0
142
1.0
143
1.0
 70
   688
 72
     1
 73
     0
 74
     5
  7

 75
    16
147
1.0
148
0.0
149
0.0
100
AcDbLayout
  1
Layout1
 70
     1
 71
     1
 10
0.0
 20
0.0
 11
420.0
 21
297.0
 12
0.0
 22
0.0
 32
0.0
 14
1.0000000000E+20
 24
1.0000000000E+20
 34
1.0000000000E+20
 15
-1.0000000000E+20
 25
-1.0000000000E+20
 35
-1.0000000000E+20
146
0.0
 13
0.0
 23
0.0
 33
0.0
 16
1.0
 26
0.0
 36
0.0
 17
0.0
 27
1.0
 37
0.0
 76
     0
330
1B
  0
LAYOUT
  5
26
102
{ACAD_REACTORS
330
1A
102
}
330
1A
100
AcDbPlotSettings
  1

  2
none_device
  4

  6

 40
0.0
 41
0.0
 42
0.0
 43
0.0
 44
0.0
 45
0.0
 46
0.0
 47
0.0
 48
0.0
 49
0.0
140
0.0
141
0.0
142
1.0
143
1.0
 70
   688
 72
     1
 73
     0
 74
     5
  7

 75
    16
147
1.0
148
0.0
149
0.0
100
AcDbLayout
  1
Layout2
 70
     1
 71
     2
 10
0.0
 20
0.0
 11
0.0
 21
0.0
 12
0.0
 22
0.0
 32
0.0
 14
0.0
 24
0.0
 34
0.0
 15
0.0
 25
0.0
 35
0.0
146
0.0
 13
0.0
 23
0.0
 33
0.0
 16
1.0
 26
0.0
 36
0.0
 17
0.0
 27
1.0
 37
0.0
 76
     0
330
23
  0
LAYOUT
  5
22
102
{ACAD_REACTORS
330
1A
102
}
330
1A
100
AcDbPlotSettings
  1

  2
none_device
  4
ANSI_A_(11.00_x_8.50_Inches)
  6

 40
6.35
 41
19.05
 42
6.35000508
 43
19.05000254
 44
279.4
 45
215.9
 46
147.361416345
 47
205.4902229428
 48
0.0
 49
0.0
140
0.0
141
0.0
142
0.0099392913
143
1.0
 70
  1696
 72
     0
 73
     0
 74
     0
  7

 75
     0
147
0.0179189148
148
-1300.4909072572
149
0.0
100
AcDbLayout
  1
Model
 70
     1
 71
     0
 10
0.0
 20
0.0
 11
420.0
 21
297.0
 12
0.0
 22
0.0
 32
0.0
 14
-206.5
 24
-885.1402056842
 34
0.0
 15
95.5
 25
-38.5003616148
 35
0.0
146
0.0
 13
0.0
 23
0.0
 33
0.0
 16
1.0
 26
0.0
 36
0.0
 17
0.0
 27
1.0
 37
0.0
 76
     0
330
1F
331
29
  0
MLINESTYLE
  5
18
102
{ACAD_REACTORS
330
17
102
}
330
17
100
AcDbMlineStyle
  2
Standard
 70
     0
  3

 62
   256
 51
90.0
 52
90.0
 71
     2
 49
0.5
 62
   256
  6
BYLAYER
 49
-0.5
 62
   256
  6
BYLAYER
  0
ACDBPLACEHOLDER
  5
F
102
{ACAD_REACTORS
330
E
102
}
330
E
  0
SCALE
  5
48
102
{ACAD_REACTORS
330
47
102
}
330
47
100
AcDbScale
 70
     0
300
1:1
140
1.0
141
1.0
290
     1
  0
SCALE
  5
49
102
{ACAD_REACTORS
330
47
102
}
330
47
100
AcDbScale
 70
     0
300
1:2
140
1.0
141
2.0
290
     0
  0
SCALE
  5
4A
102
{ACAD_REACTORS
330
47
102
}
330
47
100
AcDbScale
 70
     0
300
1:4
140
1.0
141
4.0
290
     0
  0
SCALE
  5
4B
102
{ACAD_REACTORS
330
47
102
}
330
47
100
AcDbScale
 70
     0
300
1:5
140
1.0
141
5.0
290
     0
  0
SCALE
  5
4C
102
{ACAD_REACTORS
330
47
102
}
330
47
100
AcDbScale
 70
     0
300
1:8
140
1.0
141
8.0
290
     0
  0
SCALE
  5
4D
102
{ACAD_REACTORS
330
47
102
}
330
47
100
AcDbScale
 70
     0
300
1:10
140
1.0
141
10.0
290
     0
  0
SCALE
  5
4E
102
{ACAD_REACTORS
330
47
102
}
330
47
100
AcDbScale
 70
     0
300
1:16
140
1.0
141
16.0
290
     0
  0
SCALE
  5
4F
102
{ACAD_REACTORS
330
47
102
}
330
47
100
AcDbScale
 70
     0
300
1:20
140
1.0
141
20.0
290
     0
  0
SCALE
  5
50
102
{ACAD_REACTORS
330
47
102
}
330
47
100
AcDbScale
 70
     0
300
1:30
140
1.0
141
30.0
290
     0
  0
SCALE
  5
51
102
{ACAD_REACTORS
330
47
102
}
330
47
100
AcDbScale
 70
     0
300
1:40
140
1.0
141
40.0
290
     0
  0
SCALE
  5
52
102
{ACAD_REACTORS
330
47
102
}
330
47
100
AcDbScale
 70
     0
300
1:50
140
1.0
141
50.0
290
     0
  0
SCALE
  5
53
102
{ACAD_REACTORS
330
47
102
}
330
47
100
AcDbScale
 70
     0
300
1:100
140
1.0
141
100.0
290
     0
  0
SCALE
  5
54
102
{ACAD_REACTORS
330
47
102
}
330
47
100
AcDbScale
 70
     0
300
2:1
140
2.0
141
1.0
290
     0
  0
SCALE
  5
55
102
{ACAD_REACTORS
330
47
102
}
330
47
100
AcDbScale
 70
     0
300
4:1
140
4.0
141
1.0
290
     0
  0
SCALE
  5
56
102
{ACAD_REACTORS
330
47
102
}
330
47
100
AcDbScale
 70
     0
300
8:1
140
8.0
141
1.0
290
     0
  0
SCALE
  5
57
102
{ACAD_REACTORS
330
47
102
}
330
47
100
AcDbScale
 70
     0
300
10:1
140
10.0
141
1.0
290
     0
  0
SCALE
  5
58
102
{ACAD_REACTORS
330
47
102
}
330
47
100
AcDbScale
 70
     0
300
100:1
140
100.0
141
1.0
290
     0
  0
ENDSEC
  0
EOF
