  0
SECTION
  2
HEADER
  9
$ACADVER
  1
AC1015
  9
$ACADMAINTVER
 70
     6
  9
$DWGCODEPAGE
  3
ANSI_1252
  9
$INSBASE
 10
0.0
 20
0.0
 30
0.0
  9
$EXTMIN
 10
-261.0002096888
 20
-703.1223301453
 30
0.0
  9
$EXTMAX
 10
40.5997903112
 20
190.3776698547
 30
0.0
  9
$LIMMIN
 10
0.0
 20
0.0
  9
$LIMMAX
 10
420.0
 20
297.0
  9
$ORTHOMODE
 70
     0
  9
$REGENMODE
 70
     1
  9
$FILLMODE
 70
     1
  9
$QTEXTMODE
 70
     0
  9
$MIRRTEXT
 70
     1
  9
$LTSCALE
 40
1.0
  9
$ATTMODE
 70
     1
  9
$TEXTSIZE
 40
3.5
  9
$TRACEWID
 40
1.0
  9
$TEXTSTYLE
  7
Standard
  9
$CLAYER
  8
0
  9
$CELTYPE
  6
ByLayer
  9
$CECOLOR
 62
   256
  9
$CELTSCALE
 40
1.0
  9
$DISPSILH
 70
     0
  9
$DIMSCALE
 40
1.0
  9
$DIMASZ
 40
3.556
  9
$DIMEXO
 40
0.0
  9
$DIMDLI
 40
3.75
  9
$DIMRND
 40
0.0
  9
$DIMDLE
 40
0.0
  9
$DIMEXE
 40
1.0
  9
$DIMTP
 40
0.0
  9
$DIMTM
 40
0.0
  9
$DIMTXT
 40
3.5
  9
$DIMCEN
 40
2.5
  9
$DIMTSZ
 40
0.0
  9
$DIMTOL
 70
     0
  9
$DIMLIM
 70
     0
  9
$DIMTIH
 70
     1
  9
$DIMTOH
 70
     1
  9
$DIMSE1
 70
     0
  9
$DIMSE2
 70
     0
  9
$DIMTAD
 70
     1
  9
$DIMZIN
 70
     1
  9
$DIMBLK
  1

  9
$DIMASO
 70
     1
  9
$DIMSHO
 70
     1
  9
$DIMPOST
  1

  9
$DIMAPOST
  1

  9
$DIMALT
 70
     0
  9
$DIMALTD
 70
     3
  9
$DIMALTF
 40
0.0393700787
  9
$DIMLFAC
 40
1.0
  9
$DIMTOFL
 70
     1
  9
$DIMTVP
 40
0.0
  9
$DIMTIX
 70
     0
  9
$DIMSOXD
 70
     0
  9
$DIMSAH
 70
     0
  9
$DIMBLK1
  1

  9
$DIMBLK2
  1

  9
$DIMSTYLE
  2
ISO-25
  9
$DIMCLRD
 70
     0
  9
$DIMCLRE
 70
     0
  9
$DIMCLRT
 70
     0
  9
$DIMTFAC
 40
1.0
  9
$DIMGAP
 40
1.524
  9
$DIMJUST
 70
     0
  9
$DIMSD1
 70
     0
  9
$DIMSD2
 70
     0
  9
$DIMTOLJ
 70
     0
  9
$DIMTZIN
 70
     1
  9
$DIMALTZ
 70
     0
  9
$DIMALTTZ
 70
     0
  9
$DIMUPT
 70
     0
  9
$DIMDEC
 70
     2
  9
$DIMTDEC
 70
     2
  9
$DIMALTU
 70
     2
  9
$DIMALTTD
 70
     3
  9
$DIMTXSTY
  7
Standard
  9
$DIMAUNIT
 70
     0
  9
$DIMADEC
 70
     2
  9
$DIMALTRND
 40
0.0
  9
$DIMAZIN
 70
     0
  9
$DIMDSEP
 70
    44
  9
$DIMATFIT
 70
     3
  9
$DIMFRAC
 70
     0
  9
$DIMLDRBLK
  1

  9
$DIMLUNIT
 70
     2
  9
$DIMLWD
 70
    -2
  9
$DIMLWE
 70
    -2
  9
$DIMTMOVE
 70
     0
  9
$LUNITS
 70
     2
  9
$LUPREC
 70
     2
  9
$SKETCHINC
 40
1.0
  9
$FILLETRAD
 40
0.0
  9
$AUNITS
 70
     0
  9
$AUPREC
 70
     2
  9
$MENU
  1
.
  9
$ELEVATION
 40
0.0
  9
$PELEVATION
 40
0.0
  9
$THICKNESS
 40
0.0
  9
$LIMCHECK
 70
     0
  9
$CHAMFERA
 40
0.0
  9
$CHAMFERB
 40
0.0
  9
$CHAMFERC
 40
0.0
  9
$CHAMFERD
 40
0.0
  9
$SKPOLY
 70
     0
  9
$TDCREATE
 40
2460743.972682315
  9
$TDUCREATE
 40
2460743.681015648
  9
$TDUPDATE
 40
2460743.972726065
  9
$TDUUPDATE
 40
2460743.681059398
  9
$TDINDWG
 40
0.0000000116
  9
$TDUSRTIMER
 40
0.0000000116
  9
$USRTIMER
 70
     1
  9
$ANGBASE
 50
0.0
  9
$ANGDIR
 70
     0
  9
$PDMODE
 70
     0
  9
$PDSIZE
 40
-1.0
  9
$PLINEWID
 40
0.0
  9
$SPLFRAME
 70
     0
  9
$SPLINETYPE
 70
     6
  9
$SPLINESEGS
 70
     8
  9
$HANDSEED
  5
74D
  9
$SURFTAB1
 70
     6
  9
$SURFTAB2
 70
     6
  9
$SURFTYPE
 70
     6
  9
$SURFU
 70
     6
  9
$SURFV
 70
     6
  9
$UCSBASE
  2

  9
$UCSNAME
  2

  9
$UCSORG
 10
0.0
 20
0.0
 30
0.0
  9
$UCSXDIR
 10
1.0
 20
0.0
 30
0.0
  9
$UCSYDIR
 10
0.0
 20
1.0
 30
0.0
  9
$UCSORTHOREF
  2

  9
$UCSORTHOVIEW
 70
     0
  9
$UCSORGTOP
 10
0.0
 20
0.0
 30
0.0
  9
$UCSORGBOTTOM
 10
0.0
 20
0.0
 30
0.0
  9
$UCSORGLEFT
 10
0.0
 20
0.0
 30
0.0
  9
$UCSORGRIGHT
 10
0.0
 20
0.0
 30
0.0
  9
$UCSORGFRONT
 10
0.0
 20
0.0
 30
0.0
  9
$UCSORGBACK
 10
0.0
 20
0.0
 30
0.0
  9
$PUCSBASE
  2

  9
$PUCSNAME
  2

  9
$PUCSORG
 10
0.0
 20
0.0
 30
0.0
  9
$PUCSXDIR
 10
1.0
 20
0.0
 30
0.0
  9
$PUCSYDIR
 10
0.0
 20
1.0
 30
0.0
  9
$PUCSORTHOREF
  2

  9
$PUCSORTHOVIEW
 70
     0
  9
$PUCSORGTOP
 10
0.0
 20
0.0
 30
0.0
  9
$PUCSORGBOTTOM
 10
0.0
 20
0.0
 30
0.0
  9
$PUCSORGLEFT
 10
0.0
 20
0.0
 30
0.0
  9
$PUCSORGRIGHT
 10
0.0
 20
0.0
 30
0.0
  9
$PUCSORGFRONT
 10
0.0
 20
0.0
 30
0.0
  9
$PUCSORGBACK
 10
0.0
 20
0.0
 30
0.0
  9
$USERI1
 70
     0
  9
$USERI2
 70
     0
  9
$USERI3
 70
     0
  9
$USERI4
 70
     0
  9
$USERI5
 70
     0
  9
$USERR1
 40
0.0
  9
$USERR2
 40
0.0
  9
$USERR3
 40
0.0
  9
$USERR4
 40
0.0
  9
$USERR5
 40
0.0
  9
$WORLDVIEW
 70
     1
  9
$SHADEDGE
 70
     3
  9
$SHADEDIF
 70
    70
  9
$TILEMODE
 70
     1
  9
$MAXACTVP
 70
    64
  9
$PINSBASE
 10
0.0
 20
0.0
 30
0.0
  9
$PLIMCHECK
 70
     0
  9
$PEXTMIN
 10
1.0000000000E+20
 20
1.0000000000E+20
 30
1.0000000000E+20
  9
$PEXTMAX
 10
-1.0000000000E+20
 20
-1.0000000000E+20
 30
-1.0000000000E+20
  9
$PLIMMIN
 10
0.0
 20
0.0
  9
$PLIMMAX
 10
420.0
 20
297.0
  9
$UNITMODE
 70
     0
  9
$VISRETAIN
 70
     1
  9
$PLINEGEN
 70
     0
  9
$PSLTSCALE
 70
     1
  9
$TREEDEPTH
 70
  3020
  9
$CMLSTYLE
  2
Standard
  9
$CMLJUST
 70
     0
  9
$CMLSCALE
 40
20.0
  9
$PROXYGRAPHICS
 70
     1
  9
$MEASUREMENT
 70
     1
  9
$CELWEIGHT
370
    -1
  9
$ENDCAPS
280
     0
  9
$JOINSTYLE
280
     0
  9
$LWDISPLAY
290
     1
  9
$INSUNITS
 70
     4
  9
$HYPERLINKBASE
  1

  9
$STYLESHEET
  1

  9
$XEDIT
290
     1
  9
$CEPSNTYPE
380
     0
  9
$PSTYLEMODE
290
     1
  9
$FINGERPRINTGUID
  2
{0741fc06-da17-4f35-8655-2e3d38127326}
  9
$VERSIONGUID
  2
{FAEB1C32-E019-11D5-929B-00C0DF256EC4}
  9
$EXTNAMES
290
     1
  9
$PSVPSCALE
 40
0.0
  9
$OLESTARTUP
290
     0
  0
ENDSEC
  0
SECTION
  2
CLASSES
  0
CLASS
  1
ACDBDICTIONARYWDFLT
  2
AcDbDictionaryWithDefault
  3
ObjectDBX Classes
 90
        0
280
     0
281
     0
  0
CLASS
  1
VISUALSTYLE
  2
AcDbVisualStyle
  3
ObjectDBX Classes
 90
     4095
280
     0
281
     0
  0
CLASS
  1
MATERIAL
  2
AcDbMaterial
  3
ObjectDBX Classes
 90
     1153
280
     0
281
     0
  0
CLASS
  1
SCALE
  2
AcDbScale
  3
ObjectDBX Classes
 90
     1153
280
     0
281
     0
  0
CLASS
  1
TABLESTYLE
  2
AcDbTableStyle
  3
ObjectDBX Classes
 90
     4095
280
     0
281
     0
  0
CLASS
  1
MLEADERSTYLE
  2
AcDbMLeaderStyle
  3
ACDB_MLEADERSTYLE_CLASS
 90
     4095
280
     0
281
     0
  0
CLASS
  1
SUN
  2
AcDbSun
  3
SCENEOE
 90
     1153
280
     0
281
     0
  0
CLASS
  1
ACDBPLACEHOLDER
  2
AcDbPlaceHolder
  3
ObjectDBX Classes
 90
        0
280
     0
281
     0
  0
CLASS
  1
LAYOUT
  2
AcDbLayout
  3
ObjectDBX Classes
 90
        0
280
     0
281
     0
  0
ENDSEC
  0
SECTION
  2
TABLES
  0
TABLE
  2
VPORT
  5
8
330
0
100
AcDbSymbolTable
 70
     1
  0
VPORT
  5
29
330
8
100
AcDbSymbolTableRecord
100
AcDbViewportTableRecord
  2
*Active
 70
     0
 10
0.0
 20
0.0
 11
1.0
 21
1.0
 12
-110.2002096888
 22
-256.3723301453
 13
0.0
 23
0.0
 14
10.0
 24
10.0
 15
10.0
 25
10.0
 16
0.0
 26
0.0
 36
1.0
 17
0.0
 27
0.0
 37
0.0
 40
911.37
 41
0.3375489647
 42
50.0
 43
0.0
 44
0.0
 50
0.0
 51
0.0
 71
     0
 72
   100
 73
     1
 74
     3
 75
     0
 76
     0
 77
     0
 78
     0
281
     0
 65
     1
110
0.0
120
0.0
130
0.0
111
1.0
121
0.0
131
0.0
112
0.0
122
1.0
132
0.0
 79
     0
146
0.0
  0
ENDTAB
  0
TABLE
  2
LTYPE
  5
5
330
0
100
AcDbSymbolTable
 70
     6
  0
LTYPE
  5
14
330
5
100
AcDbSymbolTableRecord
100
AcDbLinetypeTableRecord
  2
ByBlock
 70
     0
  3

 72
    65
 73
     0
 40
0.0
  0
LTYPE
  5
15
330
5
100
AcDbSymbolTableRecord
100
AcDbLinetypeTableRecord
  2
ByLayer
 70
     0
  3

 72
    65
 73
     0
 40
0.0
  0
LTYPE
  5
16
330
5
100
AcDbSymbolTableRecord
100
AcDbLinetypeTableRecord
  2
Continuous
 70
     0
  3
Solid line
 72
    65
 73
     0
 40
0.0
  0
LTYPE
  5
5E
330
5
100
AcDbSymbolTableRecord
100
AcDbLinetypeTableRecord
  2
HIDDEN
 70
     0
  3
Hidden __ __ __ __ __ __ __ __ __ __ __ __ __ __
 72
    65
 73
     2
 40
1.905
 49
1.27
 74
     0
 49
-0.635
 74
     0
  0
LTYPE
  5
5F
330
5
100
AcDbSymbolTableRecord
100
AcDbLinetypeTableRecord
  2
PHANTOM
 70
     0
  3
Phantom ______  __  __  ______  __  __  ______
 72
    65
 73
     6
 40
12.7
 49
6.35
 74
     0
 49
-1.27
 74
     0
 49
1.27
 74
     0
 49
-1.27
 74
     0
 49
1.27
 74
     0
 49
-1.27
 74
     0
  0
LTYPE
  5
60
330
5
100
AcDbSymbolTableRecord
100
AcDbLinetypeTableRecord
  2
CENTER
 70
     0
  3
Center ____ _ ____ _ ____ _ ____ _ ____ _ ____
 72
    65
 73
     4
 40
10.16
 49
6.35
 74
     0
 49
-1.27
 74
     0
 49
1.27
 74
     0
 49
-1.27
 74
     0
  0
LTYPE
  5
61
330
5
100
AcDbSymbolTableRecord
100
AcDbLinetypeTableRecord
  2
CENTERX2
 70
     0
  3
Center (2x) ________  __  ________  __  _____
 72
    65
 73
     4
 40
20.32
 49
12.7
 74
     0
 49
-2.54
 74
     0
 49
2.54
 74
     0
 49
-2.54
 74
     0
  0
LTYPE
  5
62
330
5
100
AcDbSymbolTableRecord
100
AcDbLinetypeTableRecord
  2
DOT2
 70
     0
  3
Dot (.5x) ........................................
 72
    65
 73
     2
 40
0.635
 49
0.0
 74
     0
 49
-0.635
 74
     0
  0
ENDTAB
  0
TABLE
  2
LAYER
  5
2
330
0
100
AcDbSymbolTable
 70
     1
  0
LAYER
  5
10
330
2
100
AcDbSymbolTableRecord
100
AcDbLayerTableRecord
  2
0
 70
     0
 62
     7
  6
Continuous
370
    -3
390
F
  0
ENDTAB
  0
TABLE
  2
STYLE
  5
3
330
0
100
AcDbSymbolTable
 70
     1
  0
STYLE
  5
11
330
3
100
AcDbSymbolTableRecord
100
AcDbTextStyleTableRecord
  2
Standard
 70
     0
 40
0.0
 41
1.0
 50
0.0
 71
     0
 42
3.5
  3
txt
  4

  0
ENDTAB
  0
TABLE
  2
VIEW
  5
6
330
0
100
AcDbSymbolTable
 70
     0
  0
ENDTAB
  0
TABLE
  2
UCS
  5
7
330
0
100
AcDbSymbolTable
 70
     0
  0
ENDTAB
  0
TABLE
  2
APPID
  5
9
330
0
100
AcDbSymbolTable
 70
     1
  0
APPID
  5
12
330
9
100
AcDbSymbolTableRecord
100
AcDbRegAppTableRecord
  2
ACAD
 70
     0
  0
ENDTAB
  0
TABLE
  2
DIMSTYLE
  5
A
330
0
100
AcDbSymbolTable
 70
     1
100
AcDbDimStyleTable
  0
DIMSTYLE
105
27
330
A
100
AcDbSymbolTableRecord
100
AcDbDimStyleTableRecord
  2
ISO-25
 70
     0
 41
2.5
 42
0.625
 43
3.75
 44
1.25
 73
     0
 74
     0
 77
     1
 78
     8
140
2.5
141
2.5
143
0.0393700787
147
0.625
171
     3
172
     1
178
     0
271
     2
272
     2
274
     3
278
    44
283
     0
284
     8
340
11
  0
ENDTAB
  0
TABLE
  2
BLOCK_RECORD
  5
1
330
0
100
AcDbSymbolTable
 70
     1
  0
BLOCK_RECORD
  5
1F
330
1
100
AcDbSymbolTableRecord
100
AcDbBlockTableRecord
  2
*Model_Space
340
22
  0
BLOCK_RECORD
  5
1B
330
1
100
AcDbSymbolTableRecord
100
AcDbBlockTableRecord
  2
*Paper_Space
340
1E
  0
BLOCK_RECORD
  5
23
330
1
100
AcDbSymbolTableRecord
100
AcDbBlockTableRecord
  2
*Paper_Space0
340
26
  0
ENDTAB
  0
ENDSEC
  0
SECTION
  2
BLOCKS
  0
BLOCK
  5
20
330
1F
100
AcDbEntity
  8
0
100
AcDbBlockBegin
  2
*Model_Space
 70
     0
 10
0.0
 20
0.0
 30
0.0
  3
*Model_Space
  1

  0
ENDBLK
  5
21
330
1F
100
AcDbEntity
  8
0
100
AcDbBlockEnd
  0
BLOCK
  5
1C
330
1B
100
AcDbEntity
 67
     1
  8
0
100
AcDbBlockBegin
  2
*Paper_Space
 70
     0
 10
0.0
 20
0.0
 30
0.0
  3
*Paper_Space
  1

  0
ENDBLK
  5
1D
330
1B
100
AcDbEntity
 67
     1
  8
0
100
AcDbBlockEnd
  0
BLOCK
  5
24
330
23
100
AcDbEntity
  8
0
100
AcDbBlockBegin
  2
*Paper_Space0
 70
     0
 10
0.0
 20
0.0
 30
0.0
  3
*Paper_Space0
  1

  0
ENDBLK
  5
25
330
23
100
AcDbEntity
  8
0
100
AcDbBlockEnd
  0
ENDSEC
  0
SECTION
  2
ENTITIES
  0
CIRCLE
  5
10E
330
1F
100
AcDbEntity
  8
0
  6
Continuous
 62
     7
370
    25
100
AcDbCircle
 10
-54.9002096888
 20
40.8876698547
 30
0.0
 40
15.81818181818178
  0
CIRCLE
  5
265
330
1F
100
AcDbEntity
  8
0
  6
Continuous
 62
     7
370
    25
100
AcDbCircle
 10
-31.3302096888
 20
114.3076698547
 30
0.0
 40
2.099999999999994
  0
CIRCLE
  5
266
330
1F
100
AcDbEntity
  8
0
  6
Continuous
 62
     7
370
    25
100
AcDbCircle
 10
-78.4702096888
 20
161.4476698547
 30
0.0
 40
2.100000000000023
  0
LWPOLYLINE
  5
269
330
1F
100
AcDbEntity
  8
0
  6
Continuous
 62
     7
370
    25
100
AcDbPolyline
 90
        3
 70
   128
 43
0.0
 10
-53.2112751134
 20
109.3776698547
 10
-53.5207771582
 20
109.3610139165
 10
-56.5891442642
 20
109.3776698547
  0
LWPOLYLINE
  5
26B
330
1F
100
AcDbEntity
  8
0
  6
Continuous
 62
     7
370
    25
100
AcDbPolyline
 90
        3
 70
   128
 43
0.0
 10
-56.5891442642
 20
166.3776698547
 10
-53.5207771582
 20
166.3943257928
 10
-53.2112751134
 20
166.3776698547
  0
CIRCLE
  5
270
330
1F
100
AcDbEntity
  8
0
  6
Continuous
 62
     7
370
    25
100
AcDbCircle
 10
-31.3302096888
 20
161.4476698547
 30
0.0
 40
2.099999999999994
  0
CIRCLE
  5
271
330
1F
100
AcDbEntity
  8
0
  6
Continuous
 62
     7
370
    25
100
AcDbCircle
 10
-78.4702096888
 20
114.3076698547
 30
0.0
 40
2.100000000000009
  0
CIRCLE
  5
278
330
1F
100
AcDbEntity
  8
0
  6
Continuous
 62
     7
370
    25
100
AcDbCircle
 10
-48.4002096888
 20
-571.6223301453
 30
0.0
 40
2.025000000000091
  0
CIRCLE
  5
279
330
1F
100
AcDbEntity
  8
0
  6
Continuous
 62
     7
370
    25
100
AcDbCircle
 10
9.5997903112
 20
-571.6223301453
 30
0.0
 40
2.025000000000091
  0
CIRCLE
  5
27A
330
1F
100
AcDbEntity
  8
0
  6
Continuous
 62
     7
370
    25
100
AcDbCircle
 10
-29.0668763555
 20
-571.6223301453
 30
0.0
 40
2.025000000000091
  0
CIRCLE
  5
27C
330
1F
100
AcDbEntity
  8
0
  6
Continuous
 62
     7
370
    25
100
AcDbCircle
 10
-9.7335430221
 20
-571.6223301453
 30
0.0
 40
2.025000000000091
  0
SPLINE
  5
2A1
330
1F
100
AcDbEntity
  8
0
  6
Continuous
 62
     7
370
    25
100
AcDbSpline
210
0.0
220
0.0
230
1.0
 70
     8
 71
     3
 72
     9
 73
     5
 74
     0
 42
0.00000001
 43
0.00000001
 40
0.0
 40
0.0
 40
0.0
 40
0.0
 40
0.4985788857301962
 40
1.0
 40
1.0
 40
1.0
 40
1.0
 10
-147.4002096887886
 20
-494.0915537388972
 30
0.0
 10
-147.4198610093443
 20
-494.2681666966827
 30
0.0
 10
-147.4592756759459
 20
-494.6223994226169
 30
0.0
 10
-147.5864445368524
 20
-494.9553711105287
 30
0.0
 10
-147.6502096887886
 20
-495.1223301453018
 30
0.0
  0
SPLINE
  5
2E1
330
1F
100
AcDbEntity
  8
0
  6
Continuous
 62
     7
370
    25
100
AcDbSpline
210
0.0
220
0.0
230
1.0
 70
    24
 71
     3
 72
     9
 73
     5
 74
     0
 42
0.00000001
 43
0.00000001
 40
0.0
 40
0.0
 40
0.0
 40
0.0
 40
0.4985788857299528
 40
1.0
 40
1.0
 40
1.0
 40
1.0
 10
-147.4002096887886
 20
-540.2223301453017
 30
0.0
 10
-147.419861009346
 20
-540.2223301453016
 30
0.0
 10
-147.4592756759509
 20
-540.2223301453013
 30
0.0
 10
-147.5864445368541
 20
-540.2223301453016
 30
0.0
 10
-147.6502096887886
 20
-540.2223301453017
 30
0.0
  0
SPLINE
  5
2F0
330
1F
100
AcDbEntity
  8
0
  6
Continuous
 62
     7
370
    25
100
AcDbSpline
210
0.0
220
0.0
230
1.0
 70
     8
 71
     3
 72
    10
 73
     6
 74
     0
 42
0.00000001
 43
0.00000001
 40
0.0
 40
0.0
 40
0.0
 40
0.0
 40
0.2589171692411249
 40
0.5113462889130902
 40
1.0
 40
1.0
 40
1.0
 40
1.0
 10
-254.4002096887886
 20
-485.7164297855863
 30
0.0
 10
-254.3985562317445
 20
-485.6366779117633
 30
0.0
 10
-254.3952907506416
 20
-485.4791726183416
 30
0.0
 10
-254.363548395219
 20
-485.1865461355284
 30
0.0
 10
-254.3057601658895
 20
-485.0173676059461
 30
0.0
 10
-254.2676558790986
 20
-484.9058150063104
 30
0.0
  0
SPLINE
  5
2FB
330
1F
100
AcDbEntity
  8
0
  6
Continuous
 62
     7
370
    25
100
AcDbSpline
210
0.0
220
0.0
230
1.0
 70
     8
 71
     3
 72
    10
 73
     6
 74
     0
 42
0.00000001
 43
0.00000001
 40
0.0
 40
0.0
 40
0.0
 40
0.0
 40
0.4886537110851649
 40
0.7410828307575713
 40
1.0
 40
1.0
 40
1.0
 40
1.0
 10
-254.2676558790986
 20
-539.3388452842929
 30
0.0
 10
-254.3057601658896
 20
-539.2272926846575
 30
0.0
 10
-254.3635483952194
 20
-539.0581141550756
 30
0.0
 10
-254.3952907506414
 20
-538.7654876722625
 30
0.0
 10
-254.3985562317445
 20
-538.6079823788401
 30
0.0
 10
-254.4002096887886
 20
-538.5282305050165
 30
0.0
  0
SPLINE
  5
302
330
1F
100
AcDbEntity
  8
0
  6
Continuous
 62
     7
370
    25
100
AcDbSpline
210
0.0
220
0.0
230
1.0
 70
     8
 71
     3
 72
    10
 73
     6
 74
     0
 42
0.00000001
 43
0.00000001
 40
0.0
 40
0.0
 40
0.0
 40
0.0
 40
0.1474124421013105
 40
0.5923382168101412
 40
1.0
 40
1.0
 40
1.0
 40
1.0
 10
-254.2545690182456
 20
-484.8876339640071
 30
0.0
 10
-254.2662533229516
 20
-484.9097034346847
 30
0.0
 10
-254.3132036353917
 20
-484.998383811461
 30
0.0
 10
-254.3828530241387
 20
-485.2121167429667
 30
0.0
 10
-254.3945952055028
 20
-485.421983218196
 30
0.0
 10
-254.4002096887886
 20
-485.5223301453017
 30
0.0
  0
SPLINE
  5
303
330
1F
100
AcDbEntity
  8
0
  6
Continuous
 62
     7
370
    25
100
AcDbSpline
210
0.0
220
0.0
230
1.0
 70
     8
 71
     3
 72
    10
 73
     6
 74
     0
 42
0.00000001
 43
0.00000001
 40
0.0
 40
0.0
 40
0.0
 40
0.0
 40
0.4237060609724159
 40
0.9223805434139226
 40
1.0
 40
1.0
 40
1.0
 40
1.0
 10
-254.4002096887886
 20
-538.7223301453017
 30
0.0
 10
-254.3938882508582
 20
-538.8183591051543
 30
0.0
 10
-254.3801268915328
 20
-539.0274079065075
 30
0.0
 10
-254.3202296215478
 20
-539.2298176328839
 30
0.0
 10
-254.2781332839331
 20
-539.3107576654743
 30
0.0
 10
-254.2724634431997
 20
-539.3216592573883
 30
0.0
  0
CIRCLE
  5
445
330
1F
100
AcDbEntity
  8
0
  6
Continuous
 62
     7
370
    25
100
AcDbCircle
 10
-54.9002096888
 20
137.8776698547
 30
0.0
 40
2.229499999999994
  0
CIRCLE
  5
447
330
1F
100
AcDbEntity
  8
0
  6
Continuous
 62
     7
370
    25
100
AcDbCircle
 10
-54.9002096888
 20
137.8776698547
 30
0.0
 40
21.00000000000001
  0
CIRCLE
  5
450
330
1F
100
AcDbEntity
  8
0
  6
Continuous
 62
     7
370
    25
100
AcDbCircle
 10
-31.3302096888
 20
161.4476698547
 30
0.0
 40
2.750000000000032
  0
CIRCLE
  5
451
330
1F
100
AcDbEntity
  8
0
  6
Continuous
 62
     7
370
    25
100
AcDbCircle
 10
-78.4702096888
 20
161.4476698547
 30
0.0
 40
2.750000000000014
  0
CIRCLE
  5
452
330
1F
100
AcDbEntity
  8
0
  6
Continuous
 62
     7
370
    25
100
AcDbCircle
 10
-31.3302096888
 20
114.3076698547
 30
0.0
 40
2.75
  0
CIRCLE
  5
453
330
1F
100
AcDbEntity
  8
0
  6
Continuous
 62
     7
370
    25
100
AcDbCircle
 10
-78.4702096888
 20
114.3076698547
 30
0.0
 40
2.750000000000057
  0
CIRCLE
  5
46C
330
1F
100
AcDbEntity
  8
0
  6
Continuous
 62
     7
370
    25
100
AcDbCircle
 10
-54.9002096888
 20
40.8876698547
 30
0.0
 40
21.00000000000004
  0
CIRCLE
  5
4C5
330
1F
100
AcDbEntity
  8
0
  6
Continuous
 62
     7
370
    25
100
AcDbCircle
 10
9.5997903112
 20
-571.6223301453
 30
0.0
 40
1.650000000000205
  0
CIRCLE
  5
4C6
330
1F
100
AcDbEntity
  8
0
  6
Continuous
 62
     7
370
    25
100
AcDbCircle
 10
-29.0668763555
 20
-571.6223301453
 30
0.0
 40
1.649999999999864
  0
CIRCLE
  5
4C7
330
1F
100
AcDbEntity
  8
0
  6
Continuous
 62
     7
370
    25
100
AcDbCircle
 10
-9.7335430221
 20
-571.6223301453
 30
0.0
 40
1.649999999999864
  0
CIRCLE
  5
4CA
330
1F
100
AcDbEntity
  8
0
  6
Continuous
 62
     7
370
    25
100
AcDbCircle
 10
-48.4002096888
 20
-571.6223301453
 30
0.0
 40
1.650000000000091
  0
LINE
  5
541
330
1F
100
AcDbEntity
  8
0
  6
Continuous
 62
     7
370
    25
100
AcDbLine
 10
-53.4002096888
 20
-472.8468296453
 30
0.0
 11
-63.4002096888
 21
-472.8468296453
 31
0.0
  0
LINE
  5
542
330
1F
100
AcDbEntity
  8
0
  6
Continuous
 62
     7
370
    25
100
AcDbLine
 10
-63.4002096888
 20
-551.3978306453
 30
0.0
 11
-53.4002096888
 21
-551.3978306453
 31
0.0
  0
LINE
  5
543
330
1F
100
AcDbEntity
  8
0
  6
Continuous
 62
     7
370
    25
100
AcDbLine
 10
14.6997903112
 20
116.9953628547
 30
0.0
 11
15.6997903112
 21
116.9953628547
 31
0.0
  0
LINE
  5
544
330
1F
100
AcDbEntity
  8
0
  6
Continuous
 62
     7
370
    25
100
AcDbLine
 10
15.6997903112
 20
158.7599768547
 30
0.0
 11
14.6997903112
 21
158.7599768547
 31
0.0
  0
LINE
  5
545
330
1F
100
AcDbEntity
  8
0
  6
Continuous
 62
     7
370
    25
100
AcDbLine
 10
-3.6502096888
 20
-577.1223301453
 30
0.0
 11
-3.6502096888
 21
-576.1223301453
 31
0.0
  0
LINE
  5
546
330
1F
100
AcDbEntity
  8
0
  6
Continuous
 62
     7
370
    25
100
AcDbLine
 10
-106.1502096888
 20
-576.1223301453
 30
0.0
 11
-106.1502096888
 21
-577.1223301453
 31
0.0
  0
LINE
  5
547
330
1F
100
AcDbEntity
  8
0
  6
Continuous
 62
     7
370
    25
100
AcDbLine
 10
-20.3002096888
 20
163.8776698547
 30
0.0
 11
-21.3002096888
 21
163.8776698547
 31
0.0
  0
LINE
  5
548
330
1F
100
AcDbEntity
  8
0
  6
Continuous
 62
     7
370
    25
100
AcDbLine
 10
-21.3002096888
 20
111.8776698547
 30
0.0
 11
-20.3002096888
 21
111.8776698547
 31
0.0
  0
LINE
  5
549
330
1F
100
AcDbEntity
  8
0
  6
Continuous
 62
     7
370
    25
100
AcDbLine
 10
-33.4002096888
 20
85.3776698547
 30
0.0
 11
-26.4002096888
 21
85.3776698547
 31
0.0
  0
LINE
  5
54A
330
1F
100
AcDbEntity
  8
0
  6
Continuous
 62
     7
370
    25
100
AcDbLine
 10
-26.4002096888
 20
190.3776698547
 30
0.0
 11
-33.4002096888
 21
190.3776698547
 31
0.0
  0
LINE
  5
54B
330
1F
100
AcDbEntity
  8
0
  6
Continuous
 62
     7
370
    25
100
AcDbLine
 10
14.5997903112
 20
-551.3978306453
 30
0.0
 11
15.5997903112
 21
-551.3978306453
 31
0.0
  0
LINE
  5
54C
330
1F
100
AcDbEntity
  8
0
  6
Continuous
 62
     7
370
    25
100
AcDbLine
 10
15.5997903112
 20
-472.8468296453
 30
0.0
 11
14.5997903112
 21
-472.8468296453
 31
0.0
  0
LINE
  5
54D
330
1F
100
AcDbEntity
  8
0
  6
Continuous
 62
     7
370
    25
100
AcDbLine
 10
14.5997903112
 20
-643.1223301453
 30
0.0
 11
14.5997903112
 21
-577.1223301453
 31
0.0
  0
LINE
  5
54E
330
1F
100
AcDbEntity
  8
0
  6
Continuous
 62
     7
370
    25
100
AcDbLine
 10
-124.4002096888
 20
-577.1223301453
 30
0.0
 11
-124.4002096888
 21
-643.1223301453
 31
0.0
  0
LINE
  5
54F
330
1F
100
AcDbEntity
  8
0
  6
Continuous
 62
     7
370
    25
100
AcDbLine
 10
-3.6502096888
 20
-659.1223301453
 30
0.0
 11
-3.6502096888
 21
-652.1223301453
 31
0.0
  0
LINE
  5
550
330
1F
100
AcDbEntity
  8
0
  6
Continuous
 62
     7
370
    25
100
AcDbLine
 10
-106.1502096888
 20
-652.1223301453
 30
0.0
 11
-106.1502096888
 21
-659.1223301453
 31
0.0
  0
LINE
  5
551
330
1F
100
AcDbEntity
  8
0
  6
Continuous
 62
     7
370
    25
100
AcDbLine
 10
24.5997903112
 20
108.0816718547
 30
0.0
 11
25.5997903112
 21
108.0816718547
 31
0.0
  0
LINE
  5
552
330
1F
100
AcDbEntity
  8
0
  6
Continuous
 62
     7
370
    25
100
AcDbLine
 10
25.5997903112
 20
167.6736678547
 30
0.0
 11
24.5997903112
 21
167.6736678547
 31
0.0
  0
LINE
  5
553
330
1F
100
AcDbEntity
  8
0
  6
Continuous
 62
     7
370
    25
100
AcDbLine
 10
-115.3502096888
 20
-472.6223301453
 30
0.0
 11
-124.3502096888
 21
-472.6223301453
 31
0.0
  0
LINE
  5
554
330
1F
100
AcDbEntity
  8
0
  6
Continuous
 62
     7
370
    25
100
AcDbLine
 10
-83.4002096888
 20
-472.6223301453
 30
0.0
 11
-92.4002096888
 21
-472.6223301453
 31
0.0
  0
LINE
  5
555
330
1F
100
AcDbEntity
  8
0
  6
Continuous
 62
     7
370
    25
100
AcDbLine
 10
-111.6002096888
 20
106.4413062183
 30
0.0
 11
-109.0002096888
 21
106.4413062183
 31
0.0
  0
LINE
  5
556
330
1F
100
AcDbEntity
  8
0
  6
Continuous
 62
     7
370
    25
100
AcDbLine
 10
-95.2002096888
 20
166.314033491
 30
0.0
 11
-111.6002096888
 21
166.314033491
 31
0.0
  0
LINE
  5
557
330
1F
100
AcDbEntity
  8
0
  6
Continuous
 62
     7
370
    25
100
AcDbLine
 10
-109.0002096888
 20
135.9752142265
 30
0.0
 11
-93.5002096888
 21
135.9752142265
 31
0.0
  0
LINE
  5
558
330
1F
100
AcDbEntity
  8
0
  6
Continuous
 62
     7
370
    25
100
AcDbLine
 10
-93.5002096888
 20
136.7801254828
 30
0.0
 11
-109.0002096888
 21
136.7801254828
 31
0.0
  0
LINE
  5
559
330
1F
100
AcDbEntity
  8
0
  6
Continuous
 62
     7
370
    25
100
AcDbLine
 10
-93.5002096888
 20
139.7402564132
 30
0.0
 11
-109.0002096888
 21
139.7402564132
 31
0.0
  0
LINE
  5
55A
330
1F
100
AcDbEntity
  8
0
  6
Continuous
 62
     7
370
    25
100
AcDbLine
 10
-109.0002096888
 20
133.0150832961
 30
0.0
 11
-93.5002096888
 21
133.0150832961
 31
0.0
  0
LINE
  5
55B
330
1F
100
AcDbEntity
  8
0
  6
Continuous
 62
     7
370
    25
100
AcDbLine
 10
-93.5002096888
 20
142.6646417626
 30
0.0
 11
-109.0002096888
 21
142.6646417626
 31
0.0
  0
LINE
  5
55C
330
1F
100
AcDbEntity
  8
0
  6
Continuous
 62
     7
370
    25
100
AcDbLine
 10
-109.0002096888
 20
130.0906979467
 30
0.0
 11
-93.5002096888
 21
130.0906979467
 31
0.0
  0
LINE
  5
55D
330
1F
100
AcDbEntity
  8
0
  6
Continuous
 62
     7
370
    25
100
AcDbLine
 10
-93.5002096888
 20
145.521241353
 30
0.0
 11
-109.0002096888
 21
145.521241353
 31
0.0
  0
LINE
  5
55E
330
1F
100
AcDbEntity
  8
0
  6
Continuous
 62
     7
370
    25
100
AcDbLine
 10
-109.0002096888
 20
127.2340983563
 30
0.0
 11
-93.5002096888
 21
127.2340983563
 31
0.0
  0
LINE
  5
55F
330
1F
100
AcDbEntity
  8
0
  6
Continuous
 62
     7
370
    25
100
AcDbLine
 10
-93.5002096888
 20
148.2787576816
 30
0.0
 11
-109.0002096888
 21
148.2787576816
 31
0.0
  0
LINE
  5
560
330
1F
100
AcDbEntity
  8
0
  6
Continuous
 62
     7
370
    25
100
AcDbLine
 10
-109.0002096888
 20
124.4765820277
 30
0.0
 11
-93.5002096888
 21
124.4765820277
 31
0.0
  0
LINE
  5
561
330
1F
100
AcDbEntity
  8
0
  6
Continuous
 62
     7
370
    25
100
AcDbLine
 10
-93.5002096888
 20
150.9069788224
 30
0.0
 11
-109.0002096888
 21
150.9069788224
 31
0.0
  0
LINE
  5
562
330
1F
100
AcDbEntity
  8
0
  6
Continuous
 62
     7
370
    25
100
AcDbLine
 10
-109.0002096888
 20
121.8483608869
 30
0.0
 11
-93.5002096888
 21
121.8483608869
 31
0.0
  0
LINE
  5
563
330
1F
100
AcDbEntity
  8
0
  6
Continuous
 62
     7
370
    25
100
AcDbLine
 10
-93.5002096888
 20
153.3771094347
 30
0.0
 11
-109.0002096888
 21
153.3771094347
 31
0.0
  0
LINE
  5
564
330
1F
100
AcDbEntity
  8
0
  6
Continuous
 62
     7
370
    25
100
AcDbLine
 10
-109.0002096888
 20
119.3782302746
 30
0.0
 11
-93.5002096888
 21
119.3782302746
 31
0.0
  0
LINE
  5
565
330
1F
100
AcDbEntity
  8
0
  6
Continuous
 62
     7
370
    25
100
AcDbLine
 10
-93.5002096888
 20
155.6620862505
 30
0.0
 11
-109.0002096888
 21
155.6620862505
 31
0.0
  0
LINE
  5
566
330
1F
100
AcDbEntity
  8
0
  6
Continuous
 62
     7
370
    25
100
AcDbLine
 10
-109.0002096888
 20
117.0932534589
 30
0.0
 11
-93.5002096888
 21
117.0932534589
 31
0.0
  0
LINE
  5
567
330
1F
100
AcDbEntity
  8
0
  6
Continuous
 62
     7
370
    25
100
AcDbLine
 10
-93.5002096888
 20
157.7368745856
 30
0.0
 11
-109.0002096888
 21
157.7368745856
 31
0.0
  0
LINE
  5
568
330
1F
100
AcDbEntity
  8
0
  6
Continuous
 62
     7
370
    25
100
AcDbLine
 10
-109.0002096888
 20
115.0184651237
 30
0.0
 11
-93.5002096888
 21
115.0184651237
 31
0.0
  0
LINE
  5
569
330
1F
100
AcDbEntity
  8
0
  6
Continuous
 62
     7
370
    25
100
AcDbLine
 10
-93.5002096888
 20
159.5787426249
 30
0.0
 11
-109.0002096888
 21
159.5787426249
 31
0.0
  0
LINE
  5
56A
330
1F
100
AcDbEntity
  8
0
  6
Continuous
 62
     7
370
    25
100
AcDbLine
 10
-109.0002096888
 20
113.1765970844
 30
0.0
 11
-93.5002096888
 21
113.1765970844
 31
0.0
  0
LINE
  5
56B
330
1F
100
AcDbEntity
  8
0
  6
Continuous
 62
     7
370
    25
100
AcDbLine
 10
-93.5002096888
 20
161.1675104768
 30
0.0
 11
-109.0002096888
 21
161.1675104768
 31
0.0
  0
LINE
  5
56C
330
1F
100
AcDbEntity
  8
0
  6
Continuous
 62
     7
370
    25
100
AcDbLine
 10
-109.0002096888
 20
111.5878292325
 30
0.0
 11
-93.5002096888
 21
111.5878292325
 31
0.0
  0
LINE
  5
56D
330
1F
100
AcDbEntity
  8
0
  6
Continuous
 62
     7
370
    25
100
AcDbLine
 10
-93.5002096888
 20
162.4857712681
 30
0.0
 11
-109.0002096888
 21
162.4857712681
 31
0.0
  0
LINE
  5
56E
330
1F
100
AcDbEntity
  8
0
  6
Continuous
 62
     7
370
    25
100
AcDbLine
 10
-109.0002096888
 20
110.2695684412
 30
0.0
 11
-93.5002096888
 21
110.2695684412
 31
0.0
  0
LINE
  5
56F
330
1F
100
AcDbEntity
  8
0
  6
Continuous
 62
     7
370
    25
100
AcDbLine
 10
-93.5002096888
 20
163.5190818578
 30
0.0
 11
-109.0002096888
 21
163.5190818578
 31
0.0
  0
LINE
  5
570
330
1F
100
AcDbEntity
  8
0
  6
Continuous
 62
     7
370
    25
100
AcDbLine
 10
-109.0002096888
 20
109.2362578515
 30
0.0
 11
-93.5002096888
 21
109.2362578515
 31
0.0
  0
LINE
  5
571
330
1F
100
AcDbEntity
  8
0
  6
Continuous
 62
     7
370
    25
100
AcDbLine
 10
-93.5002096888
 20
164.2561210788
 30
0.0
 11
-109.0002096888
 21
164.2561210788
 31
0.0
  0
LINE
  5
572
330
1F
100
AcDbEntity
  8
0
  6
Continuous
 62
     7
370
    25
100
AcDbLine
 10
-109.0002096888
 20
108.4992186305
 30
0.0
 11
-93.5002096888
 21
108.4992186305
 31
0.0
  0
LINE
  5
573
330
1F
100
AcDbEntity
  8
0
  6
Continuous
 62
     7
370
    25
100
AcDbLine
 10
-93.5002096888
 20
164.6888137752
 30
0.0
 11
-109.0002096888
 21
164.6888137752
 31
0.0
  0
LINE
  5
574
330
1F
100
AcDbEntity
  8
0
  6
Continuous
 62
     7
370
    25
100
AcDbLine
 10
-109.0002096888
 20
108.0665259341
 30
0.0
 11
-93.5002096888
 21
108.0665259341
 31
0.0
  0
LINE
  5
575
330
1F
100
AcDbEntity
  8
0
  6
Continuous
 62
     7
370
    25
100
AcDbLine
 10
-93.5002096888
 20
164.814033491
 30
0.0
 11
-109.0002096888
 21
164.814033491
 31
0.0
  0
LINE
  5
576
330
1F
100
AcDbEntity
  8
0
  6
Continuous
 62
     7
370
    25
100
AcDbLine
 10
-109.0002096888
 20
107.9413062183
 30
0.0
 11
-93.5002096888
 21
107.9413062183
 31
0.0
  0
LINE
  5
577
330
1F
100
AcDbEntity
  8
0
  6
Continuous
 62
     7
370
    25
100
AcDbLine
 10
-113.3002096888
 20
107.9413062183
 30
0.0
 11
-111.6002096888
 21
107.9413062183
 31
0.0
  0
LINE
  5
578
330
1F
100
AcDbEntity
  8
0
  6
Continuous
 62
     7
370
    25
100
AcDbLine
 10
-110.7002096888
 20
167.814033491
 30
0.0
 11
-113.3002096888
 21
167.814033491
 31
0.0
  0
LINE
  5
579
330
1F
100
AcDbEntity
  8
0
  6
Continuous
 62
     7
370
    25
100
AcDbLine
 10
-95.2002096888
 20
165.0190818578
 30
0.0
 11
-109.0002096888
 21
165.0190818578
 31
0.0
  0
LINE
  5
57A
330
1F
100
AcDbEntity
  8
0
  6
Continuous
 62
     7
370
    25
100
AcDbLine
 10
-95.2002096888
 20
165.7561210788
 30
0.0
 11
-109.0002096888
 21
165.7561210788
 31
0.0
  0
LINE
  5
57B
330
1F
100
AcDbEntity
  8
0
  6
Continuous
 62
     7
370
    25
100
AcDbLine
 10
-95.2002096888
 20
166.1888137752
 30
0.0
 11
-109.0002096888
 21
166.1888137752
 31
0.0
  0
LINE
  5
57C
330
1F
100
AcDbEntity
  8
0
  6
Continuous
 62
     7
370
    25
100
AcDbLine
 10
-85.9002096888
 20
183.1842626339
 30
0.0
 11
-92.9002096888
 21
183.1842626339
 31
0.0
  0
LINE
  5
57D
330
1F
100
AcDbEntity
  8
0
  6
Continuous
 62
     7
370
    25
100
AcDbLine
 10
27.0997903112
 20
-652.1223301453
 30
0.0
 11
27.0997903112
 21
-643.1223301453
 31
0.0
  0
LINE
  5
57E
330
1F
100
AcDbEntity
  8
0
  6
Continuous
 62
     7
370
    25
100
AcDbLine
 10
-136.9002096888
 20
-643.1223301453
 30
0.0
 11
-136.9002096888
 21
-652.1223301453
 31
0.0
  0
LINE
  5
57F
330
1F
100
AcDbEntity
  8
0
  6
Continuous
 62
     7
370
    25
100
AcDbLine
 10
14.5997903112
 20
-451.1223301453
 30
0.0
 11
-53.4002096888
 21
-451.1223301453
 31
0.0
  0
LINE
  5
580
330
1F
100
AcDbEntity
  8
0
  6
Continuous
 62
     7
370
    25
100
AcDbLine
 10
-74.462591626
 20
99.3776698547
 30
0.0
 11
14.6997903112
 21
99.3776698547
 31
0.0
  0
LINE
  5
581
330
1F
100
AcDbEntity
  8
0
  6
Continuous
 62
     7
370
    25
100
AcDbLine
 10
14.6997903112
 20
176.3776698547
 30
0.0
 11
-74.462591626
 21
176.3776698547
 31
0.0
  0
LINE
  5
582
330
1F
100
AcDbEntity
  8
0
  6
Continuous
 62
     7
370
    25
100
AcDbLine
 10
15.6997903112
 20
116.9953648547
 30
0.0
 11
20.6997903112
 21
116.9953648547
 31
0.0
  0
LINE
  5
583
330
1F
100
AcDbEntity
  8
0
  6
Continuous
 62
     7
370
    25
100
AcDbLine
 10
20.6997903112
 20
158.7599748547
 30
0.0
 11
15.6997903112
 21
158.7599748547
 31
0.0
  0
LINE
  5
584
330
1F
100
AcDbEntity
  8
0
  6
Continuous
 62
     7
370
    25
100
AcDbLine
 10
25.5997903112
 20
108.0816698547
 30
0.0
 11
32.5997903112
 21
108.0816698547
 31
0.0
  0
LINE
  5
585
330
1F
100
AcDbEntity
  8
0
  6
Continuous
 62
     7
370
    25
100
AcDbLine
 10
32.5997903112
 20
167.6736698547
 30
0.0
 11
25.5997903112
 21
167.6736698547
 31
0.0
  0
LINE
  5
586
330
1F
100
AcDbEntity
  8
0
  6
Continuous
 62
     7
370
    25
100
AcDbLine
 10
-25.4002096888
 20
85.3776698547
 30
0.0
 11
-23.9002096888
 21
85.3776698547
 31
0.0
  0
LINE
  5
587
330
1F
100
AcDbEntity
  8
0
  6
Continuous
 62
     7
370
    25
100
AcDbLine
 10
-16.9002096888
 20
85.3776698547
 30
0.0
 11
15.5997903112
 21
85.3776698547
 31
0.0
  0
LINE
  5
588
330
1F
100
AcDbEntity
  8
0
  6
Continuous
 62
     7
370
    25
100
AcDbLine
 10
24.5997903112
 20
190.3776698547
 30
0.0
 11
-25.4002096888
 21
190.3776698547
 31
0.0
  0
LINE
  5
589
330
1F
100
AcDbEntity
  8
0
  6
Continuous
 62
     7
370
    25
100
AcDbLine
 10
-93.5002096888
 20
106.4413062183
 30
0.0
 11
-90.9002096888
 21
106.4413062183
 31
0.0
  0
LINE
  5
58A
330
1F
100
AcDbEntity
  8
0
  6
Continuous
 62
     7
370
    25
100
AcDbLine
 10
-90.9002096888
 20
166.314033491
 30
0.0
 11
-93.5002096888
 21
166.314033491
 31
0.0
  0
LINE
  5
58B
330
1F
100
AcDbEntity
  8
0
  6
Continuous
 62
     7
370
    25
100
AcDbLine
 10
-92.6002096888
 20
167.814033491
 30
0.0
 11
-95.2002096888
 21
167.814033491
 31
0.0
  0
LINE
  5
58C
330
1F
100
AcDbEntity
  8
0
  6
Continuous
 62
     7
370
    25
100
AcDbLine
 10
-23.9002096888
 20
182.1796558293
 30
0.0
 11
-26.4002096888
 21
182.1796558293
 31
0.0
  0
LINE
  5
58D
330
1F
100
AcDbEntity
  8
0
  6
Continuous
 62
     7
370
    25
100
AcDbLine
 10
-26.4002096888
 20
93.5756838801
 30
0.0
 11
-23.9002096888
 21
93.5756838801
 31
0.0
  0
LINE
  5
58E
330
1F
100
AcDbEntity
  8
0
  6
Continuous
 62
     7
370
    25
100
AcDbLine
 10
-26.4002096888
 20
183.1706066078
 30
0.0
 11
-33.4002096888
 21
183.1706066078
 31
0.0
  0
LINE
  5
58F
330
1F
100
AcDbEntity
  8
0
  6
Continuous
 62
     7
370
    25
100
AcDbLine
 10
-33.4002096888
 20
92.5847331015
 30
0.0
 11
-26.4002096888
 21
92.5847331015
 31
0.0
  0
LINE
  5
590
330
1F
100
AcDbEntity
  8
0
  6
Continuous
 62
     7
370
    25
100
AcDbLine
 10
15.5997903112
 20
-381.1223301453
 30
0.0
 11
-56.4002096888
 21
-381.1223301453
 31
0.0
  0
LINE
  5
591
330
1F
100
AcDbEntity
  8
0
  6
Continuous
 62
     7
370
    25
100
AcDbLine
 10
-56.4002096888
 20
-438.1223301453
 30
0.0
 11
15.5997903112
 21
-438.1223301453
 31
0.0
  0
LINE
  5
592
330
1F
100
AcDbEntity
  8
0
  6
Continuous
 62
     7
370
    25
100
AcDbLine
 10
40.5997903112
 20
-402.6223301453
 30
0.0
 11
24.5997903112
 21
-402.6223301453
 31
0.0
  0
LINE
  5
593
330
1F
100
AcDbEntity
  8
0
  6
Continuous
 62
     7
370
    25
100
AcDbLine
 10
24.5997903112
 20
-416.6223301453
 30
0.0
 11
40.5997903112
 21
-416.6223301453
 31
0.0
  0
LINE
  5
594
330
1F
100
AcDbEntity
  8
0
  6
Continuous
 62
     7
370
    25
100
AcDbLine
 10
-92.4002096888
 20
-483.6223301453
 30
0.0
 11
-115.3502096888
 21
-483.6223301453
 31
0.0
  0
LINE
  5
595
330
1F
100
AcDbEntity
  8
0
  6
Continuous
 62
     7
370
    25
100
AcDbLine
 10
-124.3502096888
 20
-483.6223301453
 30
0.0
 11
-145.4002096888
 21
-483.6223301453
 31
0.0
  0
LINE
  5
596
330
1F
100
AcDbEntity
  8
0
  6
Continuous
 62
     7
370
    25
100
AcDbLine
 10
-145.4002096888
 20
-540.6223301453
 30
0.0
 11
-124.3502096888
 21
-540.6223301453
 31
0.0
  0
LINE
  5
597
330
1F
100
AcDbEntity
  8
0
  6
Continuous
 62
     7
370
    25
100
AcDbLine
 10
-115.3502096888
 20
-540.6223301453
 30
0.0
 11
-92.4002096888
 21
-540.6223301453
 31
0.0
  0
LINE
  5
598
330
1F
100
AcDbEntity
  8
0
  6
Continuous
 62
     7
370
    25
100
AcDbLine
 10
-69.4002096888
 20
-491.1223301453
 30
0.0
 11
-72.4002096888
 21
-491.1223301453
 31
0.0
  0
LINE
  5
599
330
1F
100
AcDbEntity
  8
0
  6
Continuous
 62
     7
370
    25
100
AcDbLine
 10
-72.4002096888
 20
-533.1223301453
 30
0.0
 11
-69.4002096888
 21
-533.1223301453
 31
0.0
  0
LINE
  5
59A
330
1F
100
AcDbEntity
  8
0
  6
Continuous
 62
     7
370
    25
100
AcDbLine
 10
-63.4002096888
 20
-505.1223301453
 30
0.0
 11
-69.4002096888
 21
-505.1223301453
 31
0.0
  0
LINE
  5
59B
330
1F
100
AcDbEntity
  8
0
  6
Continuous
 62
     7
370
    25
100
AcDbLine
 10
-69.4002096888
 20
-519.1223301453
 30
0.0
 11
-63.4002096888
 21
-519.1223301453
 31
0.0
  0
LINE
  5
59C
330
1F
100
AcDbEntity
  8
0
  6
Continuous
 62
     7
370
    25
100
AcDbLine
 10
-47.9002096888
 20
-668.1223301453
 30
0.0
 11
-47.9002096888
 21
-659.1223301453
 31
0.0
  0
LINE
  5
59D
330
1F
100
AcDbEntity
  8
0
  6
Continuous
 62
     7
370
    25
100
AcDbLine
 10
-61.9002096888
 20
-659.1223301453
 30
0.0
 11
-61.9002096888
 21
-668.1223301453
 31
0.0
  0
LINE
  5
59E
330
1F
100
AcDbEntity
  8
0
  6
Continuous
 62
     7
370
    25
100
AcDbLine
 10
-24.7669064255
 20
-659.1223301453
 30
0.0
 11
-24.7669064255
 21
-694.1223301453
 31
0.0
  0
LINE
  5
59F
330
1F
100
AcDbEntity
  8
0
  6
Continuous
 62
     7
370
    25
100
AcDbLine
 10
-4.1254768276
 20
-694.1223301453
 30
0.0
 11
-4.1254768276
 21
-652.1223301453
 31
0.0
  0
LINE
  5
5A0
330
1F
100
AcDbEntity
  8
0
  6
Continuous
 62
     7
370
    25
100
AcDbLine
 10
-16.6254768276
 20
-652.1223301453
 30
0.0
 11
-16.6254768276
 21
-694.1223301453
 31
0.0
  0
LINE
  5
5A1
330
1F
100
AcDbEntity
  8
0
  6
Continuous
 62
     7
370
    25
100
AcDbLine
 10
-48.6502096888
 20
-694.1223301453
 30
0.0
 11
-48.6502096888
 21
-668.1223301453
 31
0.0
  0
LINE
  5
5A2
330
1F
100
AcDbEntity
  8
0
  6
Continuous
 62
     7
370
    25
100
AcDbLine
 10
-61.1502096888
 20
-668.1223301453
 30
0.0
 11
-61.1502096888
 21
-694.1223301453
 31
0.0
  0
LINE
  5
5A3
330
1F
100
AcDbEntity
  8
0
  6
Continuous
 62
     7
370
    25
100
AcDbLine
 10
-93.1749425499
 20
-694.1223301453
 30
0.0
 11
-93.1749425499
 21
-652.1223301453
 31
0.0
  0
LINE
  5
5A4
330
1F
100
AcDbEntity
  8
0
  6
Continuous
 62
     7
370
    25
100
AcDbLine
 10
-105.6749425499
 20
-652.1223301453
 30
0.0
 11
-105.6749425499
 21
-694.1223301453
 31
0.0
  0
LINE
  5
5A5
330
1F
100
AcDbEntity
  8
0
  6
Continuous
 62
     7
370
    25
100
AcDbLine
 10
-32.9008991093
 20
-694.1223301453
 30
0.0
 11
-32.9008991093
 21
-652.1223301453
 31
0.0
  0
LINE
  5
5A6
330
1F
100
AcDbEntity
  8
0
  6
Continuous
 62
     7
370
    25
100
AcDbLine
 10
-45.4008991093
 20
-652.1223301453
 30
0.0
 11
-45.4008991093
 21
-694.1223301453
 31
0.0
  0
LINE
  5
5A7
330
1F
100
AcDbEntity
  8
0
  6
Continuous
 62
     7
370
    25
100
AcDbLine
 10
-85.0335129521
 20
-694.1223301453
 30
0.0
 11
-85.0335129521
 21
-659.1223301453
 31
0.0
  0
LINE
  5
5A8
330
1F
100
AcDbEntity
  8
0
  6
Continuous
 62
     7
370
    25
100
AcDbLine
 10
-111.7977903145
 20
-694.1223301453
 30
0.0
 11
-111.7977903145
 21
-652.1223301453
 31
0.0
  0
LINE
  5
5A9
330
1F
100
AcDbEntity
  8
0
  6
Continuous
 62
     7
370
    25
100
AcDbLine
 10
-114.2516340255
 20
-694.1223301453
 30
0.0
 11
-114.2516340255
 21
-652.1223301453
 31
0.0
  0
LINE
  5
5AA
330
1F
100
AcDbEntity
  8
0
  6
Continuous
 62
     7
370
    25
100
AcDbLine
 10
-126.7516340255
 20
-652.1223301453
 30
0.0
 11
-126.7516340255
 21
-694.1223301453
 31
0.0
  0
LINE
  5
5AB
330
1F
100
AcDbEntity
  8
0
  6
Continuous
 62
     7
370
    25
100
AcDbLine
 10
16.9512146479
 20
-694.1223301453
 30
0.0
 11
16.9512146479
 21
-652.1223301453
 31
0.0
  0
LINE
  5
5AC
330
1F
100
AcDbEntity
  8
0
  6
Continuous
 62
     7
370
    25
100
AcDbLine
 10
4.4512146479
 20
-652.1223301453
 30
0.0
 11
4.4512146479
 21
-694.1223301453
 31
0.0
  0
LINE
  5
5AD
330
1F
100
AcDbEntity
  8
0
  6
Continuous
 62
     7
370
    25
100
AcDbLine
 10
26.6848238854
 20
-694.1223301453
 30
0.0
 11
26.6848238854
 21
-652.1223301453
 31
0.0
  0
LINE
  5
5AE
330
1F
100
AcDbEntity
  8
0
  6
Continuous
 62
     7
370
    25
100
AcDbLine
 10
-64.3995202682
 20
-694.1223301453
 30
0.0
 11
-64.3995202682
 21
-652.1223301453
 31
0.0
  0
LINE
  5
5AF
330
1F
100
AcDbEntity
  8
0
  6
Continuous
 62
     7
370
    25
100
AcDbLine
 10
-76.8995202682
 20
-652.1223301453
 30
0.0
 11
-76.8995202682
 21
-694.1223301453
 31
0.0
  0
LINE
  5
5B0
330
1F
100
AcDbEntity
  8
0
  6
Continuous
 62
     7
370
    25
100
AcDbLine
 10
1.9973709369
 20
-652.1223301453
 30
0.0
 11
1.9973709369
 21
-694.1223301453
 31
0.0
  0
LINE
  5
5B1
330
1F
100
AcDbEntity
  8
0
  6
Continuous
 62
     7
370
    25
100
AcDbLine
 10
-136.4852432629
 20
-652.1223301453
 30
0.0
 11
-136.4852432629
 21
-694.1223301453
 31
0.0
  0
LINE
  5
5B2
330
1F
100
AcDbEntity
  8
0
  6
Continuous
 62
     7
370
    25
100
AcDbLine
 10
15.5997903112
 20
-564.6223301453
 30
0.0
 11
24.5997903112
 21
-564.6223301453
 31
0.0
  0
LINE
  5
5B3
330
1F
100
AcDbEntity
  8
0
  6
Continuous
 62
     7
370
    25
100
AcDbLine
 10
-54.4002096888
 20
-551.3978306453
 30
0.0
 11
-54.4002096888
 21
-472.8468296453
 31
0.0
  0
LINE
  5
5B4
330
1F
100
AcDbEntity
  8
0
  6
Continuous
 62
     7
370
    25
100
AcDbLine
 10
-63.4002096888
 20
-551.3978306453
 30
0.0
 11
-63.4002096888
 21
-472.8468296453
 31
0.0
  0
LINE
  5
5B5
330
1F
100
AcDbEntity
  8
0
  6
Continuous
 62
     7
370
    25
100
AcDbLine
 10
15.6997903112
 20
116.9953628547
 30
0.0
 11
15.6997903112
 21
158.7599768547
 31
0.0
  0
LINE
  5
5B6
330
1F
100
AcDbEntity
  8
0
  6
Continuous
 62
     7
370
    25
100
AcDbLine
 10
-92.4002096888
 20
-512.1223301453
 30
0.0
 11
-92.4002096888
 21
-567.1223301453
 31
0.0
  0
LINE
  5
5B7
330
1F
100
AcDbEntity
  8
0
  6
Continuous
 62
     7
370
    25
100
AcDbLine
 10
-92.4002096888
 20
-512.1223301453
 30
0.0
 11
-83.4002096888
 21
-512.1223301453
 31
0.0
  0
LINE
  5
5B8
330
1F
100
AcDbEntity
  8
0
  6
Continuous
 62
     7
370
    25
100
AcDbLine
 10
-21.3002096888
 20
176.3776698547
 30
0.0
 11
-21.3002096888
 21
99.3776698547
 31
0.0
  0
LINE
  5
5B9
330
1F
100
AcDbEntity
  8
0
  6
Continuous
 62
     7
370
    25
100
AcDbLine
 10
-26.3502096888
 20
176.3776698547
 30
0.0
 11
-26.3502096888
 21
99.3776698547
 31
0.0
  0
LINE
  5
5BA
330
1F
100
AcDbEntity
  8
0
  6
Continuous
 62
     7
370
    25
100
AcDbLine
 10
-33.4002096888
 20
183.1200876777
 30
0.0
 11
-33.4002096888
 21
190.3776698547
 31
0.0
  0
LINE
  5
5BB
330
1F
100
AcDbEntity
  8
0
  6
Continuous
 62
     7
370
    25
100
AcDbLine
 10
-33.4002096888
 20
92.6352520317
 30
0.0
 11
-33.4002096888
 21
85.3776698547
 31
0.0
  0
LINE
  5
5BC
330
1F
100
AcDbEntity
  8
0
  6
Continuous
 62
     7
370
    25
100
AcDbLine
 10
-71.4702096888
 20
-566.1223301453
 30
0.0
 11
-83.4002096888
 21
-566.1223301453
 31
0.0
  0
LINE
  5
5BD
330
1F
100
AcDbEntity
  8
0
  6
Continuous
 62
     7
370
    25
100
AcDbLine
 10
-73.4702096888
 20
-566.1223301453
 30
0.0
 11
-73.4702096888
 21
-540.6223301453
 31
0.0
  0
LINE
  5
5BE
330
1F
100
AcDbEntity
  8
0
  6
Continuous
 62
     7
370
    25
100
AcDbLine
 10
-22.9002096888
 20
74.091003188
 30
0.0
 11
-22.9002096888
 21
4.401003188
 31
0.0
  0
LINE
  5
5BF
330
1F
100
AcDbEntity
  8
0
  6
Continuous
 62
     7
370
    25
100
AcDbLine
 10
-23.9002096888
 20
74.091003188
 30
0.0
 11
-22.9002096888
 21
74.091003188
 31
0.0
  0
LINE
  5
5C0
330
1F
100
AcDbEntity
  8
0
  6
Continuous
 62
     7
370
    25
100
AcDbLine
 10
-16.9002096888
 20
99.3776698547
 30
0.0
 11
-16.9002096888
 21
4.401003188
 31
0.0
  0
LINE
  5
5C1
330
1F
100
AcDbEntity
  8
0
  6
Continuous
 62
     7
370
    25
100
AcDbLine
 10
-23.9002096888
 20
99.3776698547
 30
0.0
 11
-23.9002096888
 21
74.091003188
 31
0.0
  0
LINE
  5
5C2
330
1F
100
AcDbEntity
  8
0
  6
Continuous
 62
     7
370
    25
100
AcDbLine
 10
-124.4002096888
 20
-577.1223301453
 30
0.0
 11
14.5997903112
 21
-577.1223301453
 31
0.0
  0
LINE
  5
5C3
330
1F
100
AcDbEntity
  8
0
  6
Continuous
 62
     7
370
    25
100
AcDbLine
 10
-136.9002096888
 20
-694.1223301453
 30
0.0
 11
-136.9002096888
 21
-703.1223301453
 31
0.0
  0
LINE
  5
5C4
330
1F
100
AcDbEntity
  8
0
  6
Continuous
 62
     7
370
    25
100
AcDbLine
 10
-136.9002096888
 20
-694.1223301453
 30
0.0
 11
27.0997903112
 21
-694.1223301453
 31
0.0
  0
LINE
  5
5C5
330
1F
100
AcDbEntity
  8
0
  6
Continuous
 62
     7
370
    25
100
AcDbLine
 10
27.0997903112
 20
-694.1223301453
 30
0.0
 11
27.0997903112
 21
-703.1223301453
 31
0.0
  0
LINE
  5
5C6
330
1F
100
AcDbEntity
  8
0
  6
Continuous
 62
     7
370
    25
100
AcDbLine
 10
-136.9002096888
 20
-703.1223301453
 30
0.0
 11
27.0997903112
 21
-703.1223301453
 31
0.0
  0
LINE
  5
5C7
330
1F
100
AcDbEntity
  8
0
  6
Continuous
 62
     7
370
    25
100
AcDbLine
 10
-106.1502096888
 20
-659.1223301453
 30
0.0
 11
-105.6749425499
 21
-659.1223301453
 31
0.0
  0
LINE
  5
5C8
330
1F
100
AcDbEntity
  8
0
  6
Continuous
 62
     7
370
    25
100
AcDbLine
 10
-93.1749425499
 20
-659.1223301453
 30
0.0
 11
-76.8995202682
 21
-659.1223301453
 31
0.0
  0
LINE
  5
5C9
330
1F
100
AcDbEntity
  8
0
  6
Continuous
 62
     7
370
    25
100
AcDbLine
 10
-64.3995202682
 20
-659.1223301453
 30
0.0
 11
-45.4008991093
 21
-659.1223301453
 31
0.0
  0
LINE
  5
5CA
330
1F
100
AcDbEntity
  8
0
  6
Continuous
 62
     7
370
    25
100
AcDbLine
 10
-32.9008991093
 20
-659.1223301453
 30
0.0
 11
-16.6254768276
 21
-659.1223301453
 31
0.0
  0
LINE
  5
5CB
330
1F
100
AcDbEntity
  8
0
  6
Continuous
 62
     7
370
    25
100
AcDbLine
 10
-4.1254768276
 20
-659.1223301453
 30
0.0
 11
-3.6502096888
 21
-659.1223301453
 31
0.0
  0
LINE
  5
5CC
330
1F
100
AcDbEntity
  8
0
  6
Continuous
 62
     7
370
    25
100
AcDbLine
 10
25.5997903112
 20
167.6736698547
 30
0.0
 11
25.5997903112
 21
108.0816698547
 31
0.0
  0
LINE
  5
5CD
330
1F
100
AcDbEntity
  8
0
  6
Continuous
 62
     7
370
    25
100
AcDbLine
 10
-115.3502096888
 20
-484.8249401602
 30
0.0
 11
-124.3502096888
 21
-484.8249401602
 31
0.0
  0
LINE
  5
5CE
330
1F
100
AcDbEntity
  8
0
  6
Continuous
 62
     7
370
    25
100
AcDbLine
 10
-115.3502096888
 20
-485.8249401602
 30
0.0
 11
-124.3502096888
 21
-485.8249401602
 31
0.0
  0
LINE
  5
5CF
330
1F
100
AcDbEntity
  8
0
  6
Continuous
 62
     7
370
    25
100
AcDbLine
 10
-124.3502096888
 20
-512.0723301453
 30
0.0
 11
-124.3502096888
 21
-472.6223301453
 31
0.0
  0
LINE
  5
5D0
330
1F
100
AcDbEntity
  8
0
  6
Continuous
 62
     7
370
    25
100
AcDbLine
 10
-115.3502096888
 20
-512.0723301453
 30
0.0
 11
-115.3502096888
 21
-472.6223301453
 31
0.0
  0
LINE
  5
5D1
330
1F
100
AcDbEntity
  8
0
  6
Continuous
 62
     7
370
    25
100
AcDbLine
 10
-115.3502096888
 20
-512.0723301453
 30
0.0
 11
-124.3502096888
 21
-512.0723301453
 31
0.0
  0
LINE
  5
5D2
330
1F
100
AcDbEntity
  8
0
  6
Continuous
 62
     7
370
    25
100
AcDbLine
 10
-115.3502096888
 20
-483.7028610783
 30
0.0
 11
-124.3502096888
 21
-483.7028610783
 31
0.0
  0
LINE
  5
5D3
330
1F
100
AcDbEntity
  8
0
  6
Continuous
 62
     7
370
    25
100
AcDbLine
 10
-92.4002096888
 20
-485.8249401602
 30
0.0
 11
-83.4002096888
 21
-485.8249401602
 31
0.0
  0
LINE
  5
5D4
330
1F
100
AcDbEntity
  8
0
  6
Continuous
 62
     7
370
    25
100
AcDbLine
 10
-92.4002096888
 20
-484.8249401602
 30
0.0
 11
-83.4002096888
 21
-484.8249401602
 31
0.0
  0
LINE
  5
5D5
330
1F
100
AcDbEntity
  8
0
  6
Continuous
 62
     7
370
    25
100
AcDbLine
 10
-92.4002096888
 20
-512.0723301453
 30
0.0
 11
-92.4002096888
 21
-472.6223301453
 31
0.0
  0
LINE
  5
5D6
330
1F
100
AcDbEntity
  8
0
  6
Continuous
 62
     7
370
    25
100
AcDbLine
 10
-92.4002096888
 20
-512.0723301453
 30
0.0
 11
-83.4002096888
 21
-512.0723301453
 31
0.0
  0
LINE
  5
5D7
330
1F
100
AcDbEntity
  8
0
  6
Continuous
 62
     7
370
    25
100
AcDbLine
 10
-92.4002096888
 20
-483.7028610783
 30
0.0
 11
-83.4002096888
 21
-483.7028610783
 31
0.0
  0
LINE
  5
5D8
330
1F
100
AcDbEntity
  8
0
  6
Continuous
 62
     7
370
    25
100
AcDbLine
 10
-83.4002096888
 20
-472.6223301453
 30
0.0
 11
-83.4002096888
 21
-567.1223301453
 31
0.0
  0
LINE
  5
5D9
330
1F
100
AcDbEntity
  8
0
  6
Continuous
 62
     7
370
    25
100
AcDbLine
 10
-109.0002096888
 20
166.314033491
 30
0.0
 11
-109.0002096888
 21
106.4413062183
 31
0.0
  0
LINE
  5
5DA
330
1F
100
AcDbEntity
  8
0
  6
Continuous
 62
     7
370
    25
100
AcDbLine
 10
-111.6002096888
 20
166.314033491
 30
0.0
 11
-111.6002096888
 21
106.4413062183
 31
0.0
  0
LINE
  5
5DB
330
1F
100
AcDbEntity
  8
0
  6
Continuous
 62
     7
370
    25
100
AcDbLine
 10
-109.0002096888
 20
136.6811928591
 30
0.0
 11
-93.5002096888
 21
136.6811928591
 31
0.0
  0
LINE
  5
5DC
330
1F
100
AcDbEntity
  8
0
  6
Continuous
 62
     7
370
    25
100
AcDbLine
 10
-109.0002096888
 20
136.0741468502
 30
0.0
 11
-93.5002096888
 21
136.0741468502
 31
0.0
  0
LINE
  5
5DD
330
1F
100
AcDbEntity
  8
0
  6
Continuous
 62
     7
370
    25
100
AcDbLine
 10
-109.0002096888
 20
139.0480496459
 30
0.0
 11
-93.5002096888
 21
139.0480496459
 31
0.0
  0
LINE
  5
5DE
330
1F
100
AcDbEntity
  8
0
  6
Continuous
 62
     7
370
    25
100
AcDbLine
 10
-109.0002096888
 20
138.939006988
 30
0.0
 11
-93.5002096888
 21
138.939006988
 31
0.0
  0
LINE
  5
5DF
330
1F
100
AcDbEntity
  8
0
  6
Continuous
 62
     7
370
    25
100
AcDbLine
 10
-109.0002096888
 20
133.7072900635
 30
0.0
 11
-93.5002096888
 21
133.7072900635
 31
0.0
  0
LINE
  5
5E0
330
1F
100
AcDbEntity
  8
0
  6
Continuous
 62
     7
370
    25
100
AcDbLine
 10
-109.0002096888
 20
133.8163327214
 30
0.0
 11
-93.5002096888
 21
133.8163327214
 31
0.0
  0
LINE
  5
5E1
330
1F
100
AcDbEntity
  8
0
  6
Continuous
 62
     7
370
    25
100
AcDbLine
 10
-109.0002096888
 20
139.6517701932
 30
0.0
 11
-93.5002096888
 21
139.6517701932
 31
0.0
  0
LINE
  5
5E2
330
1F
100
AcDbEntity
  8
0
  6
Continuous
 62
     7
370
    25
100
AcDbLine
 10
-109.0002096888
 20
133.1035695161
 30
0.0
 11
-93.5002096888
 21
133.1035695161
 31
0.0
  0
LINE
  5
5E3
330
1F
100
AcDbEntity
  8
0
  6
Continuous
 62
     7
370
    25
100
AcDbLine
 10
-109.0002096888
 20
133.8447681352
 30
0.0
 11
-93.5002096888
 21
133.8447681352
 31
0.0
  0
LINE
  5
5E4
330
1F
100
AcDbEntity
  8
0
  6
Continuous
 62
     7
370
    25
100
AcDbLine
 10
-109.0002096888
 20
138.9105715741
 30
0.0
 11
-93.5002096888
 21
138.9105715741
 31
0.0
  0
LINE
  5
5E5
330
1F
100
AcDbEntity
  8
0
  6
Continuous
 62
     7
370
    25
100
AcDbLine
 10
-109.0002096888
 20
141.9926952017
 30
0.0
 11
-93.5002096888
 21
141.9926952017
 31
0.0
  0
LINE
  5
5E6
330
1F
100
AcDbEntity
  8
0
  6
Continuous
 62
     7
370
    25
100
AcDbLine
 10
-109.0002096888
 20
141.8747146026
 30
0.0
 11
-93.5002096888
 21
141.8747146026
 31
0.0
  0
LINE
  5
5E7
330
1F
100
AcDbEntity
  8
0
  6
Continuous
 62
     7
370
    25
100
AcDbLine
 10
-109.0002096888
 20
130.7626445076
 30
0.0
 11
-93.5002096888
 21
130.7626445076
 31
0.0
  0
LINE
  5
5E8
330
1F
100
AcDbEntity
  8
0
  6
Continuous
 62
     7
370
    25
100
AcDbLine
 10
-109.0002096888
 20
130.8806251068
 30
0.0
 11
-93.5002096888
 21
130.8806251068
 31
0.0
  0
LINE
  5
5E9
330
1F
100
AcDbEntity
  8
0
  6
Continuous
 62
     7
370
    25
100
AcDbLine
 10
-109.0002096888
 20
142.5864757988
 30
0.0
 11
-93.5002096888
 21
142.5864757988
 31
0.0
  0
LINE
  5
5EA
330
1F
100
AcDbEntity
  8
0
  6
Continuous
 62
     7
370
    25
100
AcDbLine
 10
-109.0002096888
 20
130.1688639105
 30
0.0
 11
-93.5002096888
 21
130.1688639105
 31
0.0
  0
LINE
  5
5EB
330
1F
100
AcDbEntity
  8
0
  6
Continuous
 62
     7
370
    25
100
AcDbLine
 10
-109.0002096888
 20
141.8109034539
 30
0.0
 11
-93.5002096888
 21
141.8109034539
 31
0.0
  0
LINE
  5
5EC
330
1F
100
AcDbEntity
  8
0
  6
Continuous
 62
     7
370
    25
100
AcDbLine
 10
-109.0002096888
 20
130.9444362554
 30
0.0
 11
-93.5002096888
 21
130.9444362554
 31
0.0
  0
LINE
  5
5ED
330
1F
100
AcDbEntity
  8
0
  6
Continuous
 62
     7
370
    25
100
AcDbLine
 10
-109.0002096888
 20
144.6517076894
 30
0.0
 11
-93.5002096888
 21
144.6517076894
 31
0.0
  0
LINE
  5
5EE
330
1F
100
AcDbEntity
  8
0
  6
Continuous
 62
     7
370
    25
100
AcDbLine
 10
-109.0002096888
 20
128.1036320199
 30
0.0
 11
-93.5002096888
 21
128.1036320199
 31
0.0
  0
LINE
  5
5EF
330
1F
100
AcDbEntity
  8
0
  6
Continuous
 62
     7
370
    25
100
AcDbLine
 10
-109.0002096888
 20
144.8758213648
 30
0.0
 11
-93.5002096888
 21
144.8758213648
 31
0.0
  0
LINE
  5
5F0
330
1F
100
AcDbEntity
  8
0
  6
Continuous
 62
     7
370
    25
100
AcDbLine
 10
-109.0002096888
 20
144.7501954446
 30
0.0
 11
-93.5002096888
 21
144.7501954446
 31
0.0
  0
LINE
  5
5F1
330
1F
100
AcDbEntity
  8
0
  6
Continuous
 62
     7
370
    25
100
AcDbLine
 10
-109.0002096888
 20
127.8795183445
 30
0.0
 11
-93.5002096888
 21
127.8795183445
 31
0.0
  0
LINE
  5
5F2
330
1F
100
AcDbEntity
  8
0
  6
Continuous
 62
     7
370
    25
100
AcDbLine
 10
-109.0002096888
 20
128.0051442648
 30
0.0
 11
-93.5002096888
 21
128.0051442648
 31
0.0
  0
LINE
  5
5F3
330
1F
100
AcDbEntity
  8
0
  6
Continuous
 62
     7
370
    25
100
AcDbLine
 10
-109.0002096888
 20
145.4531564273
 30
0.0
 11
-93.5002096888
 21
145.4531564273
 31
0.0
  0
LINE
  5
5F4
330
1F
100
AcDbEntity
  8
0
  6
Continuous
 62
     7
370
    25
100
AcDbLine
 10
-109.0002096888
 20
127.302183282
 30
0.0
 11
-93.5002096888
 21
127.302183282
 31
0.0
  0
LINE
  5
5F5
330
1F
100
AcDbEntity
  8
0
  6
Continuous
 62
     7
370
    25
100
AcDbLine
 10
-109.0002096888
 20
147.4018598349
 30
0.0
 11
-93.5002096888
 21
147.4018598349
 31
0.0
  0
LINE
  5
5F6
330
1F
100
AcDbEntity
  8
0
  6
Continuous
 62
     7
370
    25
100
AcDbLine
 10
-109.0002096888
 20
125.3534798744
 30
0.0
 11
-93.5002096888
 21
125.3534798744
 31
0.0
  0
LINE
  5
5F7
330
1F
100
AcDbEntity
  8
0
  6
Continuous
 62
     7
370
    25
100
AcDbLine
 10
-109.0002096888
 20
147.6658400016
 30
0.0
 11
-93.5002096888
 21
147.6658400016
 31
0.0
  0
LINE
  5
5F8
330
1F
100
AcDbEntity
  8
0
  6
Continuous
 62
     7
370
    25
100
AcDbLine
 10
-109.0002096888
 20
147.5339451441
 30
0.0
 11
-93.5002096888
 21
147.5339451441
 31
0.0
  0
LINE
  5
5F9
330
1F
100
AcDbEntity
  8
0
  6
Continuous
 62
     7
370
    25
100
AcDbLine
 10
-109.0002096888
 20
125.0894997077
 30
0.0
 11
-93.5002096888
 21
125.0894997077
 31
0.0
  0
LINE
  5
5FA
330
1F
100
AcDbEntity
  8
0
  6
Continuous
 62
     7
370
    25
100
AcDbLine
 10
-109.0002096888
 20
125.2213945652
 30
0.0
 11
-93.5002096888
 21
125.2213945652
 31
0.0
  0
LINE
  5
5FB
330
1F
100
AcDbEntity
  8
0
  6
Continuous
 62
     7
370
    25
100
AcDbLine
 10
-109.0002096888
 20
148.2204041257
 30
0.0
 11
-93.5002096888
 21
148.2204041257
 31
0.0
  0
LINE
  5
5FC
330
1F
100
AcDbEntity
  8
0
  6
Continuous
 62
     7
370
    25
100
AcDbLine
 10
-109.0002096888
 20
124.5349355837
 30
0.0
 11
-93.5002096888
 21
124.5349355837
 31
0.0
  0
LINE
  5
5FD
330
1F
100
AcDbEntity
  8
0
  6
Continuous
 62
     7
370
    25
100
AcDbLine
 10
-109.0002096888
 20
150.0312286481
 30
0.0
 11
-93.5002096888
 21
150.0312286481
 31
0.0
  0
LINE
  5
5FE
330
1F
100
AcDbEntity
  8
0
  6
Continuous
 62
     7
370
    25
100
AcDbLine
 10
-109.0002096888
 20
122.7241110613
 30
0.0
 11
-93.5002096888
 21
122.7241110613
 31
0.0
  0
LINE
  5
5FF
330
1F
100
AcDbEntity
  8
0
  6
Continuous
 62
     7
370
    25
100
AcDbLine
 10
-109.0002096888
 20
150.3321830841
 30
0.0
 11
-93.5002096888
 21
150.3321830841
 31
0.0
  0
LINE
  5
600
330
1F
100
AcDbEntity
  8
0
  6
Continuous
 62
     7
370
    25
100
AcDbLine
 10
-109.0002096888
 20
150.1954643571
 30
0.0
 11
-93.5002096888
 21
150.1954643571
 31
0.0
  0
LINE
  5
601
330
1F
100
AcDbEntity
  8
0
  6
Continuous
 62
     7
370
    25
100
AcDbLine
 10
-109.0002096888
 20
122.4231566252
 30
0.0
 11
-93.5002096888
 21
122.4231566252
 31
0.0
  0
LINE
  5
602
330
1F
100
AcDbEntity
  8
0
  6
Continuous
 62
     7
370
    25
100
AcDbLine
 10
-109.0002096888
 20
122.5598753523
 30
0.0
 11
-93.5002096888
 21
122.5598753523
 31
0.0
  0
LINE
  5
603
330
1F
100
AcDbEntity
  8
0
  6
Continuous
 62
     7
370
    25
100
AcDbLine
 10
-109.0002096888
 20
150.8579003491
 30
0.0
 11
-93.5002096888
 21
150.8579003491
 31
0.0
  0
LINE
  5
604
330
1F
100
AcDbEntity
  8
0
  6
Continuous
 62
     7
370
    25
100
AcDbLine
 10
-109.0002096888
 20
121.8974393602
 30
0.0
 11
-93.5002096888
 21
121.8974393602
 31
0.0
  0
LINE
  5
605
330
1F
100
AcDbEntity
  8
0
  6
Continuous
 62
     7
370
    25
100
AcDbLine
 10
-109.0002096888
 20
152.5110062139
 30
0.0
 11
-93.5002096888
 21
152.5110062139
 31
0.0
  0
LINE
  5
606
330
1F
100
AcDbEntity
  8
0
  6
Continuous
 62
     7
370
    25
100
AcDbLine
 10
-109.0002096888
 20
120.2443334954
 30
0.0
 11
-93.5002096888
 21
120.2443334954
 31
0.0
  0
LINE
  5
607
330
1F
100
AcDbEntity
  8
0
  6
Continuous
 62
     7
370
    25
100
AcDbLine
 10
-109.0002096888
 20
152.8456375995
 30
0.0
 11
-93.5002096888
 21
152.8456375995
 31
0.0
  0
LINE
  5
608
330
1F
100
AcDbEntity
  8
0
  6
Continuous
 62
     7
370
    25
100
AcDbLine
 10
-109.0002096888
 20
152.7055929218
 30
0.0
 11
-93.5002096888
 21
152.7055929218
 31
0.0
  0
LINE
  5
609
330
1F
100
AcDbEntity
  8
0
  6
Continuous
 62
     7
370
    25
100
AcDbLine
 10
-109.0002096888
 20
119.9097021098
 30
0.0
 11
-93.5002096888
 21
119.9097021098
 31
0.0
  0
LINE
  5
60A
330
1F
100
AcDbEntity
  8
0
  6
Continuous
 62
     7
370
    25
100
AcDbLine
 10
-109.0002096888
 20
120.0497467875
 30
0.0
 11
-93.5002096888
 21
120.0497467875
 31
0.0
  0
LINE
  5
60B
330
1F
100
AcDbEntity
  8
0
  6
Continuous
 62
     7
370
    25
100
AcDbLine
 10
-109.0002096888
 20
153.3367481371
 30
0.0
 11
-93.5002096888
 21
153.3367481371
 31
0.0
  0
LINE
  5
60C
330
1F
100
AcDbEntity
  8
0
  6
Continuous
 62
     7
370
    25
100
AcDbLine
 10
-109.0002096888
 20
119.4185915722
 30
0.0
 11
-93.5002096888
 21
119.4185915722
 31
0.0
  0
LINE
  5
60D
330
1F
100
AcDbEntity
  8
0
  6
Continuous
 62
     7
370
    25
100
AcDbLine
 10
-109.0002096888
 20
154.8140235704
 30
0.0
 11
-93.5002096888
 21
154.8140235704
 31
0.0
  0
LINE
  5
60E
330
1F
100
AcDbEntity
  8
0
  6
Continuous
 62
     7
370
    25
100
AcDbLine
 10
-109.0002096888
 20
117.9413161389
 30
0.0
 11
-93.5002096888
 21
117.9413161389
 31
0.0
  0
LINE
  5
60F
330
1F
100
AcDbEntity
  8
0
  6
Continuous
 62
     7
370
    25
100
AcDbLine
 10
-109.0002096888
 20
155.1786656141
 30
0.0
 11
-93.5002096888
 21
155.1786656141
 31
0.0
  0
LINE
  5
610
330
1F
100
AcDbEntity
  8
0
  6
Continuous
 62
     7
370
    25
100
AcDbLine
 10
-109.0002096888
 20
155.0368293447
 30
0.0
 11
-93.5002096888
 21
155.0368293447
 31
0.0
  0
LINE
  5
611
330
1F
100
AcDbEntity
  8
0
  6
Continuous
 62
     7
370
    25
100
AcDbLine
 10
-109.0002096888
 20
117.5766740952
 30
0.0
 11
-93.5002096888
 21
117.5766740952
 31
0.0
  0
LINE
  5
612
330
1F
100
AcDbEntity
  8
0
  6
Continuous
 62
     7
370
    25
100
AcDbLine
 10
-109.0002096888
 20
117.7185103647
 30
0.0
 11
-93.5002096888
 21
117.7185103647
 31
0.0
  0
LINE
  5
613
330
1F
100
AcDbEntity
  8
0
  6
Continuous
 62
     7
370
    25
100
AcDbLine
 10
-109.0002096888
 20
155.6297887145
 30
0.0
 11
-93.5002096888
 21
155.6297887145
 31
0.0
  0
LINE
  5
614
330
1F
100
AcDbEntity
  8
0
  6
Continuous
 62
     7
370
    25
100
AcDbLine
 10
-109.0002096888
 20
117.1255509948
 30
0.0
 11
-93.5002096888
 21
117.1255509948
 31
0.0
  0
LINE
  5
615
330
1F
100
AcDbEntity
  8
0
  6
Continuous
 62
     7
370
    25
100
AcDbLine
 10
-109.0002096888
 20
156.9150483776
 30
0.0
 11
-93.5002096888
 21
156.9150483776
 31
0.0
  0
LINE
  5
616
330
1F
100
AcDbEntity
  8
0
  6
Continuous
 62
     7
370
    25
100
AcDbLine
 10
-109.0002096888
 20
115.8402913317
 30
0.0
 11
-93.5002096888
 21
115.8402913317
 31
0.0
  0
LINE
  5
617
330
1F
100
AcDbEntity
  8
0
  6
Continuous
 62
     7
370
    25
100
AcDbLine
 10
-109.0002096888
 20
157.3057059849
 30
0.0
 11
-93.5002096888
 21
157.3057059849
 31
0.0
  0
LINE
  5
618
330
1F
100
AcDbEntity
  8
0
  6
Continuous
 62
     7
370
    25
100
AcDbLine
 10
-109.0002096888
 20
157.1636321114
 30
0.0
 11
-93.5002096888
 21
157.1636321114
 31
0.0
  0
LINE
  5
619
330
1F
100
AcDbEntity
  8
0
  6
Continuous
 62
     7
370
    25
100
AcDbLine
 10
-109.0002096888
 20
115.4496337245
 30
0.0
 11
-93.5002096888
 21
115.4496337245
 31
0.0
  0
LINE
  5
61A
330
1F
100
AcDbEntity
  8
0
  6
Continuous
 62
     7
370
    25
100
AcDbLine
 10
-109.0002096888
 20
115.5917075979
 30
0.0
 11
-93.5002096888
 21
115.5917075979
 31
0.0
  0
LINE
  5
61B
330
1F
100
AcDbEntity
  8
0
  6
Continuous
 62
     7
370
    25
100
AcDbLine
 10
-109.0002096888
 20
157.7118990489
 30
0.0
 11
-93.5002096888
 21
157.7118990489
 31
0.0
  0
LINE
  5
61C
330
1F
100
AcDbEntity
  8
0
  6
Continuous
 62
     7
370
    25
100
AcDbLine
 10
-109.0002096888
 20
115.0434406604
 30
0.0
 11
-93.5002096888
 21
115.0434406604
 31
0.0
  0
LINE
  5
61D
330
1F
100
AcDbEntity
  8
0
  6
Continuous
 62
     7
370
    25
100
AcDbLine
 10
-109.0002096888
 20
158.791061368
 30
0.0
 11
-93.5002096888
 21
158.791061368
 31
0.0
  0
LINE
  5
61E
330
1F
100
AcDbEntity
  8
0
  6
Continuous
 62
     7
370
    25
100
AcDbLine
 10
-109.0002096888
 20
113.9642783414
 30
0.0
 11
-93.5002096888
 21
113.9642783414
 31
0.0
  0
LINE
  5
61F
330
1F
100
AcDbEntity
  8
0
  6
Continuous
 62
     7
370
    25
100
AcDbLine
 10
-109.0002096888
 20
159.2034544123
 30
0.0
 11
-93.5002096888
 21
159.2034544123
 31
0.0
  0
LINE
  5
620
330
1F
100
AcDbEntity
  8
0
  6
Continuous
 62
     7
370
    25
100
AcDbLine
 10
-109.0002096888
 20
159.062699526
 30
0.0
 11
-93.5002096888
 21
159.062699526
 31
0.0
  0
LINE
  5
621
330
1F
100
AcDbEntity
  8
0
  6
Continuous
 62
     7
370
    25
100
AcDbLine
 10
-109.0002096888
 20
113.5518852971
 30
0.0
 11
-93.5002096888
 21
113.5518852971
 31
0.0
  0
LINE
  5
622
330
1F
100
AcDbEntity
  8
0
  6
Continuous
 62
     7
370
    25
100
AcDbLine
 10
-109.0002096888
 20
113.6926401834
 30
0.0
 11
-93.5002096888
 21
113.6926401834
 31
0.0
  0
LINE
  5
623
330
1F
100
AcDbEntity
  8
0
  6
Continuous
 62
     7
370
    25
100
AcDbLine
 10
-109.0002096888
 20
159.5602671038
 30
0.0
 11
-93.5002096888
 21
159.5602671038
 31
0.0
  0
LINE
  5
624
330
1F
100
AcDbEntity
  8
0
  6
Continuous
 62
     7
370
    25
100
AcDbLine
 10
-109.0002096888
 20
113.1950726056
 30
0.0
 11
-93.5002096888
 21
113.1950726056
 31
0.0
  0
LINE
  5
625
330
1F
100
AcDbEntity
  8
0
  6
Continuous
 62
     7
370
    25
100
AcDbLine
 10
-109.0002096888
 20
160.4215085506
 30
0.0
 11
-93.5002096888
 21
160.4215085506
 31
0.0
  0
LINE
  5
626
330
1F
100
AcDbEntity
  8
0
  6
Continuous
 62
     7
370
    25
100
AcDbLine
 10
-109.0002096888
 20
112.3338311587
 30
0.0
 11
-93.5002096888
 21
112.3338311587
 31
0.0
  0
LINE
  5
627
330
1F
100
AcDbEntity
  8
0
  6
Continuous
 62
     7
370
    25
100
AcDbLine
 10
-109.0002096888
 20
160.8511187675
 30
0.0
 11
-93.5002096888
 21
160.8511187675
 31
0.0
  0
LINE
  5
628
330
1F
100
AcDbEntity
  8
0
  6
Continuous
 62
     7
370
    25
100
AcDbLine
 10
-109.0002096888
 20
160.7132250083
 30
0.0
 11
-93.5002096888
 21
160.7132250083
 31
0.0
  0
LINE
  5
629
330
1F
100
AcDbEntity
  8
0
  6
Continuous
 62
     7
370
    25
100
AcDbLine
 10
-109.0002096888
 20
111.9042209419
 30
0.0
 11
-93.5002096888
 21
111.9042209419
 31
0.0
  0
LINE
  5
62A
330
1F
100
AcDbEntity
  8
0
  6
Continuous
 62
     7
370
    25
100
AcDbLine
 10
-109.0002096888
 20
112.042114701
 30
0.0
 11
-93.5002096888
 21
112.042114701
 31
0.0
  0
LINE
  5
62B
330
1F
100
AcDbEntity
  8
0
  6
Continuous
 62
     7
370
    25
100
AcDbLine
 10
-109.0002096888
 20
161.1546417719
 30
0.0
 11
-93.5002096888
 21
161.1546417719
 31
0.0
  0
LINE
  5
62C
330
1F
100
AcDbEntity
  8
0
  6
Continuous
 62
     7
370
    25
100
AcDbLine
 10
-109.0002096888
 20
111.6006979374
 30
0.0
 11
-93.5002096888
 21
111.6006979374
 31
0.0
  0
LINE
  5
62D
330
1F
100
AcDbEntity
  8
0
  6
Continuous
 62
     7
370
    25
100
AcDbLine
 10
-109.0002096888
 20
161.788526405
 30
0.0
 11
-93.5002096888
 21
161.788526405
 31
0.0
  0
LINE
  5
62E
330
1F
100
AcDbEntity
  8
0
  6
Continuous
 62
     7
370
    25
100
AcDbLine
 10
-109.0002096888
 20
110.9668133044
 30
0.0
 11
-93.5002096888
 21
110.9668133044
 31
0.0
  0
LINE
  5
62F
330
1F
100
AcDbEntity
  8
0
  6
Continuous
 62
     7
370
    25
100
AcDbLine
 10
-109.0002096888
 20
162.230646895
 30
0.0
 11
-93.5002096888
 21
162.230646895
 31
0.0
  0
LINE
  5
630
330
1F
100
AcDbEntity
  8
0
  6
Continuous
 62
     7
370
    25
100
AcDbLine
 10
-109.0002096888
 20
162.0971250558
 30
0.0
 11
-93.5002096888
 21
162.0971250558
 31
0.0
  0
LINE
  5
631
330
1F
100
AcDbEntity
  8
0
  6
Continuous
 62
     7
370
    25
100
AcDbLine
 10
-109.0002096888
 20
110.5246928144
 30
0.0
 11
-93.5002096888
 21
110.5246928144
 31
0.0
  0
LINE
  5
632
330
1F
100
AcDbEntity
  8
0
  6
Continuous
 62
     7
370
    25
100
AcDbLine
 10
-109.0002096888
 20
110.6582146535
 30
0.0
 11
-93.5002096888
 21
110.6582146535
 31
0.0
  0
LINE
  5
633
330
1F
100
AcDbEntity
  8
0
  6
Continuous
 62
     7
370
    25
100
AcDbLine
 10
-109.0002096888
 20
162.4775547508
 30
0.0
 11
-93.5002096888
 21
162.4775547508
 31
0.0
  0
LINE
  5
634
330
1F
100
AcDbEntity
  8
0
  6
Continuous
 62
     7
370
    25
100
AcDbLine
 10
-109.0002096888
 20
110.2777849585
 30
0.0
 11
-93.5002096888
 21
110.2777849585
 31
0.0
  0
LINE
  5
635
330
1F
100
AcDbEntity
  8
0
  6
Continuous
 62
     7
370
    25
100
AcDbLine
 10
-109.0002096888
 20
162.8771375974
 30
0.0
 11
-93.5002096888
 21
162.8771375974
 31
0.0
  0
LINE
  5
636
330
1F
100
AcDbEntity
  8
0
  6
Continuous
 62
     7
370
    25
100
AcDbLine
 10
-109.0002096888
 20
109.8782021119
 30
0.0
 11
-93.5002096888
 21
109.8782021119
 31
0.0
  0
LINE
  5
637
330
1F
100
AcDbEntity
  8
0
  6
Continuous
 62
     7
370
    25
100
AcDbLine
 10
-109.0002096888
 20
163.3269243959
 30
0.0
 11
-93.5002096888
 21
163.3269243959
 31
0.0
  0
LINE
  5
638
330
1F
100
AcDbEntity
  8
0
  6
Continuous
 62
     7
370
    25
100
AcDbLine
 10
-109.0002096888
 20
163.19923737
 30
0.0
 11
-93.5002096888
 21
163.19923737
 31
0.0
  0
LINE
  5
639
330
1F
100
AcDbEntity
  8
0
  6
Continuous
 62
     7
370
    25
100
AcDbLine
 10
-109.0002096888
 20
109.4284153134
 30
0.0
 11
-93.5002096888
 21
109.4284153134
 31
0.0
  0
LINE
  5
63A
330
1F
100
AcDbEntity
  8
0
  6
Continuous
 62
     7
370
    25
100
AcDbLine
 10
-109.0002096888
 20
109.5561023393
 30
0.0
 11
-93.5002096888
 21
109.5561023393
 31
0.0
  0
LINE
  5
63B
330
1F
100
AcDbEntity
  8
0
  6
Continuous
 62
     7
370
    25
100
AcDbLine
 10
-109.0002096888
 20
163.514511929
 30
0.0
 11
-93.5002096888
 21
163.514511929
 31
0.0
  0
LINE
  5
63C
330
1F
100
AcDbEntity
  8
0
  6
Continuous
 62
     7
370
    25
100
AcDbLine
 10
-109.0002096888
 20
109.2408277803
 30
0.0
 11
-93.5002096888
 21
109.2408277803
 31
0.0
  0
LINE
  5
63D
330
1F
100
AcDbEntity
  8
0
  6
Continuous
 62
     7
370
    25
100
AcDbLine
 10
-109.0002096888
 20
163.6754150759
 30
0.0
 11
-93.5002096888
 21
163.6754150759
 31
0.0
  0
LINE
  5
63E
330
1F
100
AcDbEntity
  8
0
  6
Continuous
 62
     7
370
    25
100
AcDbLine
 10
-109.0002096888
 20
109.0799246334
 30
0.0
 11
-93.5002096888
 21
109.0799246334
 31
0.0
  0
LINE
  5
63F
330
1F
100
AcDbEntity
  8
0
  6
Continuous
 62
     7
370
    25
100
AcDbLine
 10
-109.0002096888
 20
164.1279402246
 30
0.0
 11
-93.5002096888
 21
164.1279402246
 31
0.0
  0
LINE
  5
640
330
1F
100
AcDbEntity
  8
0
  6
Continuous
 62
     7
370
    25
100
AcDbLine
 10
-109.0002096888
 20
164.0074869777
 30
0.0
 11
-93.5002096888
 21
164.0074869777
 31
0.0
  0
LINE
  5
641
330
1F
100
AcDbEntity
  8
0
  6
Continuous
 62
     7
370
    25
100
AcDbLine
 10
-109.0002096888
 20
108.6273994847
 30
0.0
 11
-93.5002096888
 21
108.6273994847
 31
0.0
  0
LINE
  5
642
330
1F
100
AcDbEntity
  8
0
  6
Continuous
 62
     7
370
    25
100
AcDbLine
 10
-109.0002096888
 20
108.7478527316
 30
0.0
 11
-93.5002096888
 21
108.7478527316
 31
0.0
  0
LINE
  5
643
330
1F
100
AcDbEntity
  8
0
  6
Continuous
 62
     7
370
    25
100
AcDbLine
 10
-109.0002096888
 20
164.2541521868
 30
0.0
 11
-93.5002096888
 21
164.2541521868
 31
0.0
  0
LINE
  5
644
330
1F
100
AcDbEntity
  8
0
  6
Continuous
 62
     7
370
    25
100
AcDbLine
 10
-109.0002096888
 20
108.5011875226
 30
0.0
 11
-93.5002096888
 21
108.5011875226
 31
0.0
  0
LINE
  5
645
330
1F
100
AcDbEntity
  8
0
  6
Continuous
 62
     7
370
    25
100
AcDbLine
 10
-109.0002096888
 20
164.6249182841
 30
0.0
 11
-93.5002096888
 21
164.6249182841
 31
0.0
  0
LINE
  5
646
330
1F
100
AcDbEntity
  8
0
  6
Continuous
 62
     7
370
    25
100
AcDbLine
 10
-109.0002096888
 20
164.5130185271
 30
0.0
 11
-93.5002096888
 21
164.5130185271
 31
0.0
  0
LINE
  5
647
330
1F
100
AcDbEntity
  8
0
  6
Continuous
 62
     7
370
    25
100
AcDbLine
 10
-109.0002096888
 20
108.1304214253
 30
0.0
 11
-93.5002096888
 21
108.1304214253
 31
0.0
  0
LINE
  5
648
330
1F
100
AcDbEntity
  8
0
  6
Continuous
 62
     7
370
    25
100
AcDbLine
 10
-109.0002096888
 20
108.2423211822
 30
0.0
 11
-93.5002096888
 21
108.2423211822
 31
0.0
  0
LINE
  5
649
330
1F
100
AcDbEntity
  8
0
  6
Continuous
 62
     7
370
    25
100
AcDbLine
 10
-109.0002096888
 20
164.6883718705
 30
0.0
 11
-93.5002096888
 21
164.6883718705
 31
0.0
  0
LINE
  5
64A
330
1F
100
AcDbEntity
  8
0
  6
Continuous
 62
     7
370
    25
100
AcDbLine
 10
-109.0002096888
 20
108.0669678388
 30
0.0
 11
-93.5002096888
 21
108.0669678388
 31
0.0
  0
LINE
  5
64B
330
1F
100
AcDbEntity
  8
0
  6
Continuous
 62
     7
370
    25
100
AcDbLine
 10
-109.0002096888
 20
164.8124135786
 30
0.0
 11
-93.5002096888
 21
164.8124135786
 31
0.0
  0
LINE
  5
64C
330
1F
100
AcDbEntity
  8
0
  6
Continuous
 62
     7
370
    25
100
AcDbLine
 10
-109.0002096888
 20
164.7102933088
 30
0.0
 11
-93.5002096888
 21
164.7102933088
 31
0.0
  0
LINE
  5
64D
330
1F
100
AcDbEntity
  8
0
  6
Continuous
 62
     7
370
    25
100
AcDbLine
 10
-101.2502096888
 20
117.0932534589
 30
0.0
 11
-101.2502096888
 21
164.814033491
 31
0.0
  0
LINE
  5
64E
330
1F
100
AcDbEntity
  8
0
  6
Continuous
 62
     7
370
    25
100
AcDbLine
 10
-109.0002096888
 20
107.9429261307
 30
0.0
 11
-93.5002096888
 21
107.9429261307
 31
0.0
  0
LINE
  5
64F
330
1F
100
AcDbEntity
  8
0
  6
Continuous
 62
     7
370
    25
100
AcDbLine
 10
-109.0002096888
 20
108.0450464006
 30
0.0
 11
-93.5002096888
 21
108.0450464006
 31
0.0
  0
LINE
  5
650
330
1F
100
AcDbEntity
  8
0
  6
Continuous
 62
     7
370
    25
100
AcDbLine
 10
-101.2502096888
 20
107.9413062183
 30
0.0
 11
-101.2502096888
 21
117.0917075979
 31
0.0
  0
LINE
  5
651
330
1F
100
AcDbEntity
  8
0
  6
Continuous
 62
     7
370
    25
100
AcDbLine
 10
-113.3002096888
 20
167.814033491
 30
0.0
 11
-113.3002096888
 21
107.9413062183
 31
0.0
  0
LINE
  5
652
330
1F
100
AcDbEntity
  8
0
  6
Continuous
 62
     7
370
    25
100
AcDbLine
 10
-110.7002096888
 20
167.814033491
 30
0.0
 11
-110.7002096888
 21
166.314033491
 31
0.0
  0
LINE
  5
653
330
1F
100
AcDbEntity
  8
0
  6
Continuous
 62
     7
370
    25
100
AcDbLine
 10
-102.9502096888
 20
164.814033491
 30
0.0
 11
-102.9502096888
 21
166.314033491
 31
0.0
  0
LINE
  5
654
330
1F
100
AcDbEntity
  8
0
  6
Continuous
 62
     7
370
    25
100
AcDbLine
 10
-85.9002096888
 20
74.091003188
 30
0.0
 11
-86.9002096888
 21
74.091003188
 31
0.0
  0
LINE
  5
655
330
1F
100
AcDbEntity
  8
0
  6
Continuous
 62
     7
370
    25
100
AcDbLine
 10
-86.9002096888
 20
74.091003188
 30
0.0
 11
-86.9002096888
 21
4.401003188
 31
0.0
  0
LINE
  5
656
330
1F
100
AcDbEntity
  8
0
  6
Continuous
 62
     7
370
    25
100
AcDbLine
 10
-16.9002096888
 20
4.401003188
 30
0.0
 11
-92.9002096888
 21
4.401003188
 31
0.0
  0
LINE
  5
657
330
1F
100
AcDbEntity
  8
0
  6
Continuous
 62
     7
370
    25
100
AcDbLine
 10
-92.9002096888
 20
106.4413062183
 30
0.0
 11
-92.9002096888
 21
4.401003188
 31
0.0
  0
LINE
  5
658
330
1F
100
AcDbEntity
  8
0
  6
Continuous
 62
     7
370
    25
100
AcDbLine
 10
-85.9002096888
 20
101.8793719199
 30
0.0
 11
-85.9002096888
 21
74.091003188
 31
0.0
  0
LINE
  5
659
330
1F
100
AcDbEntity
  8
0
  6
Continuous
 62
     7
370
    25
100
AcDbLine
 10
-92.9002096888
 20
180.8954220613
 30
0.0
 11
-85.9002096888
 21
180.8954220613
 31
0.0
  0
LINE
  5
65A
330
1F
100
AcDbEntity
  8
0
  6
Continuous
 62
     7
370
    25
100
AcDbLine
 10
-92.9002096888
 20
183.1842626339
 30
0.0
 11
-92.9002096888
 21
167.814033491
 31
0.0
  0
LINE
  5
65B
330
1F
100
AcDbEntity
  8
0
  6
Continuous
 62
     7
370
    25
100
AcDbLine
 10
-26.3502096888
 20
174.4597693023
 30
0.0
 11
-82.9002096888
 21
174.4597693023
 31
0.0
  0
LINE
  5
65C
330
1F
100
AcDbEntity
  8
0
  6
Continuous
 62
     7
370
    25
100
AcDbLine
 10
-26.3502096888
 20
152.9905782445
 30
0.0
 11
-26.4002096888
 21
152.5461685236
 31
0.0
  0
LINE
  5
65D
330
1F
100
AcDbEntity
  8
0
  6
Continuous
 62
     7
370
    25
100
AcDbLine
 10
-26.4002096888
 20
123.2091711857
 30
0.0
 11
-26.3502096888
 21
122.7647614648
 31
0.0
  0
LINE
  5
65E
330
1F
100
AcDbEntity
  8
0
  6
Continuous
 62
     7
370
    25
100
AcDbLine
 10
-26.3502096888
 20
101.295570407
 30
0.0
 11
-82.9002096888
 21
101.295570407
 31
0.0
  0
LINE
  5
65F
330
1F
100
AcDbEntity
  8
0
  6
Continuous
 62
     7
370
    25
100
AcDbLine
 10
27.0997903112
 20
-652.1223301453
 30
0.0
 11
-136.9002096888
 21
-652.1223301453
 31
0.0
  0
LINE
  5
660
330
1F
100
AcDbEntity
  8
0
  6
Continuous
 62
     7
370
    25
100
AcDbLine
 10
27.0997903112
 20
-643.1223301453
 30
0.0
 11
-136.9002096888
 21
-643.1223301453
 31
0.0
  0
LINE
  5
661
330
1F
100
AcDbEntity
  8
0
  6
Continuous
 62
     7
370
    25
100
AcDbLine
 10
14.5997903112
 20
-512.1223301453
 30
0.0
 11
-53.4002096888
 21
-512.1223301453
 31
0.0
  0
LINE
  5
662
330
1F
100
AcDbEntity
  8
0
  6
Continuous
 62
     7
370
    25
100
AcDbLine
 10
-53.4002096888
 20
-451.1223301453
 30
0.0
 11
-53.4002096888
 21
-576.1223301453
 31
0.0
  0
LINE
  5
663
330
1F
100
AcDbEntity
  8
0
  6
Continuous
 62
     7
370
    25
100
AcDbLine
 10
14.5997903112
 20
-451.1223301453
 30
0.0
 11
14.5997903112
 21
-576.1223301453
 31
0.0
  0
LINE
  5
664
330
1F
100
AcDbEntity
  8
0
  6
Continuous
 62
     7
370
    25
100
AcDbLine
 10
14.5997903112
 20
-576.1223301453
 30
0.0
 11
-124.4002096888
 21
-576.1223301453
 31
0.0
  0
LINE
  5
665
330
1F
100
AcDbEntity
  8
0
  6
Continuous
 62
     7
370
    25
100
AcDbLine
 10
-22.9002096888
 20
74.041003188
 30
0.0
 11
-86.9002096888
 21
74.041003188
 31
0.0
  0
LINE
  5
666
330
1F
100
AcDbEntity
  8
0
  6
Continuous
 62
     7
370
    25
100
AcDbLine
 10
-75.8202096888
 20
10.651003188
 30
0.0
 11
-75.8202096888
 21
20.651003188
 31
0.0
  0
LINE
  5
667
330
1F
100
AcDbEntity
  8
0
  6
Continuous
 62
     7
370
    25
100
AcDbLine
 10
-28.6802096888
 20
10.651003188
 30
0.0
 11
-28.6802096888
 21
20.651003188
 31
0.0
  0
LINE
  5
668
330
1F
100
AcDbEntity
  8
0
  6
Continuous
 62
     7
370
    25
100
AcDbLine
 10
-33.9802096888
 20
10.651003188
 30
0.0
 11
-33.9802096888
 21
20.651003188
 31
0.0
  0
LINE
  5
669
330
1F
100
AcDbEntity
  8
0
  6
Continuous
 62
     7
370
    25
100
AcDbLine
 10
-81.1202096888
 20
10.651003188
 30
0.0
 11
-81.1202096888
 21
20.651003188
 31
0.0
  0
LINE
  5
66A
330
1F
100
AcDbEntity
  8
0
  6
Continuous
 62
     7
370
    25
100
AcDbLine
 10
-33.8502096888
 20
34.221003188
 30
0.0
 11
-33.8502096888
 21
44.221003188
 31
0.0
  0
LINE
  5
66B
330
1F
100
AcDbEntity
  8
0
  6
Continuous
 62
     7
370
    25
100
AcDbLine
 10
-75.9502096888
 20
34.221003188
 30
0.0
 11
-75.9502096888
 21
44.221003188
 31
0.0
  0
LINE
  5
66C
330
1F
100
AcDbEntity
  8
0
  6
Continuous
 62
     7
370
    25
100
AcDbLine
 10
-33.9802096888
 20
67.791003188
 30
0.0
 11
-33.9802096888
 21
57.791003188
 31
0.0
  0
LINE
  5
66D
330
1F
100
AcDbEntity
  8
0
  6
Continuous
 62
     7
370
    25
100
AcDbLine
 10
-28.6802096888
 20
67.791003188
 30
0.0
 11
-28.6802096888
 21
57.791003188
 31
0.0
  0
LINE
  5
66E
330
1F
100
AcDbEntity
  8
0
  6
Continuous
 62
     7
370
    25
100
AcDbLine
 10
-81.1202096888
 20
67.791003188
 30
0.0
 11
-81.1202096888
 21
57.791003188
 31
0.0
  0
LINE
  5
66F
330
1F
100
AcDbEntity
  8
0
  6
Continuous
 62
     7
370
    25
100
AcDbLine
 10
-75.8202096888
 20
67.791003188
 30
0.0
 11
-75.8202096888
 21
57.791003188
 31
0.0
  0
LINE
  5
670
330
1F
100
AcDbEntity
  8
0
  6
Continuous
 62
     7
370
    25
100
AcDbLine
 10
14.6997903112
 20
176.3776698547
 30
0.0
 11
14.6997903112
 21
99.3776698547
 31
0.0
  0
LINE
  5
671
330
1F
100
AcDbEntity
  8
0
  6
Continuous
 62
     7
370
    25
100
AcDbLine
 10
-13.3002096888
 20
99.3776698547
 30
0.0
 11
-13.3002096888
 21
176.3776698547
 31
0.0
  0
LINE
  5
672
330
1F
100
AcDbEntity
  8
0
  6
Continuous
 62
     7
370
    25
100
AcDbLine
 10
20.6997903112
 20
158.7599748547
 30
0.0
 11
20.6997903112
 21
116.9953648547
 31
0.0
  0
LINE
  5
673
330
1F
100
AcDbEntity
  8
0
  6
Continuous
 62
     7
370
    25
100
AcDbLine
 10
32.5997903112
 20
167.6736698547
 30
0.0
 11
32.5997903112
 21
108.0816698547
 31
0.0
  0
LINE
  5
674
330
1F
100
AcDbEntity
  8
0
  6
Continuous
 62
     7
370
    25
100
AcDbLine
 10
15.5997903112
 20
158.7599768547
 30
0.0
 11
15.5997903112
 21
190.3776698547
 31
0.0
  0
LINE
  5
675
330
1F
100
AcDbEntity
  8
0
  6
Continuous
 62
     7
370
    25
100
AcDbLine
 10
-25.4002096888
 20
190.3776698547
 30
0.0
 11
-25.4002096888
 21
182.1796558293
 31
0.0
  0
LINE
  5
676
330
1F
100
AcDbEntity
  8
0
  6
Continuous
 62
     7
370
    25
100
AcDbLine
 10
-25.4002096888
 20
93.5756838801
 30
0.0
 11
-25.4002096888
 21
85.3776698547
 31
0.0
  0
LINE
  5
677
330
1F
100
AcDbEntity
  8
0
  6
Continuous
 62
     7
370
    25
100
AcDbLine
 10
-147.4002096888
 20
-484.0223301453
 30
0.0
 11
-147.4002096888
 21
-494.0915537389
 31
0.0
  0
LINE
  5
678
330
1F
100
AcDbEntity
  8
0
  6
Continuous
 62
     7
370
    25
100
AcDbLine
 10
-147.4002096888
 20
-530.1531065517
 30
0.0
 11
-147.4002096888
 21
-540.2223301453
 31
0.0
  0
LINE
  5
679
330
1F
100
AcDbEntity
  8
0
  6
Continuous
 62
     7
370
    25
100
AcDbLine
 10
-147.4002096888
 20
-530.1531065517
 30
0.0
 11
-147.6502096888
 21
-529.1223301453
 31
0.0
  0
LINE
  5
67A
330
1F
100
AcDbEntity
  8
0
  6
Continuous
 62
     7
370
    25
100
AcDbLine
 10
-147.6502096888
 20
-493.1223301453
 30
0.0
 11
-152.9002096888
 21
-493.1223301453
 31
0.0
  0
LINE
  5
67B
330
1F
100
AcDbEntity
  8
0
  6
Continuous
 62
     7
370
    25
100
AcDbLine
 10
-147.6502096888
 20
-531.1223301453
 30
0.0
 11
-152.9002096888
 21
-531.1223301453
 31
0.0
  0
LINE
  5
67C
330
1F
100
AcDbEntity
  8
0
  6
Continuous
 62
     7
370
    25
100
AcDbLine
 10
-145.4002096888
 20
-484.0223301453
 30
0.0
 11
-152.9002096888
 21
-484.0223301453
 31
0.0
  0
LINE
  5
67D
330
1F
100
AcDbEntity
  8
0
  6
Continuous
 62
     7
370
    25
100
AcDbLine
 10
-147.6502096888
 20
-495.1223301453
 30
0.0
 11
-254.4002096888
 21
-495.1223301453
 31
0.0
  0
LINE
  5
67E
330
1F
100
AcDbEntity
  8
0
  6
Continuous
 62
     7
370
    25
100
AcDbLine
 10
-254.4002096888
 20
-539.9223301453
 30
0.0
 11
-254.4002096888
 21
-484.3223301453
 31
0.0
  0
LINE
  5
67F
330
1F
100
AcDbEntity
  8
0
  6
Continuous
 62
     7
370
    25
100
AcDbLine
 10
-243.4002096888
 20
-493.1223301453
 30
0.0
 11
-252.9002096888
 21
-493.1223301453
 31
0.0
  0
LINE
  5
680
330
1F
100
AcDbEntity
  8
0
  6
Continuous
 62
     7
370
    25
100
AcDbLine
 10
-147.6502096888
 20
-529.1223301453
 30
0.0
 11
-254.4002096888
 21
-529.1223301453
 31
0.0
  0
LINE
  5
681
330
1F
100
AcDbEntity
  8
0
  6
Continuous
 62
     7
370
    25
100
AcDbLine
 10
-243.4002096888
 20
-531.1223301453
 30
0.0
 11
-252.9002096888
 21
-531.1223301453
 31
0.0
  0
LINE
  5
682
330
1F
100
AcDbEntity
  8
0
  6
Continuous
 62
     7
370
    25
100
AcDbLine
 10
-147.4002096888
 20
-540.2223301453
 30
0.0
 11
-145.4002096888
 21
-540.2223301453
 31
0.0
  0
LINE
  5
683
330
1F
100
AcDbEntity
  8
0
  6
Continuous
 62
     7
370
    25
100
AcDbLine
 10
-152.9002096888
 20
-493.3723301453
 30
0.0
 11
-243.4002096888
 21
-493.3723301453
 31
0.0
  0
LINE
  5
684
330
1F
100
AcDbEntity
  8
0
  6
Continuous
 62
     7
370
    25
100
AcDbLine
 10
-152.9002096888
 20
-530.8723301453
 30
0.0
 11
-243.4002096888
 21
-530.8723301453
 31
0.0
  0
LINE
  5
685
330
1F
100
AcDbEntity
  8
0
  6
Continuous
 62
     7
370
    25
100
AcDbLine
 10
-147.4002096888
 20
-488.1223301453
 30
0.0
 11
-254.4002096888
 21
-488.1223301453
 31
0.0
  0
LINE
  5
686
330
1F
100
AcDbEntity
  8
0
  6
Continuous
 62
     7
370
    25
100
AcDbLine
 10
-147.4002096888
 20
-536.1223301453
 30
0.0
 11
-254.4002096888
 21
-536.1223301453
 31
0.0
  0
LINE
  5
687
330
1F
100
AcDbEntity
  8
0
  6
Continuous
 62
     7
370
    25
100
AcDbLine
 10
-147.6502096888
 20
-495.1223301453
 30
0.0
 11
-147.6502096888
 21
-484.0223301453
 31
0.0
  0
LINE
  5
688
330
1F
100
AcDbEntity
  8
0
  6
Continuous
 62
     7
370
    25
100
AcDbLine
 10
-147.6502096888
 20
-540.2223301453
 30
0.0
 11
-147.6502096888
 21
-529.1223301453
 31
0.0
  0
LINE
  5
689
330
1F
100
AcDbEntity
  8
0
  6
Continuous
 62
     7
370
    25
100
AcDbLine
 10
-147.6502096888
 20
-540.2223301453
 30
0.0
 11
-152.9002096888
 21
-540.2223301453
 31
0.0
  0
LINE
  5
68A
330
1F
100
AcDbEntity
  8
0
  6
Continuous
 62
     7
370
    25
100
AcDbLine
 10
-152.9002096888
 20
-540.2223301453
 30
0.0
 11
-152.9002096888
 21
-484.0223301453
 31
0.0
  0
LINE
  5
68B
330
1F
100
AcDbEntity
  8
0
  6
Continuous
 62
     7
370
    25
100
AcDbLine
 10
-145.4002096888
 20
-486.0223301453
 30
0.0
 11
-254.4002096888
 21
-486.0223301453
 31
0.0
  0
LINE
  5
68C
330
1F
100
AcDbEntity
  8
0
  6
Continuous
 62
     7
370
    25
100
AcDbLine
 10
-243.4002096888
 20
-484.0223301453
 30
0.0
 11
-252.9002096888
 21
-484.0223301453
 31
0.0
  0
LINE
  5
68D
330
1F
100
AcDbEntity
  8
0
  6
Continuous
 62
     7
370
    25
100
AcDbLine
 10
-243.4002096888
 20
-540.2223301453
 30
0.0
 11
-252.9002096888
 21
-540.2223301453
 31
0.0
  0
LINE
  5
68E
330
1F
100
AcDbEntity
  8
0
  6
Continuous
 62
     7
370
    25
100
AcDbLine
 10
-252.9002096888
 20
-484.0223301453
 30
0.0
 11
-252.9002096888
 21
-540.2223301453
 31
0.0
  0
LINE
  5
68F
330
1F
100
AcDbEntity
  8
0
  6
Continuous
 62
     7
370
    25
100
AcDbLine
 10
-145.4002096888
 20
-538.2223301453
 30
0.0
 11
-254.4002096888
 21
-538.2223301453
 31
0.0
  0
LINE
  5
690
330
1F
100
AcDbEntity
  8
0
  6
Continuous
 62
     7
370
    25
100
AcDbLine
 10
-243.4002096888
 20
-484.0223301453
 30
0.0
 11
-243.4002096888
 21
-540.2223301453
 31
0.0
  0
LINE
  5
691
330
1F
100
AcDbEntity
  8
0
  6
Continuous
 62
     7
370
    25
100
AcDbLine
 10
-152.9002096888
 20
-484.2723301453
 30
0.0
 11
-243.4002096888
 21
-484.2723301453
 31
0.0
  0
LINE
  5
692
330
1F
100
AcDbEntity
  8
0
  6
Continuous
 62
     7
370
    25
100
AcDbLine
 10
-152.9002096888
 20
-539.9723301453
 30
0.0
 11
-243.4002096888
 21
-539.9723301453
 31
0.0
  0
LINE
  5
693
330
1F
100
AcDbEntity
  8
0
  6
Continuous
 62
     7
370
    25
100
AcDbLine
 10
-115.3502096888
 20
-512.1223301453
 30
0.0
 11
-124.3502096888
 21
-512.1223301453
 31
0.0
  0
LINE
  5
694
330
1F
100
AcDbEntity
  8
0
  6
Continuous
 62
     7
370
    25
100
AcDbLine
 10
-115.3502096888
 20
-512.1223301453
 30
0.0
 11
-115.3502096888
 21
-567.1223301453
 31
0.0
  0
LINE
  5
695
330
1F
100
AcDbEntity
  8
0
  6
Continuous
 62
     7
370
    25
100
AcDbLine
 10
-124.3502096888
 20
-512.1223301453
 30
0.0
 11
-124.3502096888
 21
-567.1223301453
 31
0.0
  0
LINE
  5
696
330
1F
100
AcDbEntity
  8
0
  6
Continuous
 62
     7
370
    25
100
AcDbLine
 10
-93.5002096888
 20
166.314033491
 30
0.0
 11
-93.5002096888
 21
106.4413062183
 31
0.0
  0
LINE
  5
697
330
1F
100
AcDbEntity
  8
0
  6
Continuous
 62
     7
370
    25
100
AcDbLine
 10
-90.9002096888
 20
166.4597693023
 30
0.0
 11
-90.9002096888
 21
106.4413062183
 31
0.0
  0
LINE
  5
698
330
1F
100
AcDbEntity
  8
0
  6
Continuous
 62
     7
370
    25
100
AcDbLine
 10
-95.2002096888
 20
167.814033491
 30
0.0
 11
-95.2002096888
 21
164.8269243959
 31
0.0
  0
LINE
  5
699
330
1F
100
AcDbEntity
  8
0
  6
Continuous
 62
     7
370
    25
100
AcDbLine
 10
-92.6002096888
 20
167.814033491
 30
0.0
 11
-92.6002096888
 21
166.314033491
 31
0.0
  0
LINE
  5
69A
330
1F
100
AcDbEntity
  8
0
  6
Continuous
 62
     7
370
    25
100
AcDbLine
 10
-109.0002096888
 20
164.8269243959
 30
0.0
 11
-95.2002096888
 21
164.8269243959
 31
0.0
  0
LINE
  5
69B
330
1F
100
AcDbEntity
  8
0
  6
Continuous
 62
     7
370
    25
100
AcDbLine
 10
-109.0002096888
 20
165.0145119291
 30
0.0
 11
-95.2002096888
 21
165.0145119291
 31
0.0
  0
LINE
  5
69C
330
1F
100
AcDbEntity
  8
0
  6
Continuous
 62
     7
370
    25
100
AcDbLine
 10
-109.0002096888
 20
165.1754150759
 30
0.0
 11
-95.2002096888
 21
165.1754150759
 31
0.0
  0
LINE
  5
69D
330
1F
100
AcDbEntity
  8
0
  6
Continuous
 62
     7
370
    25
100
AcDbLine
 10
-109.0002096888
 20
165.6279402246
 30
0.0
 11
-95.2002096888
 21
165.6279402246
 31
0.0
  0
LINE
  5
69E
330
1F
100
AcDbEntity
  8
0
  6
Continuous
 62
     7
370
    25
100
AcDbLine
 10
-109.0002096888
 20
165.5074869777
 30
0.0
 11
-95.2002096888
 21
165.5074869777
 31
0.0
  0
LINE
  5
69F
330
1F
100
AcDbEntity
  8
0
  6
Continuous
 62
     7
370
    25
100
AcDbLine
 10
-109.0002096888
 20
165.7541521868
 30
0.0
 11
-95.2002096888
 21
165.7541521868
 31
0.0
  0
LINE
  5
6A0
330
1F
100
AcDbEntity
  8
0
  6
Continuous
 62
     7
370
    25
100
AcDbLine
 10
-109.0002096888
 20
166.1249182841
 30
0.0
 11
-95.2002096888
 21
166.1249182841
 31
0.0
  0
LINE
  5
6A1
330
1F
100
AcDbEntity
  8
0
  6
Continuous
 62
     7
370
    25
100
AcDbLine
 10
-109.0002096888
 20
166.0130185271
 30
0.0
 11
-95.2002096888
 21
166.0130185271
 31
0.0
  0
LINE
  5
6A2
330
1F
100
AcDbEntity
  8
0
  6
Continuous
 62
     7
370
    25
100
AcDbLine
 10
-109.0002096888
 20
166.1883718705
 30
0.0
 11
-95.2002096888
 21
166.1883718705
 31
0.0
  0
LINE
  5
6A3
330
1F
100
AcDbEntity
  8
0
  6
Continuous
 62
     7
370
    25
100
AcDbLine
 10
-109.0002096888
 20
166.3124135786
 30
0.0
 11
-95.2002096888
 21
166.3124135786
 31
0.0
  0
LINE
  5
6A4
330
1F
100
AcDbEntity
  8
0
  6
Continuous
 62
     7
370
    25
100
AcDbLine
 10
-109.0002096888
 20
166.2102933088
 30
0.0
 11
-95.2002096888
 21
166.2102933088
 31
0.0
  0
LINE
  5
6A5
330
1F
100
AcDbEntity
  8
0
  6
Continuous
 62
     7
370
    25
100
AcDbLine
 10
-23.9002096888
 20
182.1291368991
 30
0.0
 11
-26.4002096888
 21
182.1291368991
 31
0.0
  0
LINE
  5
6A6
330
1F
100
AcDbEntity
  8
0
  6
Continuous
 62
     7
370
    25
100
AcDbLine
 10
-23.9002096888
 20
176.3776698547
 30
0.0
 11
-23.9002096888
 21
182.1796558293
 31
0.0
  0
LINE
  5
6A7
330
1F
100
AcDbEntity
  8
0
  6
Continuous
 62
     7
370
    25
100
AcDbLine
 10
-85.9002096888
 20
187.7254260226
 30
0.0
 11
-33.4002096888
 21
187.7254260226
 31
0.0
  0
LINE
  5
6A8
330
1F
100
AcDbEntity
  8
0
  6
Continuous
 62
     7
370
    25
100
AcDbLine
 10
-26.4002096888
 20
183.1200876777
 30
0.0
 11
-33.4002096888
 21
183.1200876777
 31
0.0
  0
LINE
  5
6A9
330
1F
100
AcDbEntity
  8
0
  6
Continuous
 62
     7
370
    25
100
AcDbLine
 10
-26.4002096888
 20
190.3776698547
 30
0.0
 11
-26.4002096888
 21
182.1291368991
 31
0.0
  0
LINE
  5
6AA
330
1F
100
AcDbEntity
  8
0
  6
Continuous
 62
     7
370
    25
100
AcDbLine
 10
-85.9002096888
 20
173.8759677894
 30
0.0
 11
-85.9002096888
 21
190.3776639023
 31
0.0
  0
LINE
  5
6AB
330
1F
100
AcDbEntity
  8
0
  6
Continuous
 62
     7
370
    25
100
AcDbLine
 10
-85.9002096888
 20
88.0299136867
 30
0.0
 11
-33.4002096888
 21
88.0299136867
 31
0.0
  0
LINE
  5
6AC
330
1F
100
AcDbEntity
  8
0
  6
Continuous
 62
     7
370
    25
100
AcDbLine
 10
-26.4002096888
 20
93.6262028102
 30
0.0
 11
-23.9002096888
 21
93.6262028102
 31
0.0
  0
LINE
  5
6AD
330
1F
100
AcDbEntity
  8
0
  6
Continuous
 62
     7
370
    25
100
AcDbLine
 10
-26.4002096888
 20
93.6262028102
 30
0.0
 11
-26.4002096888
 21
85.3776698547
 31
0.0
  0
LINE
  5
6AE
330
1F
100
AcDbEntity
  8
0
  6
Continuous
 62
     7
370
    25
100
AcDbLine
 10
-33.4002096888
 20
92.6352520317
 30
0.0
 11
-26.4002096888
 21
92.6352520317
 31
0.0
  0
LINE
  5
6AF
330
1F
100
AcDbEntity
  8
0
  6
Continuous
 62
     7
370
    25
100
AcDbLine
 10
-85.9002096888
 20
190.3776639023
 30
0.0
 11
-33.4002096888
 21
190.3776639023
 31
0.0
  0
LINE
  5
6B0
330
1F
100
AcDbEntity
  8
0
  6
Continuous
 62
     7
370
    25
100
AcDbLine
 10
-85.9002096888
 20
85.3776758071
 30
0.0
 11
-33.4002096888
 21
85.3776758071
 31
0.0
  0
LINE
  5
6B1
330
1F
100
AcDbEntity
  8
0
  6
Continuous
 62
     7
370
    25
100
AcDbLine
 10
-57.4002096888
 20
147.1776698547
 30
0.0
 11
-52.4002096888
 21
147.1776698547
 31
0.0
  0
LINE
  5
6B2
330
1F
100
AcDbEntity
  8
0
  6
Continuous
 62
     7
370
    25
100
AcDbLine
 10
-57.4002096888
 20
144.41601827
 30
0.0
 11
-57.4002096888
 21
147.1776698547
 31
0.0
  0
LINE
  5
6B3
330
1F
100
AcDbEntity
  8
0
  6
Continuous
 62
     7
370
    25
100
AcDbLine
 10
-52.4002096888
 20
147.1776698547
 30
0.0
 11
-52.4002096888
 21
144.41601827
 31
0.0
  0
LINE
  5
6B4
330
1F
100
AcDbEntity
  8
0
  6
Continuous
 62
     7
370
    25
100
AcDbLine
 10
-82.4002096888
 20
109.3776698547
 30
0.0
 11
-27.4002096888
 21
109.3776698547
 31
0.0
  0
LINE
  5
6B5
330
1F
100
AcDbEntity
  8
0
  6
Continuous
 62
     7
370
    25
100
AcDbLine
 10
-82.4002096888
 20
109.3776698547
 30
0.0
 11
-83.4002096888
 21
110.3776698547
 31
0.0
  0
LINE
  5
6B6
330
1F
100
AcDbEntity
  8
0
  6
Continuous
 62
     7
370
    25
100
AcDbLine
 10
-83.4002096888
 20
165.3776698547
 30
0.0
 11
-83.4002096888
 21
110.3776698547
 31
0.0
  0
LINE
  5
6B7
330
1F
100
AcDbEntity
  8
0
  6
Continuous
 62
     7
370
    25
100
AcDbLine
 10
-83.4002096888
 20
165.3776698547
 30
0.0
 11
-82.4002096888
 21
166.3776698547
 31
0.0
  0
LINE
  5
6B8
330
1F
100
AcDbEntity
  8
0
  6
Continuous
 62
     7
370
    25
100
AcDbLine
 10
-27.4002096888
 20
166.3776698547
 30
0.0
 11
-82.4002096888
 21
166.3776698547
 31
0.0
  0
LINE
  5
6B9
330
1F
100
AcDbEntity
  8
0
  6
Continuous
 62
     7
370
    25
100
AcDbLine
 10
-27.4002096888
 20
166.3776698547
 30
0.0
 11
-26.4002096888
 21
165.3776698547
 31
0.0
  0
LINE
  5
6BA
330
1F
100
AcDbEntity
  8
0
  6
Continuous
 62
     7
370
    25
100
AcDbLine
 10
-26.4002096888
 20
110.3776698547
 30
0.0
 11
-26.4002096888
 21
165.3776698547
 31
0.0
  0
LINE
  5
6BB
330
1F
100
AcDbEntity
  8
0
  6
Continuous
 62
     7
370
    25
100
AcDbLine
 10
-26.4002096888
 20
110.3776698547
 30
0.0
 11
-27.4002096888
 21
109.3776698547
 31
0.0
  0
LINE
  5
6BC
330
1F
100
AcDbEntity
  8
0
  6
Continuous
 62
     7
370
    25
100
AcDbLine
 10
-56.4002096888
 20
-438.1223301453
 30
0.0
 11
-56.4002096888
 21
-381.1223301453
 31
0.0
  0
LINE
  5
6BD
330
1F
100
AcDbEntity
  8
0
  6
Continuous
 62
     7
370
    25
100
AcDbLine
 10
-56.4002096888
 20
-382.1223301453
 30
0.0
 11
-36.4002096888
 21
-382.1223301453
 31
0.0
  0
LINE
  5
6BE
330
1F
100
AcDbEntity
  8
0
  6
Continuous
 62
     7
370
    25
100
AcDbLine
 10
-36.4002096888
 20
-381.1223301453
 30
0.0
 11
-36.4002096888
 21
-438.1223301453
 31
0.0
  0
LINE
  5
6BF
330
1F
100
AcDbEntity
  8
0
  6
Continuous
 62
     7
370
    25
100
AcDbLine
 10
-36.4002096888
 20
-437.1223301453
 30
0.0
 11
-56.4002096888
 21
-437.1223301453
 31
0.0
  0
LINE
  5
6C0
330
1F
100
AcDbEntity
  8
0
  6
Continuous
 62
     7
370
    25
100
AcDbLine
 10
5.5997903112
 20
-382.1223301453
 30
0.0
 11
15.5997903112
 21
-382.1223301453
 31
0.0
  0
LINE
  5
6C1
330
1F
100
AcDbEntity
  8
0
  6
Continuous
 62
     7
370
    25
100
AcDbLine
 10
15.5997903112
 20
-437.1223301453
 30
0.0
 11
5.5997903112
 21
-437.1223301453
 31
0.0
  0
LINE
  5
6C2
330
1F
100
AcDbEntity
  8
0
  6
Continuous
 62
     7
370
    25
100
AcDbLine
 10
5.5997903112
 20
-381.1223301453
 30
0.0
 11
5.5997903112
 21
-438.1223301453
 31
0.0
  0
LINE
  5
6C3
330
1F
100
AcDbEntity
  8
0
  6
Continuous
 62
     7
370
    25
100
AcDbLine
 10
40.5997903112
 20
-412.1223301453
 30
0.0
 11
24.5997903112
 21
-412.1223301453
 31
0.0
  0
LINE
  5
6C4
330
1F
100
AcDbEntity
  8
0
  6
Continuous
 62
     7
370
    25
100
AcDbLine
 10
40.5997903112
 20
-407.1223301453
 30
0.0
 11
24.5997903112
 21
-407.1223301453
 31
0.0
  0
LINE
  5
6C5
330
1F
100
AcDbEntity
  8
0
  6
Continuous
 62
     7
370
    25
100
AcDbLine
 10
40.5997903112
 20
-416.6223301453
 30
0.0
 11
40.5997903112
 21
-402.6223301453
 31
0.0
  0
LINE
  5
6C6
330
1F
100
AcDbEntity
  8
0
  6
Continuous
 62
     7
370
    25
100
AcDbLine
 10
-81.1202096888
 20
12.3876698547
 30
0.0
 11
-75.8202096888
 21
12.3876698547
 31
0.0
  0
LINE
  5
6C7
330
1F
100
AcDbEntity
  8
0
  6
Continuous
 62
     7
370
    25
100
AcDbLine
 10
-33.9802096888
 20
12.3876698547
 30
0.0
 11
-28.6802096888
 21
12.3876698547
 31
0.0
  0
LINE
  5
6C8
330
1F
100
AcDbEntity
  8
0
  6
Continuous
 62
     7
370
    25
100
AcDbLine
 10
-29.215226106
 20
69.3876698547
 30
0.0
 11
-33.4451932716
 21
69.3876698547
 31
0.0
  0
LINE
  5
6C9
330
1F
100
AcDbEntity
  8
0
  6
Continuous
 62
     7
370
    25
100
AcDbLine
 10
-76.355226106
 20
69.3876698547
 30
0.0
 11
-80.5851932716
 21
69.3876698547
 31
0.0
  0
LINE
  5
6CA
330
1F
100
AcDbEntity
  8
0
  6
Continuous
 62
     7
370
    25
100
AcDbLine
 10
-83.4002096888
 20
-484.6223301453
 30
0.0
 11
-72.4002096888
 21
-484.6223301453
 31
0.0
  0
LINE
  5
6CB
330
1F
100
AcDbEntity
  8
0
  6
Continuous
 62
     7
370
    25
100
AcDbLine
 10
-72.4002096888
 20
-483.6223301453
 30
0.0
 11
-83.4002096888
 21
-483.6223301453
 31
0.0
  0
LINE
  5
6CC
330
1F
100
AcDbEntity
  8
0
  6
Continuous
 62
     7
370
    25
100
AcDbLine
 10
-72.4002096888
 20
-483.6223301453
 30
0.0
 11
-72.4002096888
 21
-540.6223301453
 31
0.0
  0
LINE
  5
6CD
330
1F
100
AcDbEntity
  8
0
  6
Continuous
 62
     7
370
    25
100
AcDbLine
 10
-145.4002096888
 20
-540.6223301453
 30
0.0
 11
-145.4002096888
 21
-483.6223301453
 31
0.0
  0
LINE
  5
6CE
330
1F
100
AcDbEntity
  8
0
  6
Continuous
 62
     7
370
    25
100
AcDbLine
 10
-145.4002096888
 20
-484.6223301453
 30
0.0
 11
-125.4002096888
 21
-484.6223301453
 31
0.0
  0
LINE
  5
6CF
330
1F
100
AcDbEntity
  8
0
  6
Continuous
 62
     7
370
    25
100
AcDbLine
 10
-125.4002096888
 20
-483.6223301453
 30
0.0
 11
-125.4002096888
 21
-540.6223301453
 31
0.0
  0
LINE
  5
6D0
330
1F
100
AcDbEntity
  8
0
  6
Continuous
 62
     7
370
    25
100
AcDbLine
 10
-125.4002096888
 20
-539.6223301453
 30
0.0
 11
-145.4002096888
 21
-539.6223301453
 31
0.0
  0
LINE
  5
6D1
330
1F
100
AcDbEntity
  8
0
  6
Continuous
 62
     7
370
    25
100
AcDbLine
 10
-72.4002096888
 20
-539.6223301453
 30
0.0
 11
-83.4002096888
 21
-539.6223301453
 31
0.0
  0
LINE
  5
6D2
330
1F
100
AcDbEntity
  8
0
  6
Continuous
 62
     7
370
    25
100
AcDbLine
 10
-83.4002096888
 20
-540.6223301453
 30
0.0
 11
-72.4002096888
 21
-540.6223301453
 31
0.0
  0
LINE
  5
6D3
330
1F
100
AcDbEntity
  8
0
  6
Continuous
 62
     7
370
    25
100
AcDbLine
 10
-69.4002096888
 20
-491.1223301453
 30
0.0
 11
-69.4002096888
 21
-533.1223301453
 31
0.0
  0
LINE
  5
6D4
330
1F
100
AcDbEntity
  8
0
  6
Continuous
 62
     7
370
    25
100
AcDbLine
 10
-63.4002096888
 20
-514.6223301453
 30
0.0
 11
-67.4002096888
 21
-514.6223301453
 31
0.0
  0
LINE
  5
6D5
330
1F
100
AcDbEntity
  8
0
  6
Continuous
 62
     7
370
    25
100
AcDbLine
 10
-63.4002096888
 20
-509.6223301453
 30
0.0
 11
-67.4002096888
 21
-509.6223301453
 31
0.0
  0
LINE
  5
6D6
330
1F
100
AcDbEntity
  8
0
  6
Continuous
 62
     7
370
    25
100
AcDbLine
 10
-67.4002096888
 20
-514.6223301453
 30
0.0
 11
-67.4002096888
 21
-509.6223301453
 31
0.0
  0
LINE
  5
6D7
330
1F
100
AcDbEntity
  8
0
  6
Continuous
 62
     7
370
    25
100
AcDbLine
 10
-57.4002096888
 20
-668.1223301453
 30
0.0
 11
-57.4002096888
 21
-659.1223301453
 31
0.0
  0
LINE
  5
6D8
330
1F
100
AcDbEntity
  8
0
  6
Continuous
 62
     7
370
    25
100
AcDbLine
 10
-52.4002096888
 20
-668.1223301453
 30
0.0
 11
-52.4002096888
 21
-659.1223301453
 31
0.0
  0
LINE
  5
6D9
330
1F
100
AcDbEntity
  8
0
  6
Continuous
 62
     7
370
    25
100
AcDbLine
 10
-61.9002096888
 20
-668.1223301453
 30
0.0
 11
-47.9002096888
 21
-668.1223301453
 31
0.0
  0
LINE
  5
6DA
330
1F
100
AcDbEntity
  8
0
  6
Continuous
 62
     7
370
    25
100
AcDbLine
 10
-91.4002096888
 20
167.4776698547
 30
0.0
 11
-91.4002096888
 21
166.314033491
 31
0.0
  0
LINE
  5
6DB
330
1F
100
AcDbEntity
  8
0
  6
Continuous
 62
     7
370
    25
100
AcDbLine
 10
-91.4002096888
 20
167.4776698547
 30
0.0
 11
-90.8351878529
 21
167.4776698547
 31
0.0
  0
LINE
  5
6DC
330
1F
100
AcDbEntity
  8
0
  6
Continuous
 62
     7
370
    25
100
AcDbLine
 10
-90.9002096888
 20
108.2776698547
 30
0.0
 11
-90.8351878529
 21
108.2776698547
 31
0.0
  0
LINE
  5
6DD
330
1F
100
AcDbEntity
  8
0
  6
Continuous
 62
     7
370
    25
100
AcDbLine
 10
-56.4002096888
 20
-381.4223301453
 30
0.0
 11
-136.5002096888
 21
-381.4223301453
 31
0.0
  0
LINE
  5
6DE
330
1F
100
AcDbEntity
  8
0
  6
Continuous
 62
     7
370
    25
100
AcDbLine
 10
-58.0002096888
 20
-381.4223301453
 30
0.0
 11
-58.0002096888
 21
-392.1723301453
 31
0.0
  0
LINE
  5
6DF
330
1F
100
AcDbEntity
  8
0
  6
Continuous
 62
     7
370
    25
100
AcDbLine
 10
-136.5002096888
 20
-437.8223301453
 30
0.0
 11
-136.5002096888
 21
-381.4223301453
 31
0.0
  0
LINE
  5
6E0
330
1F
100
AcDbEntity
  8
0
  6
Continuous
 62
     7
370
    25
100
AcDbLine
 10
-58.0002096888
 20
-392.1723301453
 30
0.0
 11
-137.0002096888
 21
-392.1723301453
 31
0.0
  0
LINE
  5
6E1
330
1F
100
AcDbEntity
  8
0
  6
Continuous
 62
     7
370
    25
100
AcDbLine
 10
-58.0002096888
 20
-427.0723301453
 30
0.0
 11
-58.0002096888
 21
-437.8223301453
 31
0.0
  0
LINE
  5
6E2
330
1F
100
AcDbEntity
  8
0
  6
Continuous
 62
     7
370
    25
100
AcDbLine
 10
-58.0002096888
 20
-427.0723301453
 30
0.0
 11
-137.0002096888
 21
-427.0723301453
 31
0.0
  0
LINE
  5
6E3
330
1F
100
AcDbEntity
  8
0
  6
Continuous
 62
     7
370
    25
100
AcDbLine
 10
-58.0002096888
 20
-390.1723301453
 30
0.0
 11
-136.5002096888
 21
-390.1723301453
 31
0.0
  0
LINE
  5
6E4
330
1F
100
AcDbEntity
  8
0
  6
Continuous
 62
     7
370
    25
100
AcDbLine
 10
-137.0002096888
 20
-390.6723301453
 30
0.0
 11
-136.5002096888
 21
-390.1723301453
 31
0.0
  0
LINE
  5
6E5
330
1F
100
AcDbEntity
  8
0
  6
Continuous
 62
     7
370
    25
100
AcDbLine
 10
-58.0002096888
 20
-429.0723301453
 30
0.0
 11
-136.5002096888
 21
-429.0723301453
 31
0.0
  0
LINE
  5
6E6
330
1F
100
AcDbEntity
  8
0
  6
Continuous
 62
     7
370
    25
100
AcDbLine
 10
-56.4002096888
 20
-437.8223301453
 30
0.0
 11
-136.5002096888
 21
-437.8223301453
 31
0.0
  0
LINE
  5
6E7
330
1F
100
AcDbEntity
  8
0
  6
Continuous
 62
     7
370
    25
100
AcDbLine
 10
-137.0002096888
 20
-428.5723301453
 30
0.0
 11
-136.5002096888
 21
-429.0723301453
 31
0.0
  0
LINE
  5
6E8
330
1F
100
AcDbEntity
  8
0
  6
Continuous
 62
     7
370
    25
100
AcDbLine
 10
-58.0002096888
 20
-385.9223301453
 30
0.0
 11
-137.0002096888
 21
-385.9223301453
 31
0.0
  0
LINE
  5
6E9
330
1F
100
AcDbEntity
  8
0
  6
Continuous
 62
     7
370
    25
100
AcDbLine
 10
-58.0002096888
 20
-433.3223301453
 30
0.0
 11
-137.0002096888
 21
-433.3223301453
 31
0.0
  0
LINE
  5
6EA
330
1F
100
AcDbEntity
  8
0
  6
Continuous
 62
     7
370
    25
100
AcDbLine
 10
-58.0002096888
 20
-383.4223301453
 30
0.0
 11
-137.0002096888
 21
-383.4223301453
 31
0.0
  0
LINE
  5
6EB
330
1F
100
AcDbEntity
  8
0
  6
Continuous
 62
     7
370
    25
100
AcDbLine
 10
-137.0002096888
 20
-381.9223301453
 30
0.0
 11
-136.5002096888
 21
-381.4223301453
 31
0.0
  0
LINE
  5
6EC
330
1F
100
AcDbEntity
  8
0
  6
Continuous
 62
     7
370
    25
100
AcDbLine
 10
-137.0002096888
 20
-437.4223301453
 30
0.0
 11
-137.0002096888
 21
-381.8223301453
 31
0.0
  0
LINE
  5
6ED
330
1F
100
AcDbEntity
  8
0
  6
Continuous
 62
     7
370
    25
100
AcDbLine
 10
-58.0002096888
 20
-435.8223301453
 30
0.0
 11
-137.0002096888
 21
-435.8223301453
 31
0.0
  0
LINE
  5
6EE
330
1F
100
AcDbEntity
  8
0
  6
Continuous
 62
     7
370
    25
100
AcDbLine
 10
-137.0002096888
 20
-437.3223301453
 30
0.0
 11
-136.5002096888
 21
-437.8223301453
 31
0.0
  0
LINE
  5
6EF
330
1F
100
AcDbEntity
  8
0
  6
Continuous
 62
     7
370
    25
100
AcDbLine
 10
-124.4002096888
 20
-567.1223301453
 30
0.0
 11
-124.4002096888
 21
-576.1223301453
 31
0.0
  0
LINE
  5
6F0
330
1F
100
AcDbEntity
  8
0
  6
Continuous
 62
     7
370
    25
100
AcDbLine
 10
-53.4002096888
 20
-567.1223301453
 30
0.0
 11
-124.4002096888
 21
-567.1223301453
 31
0.0
  0
LINE
  5
6F1
330
1F
100
AcDbEntity
  8
0
  6
Continuous
 62
     7
370
    25
100
AcDbLine
 10
24.5997903112
 20
-512.1223301453
 30
0.0
 11
15.5997903112
 21
-512.1223301453
 31
0.0
  0
LINE
  5
6F2
330
1F
100
AcDbEntity
  8
0
  6
Continuous
 62
     7
370
    25
100
AcDbLine
 10
15.5997903112
 20
-564.6223301453
 30
0.0
 11
15.5997903112
 21
-279.6223301453
 31
0.0
  0
LINE
  5
6F3
330
1F
100
AcDbEntity
  8
0
  6
Continuous
 62
     7
370
    25
100
AcDbLine
 10
24.5997903112
 20
-564.6223301453
 30
0.0
 11
24.5997903112
 21
-284.6223301453
 31
0.0
  0
LINE
  5
6F4
330
1F
100
AcDbEntity
  8
0
  6
Continuous
 62
     7
370
    25
100
AcDbLine
 10
24.5997903112
 20
-284.6223301453
 30
0.0
 11
19.5997903112
 21
-279.6223301453
 31
0.0
  0
LINE
  5
6F5
330
1F
100
AcDbEntity
  8
0
  6
Continuous
 62
     7
370
    25
100
AcDbLine
 10
15.5997903112
 20
-279.6223301453
 30
0.0
 11
19.5997903112
 21
-279.6223301453
 31
0.0
  0
LINE
  5
6F6
330
1F
100
AcDbEntity
  8
0
  6
Continuous
 62
     7
370
    25
100
AcDbLine
 10
11.5997903112
 20
-44.6223301453
 30
0.0
 11
6.5997903112
 21
-49.6223301453
 31
0.0
  0
LINE
  5
6F7
330
1F
100
AcDbEntity
  8
0
  6
Continuous
 62
     7
370
    25
100
AcDbLine
 10
15.5997903112
 20
-94.6223301453
 30
0.0
 11
15.5997903112
 21
116.9953628547
 31
0.0
  0
LINE
  5
6F8
330
1F
100
AcDbEntity
  8
0
  6
Continuous
 62
     7
370
    25
100
AcDbLine
 10
19.5997903112
 20
-94.6223301453
 30
0.0
 11
15.5997903112
 21
-94.6223301453
 31
0.0
  0
LINE
  5
6F9
330
1F
100
AcDbEntity
  8
0
  6
Continuous
 62
     7
370
    25
100
AcDbLine
 10
19.5997903112
 20
-279.6223301453
 30
0.0
 11
19.5997903112
 21
-94.6223301453
 31
0.0
  0
LINE
  5
6FA
330
1F
100
AcDbEntity
  8
0
  6
Continuous
 62
     7
370
    25
100
AcDbLine
 10
11.5997903112
 20
-329.6223301453
 30
0.0
 11
15.5997903112
 21
-329.6223301453
 31
0.0
  0
LINE
  5
6FB
330
1F
100
AcDbEntity
  8
0
  6
Continuous
 62
     7
370
    25
100
AcDbLine
 10
6.5997903112
 20
-324.6223301453
 30
0.0
 11
11.5997903112
 21
-329.6223301453
 31
0.0
  0
LINE
  5
6FC
330
1F
100
AcDbEntity
  8
0
  6
Continuous
 62
     7
370
    25
100
AcDbLine
 10
6.5997903112
 20
-324.6223301453
 30
0.0
 11
6.5997903112
 21
-49.6223301453
 31
0.0
  0
LINE
  5
6FD
330
1F
100
AcDbEntity
  8
0
  6
Continuous
 62
     7
370
    25
100
AcDbLine
 10
11.5997903112
 20
-44.6223301453
 30
0.0
 11
15.5997903112
 21
-44.6223301453
 31
0.0
  0
LINE
  5
6FE
330
1F
100
AcDbEntity
  8
0
  6
Continuous
 62
     7
370
    25
100
AcDbLine
 10
24.5997903112
 20
-89.6223301453
 30
0.0
 11
24.5997903112
 21
190.3776698547
 31
0.0
  0
LINE
  5
6FF
330
1F
100
AcDbEntity
  8
0
  6
Continuous
 62
     7
370
    25
100
AcDbLine
 10
19.5997903112
 20
-94.6223301453
 30
0.0
 11
24.5997903112
 21
-89.6223301453
 31
0.0
  0
LINE
  5
700
330
1F
100
AcDbEntity
  8
0
  6
Continuous
 62
     7
370
    25
100
AcDbLine
 10
-258.0002096888
 20
-487.1223301453
 30
0.0
 11
-254.4002096888
 21
-487.1223301453
 31
0.0
  0
LINE
  5
701
330
1F
100
AcDbEntity
  8
0
  6
Continuous
 62
     7
370
    25
100
AcDbLine
 10
-258.0002096888
 20
-537.1223301453
 30
0.0
 11
-254.4002096888
 21
-537.1223301453
 31
0.0
  0
LINE
  5
702
330
1F
100
AcDbEntity
  8
0
  6
Continuous
 62
     7
370
    25
100
AcDbLine
 10
-255.1173669763
 20
-494.6223301453
 30
0.0
 11
-255.1173669763
 21
-529.6223301453
 31
0.0
  0
LINE
  5
703
330
1F
100
AcDbEntity
  8
0
  6
Continuous
 62
     7
370
    25
100
AcDbLine
 10
-258.0002096888
 20
-484.3223301453
 30
0.0
 11
-254.4002096888
 21
-484.3223301453
 31
0.0
  0
LINE
  5
704
330
1F
100
AcDbEntity
  8
0
  6
Continuous
 62
     7
370
    25
100
AcDbLine
 10
-258.0002096888
 20
-529.6223301453
 30
0.0
 11
-255.1173669763
 21
-529.6223301453
 31
0.0
  0
LINE
  5
705
330
1F
100
AcDbEntity
  8
0
  6
Continuous
 62
     7
370
    25
100
AcDbLine
 10
-255.1173669763
 20
-494.6223301453
 30
0.0
 11
-258.0002096888
 21
-494.6223301453
 31
0.0
  0
LINE
  5
706
330
1F
100
AcDbEntity
  8
0
  6
Continuous
 62
     7
370
    25
100
AcDbLine
 10
-258.0002096888
 20
-539.9223301453
 30
0.0
 11
-258.0002096888
 21
-484.3223301453
 31
0.0
  0
LINE
  5
707
330
1F
100
AcDbEntity
  8
0
  6
Continuous
 62
     7
370
    25
100
AcDbLine
 10
-258.0002096888
 20
-539.9223301453
 30
0.0
 11
-254.4002096888
 21
-539.9223301453
 31
0.0
  0
LINE
  5
708
330
1F
100
AcDbEntity
  8
0
  6
Continuous
 62
     7
370
    25
100
AcDbLine
 10
-258.0002096888
 20
-502.4223301453
 30
0.0
 11
-261.0002096888
 21
-502.4223301453
 31
0.0
  0
LINE
  5
709
330
1F
100
AcDbEntity
  8
0
  6
Continuous
 62
     7
370
    25
100
AcDbLine
 10
-260.1173669763
 20
-497.6223301453
 30
0.0
 11
-260.1173669763
 21
-526.6223301453
 31
0.0
  0
LINE
  5
70A
330
1F
100
AcDbEntity
  8
0
  6
Continuous
 62
     7
370
    25
100
AcDbLine
 10
-258.0002096888
 20
-497.6223301453
 30
0.0
 11
-260.1173669763
 21
-497.6223301453
 31
0.0
  0
LINE
  5
70B
330
1F
100
AcDbEntity
  8
0
  6
Continuous
 62
     7
370
    25
100
AcDbLine
 10
-261.0002096888
 20
-525.7394874328
 30
0.0
 11
-261.0002096888
 21
-498.5051728578
 31
0.0
  0
LINE
  5
70C
330
1F
100
AcDbEntity
  8
0
  6
Continuous
 62
     7
370
    25
100
AcDbLine
 10
-260.1173669763
 20
-497.6223301453
 30
0.0
 11
-261.0002096888
 21
-498.5051728578
 31
0.0
  0
LINE
  5
70D
330
1F
100
AcDbEntity
  8
0
  6
Continuous
 62
     7
370
    25
100
AcDbLine
 10
-258.0002096888
 20
-521.8223301453
 30
0.0
 11
-261.0002096888
 21
-521.8223301453
 31
0.0
  0
LINE
  5
70E
330
1F
100
AcDbEntity
  8
0
  6
Continuous
 62
     7
370
    25
100
AcDbLine
 10
-258.0002096888
 20
-526.6223301453
 30
0.0
 11
-260.1173669763
 21
-526.6223301453
 31
0.0
  0
LINE
  5
70F
330
1F
100
AcDbEntity
  8
0
  6
Continuous
 62
     7
370
    25
100
AcDbLine
 10
-261.0002096888
 20
-525.7394874328
 30
0.0
 11
-260.1173669763
 21
-526.6223301453
 31
0.0
  0
LINE
  5
710
330
1F
100
AcDbEntity
  8
0
  6
Continuous
 62
     7
370
    25
100
AcDbLine
 10
-140.6002096888
 20
-384.6223301453
 30
0.0
 11
-137.0002096888
 21
-384.6223301453
 31
0.0
  0
LINE
  5
711
330
1F
100
AcDbEntity
  8
0
  6
Continuous
 62
     7
370
    25
100
AcDbLine
 10
-140.6002096888
 20
-434.6223301453
 30
0.0
 11
-137.0002096888
 21
-434.6223301453
 31
0.0
  0
LINE
  5
712
330
1F
100
AcDbEntity
  8
0
  6
Continuous
 62
     7
370
    25
100
AcDbLine
 10
-137.7173669763
 20
-392.1223301453
 30
0.0
 11
-137.7173669763
 21
-427.1223301453
 31
0.0
  0
LINE
  5
713
330
1F
100
AcDbEntity
  8
0
  6
Continuous
 62
     7
370
    25
100
AcDbLine
 10
-140.6002096888
 20
-437.4223301453
 30
0.0
 11
-140.6002096888
 21
-381.8223301453
 31
0.0
  0
LINE
  5
714
330
1F
100
AcDbEntity
  8
0
  6
Continuous
 62
     7
370
    25
100
AcDbLine
 10
-140.6002096888
 20
-381.8223301453
 30
0.0
 11
-137.0002096888
 21
-381.8223301453
 31
0.0
  0
LINE
  5
715
330
1F
100
AcDbEntity
  8
0
  6
Continuous
 62
     7
370
    25
100
AcDbLine
 10
-137.7173669763
 20
-392.1223301453
 30
0.0
 11
-140.6002096888
 21
-392.1223301453
 31
0.0
  0
LINE
  5
716
330
1F
100
AcDbEntity
  8
0
  6
Continuous
 62
     7
370
    25
100
AcDbLine
 10
-140.6002096888
 20
-427.1223301453
 30
0.0
 11
-137.7173669763
 21
-427.1223301453
 31
0.0
  0
LINE
  5
717
330
1F
100
AcDbEntity
  8
0
  6
Continuous
 62
     7
370
    25
100
AcDbLine
 10
-140.6002096888
 20
-437.4223301453
 30
0.0
 11
-137.0002096888
 21
-437.4223301453
 31
0.0
  0
LINE
  5
718
330
1F
100
AcDbEntity
  8
0
  6
Continuous
 62
     7
370
    25
100
AcDbLine
 10
-140.6002096888
 20
-399.9223301453
 30
0.0
 11
-143.6002096888
 21
-399.9223301453
 31
0.0
  0
LINE
  5
719
330
1F
100
AcDbEntity
  8
0
  6
Continuous
 62
     7
370
    25
100
AcDbLine
 10
-143.6002096888
 20
-423.2394874328
 30
0.0
 11
-143.6002096888
 21
-396.0051728578
 31
0.0
  0
LINE
  5
71A
330
1F
100
AcDbEntity
  8
0
  6
Continuous
 62
     7
370
    25
100
AcDbLine
 10
-142.7173669763
 20
-395.1223301453
 30
0.0
 11
-143.6002096888
 21
-396.0051728578
 31
0.0
  0
LINE
  5
71B
330
1F
100
AcDbEntity
  8
0
  6
Continuous
 62
     7
370
    25
100
AcDbLine
 10
-142.7173669763
 20
-395.1223301453
 30
0.0
 11
-142.7173669763
 21
-424.1223301453
 31
0.0
  0
LINE
  5
71C
330
1F
100
AcDbEntity
  8
0
  6
Continuous
 62
     7
370
    25
100
AcDbLine
 10
-140.6002096888
 20
-395.1223301453
 30
0.0
 11
-142.7173669763
 21
-395.1223301453
 31
0.0
  0
LINE
  5
71D
330
1F
100
AcDbEntity
  8
0
  6
Continuous
 62
     7
370
    25
100
AcDbLine
 10
-140.6002096888
 20
-419.3223301453
 30
0.0
 11
-143.6002096888
 21
-419.3223301453
 31
0.0
  0
LINE
  5
71E
330
1F
100
AcDbEntity
  8
0
  6
Continuous
 62
     7
370
    25
100
AcDbLine
 10
-143.6002096888
 20
-423.2394874328
 30
0.0
 11
-142.7173669763
 21
-424.1223301453
 31
0.0
  0
LINE
  5
71F
330
1F
100
AcDbEntity
  8
0
  6
Continuous
 62
     7
370
    25
100
AcDbLine
 10
-140.6002096888
 20
-424.1223301453
 30
0.0
 11
-142.7173669763
 21
-424.1223301453
 31
0.0
  0
LINE
  5
720
330
1F
100
AcDbEntity
  8
0
  6
Continuous
 62
     7
370
    25
100
AcDbLine
 10
-20.3002096888
 20
99.3776698547
 30
0.0
 11
-20.3002096888
 21
176.3776698547
 31
0.0
  0
LINE
  5
721
330
1F
100
AcDbEntity
  8
0
  6
Continuous
 62
     7
370
    25
100
AcDbLine
 10
-80.4002096888
 20
-566.1223301453
 30
0.0
 11
-80.4002096888
 21
-567.1223301453
 31
0.0
  0
LINE
  5
722
330
1F
100
AcDbEntity
  8
0
  6
Continuous
 62
     7
370
    25
100
AcDbLine
 10
-71.4702096888
 20
-533.1223301453
 30
0.0
 11
-71.4702096888
 21
-566.1223301453
 31
0.0
  0
LINE
  5
723
330
1F
100
AcDbEntity
  8
0
  6
Continuous
 62
     7
370
    25
100
AcDbLine
 10
-78.4702096888
 20
-566.1223301453
 30
0.0
 11
-78.4702096888
 21
-540.6223301453
 31
0.0
  0
LINE
  5
724
330
1F
100
AcDbEntity
  8
0
  6
Continuous
 62
     7
370
    25
100
AcDbLine
 10
-81.4002096888
 20
-566.1223301453
 30
0.0
 11
-81.4002096888
 21
-540.6223301453
 31
0.0
  0
LINE
  5
725
330
1F
100
AcDbEntity
  8
0
  6
Continuous
 62
     7
370
    25
100
AcDbLine
 10
-58.0002096888
 20
-384.4223301453
 30
0.0
 11
-56.4002096888
 21
-384.4223301453
 31
0.0
  0
LINE
  5
726
330
1F
100
AcDbEntity
  8
0
  6
Continuous
 62
     7
370
    25
100
AcDbLine
 10
-58.0002096888
 20
-434.8223301453
 30
0.0
 11
-56.4002096888
 21
-434.8223301453
 31
0.0
  0
LINE
  5
727
330
1F
100
AcDbEntity
  8
0
  6
Continuous
 62
     7
370
    25
100
AcDbLine
 10
24.5997903112
 20
137.8776698547
 30
0.0
 11
20.6997903112
 21
137.8776698547
 31
0.0
  0
ARC
  5
728
330
1F
100
AcDbEntity
  8
0
  6
Continuous
 62
     7
370
    25
100
AcDbCircle
 10
-54.9002096888
 20
137.8776698547
 30
0.0
 40
39.6818181818184
100
AcDbArc
 50
75.9815184007
 51
104.0184815993
  0
ARC
  5
729
330
1F
100
AcDbEntity
  8
0
  6
Continuous
 62
     7
370
    25
100
AcDbCircle
 10
-54.9002096888
 20
137.8776698547
 30
0.0
 40
39.68181818181088
100
AcDbArc
 50
255.9815184007
 51
284.0184815993
  0
ARC
  5
72A
330
1F
100
AcDbEntity
  8
0
  6
Continuous
 62
     7
370
    25
100
AcDbCircle
 10
-74.462591626
 20
107.3152879175
 30
0.0
 40
7.937618062810886
100
AcDbArc
 50
229.3214426408
 51
270.0
  0
ARC
  5
72B
330
1F
100
AcDbEntity
  8
0
  6
Continuous
 62
     7
370
    25
100
AcDbCircle
 10
-74.462591626
 20
168.4400517919
 30
0.0
 40
7.937618062809696
100
AcDbArc
 50
90.0
 51
130.6785573592
  0
ARC
  5
72C
330
1F
100
AcDbEntity
  8
0
  6
Continuous
 62
     7
370
    25
100
AcDbCircle
 10
-54.9002096889
 20
137.8776698547
 30
0.0
 40
28.54999999993479
100
AcDbArc
 50
176.6085690544
 51
183.3914309456
  0
ARC
  5
72D
330
1F
100
AcDbEntity
  8
0
  6
Continuous
 62
     7
370
    25
100
AcDbCircle
 10
-82.9002096888
 20
109.295570407
 30
0.0
 40
7.999999999999943
100
AcDbArc
 50
180.0
 51
270.0
  0
ARC
  5
72E
330
1F
100
AcDbEntity
  8
0
  6
Continuous
 62
     7
370
    25
100
AcDbCircle
 10
-82.9002096888
 20
166.4597693023
 30
0.0
 40
8.000000000000028
100
AcDbArc
 50
90.0
 51
180.0
  0
ARC
  5
72F
330
1F
100
AcDbEntity
  8
0
  6
Continuous
 62
     7
370
    25
100
AcDbCircle
 10
-31.3302096888
 20
10.651003188
 30
0.0
 40
2.650000000000006
100
AcDbArc
 50
180.0
 51
0.0
  0
ARC
  5
730
330
1F
100
AcDbEntity
  8
0
  6
Continuous
 62
     7
370
    25
100
AcDbCircle
 10
-78.4702096888
 20
10.651003188
 30
0.0
 40
2.65000000000002
100
AcDbArc
 50
180.0
 51
0.0
  0
ARC
  5
731
330
1F
100
AcDbEntity
  8
0
  6
Continuous
 62
     7
370
    25
100
AcDbCircle
 10
-78.4702096888
 20
67.791003188
 30
0.0
 40
2.65000000000002
100
AcDbArc
 50
0.0
 51
180.0
  0
ARC
  5
732
330
1F
100
AcDbEntity
  8
0
  6
Continuous
 62
     7
370
    25
100
AcDbCircle
 10
-31.3302096888
 20
67.791003188
 30
0.0
 40
2.650000000000006
100
AcDbArc
 50
0.0
 51
180.0
  0
ARC
  5
733
330
1F
100
AcDbEntity
  8
0
  6
Continuous
 62
     7
370
    25
100
AcDbCircle
 10
-78.4702096888
 20
20.651003188
 30
0.0
 40
2.65000000000002
100
AcDbArc
 50
0.0
 51
180.0
  0
ARC
  5
734
330
1F
100
AcDbEntity
  8
0
  6
Continuous
 62
     7
370
    25
100
AcDbCircle
 10
-31.3302096888
 20
20.651003188
 30
0.0
 40
2.650000000000006
100
AcDbArc
 50
0.0
 51
180.0
  0
ARC
  5
735
330
1F
100
AcDbEntity
  8
0
  6
Continuous
 62
     7
370
    25
100
AcDbCircle
 10
-54.9002096888
 20
34.221003188
 30
0.0
 40
21.05
100
AcDbArc
 50
180.0
 51
0.0
  0
ARC
  5
736
330
1F
100
AcDbEntity
  8
0
  6
Continuous
 62
     7
370
    25
100
AcDbCircle
 10
-31.3302096888
 20
57.791003188
 30
0.0
 40
2.650000000000006
100
AcDbArc
 50
180.0
 51
0.0
  0
ARC
  5
737
330
1F
100
AcDbEntity
  8
0
  6
Continuous
 62
     7
370
    25
100
AcDbCircle
 10
-78.4702096888
 20
57.791003188
 30
0.0
 40
2.65000000000002
100
AcDbArc
 50
180.0
 51
0.0
  0
ARC
  5
738
330
1F
100
AcDbEntity
  8
0
  6
Continuous
 62
     7
370
    25
100
AcDbCircle
 10
-54.9002096888
 20
44.221003188
 30
0.0
 40
21.05
100
AcDbArc
 50
0.0
 51
180.0
  0
ARC
  5
739
330
1F
100
AcDbEntity
  8
0
  6
Continuous
 62
     7
370
    25
100
AcDbCircle
 10
-147.6502096888
 20
-531.3723301453
 30
0.0
 40
0.2500000000001137
100
AcDbArc
 50
0.0
 51
90.0
  0
ARC
  5
73A
330
1F
100
AcDbEntity
  8
0
  6
Continuous
 62
     7
370
    25
100
AcDbCircle
 10
-147.6502096888
 20
-492.8723301453
 30
0.0
 40
0.25
100
AcDbArc
 50
270.0
 51
360.0
  0
ARC
  5
73B
330
1F
100
AcDbEntity
  8
0
  6
Continuous
 62
     7
370
    25
100
AcDbCircle
 10
-252.9002096888
 20
-494.6223301453
 30
0.0
 40
1.500000000000114
100
AcDbArc
 50
90.0
 51
180.0
  0
ARC
  5
73C
330
1F
100
AcDbEntity
  8
0
  6
Continuous
 62
     7
370
    25
100
AcDbCircle
 10
-252.9002096888
 20
-529.6223301453
 30
0.0
 40
1.499999999999886
100
AcDbArc
 50
180.0
 51
270.0
  0
ARC
  5
73D
330
1F
100
AcDbEntity
  8
0
  6
Continuous
 62
     7
370
    25
100
AcDbCircle
 10
-252.9002096888
 20
-485.5223301453
 30
0.0
 40
1.499999999999788
100
AcDbArc
 50
90.0
 51
155.7316969497
  0
ARC
  5
73E
330
1F
100
AcDbEntity
  8
0
  6
Continuous
 62
     7
370
    25
100
AcDbCircle
 10
-252.9002096888
 20
-538.7223301453
 30
0.0
 40
1.499999999999749
100
AcDbArc
 50
204.2683030503
 51
270.0
  0
ARC
  5
73F
330
1F
100
AcDbEntity
  8
0
  6
Continuous
 62
     7
370
    25
100
AcDbCircle
 10
-54.9002096888
 20
137.8776698547
 30
0.0
 40
7.000000000000111
100
AcDbArc
 50
110.9248324276
 51
69.0751675724
  0
ARC
  5
740
330
1F
100
AcDbEntity
  8
0
  6
Continuous
 62
     7
370
    25
100
AcDbCircle
 10
-31.3302096888
 20
64.4576698547
 30
0.0
 40
2.750000000000029
100
AcDbArc
 50
195.4987327566
 51
344.5012672434
  0
ARC
  5
741
330
1F
100
AcDbEntity
  8
0
  6
Continuous
 62
     7
370
    25
100
AcDbCircle
 10
-31.3302096888
 20
64.4576698547
 30
0.0
 40
2.750000000000021
100
AcDbArc
 50
15.4987327566
 51
164.5012672434
  0
ARC
  5
742
330
1F
100
AcDbEntity
  8
0
  6
Continuous
 62
     7
370
    25
100
AcDbCircle
 10
-78.4702096888
 20
64.4576698547
 30
0.0
 40
2.750000000000005
100
AcDbArc
 50
195.4987327566
 51
344.5012672434
  0
ARC
  5
743
330
1F
100
AcDbEntity
  8
0
  6
Continuous
 62
     7
370
    25
100
AcDbCircle
 10
-78.4702096888
 20
64.4576698547
 30
0.0
 40
2.750000000000004
100
AcDbArc
 50
15.4987327566
 51
164.5012672434
  0
ARC
  5
744
330
1F
100
AcDbEntity
  8
0
  6
Continuous
 62
     7
370
    25
100
AcDbCircle
 10
-31.3302096888
 20
17.3176698547
 30
0.0
 40
2.750000000000019
100
AcDbArc
 50
195.4987327566
 51
344.5012672434
  0
ARC
  5
745
330
1F
100
AcDbEntity
  8
0
  6
Continuous
 62
     7
370
    25
100
AcDbCircle
 10
-31.3302096888
 20
17.3176698547
 30
0.0
 40
2.750000000000011
100
AcDbArc
 50
15.4987327566
 51
164.5012672434
  0
ARC
  5
746
330
1F
100
AcDbEntity
  8
0
  6
Continuous
 62
     7
370
    25
100
AcDbCircle
 10
-78.4702096888
 20
17.3176698547
 30
0.0
 40
2.750000000000014
100
AcDbArc
 50
195.4987327566
 51
344.5012672434
  0
ARC
  5
747
330
1F
100
AcDbEntity
  8
0
  6
Continuous
 62
     7
370
    25
100
AcDbCircle
 10
-78.4702096888
 20
17.3176698547
 30
0.0
 40
2.750000000000003
100
AcDbArc
 50
15.4987327566
 51
164.5012672434
  0
ARC
  5
748
330
1F
100
AcDbEntity
  8
0
  6
Continuous
 62
     7
370
    25
100
AcDbCircle
 10
-258.5506467931
 20
-529.1874246813
 30
0.0
 40
3.460715686487956
100
AcDbArc
 50
279.1519314325
 51
352.7805955914
  0
ARC
  5
749
330
1F
100
AcDbEntity
  8
0
  6
Continuous
 62
     7
370
    25
100
AcDbCircle
 10
-258.5506467931
 20
-495.0572356093
 30
0.0
 40
3.46071568648821
100
AcDbArc
 50
7.2194044086
 51
80.8480685675
  0
ARC
  5
74A
330
1F
100
AcDbEntity
  8
0
  6
Continuous
 62
     7
370
    25
100
AcDbCircle
 10
-141.1506467931
 20
-426.6874246813
 30
0.0
 40
3.460715686488083
100
AcDbArc
 50
279.1519314325
 51
352.7805955914
  0
ARC
  5
74B
330
1F
100
AcDbEntity
  8
0
  6
Continuous
 62
     7
370
    25
100
AcDbCircle
 10
-141.1506467931
 20
-392.5572356093
 30
0.0
 40
3.460715686487928
100
AcDbArc
 50
7.2194044086
 51
80.8480685675
  0
ENDSEC
  0
SECTION
  2
OBJECTS
  0
DICTIONARY
  5
C
330
0
100
AcDbDictionary
281
     1
  3
ACAD_GROUP
350
D
  3
ACAD_LAYOUT
350
1A
  3
ACAD_MLINESTYLE
350
17
  3
ACAD_PLOTSETTINGS
350
19
  3
ACAD_PLOTSTYLENAME
350
E
  3
ACAD_SCALELIST
350
47
  3
DWGPROPS
350
74C
  0
DICTIONARY
  5
D
102
{ACAD_REACTORS
330
C
102
}
330
C
100
AcDbDictionary
281
     1
  0
DICTIONARY
  5
1A
102
{ACAD_REACTORS
330
C
102
}
330
C
100
AcDbDictionary
281
     1
  3
Layout1
350
1E
  3
Layout2
350
26
  3
Model
350
22
  0
DICTIONARY
  5
17
102
{ACAD_REACTORS
330
C
102
}
330
C
100
AcDbDictionary
281
     1
  3
Standard
350
18
  0
DICTIONARY
  5
19
102
{ACAD_REACTORS
330
C
102
}
330
C
100
AcDbDictionary
281
     1
  0
ACDBDICTIONARYWDFLT
  5
E
102
{ACAD_REACTORS
330
C
102
}
330
C
100
AcDbDictionary
281
     1
  3
Normal
350
F
100
AcDbDictionaryWithDefault
340
F
  0
DICTIONARY
  5
47
102
{ACAD_REACTORS
330
C
102
}
330
C
100
AcDbDictionary
281
     1
  3
A0
350
48
  3
A1
350
49
  3
A2
350
4A
  3
A3
350
4B
  3
A4
350
4C
  3
A5
350
4D
  3
A6
350
4E
  3
A7
350
4F
  3
A8
350
50
  3
A9
350
51
  3
B0
350
52
  3
B1
350
53
  3
B2
350
54
  3
B3
350
55
  3
B4
350
56
  3
B5
350
57
  3
B6
350
58
  0
XRECORD
  5
74C
102
{ACAD_REACTORS
330
C
102
}
330
C
100
AcDbXrecord
280
     1
  1
DWGPROPS COOKIE
  2

  3

  4

  6

  7

  8
lenovo
  9

300
=
301
=
302
=
303
=
304
=
305
=
306
=
307
=
308
=
309
=
 40
0.0
 41
2460743.681015648
 42
2460743.681059398
  1

 90
        0
  0
LAYOUT
  5
1E
102
{ACAD_REACTORS
330
1A
102
}
330
1A
100
AcDbPlotSettings
  1

  2
none_device
  4

  6

 40
0.0
 41
0.0
 42
0.0
 43
0.0
 44
0.0
 45
0.0
 46
0.0
 47
0.0
 48
0.0
 49
0.0
140
0.0
141
0.0
142
1.0
143
1.0
 70
   688
 72
     1
 73
     0
 74
     5
  7

 75
    16
147
1.0
148
0.0
149
0.0
100
AcDbLayout
  1
Layout1
 70
     1
 71
     1
 10
0.0
 20
0.0
 11
420.0
 21
297.0
 12
0.0
 22
0.0
 32
0.0
 14
1.0000000000E+20
 24
1.0000000000E+20
 34
1.0000000000E+20
 15
-1.0000000000E+20
 25
-1.0000000000E+20
 35
-1.0000000000E+20
146
0.0
 13
0.0
 23
0.0
 33
0.0
 16
1.0
 26
0.0
 36
0.0
 17
0.0
 27
1.0
 37
0.0
 76
     0
330
1B
  0
LAYOUT
  5
26
102
{ACAD_REACTORS
330
1A
102
}
330
1A
100
AcDbPlotSettings
  1

  2
none_device
  4

  6

 40
0.0
 41
0.0
 42
0.0
 43
0.0
 44
0.0
 45
0.0
 46
0.0
 47
0.0
 48
0.0
 49
0.0
140
0.0
141
0.0
142
1.0
143
1.0
 70
   688
 72
     1
 73
     0
 74
     5
  7

 75
    16
147
1.0
148
0.0
149
0.0
100
AcDbLayout
  1
Layout2
 70
     1
 71
     2
 10
0.0
 20
0.0
 11
0.0
 21
0.0
 12
0.0
 22
0.0
 32
0.0
 14
0.0
 24
0.0
 34
0.0
 15
0.0
 25
0.0
 35
0.0
146
0.0
 13
0.0
 23
0.0
 33
0.0
 16
1.0
 26
0.0
 36
0.0
 17
0.0
 27
1.0
 37
0.0
 76
     0
330
23
  0
LAYOUT
  5
22
102
{ACAD_REACTORS
330
1A
102
}
330
1A
100
AcDbPlotSettings
  1

  2
none_device
  4
ANSI_A_(11.00_x_8.50_Inches)
  6

 40
6.35
 41
19.05
 42
6.35000508
 43
19.05000254
 44
279.4
 45
215.9
 46
159.7118363174
 47
150.2287936014
 48
0.0
 49
0.0
140
0.0
141
0.0
142
0.009418019
143
1.0
 70
  1696
 72
     0
 73
     0
 74
     0
  7

 75
     0
147
0.0179189148
148
-1300.4909072572
149
0.0
100
AcDbLayout
  1
Model
 70
     1
 71
     0
 10
0.0
 20
0.0
 11
420.0
 21
297.0
 12
0.0
 22
0.0
 32
0.0
 14
-261.0002096888
 24
-703.1223301453
 34
0.0
 15
40.5997903112
 25
190.3776698547
 35
0.0
146
0.0
 13
0.0
 23
0.0
 33
0.0
 16
1.0
 26
0.0
 36
0.0
 17
0.0
 27
1.0
 37
0.0
 76
     0
330
1F
331
29
  0
MLINESTYLE
  5
18
102
{ACAD_REACTORS
330
17
102
}
330
17
100
AcDbMlineStyle
  2
Standard
 70
     0
  3

 62
   256
 51
90.0
 52
90.0
 71
     2
 49
0.5
 62
   256
  6
BYLAYER
 49
-0.5
 62
   256
  6
BYLAYER
  0
ACDBPLACEHOLDER
  5
F
102
{ACAD_REACTORS
330
E
102
}
330
E
  0
SCALE
  5
48
102
{ACAD_REACTORS
330
47
102
}
330
47
100
AcDbScale
 70
     0
300
1:1
140
1.0
141
1.0
290
     1
  0
SCALE
  5
49
102
{ACAD_REACTORS
330
47
102
}
330
47
100
AcDbScale
 70
     0
300
1:2
140
1.0
141
2.0
290
     0
  0
SCALE
  5
4A
102
{ACAD_REACTORS
330
47
102
}
330
47
100
AcDbScale
 70
     0
300
1:4
140
1.0
141
4.0
290
     0
  0
SCALE
  5
4B
102
{ACAD_REACTORS
330
47
102
}
330
47
100
AcDbScale
 70
     0
300
1:5
140
1.0
141
5.0
290
     0
  0
SCALE
  5
4C
102
{ACAD_REACTORS
330
47
102
}
330
47
100
AcDbScale
 70
     0
300
1:8
140
1.0
141
8.0
290
     0
  0
SCALE
  5
4D
102
{ACAD_REACTORS
330
47
102
}
330
47
100
AcDbScale
 70
     0
300
1:10
140
1.0
141
10.0
290
     0
  0
SCALE
  5
4E
102
{ACAD_REACTORS
330
47
102
}
330
47
100
AcDbScale
 70
     0
300
1:16
140
1.0
141
16.0
290
     0
  0
SCALE
  5
4F
102
{ACAD_REACTORS
330
47
102
}
330
47
100
AcDbScale
 70
     0
300
1:20
140
1.0
141
20.0
290
     0
  0
SCALE
  5
50
102
{ACAD_REACTORS
330
47
102
}
330
47
100
AcDbScale
 70
     0
300
1:30
140
1.0
141
30.0
290
     0
  0
SCALE
  5
51
102
{ACAD_REACTORS
330
47
102
}
330
47
100
AcDbScale
 70
     0
300
1:40
140
1.0
141
40.0
290
     0
  0
SCALE
  5
52
102
{ACAD_REACTORS
330
47
102
}
330
47
100
AcDbScale
 70
     0
300
1:50
140
1.0
141
50.0
290
     0
  0
SCALE
  5
53
102
{ACAD_REACTORS
330
47
102
}
330
47
100
AcDbScale
 70
     0
300
1:100
140
1.0
141
100.0
290
     0
  0
SCALE
  5
54
102
{ACAD_REACTORS
330
47
102
}
330
47
100
AcDbScale
 70
     0
300
2:1
140
2.0
141
1.0
290
     0
  0
SCALE
  5
55
102
{ACAD_REACTORS
330
47
102
}
330
47
100
AcDbScale
 70
     0
300
4:1
140
4.0
141
1.0
290
     0
  0
SCALE
  5
56
102
{ACAD_REACTORS
330
47
102
}
330
47
100
AcDbScale
 70
     0
300
8:1
140
8.0
141
1.0
290
     0
  0
SCALE
  5
57
102
{ACAD_REACTORS
330
47
102
}
330
47
100
AcDbScale
 70
     0
300
10:1
140
10.0
141
1.0
290
     0
  0
SCALE
  5
58
102
{ACAD_REACTORS
330
47
102
}
330
47
100
AcDbScale
 70
     0
300
100:1
140
100.0
141
1.0
290
     0
  0
ENDSEC
  0
EOF
