  0
SECTION
  2
HEADER
  9
$ACADVER
  1
AC1015
  9
$ACADMAINTVER
 70
     6
  9
$DWGCODEPAGE
  3
ANSI_1252
  9
$INSBASE
 10
0.0
 20
0.0
 30
0.0
  9
$EXTMIN
 10
-65.1040764009
 20
-39.6973447525
 30
0.0
  9
$EXTMAX
 10
146.4213562373
 20
102.9172125948
 30
0.0
  9
$LIMMIN
 10
0.0
 20
0.0
  9
$LIMMAX
 10
420.0
 20
297.0
  9
$ORTHOMODE
 70
     0
  9
$REGENMODE
 70
     1
  9
$FILLMODE
 70
     1
  9
$QTEXTMODE
 70
     0
  9
$MIRRTEXT
 70
     1
  9
$LTSCALE
 40
1.0
  9
$ATTMODE
 70
     1
  9
$TEXTSIZE
 40
3.5
  9
$TRACEWID
 40
1.0
  9
$TEXTSTYLE
  7
Standard
  9
$CLAYER
  8
0
  9
$CELTYPE
  6
ByLayer
  9
$CECOLOR
 62
   256
  9
$CELTSCALE
 40
1.0
  9
$DISPSILH
 70
     0
  9
$DIMSCALE
 40
1.0
  9
$DIMASZ
 40
3.556
  9
$DIMEXO
 40
0.0
  9
$DIMDLI
 40
3.75
  9
$DIMRND
 40
0.0
  9
$DIMDLE
 40
0.0
  9
$DIMEXE
 40
1.0
  9
$DIMTP
 40
0.0
  9
$DIMTM
 40
0.0
  9
$DIMTXT
 40
3.5
  9
$DIMCEN
 40
2.5
  9
$DIMTSZ
 40
0.0
  9
$DIMTOL
 70
     0
  9
$DIMLIM
 70
     0
  9
$DIMTIH
 70
     1
  9
$DIMTOH
 70
     1
  9
$DIMSE1
 70
     0
  9
$DIMSE2
 70
     0
  9
$DIMTAD
 70
     1
  9
$DIMZIN
 70
     1
  9
$DIMBLK
  1

  9
$DIMASO
 70
     1
  9
$DIMSHO
 70
     1
  9
$DIMPOST
  1

  9
$DIMAPOST
  1

  9
$DIMALT
 70
     0
  9
$DIMALTD
 70
     3
  9
$DIMALTF
 40
0.0393700787
  9
$DIMLFAC
 40
1.0
  9
$DIMTOFL
 70
     1
  9
$DIMTVP
 40
0.0
  9
$DIMTIX
 70
     0
  9
$DIMSOXD
 70
     0
  9
$DIMSAH
 70
     0
  9
$DIMBLK1
  1

  9
$DIMBLK2
  1

  9
$DIMSTYLE
  2
ISO-25
  9
$DIMCLRD
 70
     0
  9
$DIMCLRE
 70
     0
  9
$DIMCLRT
 70
     0
  9
$DIMTFAC
 40
1.0
  9
$DIMGAP
 40
1.524
  9
$DIMJUST
 70
     0
  9
$DIMSD1
 70
     0
  9
$DIMSD2
 70
     0
  9
$DIMTOLJ
 70
     0
  9
$DIMTZIN
 70
     1
  9
$DIMALTZ
 70
     0
  9
$DIMALTTZ
 70
     0
  9
$DIMUPT
 70
     0
  9
$DIMDEC
 70
     2
  9
$DIMTDEC
 70
     2
  9
$DIMALTU
 70
     2
  9
$DIMALTTD
 70
     3
  9
$DIMTXSTY
  7
Standard
  9
$DIMAUNIT
 70
     0
  9
$DIMADEC
 70
     2
  9
$DIMALTRND
 40
0.0
  9
$DIMAZIN
 70
     0
  9
$DIMDSEP
 70
    44
  9
$DIMATFIT
 70
     3
  9
$DIMFRAC
 70
     0
  9
$DIMLDRBLK
  1

  9
$DIMLUNIT
 70
     2
  9
$DIMLWD
 70
    -2
  9
$DIMLWE
 70
    -2
  9
$DIMTMOVE
 70
     0
  9
$LUNITS
 70
     2
  9
$LUPREC
 70
     2
  9
$SKETCHINC
 40
1.0
  9
$FILLETRAD
 40
0.0
  9
$AUNITS
 70
     0
  9
$AUPREC
 70
     2
  9
$MENU
  1
.
  9
$ELEVATION
 40
0.0
  9
$PELEVATION
 40
0.0
  9
$THICKNESS
 40
0.0
  9
$LIMCHECK
 70
     0
  9
$CHAMFERA
 40
0.0
  9
$CHAMFERB
 40
0.0
  9
$CHAMFERC
 40
0.0
  9
$CHAMFERD
 40
0.0
  9
$SKPOLY
 70
     0
  9
$TDCREATE
 40
2460606.002079977
  9
$TDUCREATE
 40
2460605.71041331
  9
$TDUPDATE
 40
2460606.002106771
  9
$TDUUPDATE
 40
2460605.710440105
  9
$TDINDWG
 40
0.0000000116
  9
$TDUSRTIMER
 40
0.0000000116
  9
$USRTIMER
 70
     1
  9
$ANGBASE
 50
0.0
  9
$ANGDIR
 70
     0
  9
$PDMODE
 70
     0
  9
$PDSIZE
 40
-1.0
  9
$PLINEWID
 40
0.0
  9
$SPLFRAME
 70
     0
  9
$SPLINETYPE
 70
     6
  9
$SPLINESEGS
 70
     8
  9
$HANDSEED
  5
182
  9
$SURFTAB1
 70
     6
  9
$SURFTAB2
 70
     6
  9
$SURFTYPE
 70
     6
  9
$SURFU
 70
     6
  9
$SURFV
 70
     6
  9
$UCSBASE
  2

  9
$UCSNAME
  2

  9
$UCSORG
 10
0.0
 20
0.0
 30
0.0
  9
$UCSXDIR
 10
1.0
 20
0.0
 30
0.0
  9
$UCSYDIR
 10
0.0
 20
1.0
 30
0.0
  9
$UCSORTHOREF
  2

  9
$UCSORTHOVIEW
 70
     0
  9
$UCSORGTOP
 10
0.0
 20
0.0
 30
0.0
  9
$UCSORGBOTTOM
 10
0.0
 20
0.0
 30
0.0
  9
$UCSORGLEFT
 10
0.0
 20
0.0
 30
0.0
  9
$UCSORGRIGHT
 10
0.0
 20
0.0
 30
0.0
  9
$UCSORGFRONT
 10
0.0
 20
0.0
 30
0.0
  9
$UCSORGBACK
 10
0.0
 20
0.0
 30
0.0
  9
$PUCSBASE
  2

  9
$PUCSNAME
  2

  9
$PUCSORG
 10
0.0
 20
0.0
 30
0.0
  9
$PUCSXDIR
 10
1.0
 20
0.0
 30
0.0
  9
$PUCSYDIR
 10
0.0
 20
1.0
 30
0.0
  9
$PUCSORTHOREF
  2

  9
$PUCSORTHOVIEW
 70
     0
  9
$PUCSORGTOP
 10
0.0
 20
0.0
 30
0.0
  9
$PUCSORGBOTTOM
 10
0.0
 20
0.0
 30
0.0
  9
$PUCSORGLEFT
 10
0.0
 20
0.0
 30
0.0
  9
$PUCSORGRIGHT
 10
0.0
 20
0.0
 30
0.0
  9
$PUCSORGFRONT
 10
0.0
 20
0.0
 30
0.0
  9
$PUCSORGBACK
 10
0.0
 20
0.0
 30
0.0
  9
$USERI1
 70
     0
  9
$USERI2
 70
     0
  9
$USERI3
 70
     0
  9
$USERI4
 70
     0
  9
$USERI5
 70
     0
  9
$USERR1
 40
0.0
  9
$USERR2
 40
0.0
  9
$USERR3
 40
0.0
  9
$USERR4
 40
0.0
  9
$USERR5
 40
0.0
  9
$WORLDVIEW
 70
     1
  9
$SHADEDGE
 70
     3
  9
$SHADEDIF
 70
    70
  9
$TILEMODE
 70
     1
  9
$MAXACTVP
 70
    64
  9
$PINSBASE
 10
0.0
 20
0.0
 30
0.0
  9
$PLIMCHECK
 70
     0
  9
$PEXTMIN
 10
1.0000000000E+20
 20
1.0000000000E+20
 30
1.0000000000E+20
  9
$PEXTMAX
 10
-1.0000000000E+20
 20
-1.0000000000E+20
 30
-1.0000000000E+20
  9
$PLIMMIN
 10
0.0
 20
0.0
  9
$PLIMMAX
 10
420.0
 20
297.0
  9
$UNITMODE
 70
     0
  9
$VISRETAIN
 70
     1
  9
$PLINEGEN
 70
     0
  9
$PSLTSCALE
 70
     1
  9
$TREEDEPTH
 70
  3020
  9
$CMLSTYLE
  2
Standard
  9
$CMLJUST
 70
     0
  9
$CMLSCALE
 40
20.0
  9
$PROXYGRAPHICS
 70
     1
  9
$MEASUREMENT
 70
     1
  9
$CELWEIGHT
370
    -1
  9
$ENDCAPS
280
     0
  9
$JOINSTYLE
280
     0
  9
$LWDISPLAY
290
     1
  9
$INSUNITS
 70
     4
  9
$HYPERLINKBASE
  1

  9
$STYLESHEET
  1

  9
$XEDIT
290
     1
  9
$CEPSNTYPE
380
     0
  9
$PSTYLEMODE
290
     1
  9
$FINGERPRINTGUID
  2
{ef5d1875-c82c-45cf-9c77-c42d0d5ba861}
  9
$VERSIONGUID
  2
{FAEB1C32-E019-11D5-929B-00C0DF256EC4}
  9
$EXTNAMES
290
     1
  9
$PSVPSCALE
 40
0.0
  9
$OLESTARTUP
290
     0
  0
ENDSEC
  0
SECTION
  2
CLASSES
  0
CLASS
  1
ACDBDICTIONARYWDFLT
  2
AcDbDictionaryWithDefault
  3
ObjectDBX Classes
 90
        0
280
     0
281
     0
  0
CLASS
  1
VISUALSTYLE
  2
AcDbVisualStyle
  3
ObjectDBX Classes
 90
     4095
280
     0
281
     0
  0
CLASS
  1
MATERIAL
  2
AcDbMaterial
  3
ObjectDBX Classes
 90
     1153
280
     0
281
     0
  0
CLASS
  1
SCALE
  2
AcDbScale
  3
ObjectDBX Classes
 90
     1153
280
     0
281
     0
  0
CLASS
  1
TABLESTYLE
  2
AcDbTableStyle
  3
ObjectDBX Classes
 90
     4095
280
     0
281
     0
  0
CLASS
  1
MLEADERSTYLE
  2
AcDbMLeaderStyle
  3
ACDB_MLEADERSTYLE_CLASS
 90
     4095
280
     0
281
     0
  0
CLASS
  1
SUN
  2
AcDbSun
  3
SCENEOE
 90
     1153
280
     0
281
     0
  0
CLASS
  1
ACDBPLACEHOLDER
  2
AcDbPlaceHolder
  3
ObjectDBX Classes
 90
        0
280
     0
281
     0
  0
CLASS
  1
LAYOUT
  2
AcDbLayout
  3
ObjectDBX Classes
 90
        0
280
     0
281
     0
  0
ENDSEC
  0
SECTION
  2
TABLES
  0
TABLE
  2
VPORT
  5
8
330
0
100
AcDbSymbolTable
 70
     1
  0
VPORT
  5
29
330
8
100
AcDbSymbolTableRecord
100
AcDbViewportTableRecord
  2
*Active
 70
     0
 10
0.0
 20
0.0
 11
1.0
 21
1.0
 12
40.6586399182
 22
31.6099339212
 13
0.0
 23
0.0
 14
10.0
 24
10.0
 15
10.0
 25
10.0
 16
0.0
 26
0.0
 36
1.0
 17
0.0
 27
0.0
 37
0.0
 40
145.4668484942
 41
1.4831966426
 42
50.0
 43
0.0
 44
0.0
 50
0.0
 51
0.0
 71
     0
 72
   100
 73
     1
 74
     3
 75
     0
 76
     0
 77
     0
 78
     0
281
     0
 65
     1
110
0.0
120
0.0
130
0.0
111
1.0
121
0.0
131
0.0
112
0.0
122
1.0
132
0.0
 79
     0
146
0.0
  0
ENDTAB
  0
TABLE
  2
LTYPE
  5
5
330
0
100
AcDbSymbolTable
 70
     6
  0
LTYPE
  5
14
330
5
100
AcDbSymbolTableRecord
100
AcDbLinetypeTableRecord
  2
ByBlock
 70
     0
  3

 72
    65
 73
     0
 40
0.0
  0
LTYPE
  5
15
330
5
100
AcDbSymbolTableRecord
100
AcDbLinetypeTableRecord
  2
ByLayer
 70
     0
  3

 72
    65
 73
     0
 40
0.0
  0
LTYPE
  5
16
330
5
100
AcDbSymbolTableRecord
100
AcDbLinetypeTableRecord
  2
Continuous
 70
     0
  3
Solid line
 72
    65
 73
     0
 40
0.0
  0
LTYPE
  5
5E
330
5
100
AcDbSymbolTableRecord
100
AcDbLinetypeTableRecord
  2
HIDDEN
 70
     0
  3
Hidden __ __ __ __ __ __ __ __ __ __ __ __ __ __
 72
    65
 73
     2
 40
1.905
 49
1.27
 74
     0
 49
-0.635
 74
     0
  0
LTYPE
  5
5F
330
5
100
AcDbSymbolTableRecord
100
AcDbLinetypeTableRecord
  2
PHANTOM
 70
     0
  3
Phantom ______  __  __  ______  __  __  ______
 72
    65
 73
     6
 40
12.7
 49
6.35
 74
     0
 49
-1.27
 74
     0
 49
1.27
 74
     0
 49
-1.27
 74
     0
 49
1.27
 74
     0
 49
-1.27
 74
     0
  0
LTYPE
  5
60
330
5
100
AcDbSymbolTableRecord
100
AcDbLinetypeTableRecord
  2
CENTER
 70
     0
  3
Center ____ _ ____ _ ____ _ ____ _ ____ _ ____
 72
    65
 73
     4
 40
10.16
 49
6.35
 74
     0
 49
-1.27
 74
     0
 49
1.27
 74
     0
 49
-1.27
 74
     0
  0
LTYPE
  5
61
330
5
100
AcDbSymbolTableRecord
100
AcDbLinetypeTableRecord
  2
CENTERX2
 70
     0
  3
Center (2x) ________  __  ________  __  _____
 72
    65
 73
     4
 40
20.32
 49
12.7
 74
     0
 49
-2.54
 74
     0
 49
2.54
 74
     0
 49
-2.54
 74
     0
  0
LTYPE
  5
62
330
5
100
AcDbSymbolTableRecord
100
AcDbLinetypeTableRecord
  2
DOT2
 70
     0
  3
Dot (.5x) ........................................
 72
    65
 73
     2
 40
0.635
 49
0.0
 74
     0
 49
-0.635
 74
     0
  0
ENDTAB
  0
TABLE
  2
LAYER
  5
2
330
0
100
AcDbSymbolTable
 70
     1
  0
LAYER
  5
10
330
2
100
AcDbSymbolTableRecord
100
AcDbLayerTableRecord
  2
0
 70
     0
 62
     7
  6
Continuous
370
    -3
390
F
  0
ENDTAB
  0
TABLE
  2
STYLE
  5
3
330
0
100
AcDbSymbolTable
 70
     1
  0
STYLE
  5
11
330
3
100
AcDbSymbolTableRecord
100
AcDbTextStyleTableRecord
  2
Standard
 70
     0
 40
0.0
 41
1.0
 50
0.0
 71
     0
 42
3.5
  3
txt
  4

  0
ENDTAB
  0
TABLE
  2
VIEW
  5
6
330
0
100
AcDbSymbolTable
 70
     0
  0
ENDTAB
  0
TABLE
  2
UCS
  5
7
330
0
100
AcDbSymbolTable
 70
     0
  0
ENDTAB
  0
TABLE
  2
APPID
  5
9
330
0
100
AcDbSymbolTable
 70
     1
  0
APPID
  5
12
330
9
100
AcDbSymbolTableRecord
100
AcDbRegAppTableRecord
  2
ACAD
 70
     0
  0
ENDTAB
  0
TABLE
  2
DIMSTYLE
  5
A
330
0
100
AcDbSymbolTable
 70
     1
100
AcDbDimStyleTable
  0
DIMSTYLE
105
27
330
A
100
AcDbSymbolTableRecord
100
AcDbDimStyleTableRecord
  2
ISO-25
 70
     0
 41
2.5
 42
0.625
 43
3.75
 44
1.25
 73
     0
 74
     0
 77
     1
 78
     8
140
2.5
141
2.5
143
0.0393700787
147
0.625
171
     3
172
     1
178
     0
271
     2
272
     2
274
     3
278
    44
283
     0
284
     8
340
11
  0
ENDTAB
  0
TABLE
  2
BLOCK_RECORD
  5
1
330
0
100
AcDbSymbolTable
 70
     1
  0
BLOCK_RECORD
  5
1F
330
1
100
AcDbSymbolTableRecord
100
AcDbBlockTableRecord
  2
*Model_Space
340
22
  0
BLOCK_RECORD
  5
1B
330
1
100
AcDbSymbolTableRecord
100
AcDbBlockTableRecord
  2
*Paper_Space
340
1E
  0
BLOCK_RECORD
  5
23
330
1
100
AcDbSymbolTableRecord
100
AcDbBlockTableRecord
  2
*Paper_Space0
340
26
  0
ENDTAB
  0
ENDSEC
  0
SECTION
  2
BLOCKS
  0
BLOCK
  5
20
330
1F
100
AcDbEntity
  8
0
100
AcDbBlockBegin
  2
*Model_Space
 70
     0
 10
0.0
 20
0.0
 30
0.0
  3
*Model_Space
  1

  0
ENDBLK
  5
21
330
1F
100
AcDbEntity
  8
0
100
AcDbBlockEnd
  0
BLOCK
  5
1C
330
1B
100
AcDbEntity
 67
     1
  8
0
100
AcDbBlockBegin
  2
*Paper_Space
 70
     0
 10
0.0
 20
0.0
 30
0.0
  3
*Paper_Space
  1

  0
ENDBLK
  5
1D
330
1B
100
AcDbEntity
 67
     1
  8
0
100
AcDbBlockEnd
  0
BLOCK
  5
24
330
23
100
AcDbEntity
  8
0
100
AcDbBlockBegin
  2
*Paper_Space0
 70
     0
 10
0.0
 20
0.0
 30
0.0
  3
*Paper_Space0
  1

  0
ENDBLK
  5
25
330
23
100
AcDbEntity
  8
0
100
AcDbBlockEnd
  0
ENDSEC
  0
SECTION
  2
ENTITIES
  0
SPLINE
  5
63
330
1F
100
AcDbEntity
  8
0
  6
Continuous
 62
     7
370
    25
100
AcDbSpline
210
0.0
220
0.0
230
1.0
 70
     8
 71
     3
 72
    16
 73
    12
 74
     0
 42
0.00000001
 43
0.00000001
 40
0.0
 40
0.0
 40
0.0
 40
0.0
 40
0.0615864627694869
 40
0.1761614305999233
 40
0.2945782053753061
 40
0.4171093122104183
 40
0.5422616973956274
 40
0.6682106084913295
 40
0.7926093422587764
 40
0.9138750650206287
 40
1.0
 40
1.0
 40
1.0
 40
1.0
 10
26.57724573363921
 20
-22.34888947255865
 30
0.0
 10
26.53043243153928
 20
-22.37443426525196
 30
0.0
 10
26.39652803277727
 20
-22.44750238806454
 30
0.0
 10
26.08544004465952
 20
-22.57007880843615
 30
0.0
 10
25.63394864478606
 20
-22.68510342829797
 30
0.0
 10
25.11302217208943
 20
-22.75403263154097
 30
0.0
 10
24.5596306669112
 20
-22.76419104149547
 30
0.0
 10
24.01424126007472
 20
-22.71199294298964
 30
0.0
 10
23.52311023966151
 20
-22.60483106814179
 30
0.0
 10
23.14983126708177
 20
-22.47159257341735
 30
0.0
 10
22.98760010505852
 20
-22.38489368100723
 30
0.0
 10
22.92022894941894
 20
-22.34888947255863
 30
0.0
  0
SPLINE
  5
74
330
1F
100
AcDbEntity
  8
0
  6
Continuous
 62
     7
370
    25
100
AcDbSpline
210
0.0
220
0.0
230
1.0
 70
     8
 71
     3
 72
    10
 73
     6
 74
     0
 42
0.00000001
 43
0.00000001
 40
0.0
 40
0.0
 40
0.0
 40
0.0
 40
0.3365801526269149
 40
0.9891929769444632
 40
1.0
 40
1.0
 40
1.0
 40
1.0
 10
-28.81370708069152
 20
12.85883777929812
 30
0.0
 10
-28.81211499850687
 20
12.8435018575782
 30
0.0
 10
-28.80743594508235
 20
12.7984303168414
 30
0.0
 10
-28.83572991381486
 20
12.74719071904602
 30
0.0
 10
-28.82457151044733
 20
12.76425414607169
 30
0.0
 10
-28.82438974150729
 20
12.76453210707935
 30
0.0
  0
SPLINE
  5
75
330
1F
100
AcDbEntity
  8
0
  6
Continuous
 62
     7
370
    25
100
AcDbSpline
210
0.0
220
0.0
230
1.0
 70
     8
 71
     3
 72
    10
 73
     6
 74
     0
 42
0.00000001
 43
0.00000001
 40
0.0
 40
0.0
 40
0.0
 40
0.0
 40
0.1848925034797218
 40
0.8755745813878538
 40
1.0
 40
1.0
 40
1.0
 40
1.0
 10
-22.79937430653596
 20
12.77390362167247
 30
0.0
 10
-22.79768081658067
 20
12.77091270482713
 30
0.0
 10
-22.78966114714698
 20
12.7567489571601
 30
0.0
 10
-22.81288618177633
 20
12.81878083676453
 30
0.0
 10
-22.80791137545388
 20
12.84999948951877
 30
0.0
 10
-22.80715197578963
 20
12.85476498849165
 30
0.0
  0
SPLINE
  5
7B
330
1F
100
AcDbEntity
  8
0
  6
Continuous
 62
     7
370
    25
100
AcDbSpline
210
0.0
220
0.0
230
1.0
 70
     8
 71
     3
 72
    10
 73
     6
 74
     0
 42
0.00000001
 43
0.00000001
 40
0.0
 40
0.0
 40
0.0
 40
0.0
 40
0.3365801526273648
 40
0.9891929769447894
 40
1.0
 40
1.0
 40
1.0
 40
1.0
 10
19.97666082118038
 20
41.02491763718155
 30
0.0
 10
19.97825290336503
 20
41.00958171546161
 30
0.0
 10
19.98293195678952
 20
40.96451017472481
 30
0.0
 10
19.95463798805712
 20
40.91327057692932
 30
0.0
 10
19.96579639142456
 20
40.9303340039551
 30
0.0
 10
19.96597816036458
 20
40.93061196496275
 30
0.0
  0
SPLINE
  5
7C
330
1F
100
AcDbEntity
  8
0
  6
Continuous
 62
     7
370
    25
100
AcDbSpline
210
0.0
220
0.0
230
1.0
 70
     8
 71
     3
 72
    10
 73
     6
 74
     0
 42
0.00000001
 43
0.00000001
 40
0.0
 40
0.0
 40
0.0
 40
0.0
 40
0.18489250347986
 40
0.8755745813880295
 40
1.0
 40
1.0
 40
1.0
 40
1.0
 10
25.99099359533596
 20
40.93998347955591
 30
0.0
 10
25.99268708529124
 20
40.93699256271059
 30
0.0
 10
26.00070675472493
 20
40.92282881504354
 30
0.0
 10
25.9774817200956
 20
40.98486069464799
 30
0.0
 10
25.98245652641802
 20
41.0160793474022
 30
0.0
 10
25.98321592608227
 20
41.02084484637508
 30
0.0
  0
LWPOLYLINE
  5
7F
330
1F
100
AcDbEntity
  8
0
  6
Continuous
 62
     7
370
    25
100
AcDbPolyline
 90
       20
 70
   128
 43
0.0
 10
90.8632213825
 20
18.1697249903
 10
90.5762950814
 20
18.4017168832
 10
90.4354006846
 20
18.67492172
 10
90.4558062863
 20
18.9597335172
 10
90.6353006227
 20
19.2252884974
 10
90.9544326975
 20
19.4428096579
 10
91.3786195984
 20
19.5887252059
 10
91.8618940929
 20
19.6472229275
 10
92.3518858906
 20
19.611963687
 10
92.7954967774
 20
19.4867683701
 10
93.1446546302
 20
19.2852038321
 10
93.3615227779
 20
19.0291127182
 10
93.4226001918
 20
18.7462464744
 10
93.3212681863
 20
18.4672580472
 10
93.0685076566
 20
18.2223801616
 10
92.6917091279
 20
18.0381491363
 10
92.2317045675
 20
17.9345292615
 10
91.7383426073
 20
17.9227493584
 10
91.265086671
 20
18.0040859624
 10
90.8632213825
 20
18.1697249903
  0
LWPOLYLINE
  5
80
330
1F
100
AcDbEntity
  8
0
  6
Continuous
 62
     7
370
    25
100
AcDbPolyline
 90
       20
 70
   128
 43
0.0
 10
136.1180553784
 20
44.2947845686
 10
136.5199206669
 20
44.1291455407
 10
136.9931766033
 20
44.0478089368
 10
137.4865385635
 20
44.0595888398
 10
137.9465431238
 20
44.1632087146
 10
138.3233416525
 20
44.3474397399
 10
138.5761021823
 20
44.5923176255
 10
138.6774341878
 20
44.8713060527
 10
138.6163567739
 20
45.1541722966
 10
138.3994886261
 20
45.4102634104
 10
138.0503307733
 20
45.6118279484
 10
137.6067198866
 20
45.7370232653
 10
137.1167280888
 20
45.7722825058
 10
136.6334535943
 20
45.7137847842
 10
136.2092666934
 20
45.5678692362
 10
135.8901346186
 20
45.3503480757
 10
135.7106402822
 20
45.0847930955
 10
135.6902346806
 20
44.7999812983
 10
135.8311290774
 20
44.5267764616
 10
136.1180553784
 20
44.2947845686
  0
LWPOLYLINE
  5
81
330
1F
100
AcDbEntity
  8
0
  6
Continuous
 62
     7
370
    25
100
AcDbPolyline
 90
       20
 70
   128
 43
0.0
 10
44.9012806053
 20
96.9531077812
 10
45.3031458939
 20
96.7874687533
 10
45.7764018302
 20
96.7061321493
 10
46.2697637904
 20
96.7179120524
 10
46.7297683508
 20
96.8215319272
 10
47.1065668794
 20
97.0057629525
 10
47.3593274092
 20
97.250640838
 10
47.4606594147
 20
97.5296292653
 10
47.3995820008
 20
97.8124955091
 10
47.182713853
 20
98.068586623
 10
46.8335560002
 20
98.270151161
 10
46.3899451135
 20
98.3953464778
 10
45.8999533158
 20
98.4306057184
 10
45.4166788213
 20
98.3721079968
 10
44.9924919203
 20
98.2261924488
 10
44.6733598456
 20
98.0086712883
 10
44.4938655091
 20
97.7431163081
 10
44.4734599075
 20
97.4583045109
 10
44.6143543043
 20
97.1850996741
 10
44.9012806053
 20
96.9531077812
  0
LWPOLYLINE
  5
82
330
1F
100
AcDbEntity
  8
0
  6
Continuous
 62
     7
370
    25
100
AcDbPolyline
 90
       20
 70
   128
 43
0.0
 10
-0.3535533906
 20
70.8280482028
 10
-0.6404796917
 20
71.0600400958
 10
-0.7813740884
 20
71.3332449325
 10
-0.7609684868
 20
71.6180567298
 10
-0.5814741504
 20
71.88361171
 10
-0.2623420756
 20
72.1011328705
 10
0.1618448253
 20
72.2470484184
 10
0.6451193198
 20
72.30554614
 10
1.1351111176
 20
72.2702868995
 10
1.5787220043
 20
72.1450915827
 10
1.9278798571
 20
71.9435270447
 10
2.1447480049
 20
71.6874359308
 10
2.2058254188
 20
71.4045696869
 10
2.1044934133
 20
71.1255812597
 10
1.8517328835
 20
70.8807033742
 10
1.4749343548
 20
70.6964723489
 10
1.0149297945
 20
70.5928524741
 10
0.5215678343
 20
70.581072571
 10
0.0483118979
 20
70.662409175
 10
-0.3535533906
 20
70.8280482028
  0
LWPOLYLINE
  5
83
330
1F
100
AcDbEntity
  8
0
  6
Continuous
 62
     7
370
    25
100
AcDbPolyline
 90
       20
 70
   128
 43
0.0
 10
2.4748737342
 20
-4.2814980849
 10
2.1879474331
 20
-4.0495061919
 10
2.0470530363
 20
-3.7763013552
 10
2.0674586379
 20
-3.4914895579
 10
2.2469529744
 20
-3.2259345777
 10
2.5660850491
 20
-3.0084134172
 10
2.9902719501
 20
-2.8624978693
 10
3.4735464446
 20
-2.8040001476
 10
3.9635382423
 20
-2.8392593882
 10
4.407149129
 20
-2.964454705
 10
4.7563069818
 20
-3.166019243
 10
4.9731751296
 20
-3.4221103569
 10
5.0342525435
 20
-3.7049766007
 10
4.932920538
 20
-3.983965028
 10
4.6801600082
 20
-4.2288429135
 10
4.3033614796
 20
-4.4130739388
 10
3.8433569192
 20
-4.5166938136
 10
3.349994959
 20
-4.5284737167
 10
2.8767390227
 20
-4.4471371127
 10
2.4748737342
 20
-4.2814980849
  0
LWPOLYLINE
  5
84
330
1F
100
AcDbEntity
  8
0
  6
Continuous
 62
     7
370
    25
100
AcDbPolyline
 90
       20
 70
   128
 43
0.0
 10
-56.9220958855
 20
30.0076426117
 10
-56.520230597
 20
29.8420035838
 10
-56.0469746606
 20
29.7606669799
 10
-55.5536127004
 20
29.7724468829
 10
-55.0936081401
 20
29.8760667577
 10
-54.7168096114
 20
30.060297783
 10
-54.4640490817
 20
30.3051756686
 10
-54.3627170762
 20
30.5841640958
 10
-54.42379449
 20
30.8670303397
 10
-54.6406626378
 20
31.1231214535
 10
-54.9898204906
 20
31.3246859915
 10
-55.4334313774
 20
31.4498813084
 10
-55.9234231751
 20
31.4851405489
 10
-56.4066976696
 20
31.4266428273
 10
-56.8308845705
 20
31.2807272793
 10
-57.1500166453
 20
31.0632061188
 10
-57.3295109817
 20
30.7976511386
 10
-57.3499165833
 20
30.5128393414
 10
-57.2090221866
 20
30.2396345047
 10
-56.9220958855
 20
30.0076426117
  0
LWPOLYLINE
  5
CE
330
1F
100
AcDbEntity
  8
0
  6
Continuous
 62
     7
370
    25
100
AcDbPolyline
 90
        3
 70
   128
 43
0.0
 10
3.7071067812
 20
42.8614258707
 10
3.6494626224
 20
42.5235561338
 10
3.5355339059
 20
42.2841381586
  0
LWPOLYLINE
  5
DB
330
1F
100
AcDbEntity
  8
0
  6
Continuous
 62
     7
370
    25
100
AcDbPolyline
 90
       46
 70
   128
 43
0.0
 10
87.8580175624
 20
61.5390836797
 10
87.9147900578
 20
62.4438438798
 10
88.0840025318
 20
63.2654458238
 10
88.362361456
 20
63.9878979646
 10
88.7444488908
 20
64.5971385928
 10
89.2228279388
 20
65.0813095328
 10
89.7881874959
 20
65.4309869479
 10
90.4295234814
 20
65.6393647649
 10
91.13435302
 20
65.7023871467
 10
91.8889574064
 20
65.6188274344
 10
92.6786491245
 20
65.3903120226
 10
93.4880577233
 20
65.0212887039
 10
94.3014289851
 20
64.5189400975
 10
95.1029315636
 20
63.8930438476
 10
95.8769651227
 20
63.1557823127
 10
96.6084639796
 20
62.32150545
 10
97.2831903412
 20
61.4064515096
 10
97.8880114263
 20
60.4284309757
 10
98.4111550805
 20
59.4064799054
 10
98.8424389075
 20
58.3604894139
 10
99.1734684584
 20
57.3108185163
 10
99.3978006194
 20
56.2778978626
 10
99.5110690202
 20
55.2818320784
 10
99.5110690202
 20
54.3420084513
 10
99.3978006194
 20
53.476719579
 10
99.1734684584
 20
52.7028073253
 10
98.8424389075
 20
52.0353350118
 10
98.4111550805
 20
51.4872942279
 10
97.8880114263
 20
51.069351964
 10
97.2831903412
 20
50.7896429909
 10
96.6084639796
 20
50.6536115257
 10
95.8769651227
 20
50.663905266
 10
95.1029315636
 20
50.8203238559
 10
94.3014289851
 20
51.1198227855
 10
93.4880577233
 20
51.5565726487
 10
92.6786491245
 20
52.1220726064
 10
91.8889574064
 20
52.805315845
 10
91.13435302
 20
53.5930038121
 10
90.4295234814
 20
54.4698050574
 10
89.7881874959
 20
55.418653642
 10
89.2228279388
 20
56.4210813075
 10
88.7444488908
 20
57.4575769397
 10
88.362361456
 20
58.50796633
 10
88.0840025318
 20
59.5518048438
 10
87.9147900578
 20
60.5687753518
 10
87.8580175624
 20
61.5390836797
  0
LWPOLYLINE
  5
DC
330
1F
100
AcDbEntity
  8
0
  6
Continuous
 62
     7
370
    25
100
AcDbPolyline
 90
       28
 70
   128
 43
0.0
 10
-27.9307178569
 20
14.0837034293
 10
-27.3843272543
 20
13.8342980073
 10
-26.7530317818
 20
13.6643572552
 10
-26.0708647416
 20
13.5830427228
 10
-25.3746019354
 20
13.5947380977
 10
-24.7017790714
 20
13.698812879
 10
-24.0886682043
 20
13.8896563685
 10
-23.5683222996
 20
14.1569801442
 10
-23.1687933398
 20
14.4863727122
 10
-22.9116200344
 20
14.8600764338
 10
-22.8106666631
 20
15.2579448448
 10
-22.871375648
 20
15.658528756
 10
-23.0904741522
 20
16.0402325852
 10
-23.4561505186
 20
16.3824785801
 10
-23.9486910395
 20
16.6668161706
 10
-24.5415427281
 20
16.8779166435
 10
-25.2027447963
 20
17.0043995177
 10
-25.8966516695
 20
17.0394460687
 10
-26.5858546486
 20
16.9811669279
 10
-27.2331986226
 20
16.8327039389
 10
-27.8037851102
 20
16.6020607797
 10
-28.2668536462
 20
16.3016714829
 10
-28.597440086
 20
15.9477301132
 10
-28.7777224291
 20
15.5593177414
 10
-28.7979816076
 20
15.157373779
 10
-28.657125444
 20
14.7635671291
 10
-28.3627475306
 20
14.3991280101
 10
-27.9307178569
 20
14.0837034293
  0
LWPOLYLINE
  5
DD
330
1F
100
AcDbEntity
  8
0
  6
Continuous
 62
     7
370
    25
100
AcDbPolyline
 90
       20
 70
   128
 43
0.0
 10
-26.8700576851
 20
14.6960095131
 10
-26.4681923966
 20
14.5303704852
 10
-25.9949364602
 20
14.4490338813
 10
-25.5015745
 20
14.4608137844
 10
-25.0415699397
 20
14.5644336592
 10
-24.664771411
 20
14.7486646845
 10
-24.4120108812
 20
14.99354257
 10
-24.3106788757
 20
15.2725309972
 10
-24.3717562896
 20
15.5553972411
 10
-24.5886244374
 20
15.811488355
 10
-24.9377822902
 20
16.013052893
 10
-25.3813931769
 20
16.1382482098
 10
-25.8713849747
 20
16.1735074503
 10
-26.3546594692
 20
16.1150097287
 10
-26.7788463701
 20
15.9690941808
 10
-27.0979784449
 20
15.7515730203
 10
-27.2774727813
 20
15.4860180401
 10
-27.2978783829
 20
15.2012062428
 10
-27.1569839861
 20
14.9280014061
 10
-26.8700576851
 20
14.6960095131
  0
LWPOLYLINE
  5
DF
330
1F
100
AcDbEntity
  8
0
  6
Continuous
 62
     7
370
    25
100
AcDbPolyline
 90
       15
 70
   128
 43
0.0
 10
99.1861935751
 20
52.7362418295
 10
98.6384654695
 20
52.8613441355
 10
97.8369628911
 20
53.160843065
 10
97.0235916292
 20
53.5975929283
 10
96.2141830304
 20
54.1630928859
 10
95.4244913123
 20
54.8463361245
 10
94.6698869259
 20
55.6340240916
 10
93.9650573874
 20
56.5108253369
 10
93.3237214018
 20
57.4596739216
 10
92.7583618447
 20
58.4621015871
 10
92.2799827967
 20
59.4985972192
 10
91.897895362
 20
60.5489866096
 10
91.6195364377
 20
61.5928251234
 10
91.4503239637
 20
62.6097956313
 10
91.3935514684
 20
63.5801039593
  0
LWPOLYLINE
  5
E1
330
1F
100
AcDbEntity
  8
0
  6
Continuous
 62
     7
370
    25
100
AcDbPolyline
 90
       28
 70
   128
 43
0.0
 10
20.859650045
 20
42.2497832871
 10
20.4276203713
 20
42.565207868
 10
20.1332424578
 20
42.929646987
 10
19.9923862943
 20
43.3234536369
 10
20.0126454728
 20
43.7253975993
 10
20.1929278159
 20
44.1138099711
 10
20.5235142557
 20
44.4677513408
 10
20.9865827917
 20
44.7681406376
 10
21.5571692793
 20
44.9987837967
 10
22.2045132533
 20
45.1472467858
 10
22.8937162323
 20
45.2055259266
 10
23.5876231056
 20
45.1704793755
 10
24.2488251738
 20
45.0439965013
 10
24.8416768624
 20
44.8328960285
 10
25.3342173833
 20
44.548558438
 10
25.6998937497
 20
44.2063124431
 10
25.9189922539
 20
43.8246086139
 10
25.9797012388
 20
43.4240247027
 10
25.8787478674
 20
43.0261562917
 10
25.6215745621
 20
42.6524525701
 10
25.2220456023
 20
42.3230600021
 10
24.7016996976
 20
42.0557362264
 10
24.0885888305
 20
41.8648927369
 10
23.4157659665
 20
41.7608179555
 10
22.7195031603
 20
41.7491225807
 10
22.0373361201
 20
41.8304371131
 10
21.4060406476
 20
42.0003778652
 10
20.859650045
 20
42.2497832871
  0
LWPOLYLINE
  5
E2
330
1F
100
AcDbEntity
  8
0
  6
Continuous
 62
     7
370
    25
100
AcDbPolyline
 90
       20
 70
   128
 43
0.0
 10
21.9203102168
 20
42.862089371
 10
21.6333839157
 20
43.094081264
 10
21.492489519
 20
43.3672861007
 10
21.5128951206
 20
43.6520978979
 10
21.692389457
 20
43.9176528781
 10
22.0115215318
 20
44.1351740387
 10
22.4357084327
 20
44.2810895866
 10
22.9189829272
 20
44.3395873082
 10
23.4089747249
 20
44.3043280677
 10
23.8525856117
 20
44.1791327508
 10
24.2017434645
 20
43.9775682128
 10
24.4186116123
 20
43.721477099
 10
24.4796890261
 20
43.4386108551
 10
24.3783570206
 20
43.1596224279
 10
24.1255964909
 20
42.9147445424
 10
23.7487979622
 20
42.7305135171
 10
23.2887934019
 20
42.6268936422
 10
22.7954314417
 20
42.6151137392
 10
22.3221755053
 20
42.6964503431
 10
21.9203102168
 20
42.862089371
  0
LWPOLYLINE
  5
EA
330
1F
100
AcDbEntity
  8
0
  6
Continuous
 62
     7
370
    25
100
AcDbPolyline
 90
       30
 70
   128
 43
0.0
 10
25.9809703886
 20
41.7008422438
 10
26.5165042945
 20
41.432711675
 10
27.0909807658
 20
41.0354733961
 10
27.5333581219
 20
40.5854026112
 10
27.8294179904
 20
40.0969649656
 10
27.9696447638
 20
39.5858592472
 10
27.949531438
 20
39.0685128142
 10
27.769724472
 20
38.5615536068
 10
27.4360030095
 20
38.0812757109
 10
26.959093133
 20
37.6431156534
 10
26.3543231182
 20
37.2611562589
 10
25.6411307711
 20
36.9476740167
 10
24.8424386806
 20
36.7127445041
 10
23.9839174675
 20
36.5639185487
 10
23.09316071
 20
36.5059795394
 10
22.1987980634
 20
36.5407896835
 10
21.3295750788
 20
36.6672301543
 10
20.5134292982
 20
36.8812370511
 10
19.7765923186
 20
37.1759320162
 10
19.1427466868
 20
37.5418433108
 10
18.6322647228
 20
37.9672102449
 10
18.261553737
 20
38.4383611753
 10
18.0425286856
 20
38.9401529234
 10
17.9822292139
 20
39.4564574895
 10
18.0825933964
 20
39.97068042
 10
18.340395446
 20
40.4662941669
 10
18.7473493924
 20
40.9273692965
 10
19.2903754011
 20
41.3390864748
 10
19.9520201694
 20
41.688212773
 10
19.9809703886
 20
41.7008422438
  0
LWPOLYLINE
  5
EB
330
1F
100
AcDbEntity
  8
0
  6
Continuous
 62
     7
370
    25
100
AcDbPolyline
 90
       11
 70
   128
 43
0.0
 10
-22.2738636074
 20
13.2666318171
 10
-21.6993871361
 20
12.8693935382
 10
-21.25700978
 20
12.4193227533
 10
-20.9609499114
 20
11.9308851077
 10
-20.8207231381
 20
11.4197793893
 10
-20.8408364638
 20
10.9024329563
 10
-21.0206434299
 20
10.3954737489
 10
-21.3543648924
 20
9.915195853
 10
-21.8312747689
 20
9.4770357955
 10
-22.4360447836
 20
9.095076401
 10
-22.6407144184
 20
8.9928101697
  0
LWPOLYLINE
  5
FA
330
1F
100
AcDbEntity
  8
0
  6
Continuous
 62
     7
370
    25
100
AcDbPolyline
 90
        9
 70
   128
 43
0.0
 10
-26.3950697812
 20
11.1601533874
 10
-25.7221433571
 20
11.1275626896
 10
-25.032940378
 20
11.1858418304
 10
-24.3855964041
 20
11.3343048195
 10
-23.8150099165
 20
11.5649479786
 10
-23.3519413804
 20
11.8653372754
 10
-23.0213549406
 20
12.2192786451
 10
-22.8410725976
 20
12.6076910169
 10
-22.8093993272
 20
12.8605976178
  0
LWPOLYLINE
  5
FD
330
1F
100
AcDbEntity
  8
0
  6
Continuous
 62
     7
370
    25
100
AcDbPolyline
 90
       15
 70
   128
 43
0.0
 10
19.9809813447
 20
41.0200924819
 10
20.0429485233
 20
40.6745598602
 10
20.2620470275
 20
40.292856031
 10
20.6277233938
 20
39.9506100361
 10
21.1202639148
 20
39.6662724456
 10
21.7131156033
 20
39.4551719727
 10
22.3743176716
 20
39.3286890985
 10
23.0682245448
 20
39.2936425475
 10
23.7574275239
 20
39.3519216883
 10
24.4047714978
 20
39.5003846774
 10
24.9753579854
 20
39.7310278365
 10
25.4384265214
 20
40.0314171333
 10
25.7690129612
 20
40.385358503
 10
25.9492953043
 20
40.7737708748
 10
25.9809685747
 20
41.0266774757
  0
LINE
  5
FE
330
1F
100
AcDbEntity
  8
0
  6
Continuous
 62
     7
370
    25
100
AcDbLine
 10
81.7315746662
 20
9.4910268885
 30
0.0
 11
26.5772457336
 21
-22.3488894726
 31
0.0
  0
LINE
  5
FF
330
1F
100
AcDbEntity
  8
0
  6
Continuous
 62
     7
370
    25
100
AcDbLine
 10
22.9202289494
 20
-22.3488894726
 30
0.0
 11
10.1923068881
 21
-15.0012164662
 31
0.0
  0
LINE
  5
100
330
1F
100
AcDbEntity
  8
0
  6
Continuous
 62
     7
370
    25
100
AcDbLine
 10
25.7486560742
 20
-37.2442581883
 30
0.0
 11
84.4385189126
 21
-3.3633215477
 31
0.0
  0
LINE
  5
101
330
1F
100
AcDbEntity
  8
0
  6
Continuous
 62
     7
370
    25
100
AcDbLine
 10
7.4853626416
 20
-27.8555649023
 30
0.0
 11
23.7488186089
 21
-37.2442581883
 31
0.0
  0
LINE
  5
102
330
1F
100
AcDbEntity
  8
0
  6
Continuous
 62
     7
370
    25
100
AcDbLine
 10
6.0353307375
 20
-39.0275890644
 30
0.0
 11
16.4366518734
 21
-33.0230341832
 31
0.0
  0
LINE
  5
103
330
1F
100
AcDbEntity
  8
0
  6
Continuous
 62
     7
370
    25
100
AcDbLine
 10
-62.6038732324
 20
-2.2892240323
 30
0.0
 11
1.0357370743
 21
-39.0275890644
 31
0.0
  0
LINE
  5
104
330
1F
100
AcDbEntity
  8
0
  6
Continuous
 62
     7
370
    25
100
AcDbLine
 10
94.4236783858
 20
-16.5763659892
 30
0.0
 11
143.9211530689
 21
11.9979179246
 31
0.0
  0
LINE
  5
105
330
1F
100
AcDbEntity
  8
0
  6
Continuous
 62
     7
370
    25
100
AcDbLine
 10
75.4872296809
 20
-8.5307908285
 30
0.0
 11
89.4240847227
 21
-16.5763659892
 31
0.0
  0
LINE
  5
106
330
1F
100
AcDbEntity
  8
0
  6
Continuous
 62
     7
370
    25
100
AcDbLine
 10
-65.1040764009
 20
30.6199486956
 30
0.0
 11
-65.1040764009
 21
2.0410202796
 31
0.0
  0
LINE
  5
107
330
1F
100
AcDbEntity
  8
0
  6
Continuous
 62
     7
370
    25
100
AcDbLine
 10
-52.8614357137
 20
26.4388612238
 30
0.0
 11
-52.8614357137
 21
30.6199486956
 31
0.0
  0
LINE
  5
108
330
1F
100
AcDbEntity
  8
0
  6
Continuous
 62
     7
370
    25
100
AcDbLine
 10
146.4213562373
 20
16.3281622365
 30
0.0
 11
146.4213562373
 21
44.9070906525
 31
0.0
  0
LINE
  5
109
330
1F
100
AcDbEntity
  8
0
  6
Continuous
 62
     7
370
    25
100
AcDbLine
 10
134.1787155502
 20
44.9070906525
 30
0.0
 11
134.1787155502
 21
40.7260031807
 31
0.0
  0
LINE
  5
10A
330
1F
100
AcDbEntity
  8
0
  6
Continuous
 62
     7
370
    25
100
AcDbLine
 10
-22.8093975133
 20
12.8586931613
 30
0.0
 11
-22.8093975133
 21
15.308315597
 31
0.0
  0
LINE
  5
10B
330
1F
100
AcDbEntity
  8
0
  6
Continuous
 62
     7
370
    25
100
AcDbLine
 10
-28.8093975133
 20
15.308315597
 30
0.0
 11
-28.8093975133
 21
12.8586931613
 31
0.0
  0
LINE
  5
10C
330
1F
100
AcDbEntity
  8
0
  6
Continuous
 62
     7
370
    25
100
AcDbLine
 10
-8.5355339059
 20
71.4403542867
 30
0.0
 11
-8.5355339059
 21
64.4718751672
 31
0.0
  0
LINE
  5
10D
330
1F
100
AcDbEntity
  8
0
  6
Continuous
 62
     7
370
    25
100
AcDbLine
 10
3.7071067812
 20
42.8614258707
 30
0.0
 11
3.7071067812
 21
71.4403542867
 31
0.0
  0
LINE
  5
10E
330
1F
100
AcDbEntity
  8
0
  6
Continuous
 62
     7
370
    25
100
AcDbLine
 10
25.9809703886
 20
41.0247730192
 30
0.0
 11
25.9809703886
 21
43.4743954549
 31
0.0
  0
LINE
  5
10F
330
1F
100
AcDbEntity
  8
0
  6
Continuous
 62
     7
370
    25
100
AcDbLine
 10
19.9809703886
 20
43.4743954549
 30
0.0
 11
19.9809703886
 21
41.0247730192
 31
0.0
  0
LINE
  5
110
330
1F
100
AcDbEntity
  8
0
  6
Continuous
 62
     7
370
    25
100
AcDbLine
 10
144.9568901432
 20
42.8660703729
 30
0.0
 11
95.4594154602
 21
14.2917864591
 31
0.0
  0
LINE
  5
111
330
1F
100
AcDbEntity
  8
0
  6
Continuous
 62
     7
370
    25
100
AcDbLine
 10
67.1751442127
 20
26.5379081364
 30
0.0
 11
88.3883476483
 21
14.2917864591
 31
0.0
  0
LINE
  5
112
330
1F
100
AcDbEntity
  8
0
  6
Continuous
 62
     7
370
    25
100
AcDbLine
 10
67.1751442127
 20
26.5379081364
 30
0.0
 11
7.0710678119
 21
-8.159436616
 31
0.0
  0
LINE
  5
113
330
1F
100
AcDbEntity
  8
0
  6
Continuous
 62
     7
370
    25
100
AcDbLine
 10
-63.6396103068
 20
28.578928416
 30
0.0
 11
0.0
 21
-8.159436616
 31
0.0
  0
LINE
  5
114
330
1F
100
AcDbEntity
  8
0
  6
Continuous
 62
     7
370
    25
100
AcDbLine
 10
-3.5355339059
 20
67.3583137276
 30
0.0
 11
-63.6396103068
 21
32.6609689751
 31
0.0
  0
LINE
  5
115
330
1F
100
AcDbEntity
  8
0
  6
Continuous
 62
     7
370
    25
100
AcDbLine
 10
-7.0710678119
 20
69.3993340071
 30
0.0
 11
-3.5355339059
 21
67.3583137276
 31
0.0
  0
LINE
  5
116
330
1F
100
AcDbEntity
  8
0
  6
Continuous
 62
     7
370
    25
100
AcDbLine
 10
42.4264068712
 20
102.05565848
 30
0.0
 11
-7.0710678119
 21
73.4813745663
 31
0.0
  0
LINE
  5
117
330
1F
100
AcDbEntity
  8
0
  6
Continuous
 62
     7
370
    25
100
AcDbLine
 10
49.4974746831
 20
102.05565848
 30
0.0
 11
144.9568901432
 21
46.948110932
 31
0.0
  0
LINE
  5
118
330
1F
100
AcDbEntity
  8
0
  6
Continuous
 62
     7
370
    25
100
AcDbLine
 10
137.1787155502
 20
47.3563149879
 30
0.0
 11
135.0573952066
 21
46.1317028202
 31
0.0
  0
LINE
  5
119
330
1F
100
AcDbEntity
  8
0
  6
Continuous
 62
     7
370
    25
100
AcDbLine
 10
50.2045814642
 20
97.565413865
 30
0.0
 11
137.1787155502
 21
47.3563149879
 31
0.0
  0
LINE
  5
11A
330
1F
100
AcDbEntity
  8
0
  6
Continuous
 62
     7
370
    25
100
AcDbLine
 10
50.2045814642
 20
97.565413865
 30
0.0
 11
48.0832611207
 21
96.3408016973
 31
0.0
  0
LINE
  5
11B
330
1F
100
AcDbEntity
  8
0
  6
Continuous
 62
     7
370
    25
100
AcDbLine
 10
41.71930009
 20
97.565413865
 30
0.0
 11
43.8406204336
 21
96.3408016973
 31
0.0
  0
LINE
  5
11C
330
1F
100
AcDbEntity
  8
0
  6
Continuous
 62
     7
370
    25
100
AcDbLine
 10
41.71930009
 20
97.565413865
 30
0.0
 11
0.7071067812
 21
73.8895786222
 31
0.0
  0
LINE
  5
11D
330
1F
100
AcDbEntity
  8
0
  6
Continuous
 62
     7
370
    25
100
AcDbLine
 10
0.7071067812
 20
73.8895786222
 30
0.0
 11
2.8284271247
 21
72.6649664544
 31
0.0
  0
LINE
  5
11E
330
1F
100
AcDbEntity
  8
0
  6
Continuous
 62
     7
370
    25
100
AcDbLine
 10
0.7071067812
 20
68.9911299512
 30
0.0
 11
2.8284271247
 21
70.215742119
 31
0.0
  0
LINE
  5
11F
330
1F
100
AcDbEntity
  8
0
  6
Continuous
 62
     7
370
    25
100
AcDbLine
 10
0.7071067812
 20
68.9911299512
 30
0.0
 11
3.5355339059
 21
67.3583137276
 31
0.0
  0
LINE
  5
120
330
1F
100
AcDbEntity
  8
0
  6
Continuous
 62
     7
370
    25
100
AcDbLine
 10
3.5355339059
 20
67.3583137276
 30
0.0
 11
-55.8614357137
 21
33.069173031
 31
0.0
  0
LINE
  5
121
330
1F
100
AcDbEntity
  8
0
  6
Continuous
 62
     7
370
    25
100
AcDbLine
 10
-55.8614357137
 20
33.069173031
 30
0.0
 11
-53.7401153702
 21
31.8445608633
 31
0.0
  0
LINE
  5
122
330
1F
100
AcDbEntity
  8
0
  6
Continuous
 62
     7
370
    25
100
AcDbLine
 10
-55.8614357137
 20
28.1707243601
 30
0.0
 11
-53.7401153702
 21
29.3953365278
 31
0.0
  0
LINE
  5
123
330
1F
100
AcDbEntity
  8
0
  6
Continuous
 62
     7
370
    25
100
AcDbLine
 10
-55.8614357137
 20
28.1707243601
 30
0.0
 11
-0.7071067812
 21
-3.669192001
 31
0.0
  0
LINE
  5
124
330
1F
100
AcDbEntity
  8
0
  6
Continuous
 62
     7
370
    25
100
AcDbLine
 10
-0.7071067812
 20
-3.669192001
 30
0.0
 11
1.4142135624
 21
-2.4445798333
 31
0.0
  0
LINE
  5
125
330
1F
100
AcDbEntity
  8
0
  6
Continuous
 62
     7
370
    25
100
AcDbLine
 10
7.7781745931
 20
-3.669192001
 30
0.0
 11
5.6568542495
 21
-2.4445798333
 31
0.0
  0
LINE
  5
126
330
1F
100
AcDbEntity
  8
0
  6
Continuous
 62
     7
370
    25
100
AcDbLine
 10
67.1751442127
 20
30.6199486956
 30
0.0
 11
7.7781745931
 21
-3.669192001
 31
0.0
  0
LINE
  5
127
330
1F
100
AcDbEntity
  8
0
  6
Continuous
 62
     7
370
    25
100
AcDbLine
 10
67.1751442127
 20
30.6199486956
 30
0.0
 11
87.6812408671
 21
18.7820310741
 31
0.0
  0
LINE
  5
128
330
1F
100
AcDbEntity
  8
0
  6
Continuous
 62
     7
370
    25
100
AcDbLine
 10
87.6812408671
 20
18.7820310741
 30
0.0
 11
89.8025612107
 21
20.0066432419
 31
0.0
  0
LINE
  5
129
330
1F
100
AcDbEntity
  8
0
  6
Continuous
 62
     7
370
    25
100
AcDbLine
 10
96.1665222414
 20
18.7820310741
 30
0.0
 11
94.0452018978
 21
20.0066432419
 31
0.0
  0
LINE
  5
12A
330
1F
100
AcDbEntity
  8
0
  6
Continuous
 62
     7
370
    25
100
AcDbLine
 10
137.1787155502
 20
42.457866317
 30
0.0
 11
96.1665222414
 21
18.7820310741
 31
0.0
  0
LINE
  5
12B
330
1F
100
AcDbEntity
  8
0
  6
Continuous
 62
     7
370
    25
100
AcDbLine
 10
137.1787155502
 20
42.457866317
 30
0.0
 11
135.0573952066
 21
43.6824784847
 31
0.0
  0
LINE
  5
12C
330
1F
100
AcDbEntity
  8
0
  6
Continuous
 62
     7
370
    25
100
AcDbLine
 10
26.1629509039
 20
-27.3466196446
 30
0.0
 11
26.1629509039
 21
-36.3285685754
 31
0.0
  0
LINE
  5
12D
330
1F
100
AcDbEntity
  8
0
  6
Continuous
 62
     7
370
    25
100
AcDbLine
 10
23.3345237792
 20
-36.3285685754
 30
0.0
 11
23.3345237792
 21
-27.3466196446
 31
0.0
  0
LINE
  5
12E
330
1F
100
AcDbEntity
  8
0
  6
Continuous
 62
     7
370
    25
100
AcDbLine
 10
84.8528137424
 20
6.534316996
 30
0.0
 11
26.1629509039
 21
-27.3466196446
 31
0.0
  0
LINE
  5
12F
330
1F
100
AcDbEntity
  8
0
  6
Continuous
 62
     7
370
    25
100
AcDbLine
 10
24.7487373415
 20
-24.897129909
 30
0.0
 11
83.43860018
 21
8.9838067316
 31
0.0
  0
LINE
  5
130
330
1F
100
AcDbEntity
  8
0
  6
Continuous
 62
     7
370
    25
100
AcDbLine
 10
8.4852813742
 20
-15.5084366231
 30
0.0
 11
24.7487373415
 21
-24.897129909
 31
0.0
  0
LINE
  5
131
330
1F
100
AcDbEntity
  8
0
  6
Continuous
 62
     7
370
    25
100
AcDbLine
 10
23.3345237792
 20
-27.3466196446
 30
0.0
 11
7.0710678119
 21
-17.9579263586
 31
0.0
  0
LINE
  5
132
330
1F
100
AcDbEntity
  8
0
  6
Continuous
 62
     7
370
    25
100
AcDbLine
 10
84.8528137424
 20
-2.4476319347
 30
0.0
 11
84.8528137424
 21
6.534316996
 31
0.0
  0
LINE
  5
133
330
1F
100
AcDbEntity
  8
0
  6
Continuous
 62
     7
370
    25
100
AcDbLine
 10
26.1629509039
 20
-36.3285685754
 30
0.0
 11
84.8528137424
 21
-2.4476319347
 31
0.0
  0
LINE
  5
134
330
1F
100
AcDbEntity
  8
0
  6
Continuous
 62
     7
370
    25
100
AcDbLine
 10
7.0710678119
 20
-26.9398752894
 30
0.0
 11
23.3345237792
 21
-36.3285685754
 31
0.0
  0
LINE
  5
135
330
1F
100
AcDbEntity
  8
0
  6
Continuous
 62
     7
370
    25
100
AcDbLine
 10
7.0710678119
 20
-8.159436616
 30
0.0
 11
7.0710678119
 21
-36.738365032
 31
0.0
  0
LINE
  5
136
330
1F
100
AcDbEntity
  8
0
  6
Continuous
 62
     7
370
    25
100
AcDbLine
 10
9.1923881554
 20
-15.1002325671
 30
0.0
 11
8.4852813742
 21
-15.5084366231
 31
0.0
  0
LINE
  5
137
330
1F
100
AcDbEntity
  8
0
  6
Continuous
 62
     7
370
    25
100
AcDbLine
 10
21.9203102168
 20
-22.4479055735
 30
0.0
 11
9.1923881554
 21
-15.1002325671
 31
0.0
  0
LINE
  5
138
330
1F
100
AcDbEntity
  8
0
  6
Continuous
 62
     7
370
    25
100
AcDbLine
 10
82.7314933988
 20
9.3920107875
 30
0.0
 11
27.5771644663
 21
-22.4479055735
 31
0.0
  0
LINE
  5
139
330
1F
100
AcDbEntity
  8
0
  6
Continuous
 62
     7
370
    25
100
AcDbLine
 10
83.43860018
 20
8.9838067316
 30
0.0
 11
82.7314933988
 21
9.3920107875
 31
0.0
  0
LINE
  5
13A
330
1F
100
AcDbEntity
  8
0
  6
Continuous
 62
     7
370
    25
100
AcDbLine
 10
0.0
 20
-36.738365032
 30
0.0
 11
0.0
 21
-8.159436616
 31
0.0
  0
LINE
  5
13B
330
1F
100
AcDbEntity
  8
0
  6
Continuous
 62
     7
370
    25
100
AcDbLine
 10
67.1751442127
 20
26.5379081364
 30
0.0
 11
67.1751442127
 21
1.0877784559
 31
0.0
  0
LINE
  5
13C
330
1F
100
AcDbEntity
  8
0
  6
Continuous
 62
     7
370
    25
100
AcDbLine
 10
-63.6396103068
 20
0.0
 30
0.0
 11
0.0
 21
-36.738365032
 31
0.0
  0
LINE
  5
13D
330
1F
100
AcDbEntity
  8
0
  6
Continuous
 62
     7
370
    25
100
AcDbLine
 10
-63.6396103068
 20
28.578928416
 30
0.0
 11
-63.6396103068
 21
0.0
 31
0.0
  0
LINE
  5
13E
330
1F
100
AcDbEntity
  8
0
  6
Continuous
 62
     7
370
    25
100
AcDbLine
 10
3.5355339059
 20
38.7793853116
 30
0.0
 11
-35.3513163666
 21
16.3304844876
 31
0.0
  0
LINE
  5
13F
330
1F
100
AcDbEntity
  8
0
  6
Continuous
 62
     7
370
    25
100
AcDbLine
 10
41.71930009
 20
68.986485449
 30
0.0
 11
3.7071067812
 21
47.0425133424
 31
0.0
  0
LINE
  5
140
330
1F
100
AcDbEntity
  8
0
  6
Continuous
 62
     7
370
    25
100
AcDbLine
 10
41.71930009
 20
68.986485449
 30
0.0
 11
43.8406204336
 21
67.7618732813
 31
0.0
  0
LINE
  5
141
330
1F
100
AcDbEntity
  8
0
  6
Continuous
 62
     7
370
    25
100
AcDbLine
 10
50.2045814642
 20
68.986485449
 30
0.0
 11
48.0832611207
 21
67.7618732813
 31
0.0
  0
LINE
  5
142
330
1F
100
AcDbEntity
  8
0
  6
Continuous
 62
     7
370
    25
100
AcDbLine
 10
50.2045814642
 20
68.986485449
 30
0.0
 11
116.668596203
 21
30.6176264445
 31
0.0
  0
LINE
  5
143
330
1F
100
AcDbEntity
  8
0
  6
Continuous
 62
     7
370
    25
100
AcDbLine
 10
95.4594154602
 20
14.2917864591
 30
0.0
 11
95.4594154602
 21
-14.2871419569
 31
0.0
  0
LINE
  5
144
330
1F
100
AcDbEntity
  8
0
  6
Continuous
 62
     7
370
    25
100
AcDbLine
 10
88.3883476483
 20
14.2917864591
 30
0.0
 11
88.3883476483
 21
-14.2871419569
 31
0.0
  0
LINE
  5
145
330
1F
100
AcDbEntity
  8
0
  6
Continuous
 62
     7
370
    25
100
AcDbLine
 10
144.9568901432
 20
42.8660703729
 30
0.0
 11
144.9568901432
 21
14.2871419569
 31
0.0
  0
LINE
  5
146
330
1F
100
AcDbEntity
  8
0
  6
Continuous
 62
     7
370
    25
100
AcDbLine
 10
95.4594154602
 20
-14.2871419569
 30
0.0
 11
144.9568901432
 21
14.2871419569
 31
0.0
  0
LINE
  5
147
330
1F
100
AcDbEntity
  8
0
  6
Continuous
 62
     7
370
    25
100
AcDbLine
 10
3.5355339059
 20
67.3583137276
 30
0.0
 11
3.5355339059
 21
38.7793853116
 31
0.0
  0
LINE
  5
148
330
1F
100
AcDbEntity
  8
0
  6
Continuous
 62
     7
370
    25
100
AcDbLine
 10
50.2045814642
 20
97.565413865
 30
0.0
 11
50.2045814642
 21
68.986485449
 31
0.0
  0
LINE
  5
149
330
1F
100
AcDbEntity
  8
0
  6
Continuous
 62
     7
370
    25
100
AcDbLine
 10
41.71930009
 20
97.565413865
 30
0.0
 11
41.71930009
 21
68.986485449
 31
0.0
  0
LINE
  5
14A
330
1F
100
AcDbEntity
  8
0
  6
Continuous
 62
     7
370
    25
100
AcDbLine
 10
43.8406204336
 20
96.3408016973
 30
0.0
 11
43.8406204336
 21
67.7618732813
 31
0.0
  0
LINE
  5
14B
330
1F
100
AcDbEntity
  8
0
  6
Continuous
 62
     7
370
    25
100
AcDbLine
 10
48.0832611207
 20
96.3408016973
 30
0.0
 11
48.0832611207
 21
67.7618732813
 31
0.0
  0
LINE
  5
14C
330
1F
100
AcDbEntity
  8
0
  6
Continuous
 62
     7
370
    25
100
AcDbLine
 10
7.0710678119
 20
-36.738365032
 30
0.0
 11
14.9717794095
 21
-32.17738131
 31
0.0
  0
LINE
  5
14D
330
1F
100
AcDbEntity
  8
0
  6
Continuous
 62
     7
370
    25
100
AcDbLine
 10
-22.8093975133
 20
13.5347623859
 30
0.0
 11
-22.2738636074
 21
13.2666318171
 31
0.0
  0
LINE
  5
14E
330
1F
100
AcDbEntity
  8
0
  6
Continuous
 62
     7
370
    25
100
AcDbLine
 10
76.9521021448
 20
-7.6851379553
 30
0.0
 11
88.3883476483
 21
-14.2871419569
 31
0.0
  0
LINE
  5
14F
330
1F
100
AcDbEntity
  8
0
  6
Continuous
 62
     7
370
    25
100
AcDbLine
 10
-53.7401153702
 20
29.3953365278
 30
0.0
 11
-53.7401153702
 21
26.9461121924
 31
0.0
  0
LINE
  5
150
330
1F
100
AcDbEntity
  8
0
  6
Continuous
 62
     7
370
    25
100
AcDbLine
 10
135.0573952066
 20
43.6824784847
 30
0.0
 11
135.0573952066
 21
41.2332541493
 31
0.0
  0
LINE
  5
151
330
1F
100
AcDbEntity
  8
0
  6
Continuous
 62
     7
370
    25
100
AcDbLine
 10
-28.8093865572
 20
12.854012624
 30
0.0
 11
-28.7516735022
 21
12.5205917578
 31
0.0
  0
LINE
  5
152
330
1F
100
AcDbEntity
  8
0
  6
Continuous
 62
     7
370
    25
100
AcDbLine
 10
-7.0710678119
 20
69.3993340071
 30
0.0
 11
-7.0710678119
 21
65.317293448
 31
0.0
  0
LINE
  5
153
330
1F
100
AcDbEntity
  8
0
  6
Continuous
 62
     7
370
    25
100
AcDbLine
 10
2.8284271247
 20
70.215742119
 30
0.0
 11
2.8284271247
 21
67.7665177835
 31
0.0
  0
ARC
  5
154
330
1F
100
AcDbEntity
  8
0
  6
Continuous
 62
     7
370
    25
100
AcDbCircle
 10
24.7487373415
 20
-35.5121604635
 30
0.0
 40
2.000000000000095
100
AcDbArc
 50
240.0026882664
 51
299.9973117337
  0
ARC
  5
155
330
1F
100
AcDbEntity
  8
0
  6
Continuous
 62
     7
370
    25
100
AcDbCircle
 10
3.5355339059
 20
-34.6973447525
 30
0.0
 40
5.000000000000047
100
AcDbArc
 50
240.0026882664
 51
299.9973117337
  0
ARC
  5
156
330
1F
100
AcDbEntity
  8
0
  6
Continuous
 62
     7
370
    25
100
AcDbCircle
 10
91.9238815543
 20
-12.2461216773
 30
0.0
 40
4.999999999999976
100
AcDbArc
 50
240.0026882664
 51
299.9973117337
  0
ARC
  5
157
330
1F
100
AcDbEntity
  8
0
  6
Continuous
 62
     7
370
    25
100
AcDbCircle
 10
-60.1040764009
 20
2.0410202796
 30
0.0
 40
5.000000000000007
100
AcDbArc
 50
180.0
 51
240.0026882664
  0
ARC
  5
158
330
1F
100
AcDbEntity
  8
0
  6
Continuous
 62
     7
370
    25
100
AcDbCircle
 10
141.4213562373
 20
16.3281622365
 30
0.0
 40
5.000000000000142
100
AcDbArc
 50
299.9973117337
 51
0.0
  0
ARC
  5
159
330
1F
100
AcDbEntity
  8
0
  6
Continuous
 62
     7
370
    25
100
AcDbCircle
 10
144.1822550093
 20
44.9070906525
 30
0.0
 40
2.18307658417132
100
AcDbArc
 50
290.7834207995
 51
69.2165792005
  0
ARC
  5
15A
330
1F
100
AcDbEntity
  8
0
  6
Continuous
 62
     7
370
    25
100
AcDbCircle
 10
91.9238815543
 20
21.1153418839
 30
0.0
 40
7.685109539558703
100
AcDbArc
 50
242.6096722366
 51
297.3903277634
  0
ARC
  5
15B
330
1F
100
AcDbEntity
  8
0
  6
Continuous
 62
     7
370
    25
100
AcDbCircle
 10
3.5355339059
 20
-1.3358811912
 30
0.0
 40
7.685109539558626
100
AcDbArc
 50
242.6096722366
 51
297.3903277634
  0
ARC
  5
15C
330
1F
100
AcDbEntity
  8
0
  6
Continuous
 62
     7
370
    25
100
AcDbCircle
 10
-62.8649751728
 20
30.6199486956
 30
0.0
 40
2.183076584171342
100
AcDbArc
 50
110.7834207995
 51
249.2165792005
  0
ARC
  5
15D
330
1F
100
AcDbEntity
  8
0
  6
Continuous
 62
     7
370
    25
100
AcDbCircle
 10
-6.2964326779
 20
71.4403542867
 30
0.0
 40
2.183076584171352
100
AcDbArc
 50
110.7834207995
 51
249.2165792005
  0
ARC
  5
15E
330
1F
100
AcDbEntity
  8
0
  6
Continuous
 62
     7
370
    25
100
AcDbCircle
 10
45.9619407771
 20
95.2321030553
 30
0.0
 40
7.685109539558652
100
AcDbArc
 50
62.6096722366
 51
117.3903277634
  0
ARC
  5
15F
330
1F
100
AcDbEntity
  8
0
  6
Continuous
 62
     7
370
    25
100
AcDbCircle
 10
135.522176287
 20
44.9070906525
 30
0.0
 40
1.3098459505028
100
AcDbArc
 50
110.7834207995
 51
249.2165792005
  0
ARC
  5
160
330
1F
100
AcDbEntity
  8
0
  6
Continuous
 62
     7
370
    25
100
AcDbCircle
 10
45.9619407771
 20
100.4349349522
 30
0.0
 40
4.611065723735206
100
AcDbArc
 50
242.6096722366
 51
297.3903277634
  0
ARC
  5
161
330
1F
100
AcDbEntity
  8
0
  6
Continuous
 62
     7
370
    25
100
AcDbCircle
 10
2.3636460444
 20
71.4403542867
 30
0.0
 40
1.309845950502822
100
AcDbArc
 50
290.7834207995
 51
69.2165792005
  0
ARC
  5
162
330
1F
100
AcDbEntity
  8
0
  6
Continuous
 62
     7
370
    25
100
AcDbCircle
 10
-54.2048964506
 20
30.6199486956
 30
0.0
 40
1.309845950502814
100
AcDbArc
 50
290.7834207995
 51
69.2165792005
  0
ARC
  5
163
330
1F
100
AcDbEntity
  8
0
  6
Continuous
 62
     7
370
    25
100
AcDbCircle
 10
3.5355339059
 20
-6.5387130881
 30
0.0
 40
4.611065723735175
100
AcDbArc
 50
62.6096722366
 51
117.3903277634
  0
ARC
  5
164
330
1F
100
AcDbEntity
  8
0
  6
Continuous
 62
     7
370
    25
100
AcDbCircle
 10
91.9238815543
 20
15.912509987
 30
0.0
 40
4.611065723735236
100
AcDbArc
 50
62.6096722366
 51
117.3903277634
  0
ARC
  5
165
330
1F
100
AcDbEntity
  8
0
  6
Continuous
 62
     7
370
    25
100
AcDbCircle
 10
24.7487373415
 20
-24.6171974747
 30
0.0
 40
3.074043815823395
100
AcDbArc
 50
242.6096722366
 51
297.3903277634
  0
ARC
  5
166
330
1F
100
AcDbEntity
  8
0
  6
Continuous
 62
     7
370
    25
100
AcDbCircle
 10
26.4049559819
 20
-27.4863413491
 30
0.0
 40
3.073609615144158
100
AcDbArc
 50
122.60547834
 51
177.3945215143
  0
ARC
  5
167
330
1F
100
AcDbEntity
  8
0
  6
Continuous
 62
     7
370
    25
100
AcDbCircle
 10
23.0925187012
 20
-27.4863413491
 30
0.0
 40
3.073609615144171
100
AcDbArc
 50
2.6054784857
 51
57.39452166
  0
ARC
  5
168
330
1F
100
AcDbEntity
  8
0
  6
Continuous
 62
     7
370
    25
100
AcDbCircle
 10
24.7487373415
 20
-33.5991464054
 30
0.0
 40
3.07404381582342
100
AcDbArc
 50
242.6096722366
 51
297.3903277634
  0
ARC
  5
169
330
1F
100
AcDbEntity
  8
0
  6
Continuous
 62
     7
370
    25
100
AcDbCircle
 10
81.7823815397
 20
6.3945952915
 30
0.0
 40
3.073609615144143
100
AcDbArc
 50
2.6054784857
 51
57.39452166
  0
ARC
  5
16A
330
1F
100
AcDbEntity
  8
0
  6
Continuous
 62
     7
370
    25
100
AcDbCircle
 10
10.1415000146
 20
-18.0976480632
 30
0.0
 40
3.073609615144167
100
AcDbArc
 50
122.60547834
 51
177.3945215143
  0
ARC
  5
16B
330
1F
100
AcDbEntity
  8
0
  6
Continuous
 62
     7
370
    25
100
AcDbCircle
 10
24.7487373415
 20
-16.9890612337
 30
0.0
 40
6.148087631646908
100
AcDbArc
 50
242.6096722366
 51
297.3903277634
  0
ARC
  5
16C
330
1F
100
AcDbEntity
  8
0
  6
Continuous
 62
     7
370
    25
100
AcDbCircle
 10
82.1456532891
 20
8.5742481293
 30
0.0
 40
1.005954471803512
100
AcDbArc
 50
54.3824225248
 51
114.3071190461
  0
ARC
  5
16D
330
1F
100
AcDbEntity
  8
0
  6
Continuous
 62
     7
370
    25
100
AcDbCircle
 10
9.7782282651
 20
-15.9179952254
 30
0.0
 40
1.005954471803596
100
AcDbArc
 50
65.6928809539
 51
125.6175774752
  0
ARC
  5
16E
330
1F
100
AcDbEntity
  8
0
  6
Continuous
 62
     7
370
    25
100
AcDbCircle
 10
3.5355339059
 20
-29.9148096072
 30
0.0
 40
7.685109539558631
100
AcDbArc
 50
242.6096722366
 51
297.3903277634
  0
ARC
  5
16F
330
1F
100
AcDbEntity
  8
0
  6
Continuous
 62
     7
370
    25
100
AcDbCircle
 10
83.9014426305
 20
-2.5687599919
 30
0.0
 40
0.959051092868022
100
AcDbArc
 50
304.056350833
 51
7.2558295604
  0
ARC
  5
170
330
1F
100
AcDbEntity
  8
0
  6
Continuous
 62
     7
370
    25
100
AcDbCircle
 10
8.0510716166
 20
-27.0480487641
 30
0.0
 40
0.9859558600221362
100
AcDbArc
 50
173.7011524822
 51
234.9866671244
  0
ARC
  5
171
330
1F
100
AcDbEntity
  8
0
  6
Continuous
 62
     7
370
    25
100
AcDbCircle
 10
45.9619407771
 20
71.8560065362
 30
0.0
 40
4.611065723734947
100
AcDbArc
 50
242.6096722366
 51
297.3903277634
  0
ARC
  5
172
330
1F
100
AcDbEntity
  8
0
  6
Continuous
 62
     7
370
    25
100
AcDbCircle
 10
91.9238815543
 20
-7.4635865321
 30
0.0
 40
7.685109539558709
100
AcDbArc
 50
242.6096722366
 51
297.3903277634
  0
ARC
  5
173
330
1F
100
AcDbEntity
  8
0
  6
Continuous
 62
     7
370
    25
100
AcDbCircle
 10
97.1650315048
 20
63.6950695785
 30
0.0
 40
5.772624957887181
100
AcDbArc
 50
160.2305647648
 51
181.1411585436
  0
ARC
  5
174
330
1F
100
AcDbEntity
  8
0
  6
Continuous
 62
     7
370
    25
100
AcDbCircle
 10
22.5061820348
 20
-23.2657565189
 30
0.0
 40
1.006044708740991
100
AcDbArc
 50
65.7096425968
 51
125.6161172599
  0
ARC
  5
175
330
1F
100
AcDbEntity
  8
0
  6
Continuous
 62
     7
370
    25
100
AcDbCircle
 10
26.9912262942
 20
-23.2659412761
 30
0.0
 40
1.006233547508642
100
AcDbArc
 50
54.3869377289
 51
114.2553014594
  0
ARC
  5
176
330
1F
100
AcDbEntity
  8
0
  6
Continuous
 62
     7
370
    25
100
AcDbCircle
 10
25.211579792
 20
-36.4496966325
 30
0.0
 40
0.9590510928932676
100
AcDbArc
 50
304.0563508339
 51
7.2558295595
  0
ARC
  5
177
330
1F
100
AcDbEntity
  8
0
  6
Continuous
 62
     7
370
    25
100
AcDbCircle
 10
24.285894891
 20
-36.4496966325
 30
0.0
 40
0.9590510928852995
100
AcDbArc
 50
172.7441704402
 51
235.9436491664
  0
ARC
  5
178
330
1F
100
AcDbEntity
  8
0
  6
Continuous
 62
     7
370
    25
100
AcDbCircle
 10
-26.8780395045
 20
9.0181317162
 30
0.0
 40
4.912239445001044
100
AcDbArc
 50
113.1520531328
 51
124.7378198028
  0
ARC
  5
179
330
1F
100
AcDbEntity
  8
0
  6
Continuous
 62
     7
370
    25
100
AcDbCircle
 10
4.6926400321
 20
-37.0411851749
 30
0.0
 40
2.397627732242729
100
AcDbArc
 50
304.056350834
 51
7.2558295594
  0
ARC
  5
17A
330
1F
100
AcDbEntity
  8
0
  6
Continuous
 62
     7
370
    25
100
AcDbCircle
 10
2.3784277797
 20
-37.0411851749
 30
0.0
 40
2.397627732243257
100
AcDbArc
 50
172.7441704407
 51
235.943649166
  0
ARC
  5
17B
330
1F
100
AcDbEntity
  8
0
  6
Continuous
 62
     7
370
    25
100
AcDbCircle
 10
-61.2611825271
 20
-0.3028201429
 30
0.0
 40
2.397627732195994
100
AcDbArc
 50
172.74417044
 51
235.9436491667
  0
ARC
  5
17C
330
1F
100
AcDbEntity
  8
0
  6
Continuous
 62
     7
370
    25
100
AcDbCircle
 10
90.8383571601
 20
-14.5575756436
 30
0.0
 40
2.464889650053099
100
AcDbArc
 50
173.7011524822
 51
234.9866671245
  0
ARC
  5
17D
330
1F
100
AcDbEntity
  8
0
  6
Continuous
 62
     7
370
    25
100
AcDbCircle
 10
93.0094059483
 20
-14.5575756436
 30
0.0
 40
2.464889650076557
100
AcDbArc
 50
305.0133328759
 51
6.2988475175
  0
ARC
  5
17E
330
1F
100
AcDbEntity
  8
0
  6
Continuous
 62
     7
370
    25
100
AcDbCircle
 10
142.5068806314
 20
14.0167082702
 30
0.0
 40
2.464889650101707
100
AcDbArc
 50
305.0133328762
 51
6.2988475172
  0
ARC
  5
17F
330
1F
100
AcDbEntity
  8
0
  6
Continuous
 62
     7
370
    25
100
AcDbCircle
 10
-62.6017910884
 20
2.2905521641
 30
0.0
 40
2.51469639246888
100
AcDbArc
 50
185.6947992512
 51
245.6253417064
  0
ARC
  5
180
330
1F
100
AcDbEntity
  8
0
  6
Continuous
 62
     7
370
    25
100
AcDbCircle
 10
143.9190709249
 20
16.5776941209
 30
0.0
 40
2.51469639246885
100
AcDbArc
 50
294.3746582936
 51
354.3052007488
  0
ENDSEC
  0
SECTION
  2
OBJECTS
  0
DICTIONARY
  5
C
330
0
100
AcDbDictionary
281
     1
  3
ACAD_GROUP
350
D
  3
ACAD_LAYOUT
350
1A
  3
ACAD_MLINESTYLE
350
17
  3
ACAD_PLOTSETTINGS
350
19
  3
ACAD_PLOTSTYLENAME
350
E
  3
ACAD_SCALELIST
350
47
  3
DWGPROPS
350
181
  0
DICTIONARY
  5
D
102
{ACAD_REACTORS
330
C
102
}
330
C
100
AcDbDictionary
281
     1
  0
DICTIONARY
  5
1A
102
{ACAD_REACTORS
330
C
102
}
330
C
100
AcDbDictionary
281
     1
  3
Layout1
350
1E
  3
Layout2
350
26
  3
Model
350
22
  0
DICTIONARY
  5
17
102
{ACAD_REACTORS
330
C
102
}
330
C
100
AcDbDictionary
281
     1
  3
Standard
350
18
  0
DICTIONARY
  5
19
102
{ACAD_REACTORS
330
C
102
}
330
C
100
AcDbDictionary
281
     1
  0
ACDBDICTIONARYWDFLT
  5
E
102
{ACAD_REACTORS
330
C
102
}
330
C
100
AcDbDictionary
281
     1
  3
Normal
350
F
100
AcDbDictionaryWithDefault
340
F
  0
DICTIONARY
  5
47
102
{ACAD_REACTORS
330
C
102
}
330
C
100
AcDbDictionary
281
     1
  3
A0
350
48
  3
A1
350
49
  3
A2
350
4A
  3
A3
350
4B
  3
A4
350
4C
  3
A5
350
4D
  3
A6
350
4E
  3
A7
350
4F
  3
A8
350
50
  3
A9
350
51
  3
B0
350
52
  3
B1
350
53
  3
B2
350
54
  3
B3
350
55
  3
B4
350
56
  3
B5
350
57
  3
B6
350
58
  0
XRECORD
  5
181
102
{ACAD_REACTORS
330
C
102
}
330
C
100
AcDbXrecord
280
     1
  1
DWGPROPS COOKIE
  2

  3

  4

  6

  7

  8
lenovo
  9

300
=
301
=
302
=
303
=
304
=
305
=
306
=
307
=
308
=
309
=
 40
0.0
 41
2460605.71041331
 42
2460605.710440105
  1

 90
        0
  0
LAYOUT
  5
1E
102
{ACAD_REACTORS
330
1A
102
}
330
1A
100
AcDbPlotSettings
  1

  2
none_device
  4

  6

 40
0.0
 41
0.0
 42
0.0
 43
0.0
 44
0.0
 45
0.0
 46
0.0
 47
0.0
 48
0.0
 49
0.0
140
0.0
141
0.0
142
1.0
143
1.0
 70
   688
 72
     1
 73
     0
 74
     5
  7

 75
    16
147
1.0
148
0.0
149
0.0
100
AcDbLayout
  1
Layout1
 70
     1
 71
     1
 10
0.0
 20
0.0
 11
420.0
 21
297.0
 12
0.0
 22
0.0
 32
0.0
 14
1.0000000000E+20
 24
1.0000000000E+20
 34
1.0000000000E+20
 15
-1.0000000000E+20
 25
-1.0000000000E+20
 35
-1.0000000000E+20
146
0.0
 13
0.0
 23
0.0
 33
0.0
 16
1.0
 26
0.0
 36
0.0
 17
0.0
 27
1.0
 37
0.0
 76
     0
330
1B
  0
LAYOUT
  5
26
102
{ACAD_REACTORS
330
1A
102
}
330
1A
100
AcDbPlotSettings
  1

  2
none_device
  4

  6

 40
0.0
 41
0.0
 42
0.0
 43
0.0
 44
0.0
 45
0.0
 46
0.0
 47
0.0
 48
0.0
 49
0.0
140
0.0
141
0.0
142
1.0
143
1.0
 70
   688
 72
     1
 73
     0
 74
     5
  7

 75
    16
147
1.0
148
0.0
149
0.0
100
AcDbLayout
  1
Layout2
 70
     1
 71
     2
 10
0.0
 20
0.0
 11
0.0
 21
0.0
 12
0.0
 22
0.0
 32
0.0
 14
0.0
 24
0.0
 34
0.0
 15
0.0
 25
0.0
 35
0.0
146
0.0
 13
0.0
 23
0.0
 33
0.0
 16
1.0
 26
0.0
 36
0.0
 17
0.0
 27
1.0
 37
0.0
 76
     0
330
23
  0
LAYOUT
  5
22
102
{ACAD_REACTORS
330
1A
102
}
330
1A
100
AcDbPlotSettings
  1

  2
none_device
  4
ANSI_A_(11.00_x_8.50_Inches)
  6

 40
6.35
 41
19.05
 42
6.35000508
 43
19.05000254
 44
279.4
 45
215.9
 46
80.1818104815
 47
47.5645561161
 48
0.0
 49
0.0
140
0.0
141
0.0
142
0.0514831709
143
1.0
 70
  1696
 72
     0
 73
     0
 74
     0
  7

 75
     0
147
0.0179189148
148
-1300.4909072572
149
0.0
100
AcDbLayout
  1
Model
 70
     1
 71
     0
 10
0.0
 20
0.0
 11
420.0
 21
297.0
 12
0.0
 22
0.0
 32
0.0
 14
-65.1040764009
 24
-39.6973447525
 34
0.0
 15
146.4213562373
 25
102.9172125948
 35
0.0
146
0.0
 13
0.0
 23
0.0
 33
0.0
 16
1.0
 26
0.0
 36
0.0
 17
0.0
 27
1.0
 37
0.0
 76
     0
330
1F
331
29
  0
MLINESTYLE
  5
18
102
{ACAD_REACTORS
330
17
102
}
330
17
100
AcDbMlineStyle
  2
Standard
 70
     0
  3

 62
   256
 51
90.0
 52
90.0
 71
     2
 49
0.5
 62
   256
  6
BYLAYER
 49
-0.5
 62
   256
  6
BYLAYER
  0
ACDBPLACEHOLDER
  5
F
102
{ACAD_REACTORS
330
E
102
}
330
E
  0
SCALE
  5
48
102
{ACAD_REACTORS
330
47
102
}
330
47
100
AcDbScale
 70
     0
300
1:1
140
1.0
141
1.0
290
     1
  0
SCALE
  5
49
102
{ACAD_REACTORS
330
47
102
}
330
47
100
AcDbScale
 70
     0
300
1:2
140
1.0
141
2.0
290
     0
  0
SCALE
  5
4A
102
{ACAD_REACTORS
330
47
102
}
330
47
100
AcDbScale
 70
     0
300
1:4
140
1.0
141
4.0
290
     0
  0
SCALE
  5
4B
102
{ACAD_REACTORS
330
47
102
}
330
47
100
AcDbScale
 70
     0
300
1:5
140
1.0
141
5.0
290
     0
  0
SCALE
  5
4C
102
{ACAD_REACTORS
330
47
102
}
330
47
100
AcDbScale
 70
     0
300
1:8
140
1.0
141
8.0
290
     0
  0
SCALE
  5
4D
102
{ACAD_REACTORS
330
47
102
}
330
47
100
AcDbScale
 70
     0
300
1:10
140
1.0
141
10.0
290
     0
  0
SCALE
  5
4E
102
{ACAD_REACTORS
330
47
102
}
330
47
100
AcDbScale
 70
     0
300
1:16
140
1.0
141
16.0
290
     0
  0
SCALE
  5
4F
102
{ACAD_REACTORS
330
47
102
}
330
47
100
AcDbScale
 70
     0
300
1:20
140
1.0
141
20.0
290
     0
  0
SCALE
  5
50
102
{ACAD_REACTORS
330
47
102
}
330
47
100
AcDbScale
 70
     0
300
1:30
140
1.0
141
30.0
290
     0
  0
SCALE
  5
51
102
{ACAD_REACTORS
330
47
102
}
330
47
100
AcDbScale
 70
     0
300
1:40
140
1.0
141
40.0
290
     0
  0
SCALE
  5
52
102
{ACAD_REACTORS
330
47
102
}
330
47
100
AcDbScale
 70
     0
300
1:50
140
1.0
141
50.0
290
     0
  0
SCALE
  5
53
102
{ACAD_REACTORS
330
47
102
}
330
47
100
AcDbScale
 70
     0
300
1:100
140
1.0
141
100.0
290
     0
  0
SCALE
  5
54
102
{ACAD_REACTORS
330
47
102
}
330
47
100
AcDbScale
 70
     0
300
2:1
140
2.0
141
1.0
290
     0
  0
SCALE
  5
55
102
{ACAD_REACTORS
330
47
102
}
330
47
100
AcDbScale
 70
     0
300
4:1
140
4.0
141
1.0
290
     0
  0
SCALE
  5
56
102
{ACAD_REACTORS
330
47
102
}
330
47
100
AcDbScale
 70
     0
300
8:1
140
8.0
141
1.0
290
     0
  0
SCALE
  5
57
102
{ACAD_REACTORS
330
47
102
}
330
47
100
AcDbScale
 70
     0
300
10:1
140
10.0
141
1.0
290
     0
  0
SCALE
  5
58
102
{ACAD_REACTORS
330
47
102
}
330
47
100
AcDbScale
 70
     0
300
100:1
140
100.0
141
1.0
290
     0
  0
ENDSEC
  0
EOF
