  0
SECTION
  2
HEADER
  9
$ACADVER
  1
AC1015
  9
$ACADMAINTVER
 70
     6
  9
$DWGCODEPAGE
  3
ANSI_1252
  9
$INSBASE
 10
0.0
 20
0.0
 30
0.0
  9
$EXTMIN
 10
-65.1040764009
 20
-37.5999191468
 30
0.0
  9
$EXTMAX
 10
146.4213562373
 20
76.4357097845
 30
0.0
  9
$LIMMIN
 10
0.0
 20
0.0
  9
$LIMMAX
 10
420.0
 20
297.0
  9
$ORTHOMODE
 70
     0
  9
$REGENMODE
 70
     1
  9
$FILLMODE
 70
     1
  9
$QTEXTMODE
 70
     0
  9
$MIRRTEXT
 70
     1
  9
$LTSCALE
 40
1.0
  9
$ATTMODE
 70
     1
  9
$TEXTSIZE
 40
3.5
  9
$TRACEWID
 40
1.0
  9
$TEXTSTYLE
  7
Standard
  9
$CLAYER
  8
0
  9
$CELTYPE
  6
ByLayer
  9
$CECOLOR
 62
   256
  9
$CELTSCALE
 40
1.0
  9
$DISPSILH
 70
     0
  9
$DIMSCALE
 40
1.0
  9
$DIMASZ
 40
3.556
  9
$DIMEXO
 40
0.0
  9
$DIMDLI
 40
3.75
  9
$DIMRND
 40
0.0
  9
$DIMDLE
 40
0.0
  9
$DIMEXE
 40
1.0
  9
$DIMTP
 40
0.0
  9
$DIMTM
 40
0.0
  9
$DIMTXT
 40
3.5
  9
$DIMCEN
 40
2.5
  9
$DIMTSZ
 40
0.0
  9
$DIMTOL
 70
     0
  9
$DIMLIM
 70
     0
  9
$DIMTIH
 70
     1
  9
$DIMTOH
 70
     1
  9
$DIMSE1
 70
     0
  9
$DIMSE2
 70
     0
  9
$DIMTAD
 70
     1
  9
$DIMZIN
 70
     1
  9
$DIMBLK
  1

  9
$DIMASO
 70
     1
  9
$DIMSHO
 70
     1
  9
$DIMPOST
  1

  9
$DIMAPOST
  1

  9
$DIMALT
 70
     0
  9
$DIMALTD
 70
     3
  9
$DIMALTF
 40
0.0393700787
  9
$DIMLFAC
 40
1.0
  9
$DIMTOFL
 70
     1
  9
$DIMTVP
 40
0.0
  9
$DIMTIX
 70
     0
  9
$DIMSOXD
 70
     0
  9
$DIMSAH
 70
     0
  9
$DIMBLK1
  1

  9
$DIMBLK2
  1

  9
$DIMSTYLE
  2
ISO-25
  9
$DIMCLRD
 70
     0
  9
$DIMCLRE
 70
     0
  9
$DIMCLRT
 70
     0
  9
$DIMTFAC
 40
1.0
  9
$DIMGAP
 40
1.524
  9
$DIMJUST
 70
     0
  9
$DIMSD1
 70
     0
  9
$DIMSD2
 70
     0
  9
$DIMTOLJ
 70
     0
  9
$DIMTZIN
 70
     1
  9
$DIMALTZ
 70
     0
  9
$DIMALTTZ
 70
     0
  9
$DIMUPT
 70
     0
  9
$DIMDEC
 70
     2
  9
$DIMTDEC
 70
     2
  9
$DIMALTU
 70
     2
  9
$DIMALTTD
 70
     3
  9
$DIMTXSTY
  7
Standard
  9
$DIMAUNIT
 70
     0
  9
$DIMADEC
 70
     2
  9
$DIMALTRND
 40
0.0
  9
$DIMAZIN
 70
     0
  9
$DIMDSEP
 70
    44
  9
$DIMATFIT
 70
     3
  9
$DIMFRAC
 70
     0
  9
$DIMLDRBLK
  1

  9
$DIMLUNIT
 70
     2
  9
$DIMLWD
 70
    -2
  9
$DIMLWE
 70
    -2
  9
$DIMTMOVE
 70
     0
  9
$LUNITS
 70
     2
  9
$LUPREC
 70
     2
  9
$SKETCHINC
 40
1.0
  9
$FILLETRAD
 40
0.0
  9
$AUNITS
 70
     0
  9
$AUPREC
 70
     2
  9
$MENU
  1
.
  9
$ELEVATION
 40
0.0
  9
$PELEVATION
 40
0.0
  9
$THICKNESS
 40
0.0
  9
$LIMCHECK
 70
     0
  9
$CHAMFERA
 40
0.0
  9
$CHAMFERB
 40
0.0
  9
$CHAMFERC
 40
0.0
  9
$CHAMFERD
 40
0.0
  9
$SKPOLY
 70
     0
  9
$TDCREATE
 40
2460606.863550625
  9
$TDUCREATE
 40
2460606.571883959
  9
$TDUPDATE
 40
2460606.863577408
  9
$TDUUPDATE
 40
2460606.571910741
  9
$TDINDWG
 40
0.0000000116
  9
$TDUSRTIMER
 40
0.0000000116
  9
$USRTIMER
 70
     1
  9
$ANGBASE
 50
0.0
  9
$ANGDIR
 70
     0
  9
$PDMODE
 70
     0
  9
$PDSIZE
 40
-1.0
  9
$PLINEWID
 40
0.0
  9
$SPLFRAME
 70
     0
  9
$SPLINETYPE
 70
     6
  9
$SPLINESEGS
 70
     8
  9
$HANDSEED
  5
174
  9
$SURFTAB1
 70
     6
  9
$SURFTAB2
 70
     6
  9
$SURFTYPE
 70
     6
  9
$SURFU
 70
     6
  9
$SURFV
 70
     6
  9
$UCSBASE
  2

  9
$UCSNAME
  2

  9
$UCSORG
 10
0.0
 20
0.0
 30
0.0
  9
$UCSXDIR
 10
1.0
 20
0.0
 30
0.0
  9
$UCSYDIR
 10
0.0
 20
1.0
 30
0.0
  9
$UCSORTHOREF
  2

  9
$UCSORTHOVIEW
 70
     0
  9
$UCSORGTOP
 10
0.0
 20
0.0
 30
0.0
  9
$UCSORGBOTTOM
 10
0.0
 20
0.0
 30
0.0
  9
$UCSORGLEFT
 10
0.0
 20
0.0
 30
0.0
  9
$UCSORGRIGHT
 10
0.0
 20
0.0
 30
0.0
  9
$UCSORGFRONT
 10
0.0
 20
0.0
 30
0.0
  9
$UCSORGBACK
 10
0.0
 20
0.0
 30
0.0
  9
$PUCSBASE
  2

  9
$PUCSNAME
  2

  9
$PUCSORG
 10
0.0
 20
0.0
 30
0.0
  9
$PUCSXDIR
 10
1.0
 20
0.0
 30
0.0
  9
$PUCSYDIR
 10
0.0
 20
1.0
 30
0.0
  9
$PUCSORTHOREF
  2

  9
$PUCSORTHOVIEW
 70
     0
  9
$PUCSORGTOP
 10
0.0
 20
0.0
 30
0.0
  9
$PUCSORGBOTTOM
 10
0.0
 20
0.0
 30
0.0
  9
$PUCSORGLEFT
 10
0.0
 20
0.0
 30
0.0
  9
$PUCSORGRIGHT
 10
0.0
 20
0.0
 30
0.0
  9
$PUCSORGFRONT
 10
0.0
 20
0.0
 30
0.0
  9
$PUCSORGBACK
 10
0.0
 20
0.0
 30
0.0
  9
$USERI1
 70
     0
  9
$USERI2
 70
     0
  9
$USERI3
 70
     0
  9
$USERI4
 70
     0
  9
$USERI5
 70
     0
  9
$USERR1
 40
0.0
  9
$USERR2
 40
0.0
  9
$USERR3
 40
0.0
  9
$USERR4
 40
0.0
  9
$USERR5
 40
0.0
  9
$WORLDVIEW
 70
     1
  9
$SHADEDGE
 70
     3
  9
$SHADEDIF
 70
    70
  9
$TILEMODE
 70
     1
  9
$MAXACTVP
 70
    64
  9
$PINSBASE
 10
0.0
 20
0.0
 30
0.0
  9
$PLIMCHECK
 70
     0
  9
$PEXTMIN
 10
1.0000000000E+20
 20
1.0000000000E+20
 30
1.0000000000E+20
  9
$PEXTMAX
 10
-1.0000000000E+20
 20
-1.0000000000E+20
 30
-1.0000000000E+20
  9
$PLIMMIN
 10
0.0
 20
0.0
  9
$PLIMMAX
 10
420.0
 20
297.0
  9
$UNITMODE
 70
     0
  9
$VISRETAIN
 70
     1
  9
$PLINEGEN
 70
     0
  9
$PSLTSCALE
 70
     1
  9
$TREEDEPTH
 70
  3020
  9
$CMLSTYLE
  2
Standard
  9
$CMLJUST
 70
     0
  9
$CMLSCALE
 40
20.0
  9
$PROXYGRAPHICS
 70
     1
  9
$MEASUREMENT
 70
     1
  9
$CELWEIGHT
370
    -1
  9
$ENDCAPS
280
     0
  9
$JOINSTYLE
280
     0
  9
$LWDISPLAY
290
     1
  9
$INSUNITS
 70
     4
  9
$HYPERLINKBASE
  1

  9
$STYLESHEET
  1

  9
$XEDIT
290
     1
  9
$CEPSNTYPE
380
     0
  9
$PSTYLEMODE
290
     1
  9
$FINGERPRINTGUID
  2
{283dc55b-a5a3-437d-bf0e-c1a45fcdad9d}
  9
$VERSIONGUID
  2
{FAEB1C32-E019-11D5-929B-00C0DF256EC4}
  9
$EXTNAMES
290
     1
  9
$PSVPSCALE
 40
0.0
  9
$OLESTARTUP
290
     0
  0
ENDSEC
  0
SECTION
  2
CLASSES
  0
CLASS
  1
ACDBDICTIONARYWDFLT
  2
AcDbDictionaryWithDefault
  3
ObjectDBX Classes
 90
        0
280
     0
281
     0
  0
CLASS
  1
VISUALSTYLE
  2
AcDbVisualStyle
  3
ObjectDBX Classes
 90
     4095
280
     0
281
     0
  0
CLASS
  1
MATERIAL
  2
AcDbMaterial
  3
ObjectDBX Classes
 90
     1153
280
     0
281
     0
  0
CLASS
  1
SCALE
  2
AcDbScale
  3
ObjectDBX Classes
 90
     1153
280
     0
281
     0
  0
CLASS
  1
TABLESTYLE
  2
AcDbTableStyle
  3
ObjectDBX Classes
 90
     4095
280
     0
281
     0
  0
CLASS
  1
MLEADERSTYLE
  2
AcDbMLeaderStyle
  3
ACDB_MLEADERSTYLE_CLASS
 90
     4095
280
     0
281
     0
  0
CLASS
  1
SUN
  2
AcDbSun
  3
SCENEOE
 90
     1153
280
     0
281
     0
  0
CLASS
  1
ACDBPLACEHOLDER
  2
AcDbPlaceHolder
  3
ObjectDBX Classes
 90
        0
280
     0
281
     0
  0
CLASS
  1
LAYOUT
  2
AcDbLayout
  3
ObjectDBX Classes
 90
        0
280
     0
281
     0
  0
ENDSEC
  0
SECTION
  2
TABLES
  0
TABLE
  2
VPORT
  5
8
330
0
100
AcDbSymbolTable
 70
     1
  0
VPORT
  5
29
330
8
100
AcDbSymbolTableRecord
100
AcDbViewportTableRecord
  2
*Active
 70
     0
 10
0.0
 20
0.0
 11
1.0
 21
1.0
 12
40.6586399182
 22
19.4178953188
 13
0.0
 23
0.0
 14
10.0
 24
10.0
 15
10.0
 25
10.0
 16
0.0
 26
0.0
 36
1.0
 17
0.0
 27
0.0
 37
0.0
 40
116.3163415099
 41
1.854906529
 42
50.0
 43
0.0
 44
0.0
 50
0.0
 51
0.0
 71
     0
 72
   100
 73
     1
 74
     3
 75
     0
 76
     0
 77
     0
 78
     0
281
     0
 65
     1
110
0.0
120
0.0
130
0.0
111
1.0
121
0.0
131
0.0
112
0.0
122
1.0
132
0.0
 79
     0
146
0.0
  0
ENDTAB
  0
TABLE
  2
LTYPE
  5
5
330
0
100
AcDbSymbolTable
 70
     6
  0
LTYPE
  5
14
330
5
100
AcDbSymbolTableRecord
100
AcDbLinetypeTableRecord
  2
ByBlock
 70
     0
  3

 72
    65
 73
     0
 40
0.0
  0
LTYPE
  5
15
330
5
100
AcDbSymbolTableRecord
100
AcDbLinetypeTableRecord
  2
ByLayer
 70
     0
  3

 72
    65
 73
     0
 40
0.0
  0
LTYPE
  5
16
330
5
100
AcDbSymbolTableRecord
100
AcDbLinetypeTableRecord
  2
Continuous
 70
     0
  3
Solid line
 72
    65
 73
     0
 40
0.0
  0
LTYPE
  5
5E
330
5
100
AcDbSymbolTableRecord
100
AcDbLinetypeTableRecord
  2
HIDDEN
 70
     0
  3
Hidden __ __ __ __ __ __ __ __ __ __ __ __ __ __
 72
    65
 73
     2
 40
1.905
 49
1.27
 74
     0
 49
-0.635
 74
     0
  0
LTYPE
  5
5F
330
5
100
AcDbSymbolTableRecord
100
AcDbLinetypeTableRecord
  2
PHANTOM
 70
     0
  3
Phantom ______  __  __  ______  __  __  ______
 72
    65
 73
     6
 40
12.7
 49
6.35
 74
     0
 49
-1.27
 74
     0
 49
1.27
 74
     0
 49
-1.27
 74
     0
 49
1.27
 74
     0
 49
-1.27
 74
     0
  0
LTYPE
  5
60
330
5
100
AcDbSymbolTableRecord
100
AcDbLinetypeTableRecord
  2
CENTER
 70
     0
  3
Center ____ _ ____ _ ____ _ ____ _ ____ _ ____
 72
    65
 73
     4
 40
10.16
 49
6.35
 74
     0
 49
-1.27
 74
     0
 49
1.27
 74
     0
 49
-1.27
 74
     0
  0
LTYPE
  5
61
330
5
100
AcDbSymbolTableRecord
100
AcDbLinetypeTableRecord
  2
CENTERX2
 70
     0
  3
Center (2x) ________  __  ________  __  _____
 72
    65
 73
     4
 40
20.32
 49
12.7
 74
     0
 49
-2.54
 74
     0
 49
2.54
 74
     0
 49
-2.54
 74
     0
  0
LTYPE
  5
62
330
5
100
AcDbSymbolTableRecord
100
AcDbLinetypeTableRecord
  2
DOT2
 70
     0
  3
Dot (.5x) ........................................
 72
    65
 73
     2
 40
0.635
 49
0.0
 74
     0
 49
-0.635
 74
     0
  0
ENDTAB
  0
TABLE
  2
LAYER
  5
2
330
0
100
AcDbSymbolTable
 70
     1
  0
LAYER
  5
10
330
2
100
AcDbSymbolTableRecord
100
AcDbLayerTableRecord
  2
0
 70
     0
 62
     7
  6
Continuous
370
    -3
390
F
  0
ENDTAB
  0
TABLE
  2
STYLE
  5
3
330
0
100
AcDbSymbolTable
 70
     1
  0
STYLE
  5
11
330
3
100
AcDbSymbolTableRecord
100
AcDbTextStyleTableRecord
  2
Standard
 70
     0
 40
0.0
 41
1.0
 50
0.0
 71
     0
 42
3.5
  3
txt
  4

  0
ENDTAB
  0
TABLE
  2
VIEW
  5
6
330
0
100
AcDbSymbolTable
 70
     0
  0
ENDTAB
  0
TABLE
  2
UCS
  5
7
330
0
100
AcDbSymbolTable
 70
     0
  0
ENDTAB
  0
TABLE
  2
APPID
  5
9
330
0
100
AcDbSymbolTable
 70
     1
  0
APPID
  5
12
330
9
100
AcDbSymbolTableRecord
100
AcDbRegAppTableRecord
  2
ACAD
 70
     0
  0
ENDTAB
  0
TABLE
  2
DIMSTYLE
  5
A
330
0
100
AcDbSymbolTable
 70
     1
100
AcDbDimStyleTable
  0
DIMSTYLE
105
27
330
A
100
AcDbSymbolTableRecord
100
AcDbDimStyleTableRecord
  2
ISO-25
 70
     0
 41
2.5
 42
0.625
 43
3.75
 44
1.25
 73
     0
 74
     0
 77
     1
 78
     8
140
2.5
141
2.5
143
0.0393700787
147
0.625
171
     3
172
     1
178
     0
271
     2
272
     2
274
     3
278
    44
283
     0
284
     8
340
11
  0
ENDTAB
  0
TABLE
  2
BLOCK_RECORD
  5
1
330
0
100
AcDbSymbolTable
 70
     1
  0
BLOCK_RECORD
  5
1F
330
1
100
AcDbSymbolTableRecord
100
AcDbBlockTableRecord
  2
*Model_Space
340
22
  0
BLOCK_RECORD
  5
1B
330
1
100
AcDbSymbolTableRecord
100
AcDbBlockTableRecord
  2
*Paper_Space
340
1E
  0
BLOCK_RECORD
  5
23
330
1
100
AcDbSymbolTableRecord
100
AcDbBlockTableRecord
  2
*Paper_Space0
340
26
  0
ENDTAB
  0
ENDSEC
  0
SECTION
  2
BLOCKS
  0
BLOCK
  5
20
330
1F
100
AcDbEntity
  8
0
100
AcDbBlockBegin
  2
*Model_Space
 70
     0
 10
0.0
 20
0.0
 30
0.0
  3
*Model_Space
  1

  0
ENDBLK
  5
21
330
1F
100
AcDbEntity
  8
0
100
AcDbBlockEnd
  0
BLOCK
  5
1C
330
1B
100
AcDbEntity
 67
     1
  8
0
100
AcDbBlockBegin
  2
*Paper_Space
 70
     0
 10
0.0
 20
0.0
 30
0.0
  3
*Paper_Space
  1

  0
ENDBLK
  5
1D
330
1B
100
AcDbEntity
 67
     1
  8
0
100
AcDbBlockEnd
  0
BLOCK
  5
24
330
23
100
AcDbEntity
  8
0
100
AcDbBlockBegin
  2
*Paper_Space0
 70
     0
 10
0.0
 20
0.0
 30
0.0
  3
*Paper_Space0
  1

  0
ENDBLK
  5
25
330
23
100
AcDbEntity
  8
0
100
AcDbBlockEnd
  0
ENDSEC
  0
SECTION
  2
ENTITIES
  0
SPLINE
  5
63
330
1F
100
AcDbEntity
  8
0
  6
Continuous
 62
     7
370
    25
100
AcDbSpline
210
0.0
220
0.0
230
1.0
 70
     8
 71
     3
 72
    15
 73
    11
 74
     0
 42
0.00000001
 43
0.00000001
 40
0.0
 40
0.0
 40
0.0
 40
0.0
 40
0.0707032965731543
 40
0.2026909984984282
 40
0.3397547000848704
 40
0.4817668115915433
 40
0.6262559952516336
 40
0.7700948144497702
 40
0.9102772811300561
 40
1.0
 40
1.0
 40
1.0
 40
1.0
 10
93.29526284833375
 20
2.934344468382609
 30
0.0
 10
93.25453414168405
 20
2.912296137268181
 30
0.0
 10
93.13777378370209
 20
2.84908835961974
 30
0.0
 10
92.85661008343537
 20
2.744650474549571
 30
0.0
 10
92.44763522806463
 20
2.655991009788909
 30
0.0
 10
91.98255364903626
 20
2.618189072500474
 30
0.0
 10
91.50499787528315
 20
2.641567488055864
 30
0.0
 10
91.06576182242799
 20
2.722986857080136
 30
0.0
 10
90.74078055487853
 20
2.834062604480224
 30
0.0
 10
90.60535240391884
 20
2.906194355835372
 30
0.0
 10
90.55250026016859
 20
2.934344468382613
 30
0.0
  0
SPLINE
  5
6C
330
1F
100
AcDbEntity
  8
0
  6
Continuous
 62
     7
370
    25
100
AcDbSpline
210
0.0
220
0.0
230
1.0
 70
     8
 71
     3
 72
    14
 73
    10
 74
     0
 42
0.00000001
 43
0.00000001
 40
0.0
 40
0.0
 40
0.0
 40
0.0
 40
0.041571050147061
 40
0.2215689823777402
 40
0.398885950890236
 40
0.5786124700070793
 40
0.7654680569136297
 40
0.9675381630174851
 40
1.0
 40
1.0
 40
1.0
 40
1.0
 10
146.4085914667859
 20
31.44114324256433
 30
0.0
 10
146.4124068241341
 20
31.48763047380275
 30
0.0
 10
146.4327422460696
 20
31.73540214381388
 30
0.0
 10
146.3310839658879
 20
32.18056266934994
 30
0.0
 10
146.1116271390637
 20
32.74054647305525
 30
0.0
 10
145.7682381071864
 20
33.25078320108127
 30
0.0
 10
145.3160045761376
 20
33.71336241888375
 30
0.0
 10
144.9186269136769
 20
34.00184992866559
 30
0.0
 10
144.6792951997455
 20
34.14248876228825
 30
0.0
 10
144.6461690209396
 20
34.16195474560119
 30
0.0
  0
SPLINE
  5
6E
330
1F
100
AcDbEntity
  8
0
  6
Continuous
 62
     7
370
    25
100
AcDbSpline
210
0.0
220
0.0
230
1.0
 70
     8
 71
     3
 72
    10
 73
     6
 74
     0
 42
0.00000001
 43
0.00000001
 40
0.0
 40
0.0
 40
0.0
 40
0.0
 40
0.4385872009382951
 40
0.9390478060263172
 40
0.9999999999999999
 40
0.9999999999999999
 40
0.9999999999999999
 40
0.9999999999999999
 10
142.9693913299795
 20
31.64068602968777
 30
0.0
 10
142.9666611686231
 20
31.63644392090935
 30
0.0
 10
142.9608156901724
 20
31.6273612506153
 30
0.0
 10
142.8716079940541
 20
31.55478316559979
 30
0.0
 10
142.8004618214675
 20
31.51314861603286
 30
0.0
 10
142.7927375313922
 20
31.5086283821774
 30
0.0
  0
LWPOLYLINE
  5
7F
330
1F
100
AcDbEntity
  8
0
  6
Continuous
 62
     7
370
    25
100
AcDbPolyline
 90
       27
 70
   128
 43
0.0
 10
128.2255414163
 20
23.0991650654
 10
127.6681293432
 20
23.4519865124
 10
126.7830211736
 20
23.9000882214
 10
125.8041683126
 20
24.2776624248
 10
124.7483192038
 20
24.5782487233
 10
123.6335397185
 20
24.7967040019
 10
122.4789040425
 20
24.9292904304
 10
121.3041683126
 20
24.973739418
 10
120.1294325826
 20
24.9292904304
 10
118.9747969066
 20
24.7967040019
 10
117.8600174213
 20
24.5782487233
 10
116.8041683126
 20
24.2776624248
 10
115.8253154515
 20
23.9000882214
 10
114.9402072819
 20
23.4519865124
 10
114.1639882499
 20
22.9410244422
 10
113.5099396785
 20
22.3759447136
 10
112.98925252
 20
21.7664159973
 10
112.610835876
 20
21.1228674987
 10
112.3811645602
 20
20.4563105111
 10
112.3041683126
 20
19.7781500092
 10
112.3811645602
 20
19.0999895074
 10
112.610835876
 20
18.4334325197
 10
112.98925252
 20
17.7898840211
 10
113.5099396785
 20
17.1803553048
 10
114.1639882499
 20
16.6152755762
 10
114.9402072819
 20
16.104313506
 10
114.9402072819
 20
16.104313506
  0
LWPOLYLINE
  5
80
330
1F
100
AcDbEntity
  8
0
  6
Continuous
 62
     7
370
    25
100
AcDbPolyline
 90
       17
 70
   128
 43
0.0
 10
99.9412701689
 20
6.771002829
 10
99.3838580958
 20
7.123824276
 10
98.4987499262
 20
7.571925985
 10
97.5198970651
 20
7.9495001884
 10
96.4640479564
 20
8.2500864869
 10
95.349268471
 20
8.4685417655
 10
94.1946327951
 20
8.6011281939
 10
93.0198970651
 20
8.6455771815
 10
91.8451613351
 20
8.6011281939
 10
90.6905256592
 20
8.4685417655
 10
89.5757461738
 20
8.2500864869
 10
88.5198970651
 20
7.9495001884
 10
87.541044204
 20
7.571925985
 10
86.6559360344
 20
7.123824276
 10
85.8797170025
 20
6.6128622058
 10
85.225668431
 20
6.0477824772
 10
85.2014658944
 20
6.0234308547
  0
LWPOLYLINE
  5
81
330
1F
100
AcDbEntity
  8
0
  6
Continuous
 62
     7
370
    25
100
AcDbPolyline
 90
       21
 70
   128
 43
0.0
 10
-1.4142135624
 20
45.7195177624
 10
-0.860388913
 20
45.467473861
 10
-0.2199442019
 20
45.2970302091
 10
0.471729494
 20
45.2176055499
 10
1.1764101763
 20
45.2335889029
 10
1.8551570783
 20
45.3440970254
 10
2.4704625381
 20
45.543023221
 10
2.988324678
 20
45.8193747963
 10
3.3801263538
 20
46.1578805194
 10
3.6242165424
 20
46.5398345101
 10
3.7071067812
 20
46.9441299301
 10
3.6242165424
 20
47.3484253501
 10
3.3801263538
 20
47.7303793408
 10
2.988324678
 20
48.0688850639
 10
2.4704625381
 20
48.3452366393
 10
1.8551570783
 20
48.5441628348
 10
1.1764101763
 20
48.6546709573
 10
0.471729494
 20
48.6706543103
 10
-0.2199442019
 20
48.5912296512
 10
-0.860388913
 20
48.4207859993
 10
-1.4142135624
 20
48.1687420979
  0
LWPOLYLINE
  5
83
330
1F
100
AcDbEntity
  8
0
  6
Continuous
 62
     7
370
    25
100
AcDbPolyline
 90
       21
 70
   128
 43
0.0
 10
43.8406204336
 20
74.2938016762
 10
43.4040202841
 20
73.9740855114
 10
43.1087712282
 20
73.6043646495
 10
42.9711887759
 20
73.205069924
 10
42.9988757553
 20
72.7982664252
 10
43.1903021796
 20
72.4064341791
 10
43.534889794
 20
72.051225898
 10
44.0135966321
 20
71.752270448
 10
44.5999692779
 20
71.526088155
 10
45.2616046856
 20
71.3851778885
 10
45.9619407771
 20
71.3373263722
 10
46.6622768687
 20
71.3851778885
 10
47.3239122763
 20
71.526088155
 10
47.9102849221
 20
71.752270448
 10
48.3889917603
 20
72.051225898
 10
48.7335793747
 20
72.4064341791
 10
48.9250057989
 20
72.7982664252
 10
48.9526927783
 20
73.205069924
 10
48.815110326
 20
73.6043646495
 10
48.5198612702
 20
73.9740855114
 10
48.0832611207
 20
74.2938016762
  0
LWPOLYLINE
  5
87
330
1F
100
AcDbEntity
  8
0
  6
Continuous
 62
     7
370
    25
100
AcDbPolyline
 90
       21
 70
   128
 43
0.0
 10
5.6568542495
 20
-29.3900285253
 10
6.093454399
 20
-29.0703123605
 10
6.3887034548
 20
-28.7005914986
 10
6.5262859071
 20
-28.3012967732
 10
6.4985989277
 20
-27.8944932743
 10
6.3071725035
 20
-27.5026610282
 10
5.9625848891
 20
-27.1474527471
 10
5.4838780509
 20
-26.8484972972
 10
4.8975054052
 20
-26.6223150042
 10
4.2358699975
 20
-26.4814047376
 10
3.5355339059
 20
-26.4335532213
 10
2.8351978144
 20
-26.4814047376
 10
2.1735624067
 20
-26.6223150042
 10
1.5871897609
 20
-26.8484972972
 10
1.1084829228
 20
-27.1474527471
 10
0.7638953084
 20
-27.5026610282
 10
0.5724688841
 20
-27.8944932743
 10
0.5447819047
 20
-28.3012967732
 10
0.682364357
 20
-28.7005914986
 10
0.9776134129
 20
-29.0703123605
 10
1.4142135624
 20
-29.3900285253
  0
LWPOLYLINE
  5
89
330
1F
100
AcDbEntity
  8
0
  6
Continuous
 62
     7
370
    25
100
AcDbPolyline
 90
       21
 70
   128
 43
0.0
 10
-57.9827560573
 20
4.8991121713
 10
-57.4289314079
 20
4.6470682698
 10
-56.7884866969
 20
4.4766246179
 10
-56.0968130009
 20
4.3971999588
 10
-55.3921323186
 20
4.4131833118
 10
-54.7133854166
 20
4.5236914343
 10
-54.0980799569
 20
4.7226176298
 10
-53.5802178169
 20
4.9989692052
 10
-53.1884161412
 20
5.3374749283
 10
-52.9443259525
 20
5.719428919
 10
-52.8614357137
 20
6.123724339
 10
-52.9443259525
 20
6.528019759
 10
-53.1884161412
 20
6.9099737497
 10
-53.5802178169
 20
7.2484794728
 10
-54.0980799569
 20
7.5248310481
 10
-54.7133854166
 20
7.7237572437
 10
-55.3921323186
 20
7.8342653662
 10
-56.0968130009
 20
7.8502487192
 10
-56.7884866969
 20
7.7708240601
 10
-57.4289314079
 20
7.6003804081
 10
-57.9827560573
 20
7.3483365067
  0
LWPOLYLINE
  5
BE
330
1F
100
AcDbEntity
  8
0
  6
Continuous
 62
     7
370
    25
100
AcDbPolyline
 90
       13
 70
   128
 43
0.0
 10
123.9903274391
 20
20.6542280783
 10
123.6335397185
 20
20.7139999425
 10
122.4789040425
 20
20.8465863709
 10
121.3041683126
 20
20.8910353586
 10
120.1294325826
 20
20.8465863709
 10
118.9747969066
 20
20.7139999425
 10
117.8600174213
 20
20.4955446639
 10
116.8041683126
 20
20.1949583654
 10
115.8253154515
 20
19.817384162
 10
114.9402072819
 20
19.369282453
 10
114.1639882499
 20
18.8583203828
 10
113.5099396785
 20
18.2932406542
 10
113.0279411445
 20
17.7367979795
  0
SPLINE
  5
C6
330
1F
100
AcDbEntity
  8
0
  6
Continuous
 62
     7
370
    25
100
AcDbSpline
210
0.0
220
0.0
230
1.0
 70
     8
 71
     3
 72
    10
 73
     6
 74
     0
 42
0.00000001
 43
0.00000001
 40
0.0
 40
0.0
 40
0.0
 40
0.0
 40
0.3831312546262671
 40
0.7952025068289786
 40
1.0
 40
1.0
 40
1.0
 40
1.0
 10
120.5578099087821
 20
33.72170786202114
 30
0.0
 10
120.5657497016722
 20
33.6690195675656
 30
0.0
 10
120.5822290234025
 20
33.55966314381872
 30
0.0
 10
120.7678415226791
 20
33.37957416560461
 30
0.0
 10
120.931602420763
 20
33.27818409268016
 30
0.0
 10
120.9859702610184
 20
33.24452307009947
 30
0.0
  0
LINE
  5
F5
330
1F
100
AcDbEntity
  8
0
  6
Continuous
 62
     7
370
    25
100
AcDbLine
 10
142.7927375314
 20
31.5086283822
 30
0.0
 11
93.2952628483
 21
2.9343444684
 31
0.0
  0
LINE
  5
F6
330
1F
100
AcDbEntity
  8
0
  6
Continuous
 62
     7
370
    25
100
AcDbLine
 10
90.5525002602
 20
2.9343444684
 30
0.0
 11
69.0564541121
 21
15.3437477681
 31
0.0
  0
LINE
  5
F7
330
1F
100
AcDbEntity
  8
0
  6
Continuous
 62
     7
370
    25
100
AcDbLine
 10
66.452961672
 20
13.8405724466
 30
0.0
 11
66.452961672
 21
2.8172714861
 31
0.0
  0
LINE
  5
F8
330
1F
100
AcDbEntity
  8
0
  6
Continuous
 62
     7
370
    25
100
AcDbLine
 10
67.5565760131
 20
15.3437477681
 30
0.0
 11
67.2030226226
 21
15.1396457401
 31
0.0
  0
LINE
  5
F9
330
1F
100
AcDbEntity
  8
0
  6
Continuous
 62
     7
370
    25
100
AcDbLine
 10
-1.4640597572
 20
41.6665276299
 30
0.0
 11
-62.6038732324
 21
6.3712645915
 31
0.0
  0
LINE
  5
FA
330
1F
100
AcDbEntity
  8
0
  6
Continuous
 62
     7
370
    25
100
AcDbLine
 10
146.4213562373
 20
16.3281622365
 30
0.0
 11
146.4213562373
 21
31.4341672563
 31
0.0
  0
LINE
  5
FB
330
1F
100
AcDbEntity
  8
0
  6
Continuous
 62
     7
370
    25
100
AcDbLine
 10
144.6461690209
 20
34.1619547456
 30
0.0
 11
123.1501228729
 21
46.5713580453
 31
0.0
  0
LINE
  5
FC
330
1F
100
AcDbEntity
  8
0
  6
Continuous
 62
     7
370
    25
100
AcDbLine
 10
120.5466304328
 20
34.152231242
 30
0.0
 11
48.4617376087
 21
75.7659540964
 31
0.0
  0
LINE
  5
FD
330
1F
100
AcDbEntity
  8
0
  6
Continuous
 62
     7
370
    25
100
AcDbLine
 10
31.5877346411
 20
28.7090288015
 30
0.0
 11
27.2236110757
 21
26.1896738932
 31
0.0
  0
LINE
  5
FE
330
1F
100
AcDbEntity
  8
0
  6
Continuous
 62
     7
370
    25
100
AcDbLine
 10
27.2236110757
 20
26.1896738932
 30
0.0
 11
5.1818179806
 21
38.9141301993
 31
0.0
  0
LINE
  5
FF
330
1F
100
AcDbEntity
  8
0
  6
Continuous
 62
     7
370
    25
100
AcDbLine
 10
120.5466304328
 20
45.0681827238
 30
0.0
 11
120.5466304328
 21
33.7209112956
 31
0.0
  0
LINE
  5
100
330
1F
100
AcDbEntity
  8
0
  6
Continuous
 62
     7
370
    25
100
AcDbLine
 10
121.6502447739
 20
46.5713580453
 30
0.0
 11
121.2966913833
 21
46.3672560174
 31
0.0
  0
LINE
  5
101
330
1F
100
AcDbEntity
  8
0
  6
Continuous
 62
     7
370
    25
100
AcDbLine
 10
43.4621439455
 20
75.7659540964
 30
0.0
 11
-6.0353307375
 21
47.1916701826
 31
0.0
  0
LINE
  5
102
330
1F
100
AcDbEntity
  8
0
  6
Continuous
 62
     7
370
    25
100
AcDbLine
 10
40.0222438152
 20
66.4562838027
 30
0.0
 11
12.1622366364
 21
50.3730439998
 31
0.0
  0
LINE
  5
103
330
1F
100
AcDbEntity
  8
0
  6
Continuous
 62
     7
370
    25
100
AcDbLine
 10
12.1622366364
 20
50.3730439998
 30
0.0
 11
80.1859089866
 21
11.1038138211
 31
0.0
  0
LINE
  5
104
330
1F
100
AcDbEntity
  8
0
  6
Continuous
 62
     7
370
    25
100
AcDbLine
 10
108.0459161653
 20
27.187053624
 30
0.0
 11
80.1859089866
 21
11.1038138211
 31
0.0
  0
LINE
  5
105
330
1F
100
AcDbEntity
  8
0
  6
Continuous
 62
     7
370
    25
100
AcDbLine
 10
40.0222438152
 20
66.4562838027
 30
0.0
 11
108.0459161653
 21
27.187053624
 31
0.0
  0
LINE
  5
106
330
1F
100
AcDbEntity
  8
0
  6
Continuous
 62
     7
370
    25
100
AcDbLine
 10
114.9402072819
 20
16.104313506
 30
0.0
 11
115.5513781757
 21
15.7825263656
 31
0.0
  0
LINE
  5
107
330
1F
100
AcDbEntity
  8
0
  6
Continuous
 62
     7
370
    25
100
AcDbLine
 10
45.9619407771
 20
75.5184138439
 30
0.0
 11
-3.5355339059
 21
46.9441299301
 31
0.0
  0
LINE
  5
108
330
1F
100
AcDbEntity
  8
0
  6
Continuous
 62
     7
370
    25
100
AcDbLine
 10
63.6396103068
 20
4.0827040594
 30
0.0
 11
66.8923015002
 21
2.2049654022
 31
0.0
  0
LINE
  5
109
330
1F
100
AcDbEntity
  8
0
  6
Continuous
 62
     7
370
    25
100
AcDbLine
 10
3.5355339059
 20
-30.614640693
 30
0.0
 11
63.6396103068
 21
4.0827040594
 31
0.0
  0
LINE
  5
10A
330
1F
100
AcDbEntity
  8
0
  6
Continuous
 62
     7
370
    25
100
AcDbLine
 10
-60.1040764009
 20
6.123724339
 30
0.0
 11
3.5355339059
 21
-30.614640693
 31
0.0
  0
LINE
  5
10B
330
1F
100
AcDbEntity
  8
0
  6
Continuous
 62
     7
370
    25
100
AcDbLine
 10
3.5355339059
 20
42.862089371
 30
0.0
 11
-60.1040764009
 21
6.123724339
 31
0.0
  0
LINE
  5
10C
330
1F
100
AcDbEntity
  8
0
  6
Continuous
 62
     7
370
    25
100
AcDbLine
 10
-3.5355339059
 20
46.9441299301
 30
0.0
 11
3.5355339059
 21
42.862089371
 31
0.0
  0
LINE
  5
10D
330
1F
100
AcDbEntity
  8
0
  6
Continuous
 62
     7
370
    25
100
AcDbLine
 10
3.1819805153
 20
39.3923548958
 30
0.0
 11
9.545941546
 21
43.066191399
 31
0.0
  0
LINE
  5
10E
330
1F
100
AcDbEntity
  8
0
  6
Continuous
 62
     7
370
    25
100
AcDbLine
 10
27.2236110757
 20
25.5134169948
 30
0.0
 11
3.1819805153
 21
39.3923548958
 31
0.0
  0
LINE
  5
10F
330
1F
100
AcDbEntity
  8
0
  6
Continuous
 62
     7
370
    25
100
AcDbLine
 10
33.5875721064
 20
29.187253498
 30
0.0
 11
27.2236110757
 21
25.5134169948
 31
0.0
  0
LINE
  5
110
330
1F
100
AcDbEntity
  8
0
  6
Continuous
 62
     7
370
    25
100
AcDbLine
 10
9.545941546
 20
43.066191399
 30
0.0
 11
33.5875721064
 21
29.187253498
 31
0.0
  0
LINE
  5
111
330
1F
100
AcDbEntity
  8
0
  6
Continuous
 62
     7
370
    25
100
AcDbLine
 10
67.1751442127
 20
-2.0410202796
 30
0.0
 11
7.0710678119
 21
-36.738365032
 31
0.0
  0
LINE
  5
112
330
1F
100
AcDbEntity
  8
0
  6
Continuous
 62
     7
370
    25
100
AcDbLine
 10
-63.6396103068
 20
0.0
 30
0.0
 11
0.0
 21
-36.738365032
 31
0.0
  0
LINE
  5
113
330
1F
100
AcDbEntity
  8
0
  6
Continuous
 62
     7
370
    25
100
AcDbLine
 10
88.3883476483
 20
0.818863063
 30
0.0
 11
88.3883476483
 21
-14.2871419569
 31
0.0
  0
LINE
  5
114
330
1F
100
AcDbEntity
  8
0
  6
Continuous
 62
     7
370
    25
100
AcDbLine
 10
95.4594154602
 20
0.818863063
 30
0.0
 11
95.4594154602
 21
-14.2871419569
 31
0.0
  0
LINE
  5
115
330
1F
100
AcDbEntity
  8
0
  6
Continuous
 62
     7
370
    25
100
AcDbLine
 10
122.4001838234
 20
46.4970959696
 30
0.0
 11
122.0466304328
 21
46.2929939416
 31
0.0
  0
LINE
  5
116
330
1F
100
AcDbEntity
  8
0
  6
Continuous
 62
     7
370
    25
100
AcDbLine
 10
143.8962299715
 20
34.0876926699
 30
0.0
 11
122.4001838234
 21
46.4970959696
 31
0.0
  0
LINE
  5
117
330
1F
100
AcDbEntity
  8
0
  6
Continuous
 62
     7
370
    25
100
AcDbLine
 10
94.3987552884
 20
2.6559803647
 30
0.0
 11
143.8962299715
 21
31.2302642785
 31
0.0
  0
LINE
  5
118
330
1F
100
AcDbEntity
  8
0
  6
Continuous
 62
     7
370
    25
100
AcDbLine
 10
67.952961672
 20
15.0653836644
 30
0.0
 11
89.4490078201
 21
2.6559803647
 31
0.0
  0
LINE
  5
119
330
1F
100
AcDbEntity
  8
0
  6
Continuous
 62
     7
370
    25
100
AcDbLine
 10
68.3065150626
 20
15.2694856923
 30
0.0
 11
67.952961672
 21
15.0653836644
 31
0.0
  0
LINE
  5
11A
330
1F
100
AcDbEntity
  8
0
  6
Continuous
 62
     7
370
    25
100
AcDbLine
 10
89.8025612107
 20
2.8600823926
 30
0.0
 11
68.3065150626
 21
15.2694856923
 31
0.0
  0
LINE
  5
11B
330
1F
100
AcDbEntity
  8
0
  6
Continuous
 62
     7
370
    25
100
AcDbLine
 10
143.5426765809
 20
31.4343663064
 30
0.0
 11
94.0452018978
 21
2.8600823926
 31
0.0
  0
LINE
  5
11C
330
1F
100
AcDbEntity
  8
0
  6
Continuous
 62
     7
370
    25
100
AcDbLine
 10
122.0466304328
 20
46.2929939416
 30
0.0
 11
143.5426765809
 21
33.8835906419
 31
0.0
  0
LINE
  5
11D
330
1F
100
AcDbEntity
  8
0
  6
Continuous
 62
     7
370
    25
100
AcDbLine
 10
144.9568901432
 20
29.3931469768
 30
0.0
 11
95.4594154602
 21
0.818863063
 31
0.0
  0
LINE
  5
11E
330
1F
100
AcDbEntity
  8
0
  6
Continuous
 62
     7
370
    25
100
AcDbLine
 10
88.3883476483
 20
0.818863063
 30
0.0
 11
66.8923015002
 21
13.2282663627
 31
0.0
  0
LINE
  5
11F
330
1F
100
AcDbEntity
  8
0
  6
Continuous
 62
     7
370
    25
100
AcDbLine
 10
144.9568901432
 20
29.3931469768
 30
0.0
 11
144.9568901432
 21
14.2871419569
 31
0.0
  0
LINE
  5
120
330
1F
100
AcDbEntity
  8
0
  6
Continuous
 62
     7
370
    25
100
AcDbLine
 10
144.9568901432
 20
14.2871419569
 30
0.0
 11
95.4594154602
 21
-14.2871419569
 31
0.0
  0
LINE
  5
121
330
1F
100
AcDbEntity
  8
0
  6
Continuous
 62
     7
370
    25
100
AcDbLine
 10
66.8923015002
 20
13.2282663627
 30
0.0
 11
66.8923015002
 21
2.2049654022
 31
0.0
  0
LINE
  5
122
330
1F
100
AcDbEntity
  8
0
  6
Continuous
 62
     7
370
    25
100
AcDbLine
 10
67.1751442127
 20
-2.0410202796
 30
0.0
 11
88.3883476483
 21
-14.2871419569
 31
0.0
  0
LINE
  5
123
330
1F
100
AcDbEntity
  8
0
  6
Continuous
 62
     7
370
    25
100
AcDbLine
 10
142.4820164091
 20
32.0464733402
 30
0.0
 11
120.985970261
 21
44.4558766399
 31
0.0
  0
LINE
  5
124
330
1F
100
AcDbEntity
  8
0
  6
Continuous
 62
     7
370
    25
100
AcDbLine
 10
120.985970261
 20
33.2445230701
 30
0.0
 11
133.3928457007
 21
26.0821863334
 31
0.0
  0
LINE
  5
125
330
1F
100
AcDbEntity
  8
0
  6
Continuous
 62
     7
370
    25
100
AcDbLine
 10
120.985970261
 20
44.4558766399
 30
0.0
 11
120.985970261
 21
33.2445230701
 31
0.0
  0
LINE
  5
126
330
1F
100
AcDbEntity
  8
0
  6
Continuous
 62
     7
370
    25
100
AcDbLine
 10
132.4950615138
 20
25.5639065542
 30
0.0
 11
45.9619407771
 21
75.5184138439
 31
0.0
  0
LINE
  5
127
330
1F
100
AcDbEntity
  8
0
  6
Continuous
 62
     7
370
    25
100
AcDbLine
 10
27.2236110757
 20
26.1896738932
 30
0.0
 11
27.2236110757
 21
25.5134169948
 31
0.0
  0
LINE
  5
128
330
1F
100
AcDbEntity
  8
0
  6
Continuous
 62
     7
370
    25
100
AcDbLine
 10
40.0222438152
 20
66.4562838027
 30
0.0
 11
40.0222438152
 21
62.3735797433
 31
0.0
  0
LINE
  5
129
330
1F
100
AcDbEntity
  8
0
  6
Continuous
 62
     7
370
    25
100
AcDbLine
 10
40.0222438152
 20
62.3735797433
 30
0.0
 11
104.509807589
 21
25.1457015943
 31
0.0
  0
LINE
  5
12A
330
1F
100
AcDbEntity
  8
0
  6
Continuous
 62
     7
370
    25
100
AcDbLine
 10
9.545941546
 20
43.066191399
 30
0.0
 11
9.545941546
 21
37.3506711159
 31
0.0
  0
LINE
  5
12B
330
1F
100
AcDbEntity
  8
0
  6
Continuous
 62
     7
370
    25
100
AcDbLine
 10
9.545941546
 20
37.3506711159
 30
0.0
 11
28.0515308503
 21
26.6676218057
 31
0.0
  0
LINE
  5
12C
330
1F
100
AcDbEntity
  8
0
  6
Continuous
 62
     7
370
    25
100
AcDbLine
 10
9.545941546
 20
37.3506711159
 30
0.0
 11
8.7180217714
 21
36.8727232034
 31
0.0
  0
LINE
  5
12D
330
1F
100
AcDbEntity
  8
0
  6
Continuous
 62
     7
370
    25
100
AcDbLine
 10
-7.0710678119
 20
40.8204055911
 30
0.0
 11
-5.0004063698
 21
39.6250381848
 31
0.0
  0
LINE
  5
12E
330
1F
100
AcDbEntity
  8
0
  6
Continuous
 62
     7
370
    25
100
AcDbLine
 10
40.0222438152
 20
62.3735797433
 30
0.0
 11
15.6983452127
 21
48.3316919701
 31
0.0
  0
LINE
  5
12F
330
1F
100
AcDbEntity
  8
0
  6
Continuous
 62
     7
370
    25
100
AcDbLine
 10
142.4820164091
 20
32.0464733402
 30
0.0
 11
142.4820164091
 21
31.3292528964
 31
0.0
  0
LINE
  5
130
330
1F
100
AcDbEntity
  8
0
  6
Continuous
 62
     7
370
    25
100
AcDbLine
 10
30.1731959961
 20
27.8924330235
 30
0.0
 11
9.545941546
 21
39.8002935515
 31
0.0
  0
LINE
  5
131
330
1F
100
AcDbEntity
  8
0
  6
Continuous
 62
     7
370
    25
100
AcDbLine
 10
9.545941546
 20
39.8002935515
 30
0.0
 11
6.5963566257
 21
38.0975344213
 31
0.0
  0
ARC
  5
132
330
1F
100
AcDbEntity
  8
0
  6
Continuous
 62
     7
370
    25
100
AcDbCircle
 10
67.952961672
 20
13.8405724466
 30
0.0
 40
1.499999999999972
100
AcDbArc
 50
119.9973117336
 51
180.0
  0
ARC
  5
133
330
1F
100
AcDbEntity
  8
0
  6
Continuous
 62
     7
370
    25
100
AcDbCircle
 10
68.3065150626
 20
14.0446744745
 30
0.0
 40
1.49999999999997
100
AcDbArc
 50
60.0026882663
 51
119.9973117337
  0
ARC
  5
134
330
1F
100
AcDbEntity
  8
0
  6
Continuous
 62
     7
370
    25
100
AcDbCircle
 10
-60.1040764009
 20
2.0410202796
 30
0.0
 40
5.000000000000066
100
AcDbArc
 50
119.9973117337
 51
180.0
  0
ARC
  5
135
330
1F
100
AcDbEntity
  8
0
  6
Continuous
 62
     7
370
    25
100
AcDbCircle
 10
122.0466304328
 20
45.0681827238
 30
0.0
 40
1.499999999999986
100
AcDbArc
 50
119.9973117336
 51
180.0
  0
ARC
  5
136
330
1F
100
AcDbEntity
  8
0
  6
Continuous
 62
     7
370
    25
100
AcDbCircle
 10
122.4001838234
 20
45.2722847517
 30
0.0
 40
1.500000000000018
100
AcDbArc
 50
60.0026882664
 51
119.9973117337
  0
ARC
  5
137
330
1F
100
AcDbEntity
  8
0
  6
Continuous
 62
     7
370
    25
100
AcDbCircle
 10
-3.5355339059
 20
42.8614258707
 30
0.0
 40
5.000000000000021
100
AcDbArc
 50
119.9973117336
 51
180.0
  0
ARC
  5
138
330
1F
100
AcDbEntity
  8
0
  6
Continuous
 62
     7
370
    25
100
AcDbCircle
 10
45.9619407771
 20
71.4357097845
 30
0.0
 40
4.99999999999994
100
AcDbArc
 50
60.0026882663
 51
119.9973117337
  0
ARC
  5
139
330
1F
100
AcDbEntity
  8
0
  6
Continuous
 62
     7
370
    25
100
AcDbCircle
 10
67.2036472658
 20
2.8921310515
 30
0.0
 40
0.7544089177406254
100
AcDbArc
 50
185.6947992512
 51
245.6253417064
  0
ARC
  5
13A
330
1F
100
AcDbEntity
  8
0
  6
Continuous
 62
     7
370
    25
100
AcDbCircle
 10
-0.605012695
 20
-37.0876692933
 30
0.0
 40
7.684024037860318
100
AcDbArc
 50
2.6054784857
 51
57.39452166
  0
ARC
  5
13B
330
1F
100
AcDbEntity
  8
0
  6
Continuous
 62
     7
370
    25
100
AcDbCircle
 10
7.6760805068
 20
-37.0876692933
 30
0.0
 40
7.684024037860297
100
AcDbArc
 50
122.60547834
 51
177.3945215143
  0
ARC
  5
13C
330
1F
100
AcDbEntity
  8
0
  6
Continuous
 62
     7
370
    25
100
AcDbCircle
 10
3.5355339059
 20
-29.9148096072
 30
0.0
 40
7.685109539558571
100
AcDbArc
 50
242.6096722366
 51
297.3903277634
  0
ARC
  5
13D
330
1F
100
AcDbEntity
  8
0
  6
Continuous
 62
     7
370
    25
100
AcDbCircle
 10
59.4990637059
 20
-2.3903245409
 30
0.0
 40
7.684024037860464
100
AcDbArc
 50
2.6054784857
 51
57.39452166
  0
ARC
  5
13E
330
1F
100
AcDbEntity
  8
0
  6
Continuous
 62
     7
370
    25
100
AcDbCircle
 10
-55.9635298
 20
-0.3493042613
 30
0.0
 40
7.684024037860348
100
AcDbArc
 50
122.60547834
 51
177.3945215143
  0
ARC
  5
13F
330
1F
100
AcDbEntity
  8
0
  6
Continuous
 62
     7
370
    25
100
AcDbCircle
 10
3.5355339059
 20
-25.2958952704
 30
0.0
 40
4.611065723735298
100
AcDbArc
 50
242.6096722366
 51
297.3903277634
  0
ARC
  5
140
330
1F
100
AcDbEntity
  8
0
  6
Continuous
 62
     7
370
    25
100
AcDbCircle
 10
3.5355166631
 20
-33.4327502187
 30
0.0
 40
4.565134520195053
100
AcDbArc
 50
62.3103316553
 51
117.6842916662
  0
ARC
  5
141
330
1F
100
AcDbEntity
  8
0
  6
Continuous
 62
     7
370
    25
100
AcDbCircle
 10
3.5355339059
 20
-32.2094561509
 30
0.0
 40
2.461885005807064
100
AcDbArc
 50
73.4647776667
 51
106.5352223333
  0
ARC
  5
142
330
1F
100
AcDbEntity
  8
0
  6
Continuous
 62
     7
370
    25
100
AcDbCircle
 10
91.9238815543
 20
7.6424184878
 30
0.0
 40
7.685109539558518
100
AcDbArc
 50
242.6096722366
 51
297.3903277634
  0
ARC
  5
143
330
1F
100
AcDbEntity
  8
0
  6
Continuous
 62
     7
370
    25
100
AcDbCircle
 10
90.6911718004
 20
0.7140717846
 30
0.0
 40
2.305207211358055
100
AcDbArc
 50
122.60547834
 51
177.3945215143
  0
ARC
  5
144
330
1F
100
AcDbEntity
  8
0
  6
Continuous
 62
     7
370
    25
100
AcDbCircle
 10
91.9238815543
 20
7.432469162
 30
0.0
 40
5.379576677691047
100
AcDbArc
 50
242.6096722366
 51
297.3903277634
  0
ARC
  5
145
330
1F
100
AcDbEntity
  8
0
  6
Continuous
 62
     7
370
    25
100
AcDbCircle
 10
93.1565913081
 20
0.7140717846
 30
0.0
 40
2.305207211358054
100
AcDbArc
 50
2.6054784857
 51
57.39452166
  0
ARC
  5
146
330
1F
100
AcDbEntity
  8
0
  6
Continuous
 62
     7
370
    25
100
AcDbCircle
 10
91.9238815543
 20
-7.4635865321
 30
0.0
 40
7.685109539558602
100
AcDbArc
 50
242.6096722366
 51
297.3903277634
  0
ARC
  5
147
330
1F
100
AcDbEntity
  8
0
  6
Continuous
 62
     7
370
    25
100
AcDbCircle
 10
143.3539853777
 20
32.6589784742
 30
0.0
 40
1.528153608919973
100
AcDbArc
 50
290.7834207995
 51
69.2165792005
  0
ARC
  5
148
330
1F
100
AcDbEntity
  8
0
  6
Continuous
 62
     7
370
    25
100
AcDbCircle
 10
91.9238815543
 20
6.9542156475
 30
0.0
 40
4.611065723735171
100
AcDbArc
 50
242.6096722366
 51
297.3903277634
  0
ARC
  5
149
330
1F
100
AcDbEntity
  8
0
  6
Continuous
 62
     7
370
    25
100
AcDbCircle
 10
143.0778955005
 20
32.6589784742
 30
0.0
 40
1.309845950502817
100
AcDbArc
 50
290.7834207995
 51
69.2165792005
  0
ARC
  5
14A
330
1F
100
AcDbEntity
  8
0
  6
Continuous
 62
     7
370
    25
100
AcDbCircle
 10
142.6540659912
 20
29.2883556984
 30
0.0
 40
2.305207211358004
100
AcDbArc
 50
2.6054784857
 51
57.39452166
  0
ARC
  5
14B
330
1F
100
AcDbEntity
  8
0
  6
Continuous
 62
     7
370
    25
100
AcDbCircle
 10
69.1951256523
 20
13.1234750843
 30
0.0
 40
2.305207211358161
100
AcDbArc
 50
122.60547834
 51
177.3945215143
  0
ARC
  5
14C
330
1F
100
AcDbEntity
  8
0
  6
Continuous
 62
     7
370
    25
100
AcDbCircle
 10
93.0283702244
 20
-10.3371157049
 30
0.0
 40
14.9056665470608
100
AcDbArc
 50
79.6510833172
 51
106.5264513048
  0
ARC
  5
14D
330
1F
100
AcDbEntity
  8
0
  6
Continuous
 62
     7
370
    25
100
AcDbCircle
 10
-57.5179749769
 20
6.123724339
 30
0.0
 40
1.309845950502811
100
AcDbArc
 50
110.7834207995
 51
249.2165792005
  0
ARC
  5
14E
330
1F
100
AcDbEntity
  8
0
  6
Continuous
 62
     7
370
    25
100
AcDbCircle
 10
-55.8614357137
 20
0.8399963048
 30
0.0
 40
4.579666224874614
100
AcDbArc
 50
62.4108094414
 51
117.5891905586
  0
ARC
  5
14F
330
1F
100
AcDbEntity
  8
0
  6
Continuous
 62
     7
370
    25
100
AcDbCircle
 10
-62.6017910884
 20
2.2905521641
 30
0.0
 40
2.514696392468861
100
AcDbArc
 50
185.6947992512
 51
245.6253417064
  0
ARC
  5
150
330
1F
100
AcDbEntity
  8
0
  6
Continuous
 62
     7
370
    25
100
AcDbCircle
 10
-55.8614357137
 20
2.073986041
 30
0.0
 40
2.467348381560775
100
AcDbArc
 50
73.5024389565
 51
106.4975610435
  0
ARC
  5
151
330
1F
100
AcDbEntity
  8
0
  6
Continuous
 62
     7
370
    25
100
AcDbCircle
 10
3.3109682062
 20
32.7497591821
 30
0.0
 40
10.11482335997276
100
AcDbArc
 50
88.7278350179
 51
118.1695410965
  0
ARC
  5
152
330
1F
100
AcDbEntity
  8
0
  6
Continuous
 62
     7
370
    25
100
AcDbCircle
 10
143.9190709249
 20
16.5776941209
 30
0.0
 40
2.514696392468871
100
AcDbArc
 50
294.3746582936
 51
354.3052007488
  0
ARC
  5
153
330
1F
100
AcDbEntity
  8
0
  6
Continuous
 62
     7
370
    25
100
AcDbCircle
 10
144.7848405611
 20
31.9416820618
 30
0.0
 40
2.305207211358088
100
AcDbArc
 50
122.60547834
 51
177.3945215143
  0
ARC
  5
154
330
1F
100
AcDbEntity
  8
0
  6
Continuous
 62
     7
370
    25
100
AcDbCircle
 10
123.2887944131
 20
44.3510853615
 30
0.0
 40
2.305207211358102
100
AcDbArc
 50
122.60547834
 51
177.3945215143
  0
ARC
  5
155
330
1F
100
AcDbEntity
  8
0
  6
Continuous
 62
     7
370
    25
100
AcDbCircle
 10
33.5061100213
 20
25.1073440773
 30
0.0
 40
4.080722601676717
100
AcDbArc
 50
88.8561477521
 51
118.0412283624
  0
ARC
  5
156
330
1F
100
AcDbEntity
  8
0
  6
Continuous
 62
     7
370
    25
100
AcDbCircle
 10
3.2634426004
 20
35.3124454751
 30
0.0
 40
4.080722601676689
100
AcDbArc
 50
61.9587716376
 51
91.1438522479
  0
ARC
  5
157
330
1F
100
AcDbEntity
  8
0
  6
Continuous
 62
     7
370
    25
100
AcDbCircle
 10
0.605012695
 20
40.4711013298
 30
0.0
 40
7.684024037860524
100
AcDbArc
 50
122.60547834
 51
177.3945215143
  0
ARC
  5
158
330
1F
100
AcDbEntity
  8
0
  6
Continuous
 62
     7
370
    25
100
AcDbCircle
 10
-0.949432482
 20
46.9441299301
 30
0.0
 40
1.309845950502818
100
AcDbArc
 50
110.7834207995
 51
249.2165792005
  0
ARC
  5
159
330
1F
100
AcDbEntity
  8
0
  6
Continuous
 62
     7
370
    25
100
AcDbCircle
 10
0.7071067812
 20
41.6604018959
 30
0.0
 40
4.579666224874605
100
AcDbArc
 50
62.4108094414
 51
117.5891905586
  0
ARC
  5
15A
330
1F
100
AcDbEntity
  8
0
  6
Continuous
 62
     7
370
    25
100
AcDbCircle
 10
-6.0332485935
 20
43.1109577552
 30
0.0
 40
2.514696392468915
100
AcDbArc
 50
185.6947992512
 51
245.6253417064
  0
ARC
  5
15B
330
1F
100
AcDbEntity
  8
0
  6
Continuous
 62
     7
370
    25
100
AcDbCircle
 10
0.7071067812
 20
42.8943916321
 30
0.0
 40
2.467348381566457
100
AcDbArc
 50
73.5024389571
 51
106.4975610429
  0
ARC
  5
15C
330
1F
100
AcDbEntity
  8
0
  6
Continuous
 62
     7
370
    25
100
AcDbCircle
 10
8.1727162217
 20
40.5076521864
 30
0.0
 40
3.776720169304076
100
AcDbArc
 50
280.4195759146
 51
297.1726747278
  0
ARC
  5
15D
330
1F
100
AcDbEntity
  8
0
  6
Continuous
 62
     7
370
    25
100
AcDbCircle
 10
45.9658607814
 20
61.8896758012
 30
0.0
 40
2.79933918358869
100
AcDbArc
 50
215.7602291381
 51
264.2451473946
  0
ARC
  5
15E
330
1F
100
AcDbEntity
  8
0
  6
Continuous
 62
     7
370
    25
100
AcDbCircle
 10
45.9619407771
 20
70.1996684213
 30
0.0
 40
4.611065723735134
100
AcDbArc
 50
62.6096722366
 51
117.3903277634
  0
ARC
  5
15F
330
1F
100
AcDbEntity
  8
0
  6
Continuous
 62
     7
370
    25
100
AcDbCircle
 10
45.9619235343
 20
67.8018556473
 30
0.0
 40
4.56513452019522
100
AcDbArc
 50
62.3103316553
 51
117.6842916662
  0
ARC
  5
160
330
1F
100
AcDbEntity
  8
0
  6
Continuous
 62
     7
370
    25
100
AcDbCircle
 10
45.9619407771
 20
69.0251497151
 30
0.0
 40
2.461885005809391
100
AcDbArc
 50
73.464777667
 51
106.5352223331
  0
ARC
  5
161
330
1F
100
AcDbEntity
  8
0
  6
Continuous
 62
     7
370
    25
100
AcDbCircle
 10
90.2420851656
 20
2.2463597924
 30
0.0
 40
0.7548753121994342
100
AcDbArc
 50
65.7941912636
 51
125.6087467829
  0
ARC
  5
162
330
1F
100
AcDbEntity
  8
0
  6
Continuous
 62
     7
370
    25
100
AcDbCircle
 10
93.605575848
 20
2.246075494
 30
0.0
 40
0.7551658991505266
100
AcDbArc
 50
54.397514735
 51
114.1340546531
  0
ARC
  5
163
330
1F
100
AcDbEntity
  8
0
  6
Continuous
 62
     7
370
    25
100
AcDbCircle
 10
143.1032964986
 20
30.8210443128
 30
0.0
 40
0.7544658538527025
100
AcDbArc
 50
54.3824225248
 51
114.3071190461
  0
ARC
  5
164
330
1F
100
AcDbEntity
  8
0
  6
Continuous
 62
     7
370
    25
100
AcDbCircle
 10
68.7458951449
 20
14.6561636987
 30
0.0
 40
0.7544658538526618
100
AcDbArc
 50
65.6928809539
 51
125.6175774752
  0
ARC
  5
165
330
1F
100
AcDbEntity
  8
0
  6
Continuous
 62
     7
370
    25
100
AcDbCircle
 10
67.5135815898
 20
14.4520616707
 30
0.0
 40
0.7544658538526957
100
AcDbArc
 50
54.3824225248
 51
114.3071190461
  0
ARC
  5
166
330
1F
100
AcDbEntity
  8
0
  6
Continuous
 62
     7
370
    25
100
AcDbCircle
 10
67.2036472658
 20
13.9154320119
 30
0.0
 40
0.7544089177406381
100
AcDbArc
 50
185.6947992512
 51
245.6253417064
  0
ARC
  5
167
330
1F
100
AcDbEntity
  8
0
  6
Continuous
 62
     7
370
    25
100
AcDbCircle
 10
67.8671349803
 20
14.6561636987
 30
0.0
 40
0.75446585385267
100
AcDbArc
 50
54.3824225248
 51
114.3071190461
  0
ARC
  5
168
330
1F
100
AcDbEntity
  8
0
  6
Continuous
 62
     7
370
    25
100
AcDbCircle
 10
-61.5686766751
 20
4.0793176934
 30
0.0
 40
2.514886179509003
100
AcDbArc
 50
54.3824225248
 51
114.3071190461
  0
ARC
  5
169
330
1F
100
AcDbEntity
  8
0
  6
Continuous
 62
     7
370
    25
100
AcDbCircle
 10
143.9676379567
 20
31.6483763263
 30
0.0
 40
2.462656960938608
100
AcDbArc
 50
293.6845700891
 51
355.1151435721
  0
ARC
  5
16A
330
1F
100
AcDbEntity
  8
0
  6
Continuous
 62
     7
370
    25
100
AcDbCircle
 10
144.3358936702
 20
33.4735809278
 30
0.0
 40
0.7552730630323068
100
AcDbArc
 50
65.8923769689
 51
125.6001772681
  0
ARC
  5
16B
330
1F
100
AcDbEntity
  8
0
  6
Continuous
 62
     7
370
    25
100
AcDbCircle
 10
142.1309472424
 20
31.3125111331
 30
0.0
 40
0.8136031472484335
100
AcDbArc
 50
18.3792844849
 51
64.4372545314
  0
ARC
  5
16C
330
1F
100
AcDbEntity
  8
0
  6
Continuous
 62
     7
370
    25
100
AcDbCircle
 10
122.8395639057
 20
45.8837739759
 30
0.0
 40
0.75446585385269
100
AcDbArc
 50
65.6928809539
 51
125.6175774752
  0
ARC
  5
16D
330
1F
100
AcDbEntity
  8
0
  6
Continuous
 62
     7
370
    25
100
AcDbCircle
 10
47.4265410514
 20
73.4740071983
 30
0.0
 40
2.514886179509003
100
AcDbArc
 50
65.6928809539
 51
125.6175774752
  0
ARC
  5
16E
330
1F
100
AcDbEntity
  8
0
  6
Continuous
 62
     7
370
    25
100
AcDbCircle
 10
121.2973160265
 20
45.1430422891
 30
0.0
 40
0.7544089177406988
100
AcDbArc
 50
185.6947992512
 51
245.6253417064
  0
ARC
  5
16F
330
1F
100
AcDbEntity
  8
0
  6
Continuous
 62
     7
370
    25
100
AcDbCircle
 10
121.6072503505
 20
45.6796719479
 30
0.0
 40
0.7544658538527076
100
AcDbArc
 50
54.3824225248
 51
114.3071190461
  0
ARC
  5
170
330
1F
100
AcDbEntity
  8
0
  6
Continuous
 62
     7
370
    25
100
AcDbCircle
 10
121.9608037411
 20
45.8837739759
 30
0.0
 40
0.7544658538527029
100
AcDbArc
 50
54.3824225248
 51
114.3071190461
  0
ARC
  5
171
330
1F
100
AcDbEntity
  8
0
  6
Continuous
 62
     7
370
    25
100
AcDbCircle
 10
-5.0001341802
 20
44.8997232845
 30
0.0
 40
2.514886179508944
100
AcDbArc
 50
54.3824225248
 51
114.3071190461
  0
ARC
  5
172
330
1F
100
AcDbEntity
  8
0
  6
Continuous
 62
     7
370
    25
100
AcDbCircle
 10
44.4973405029
 20
73.4740071983
 30
0.0
 40
2.514886179508968
100
AcDbArc
 50
54.3824225248
 51
114.3071190461
  0
ENDSEC
  0
SECTION
  2
OBJECTS
  0
DICTIONARY
  5
C
330
0
100
AcDbDictionary
281
     1
  3
ACAD_GROUP
350
D
  3
ACAD_LAYOUT
350
1A
  3
ACAD_MLINESTYLE
350
17
  3
ACAD_PLOTSETTINGS
350
19
  3
ACAD_PLOTSTYLENAME
350
E
  3
ACAD_SCALELIST
350
47
  3
DWGPROPS
350
173
  0
DICTIONARY
  5
D
102
{ACAD_REACTORS
330
C
102
}
330
C
100
AcDbDictionary
281
     1
  0
DICTIONARY
  5
1A
102
{ACAD_REACTORS
330
C
102
}
330
C
100
AcDbDictionary
281
     1
  3
Layout1
350
1E
  3
Layout2
350
26
  3
Model
350
22
  0
DICTIONARY
  5
17
102
{ACAD_REACTORS
330
C
102
}
330
C
100
AcDbDictionary
281
     1
  3
Standard
350
18
  0
DICTIONARY
  5
19
102
{ACAD_REACTORS
330
C
102
}
330
C
100
AcDbDictionary
281
     1
  0
ACDBDICTIONARYWDFLT
  5
E
102
{ACAD_REACTORS
330
C
102
}
330
C
100
AcDbDictionary
281
     1
  3
Normal
350
F
100
AcDbDictionaryWithDefault
340
F
  0
DICTIONARY
  5
47
102
{ACAD_REACTORS
330
C
102
}
330
C
100
AcDbDictionary
281
     1
  3
A0
350
48
  3
A1
350
49
  3
A2
350
4A
  3
A3
350
4B
  3
A4
350
4C
  3
A5
350
4D
  3
A6
350
4E
  3
A7
350
4F
  3
A8
350
50
  3
A9
350
51
  3
B0
350
52
  3
B1
350
53
  3
B2
350
54
  3
B3
350
55
  3
B4
350
56
  3
B5
350
57
  3
B6
350
58
  0
XRECORD
  5
173
102
{ACAD_REACTORS
330
C
102
}
330
C
100
AcDbXrecord
280
     1
  1
DWGPROPS COOKIE
  2

  3

  4

  6

  7

  8
lenovo
  9

300
=
301
=
302
=
303
=
304
=
305
=
306
=
307
=
308
=
309
=
 40
0.0
 41
2460606.571883959
 42
2460606.571910741
  1

 90
        0
  0
LAYOUT
  5
1E
102
{ACAD_REACTORS
330
1A
102
}
330
1A
100
AcDbPlotSettings
  1

  2
none_device
  4

  6

 40
0.0
 41
0.0
 42
0.0
 43
0.0
 44
0.0
 45
0.0
 46
0.0
 47
0.0
 48
0.0
 49
0.0
140
0.0
141
0.0
142
1.0
143
1.0
 70
   688
 72
     1
 73
     0
 74
     5
  7

 75
    16
147
1.0
148
0.0
149
0.0
100
AcDbLayout
  1
Layout1
 70
     1
 71
     1
 10
0.0
 20
0.0
 11
420.0
 21
297.0
 12
0.0
 22
0.0
 32
0.0
 14
1.0000000000E+20
 24
1.0000000000E+20
 34
1.0000000000E+20
 15
-1.0000000000E+20
 25
-1.0000000000E+20
 35
-1.0000000000E+20
146
0.0
 13
0.0
 23
0.0
 33
0.0
 16
1.0
 26
0.0
 36
0.0
 17
0.0
 27
1.0
 37
0.0
 76
     0
330
1B
  0
LAYOUT
  5
26
102
{ACAD_REACTORS
330
1A
102
}
330
1A
100
AcDbPlotSettings
  1

  2
none_device
  4

  6

 40
0.0
 41
0.0
 42
0.0
 43
0.0
 44
0.0
 45
0.0
 46
0.0
 47
0.0
 48
0.0
 49
0.0
140
0.0
141
0.0
142
1.0
143
1.0
 70
   688
 72
     1
 73
     0
 74
     5
  7

 75
    16
147
1.0
148
0.0
149
0.0
100
AcDbLayout
  1
Layout2
 70
     1
 71
     2
 10
0.0
 20
0.0
 11
0.0
 21
0.0
 12
0.0
 22
0.0
 32
0.0
 14
0.0
 24
0.0
 34
0.0
 15
0.0
 25
0.0
 35
0.0
146
0.0
 13
0.0
 23
0.0
 33
0.0
 16
1.0
 26
0.0
 36
0.0
 17
0.0
 27
1.0
 37
0.0
 76
     0
330
23
  0
LAYOUT
  5
22
102
{ACAD_REACTORS
330
1A
102
}
330
1A
100
AcDbPlotSettings
  1

  2
none_device
  4
ANSI_A_(11.00_x_8.50_Inches)
  6

 40
6.35
 41
19.05
 42
6.35000508
 43
19.05000254
 44
279.4
 45
215.9
 46
80.1818104815
 47
63.5077502161
 48
0.0
 49
0.0
140
0.0
141
0.0
142
0.0514831709
143
1.0
 70
  1696
 72
     0
 73
     0
 74
     0
  7

 75
     0
147
0.0179189148
148
-1300.4909072572
149
0.0
100
AcDbLayout
  1
Model
 70
     1
 71
     0
 10
0.0
 20
0.0
 11
420.0
 21
297.0
 12
0.0
 22
0.0
 32
0.0
 14
-65.1040764009
 24
-37.5999191468
 34
0.0
 15
146.4213562373
 25
76.4357097845
 35
0.0
146
0.0
 13
0.0
 23
0.0
 33
0.0
 16
1.0
 26
0.0
 36
0.0
 17
0.0
 27
1.0
 37
0.0
 76
     0
330
1F
331
29
  0
MLINESTYLE
  5
18
102
{ACAD_REACTORS
330
17
102
}
330
17
100
AcDbMlineStyle
  2
Standard
 70
     0
  3

 62
   256
 51
90.0
 52
90.0
 71
     2
 49
0.5
 62
   256
  6
BYLAYER
 49
-0.5
 62
   256
  6
BYLAYER
  0
ACDBPLACEHOLDER
  5
F
102
{ACAD_REACTORS
330
E
102
}
330
E
  0
SCALE
  5
48
102
{ACAD_REACTORS
330
47
102
}
330
47
100
AcDbScale
 70
     0
300
1:1
140
1.0
141
1.0
290
     1
  0
SCALE
  5
49
102
{ACAD_REACTORS
330
47
102
}
330
47
100
AcDbScale
 70
     0
300
1:2
140
1.0
141
2.0
290
     0
  0
SCALE
  5
4A
102
{ACAD_REACTORS
330
47
102
}
330
47
100
AcDbScale
 70
     0
300
1:4
140
1.0
141
4.0
290
     0
  0
SCALE
  5
4B
102
{ACAD_REACTORS
330
47
102
}
330
47
100
AcDbScale
 70
     0
300
1:5
140
1.0
141
5.0
290
     0
  0
SCALE
  5
4C
102
{ACAD_REACTORS
330
47
102
}
330
47
100
AcDbScale
 70
     0
300
1:8
140
1.0
141
8.0
290
     0
  0
SCALE
  5
4D
102
{ACAD_REACTORS
330
47
102
}
330
47
100
AcDbScale
 70
     0
300
1:10
140
1.0
141
10.0
290
     0
  0
SCALE
  5
4E
102
{ACAD_REACTORS
330
47
102
}
330
47
100
AcDbScale
 70
     0
300
1:16
140
1.0
141
16.0
290
     0
  0
SCALE
  5
4F
102
{ACAD_REACTORS
330
47
102
}
330
47
100
AcDbScale
 70
     0
300
1:20
140
1.0
141
20.0
290
     0
  0
SCALE
  5
50
102
{ACAD_REACTORS
330
47
102
}
330
47
100
AcDbScale
 70
     0
300
1:30
140
1.0
141
30.0
290
     0
  0
SCALE
  5
51
102
{ACAD_REACTORS
330
47
102
}
330
47
100
AcDbScale
 70
     0
300
1:40
140
1.0
141
40.0
290
     0
  0
SCALE
  5
52
102
{ACAD_REACTORS
330
47
102
}
330
47
100
AcDbScale
 70
     0
300
1:50
140
1.0
141
50.0
290
     0
  0
SCALE
  5
53
102
{ACAD_REACTORS
330
47
102
}
330
47
100
AcDbScale
 70
     0
300
1:100
140
1.0
141
100.0
290
     0
  0
SCALE
  5
54
102
{ACAD_REACTORS
330
47
102
}
330
47
100
AcDbScale
 70
     0
300
2:1
140
2.0
141
1.0
290
     0
  0
SCALE
  5
55
102
{ACAD_REACTORS
330
47
102
}
330
47
100
AcDbScale
 70
     0
300
4:1
140
4.0
141
1.0
290
     0
  0
SCALE
  5
56
102
{ACAD_REACTORS
330
47
102
}
330
47
100
AcDbScale
 70
     0
300
8:1
140
8.0
141
1.0
290
     0
  0
SCALE
  5
57
102
{ACAD_REACTORS
330
47
102
}
330
47
100
AcDbScale
 70
     0
300
10:1
140
10.0
141
1.0
290
     0
  0
SCALE
  5
58
102
{ACAD_REACTORS
330
47
102
}
330
47
100
AcDbScale
 70
     0
300
100:1
140
100.0
141
1.0
290
     0
  0
ENDSEC
  0
EOF
